<?xml version="1.0" encoding="iso-8859-1"?>
<!-- Generator: Adobe Illustrator 16.0.0, SVG Export Plug-In . SVG Version: 6.00 Build 0)  -->
<!DOCTYPE svg PUBLIC "-//W3C//DTD SVG 1.1//EN" "http://www.w3.org/Graphics/SVG/1.1/DTD/svg11.dtd">
<svg version="1.1" id="Layer_1" xmlns="http://www.w3.org/2000/svg" xmlns:xlink="http://www.w3.org/1999/xlink" x="0px" y="0px"
	 width="65px" height="65px" viewBox="0 0 65 65" style="enable-background:new 0 0 65 65;" xml:space="preserve">
<g>
	<g>
		<g>
			<path style="fill:#0C9FDE;" d="M24.6,31.4c0.4,2.6,2.4,5.9,5.7,7.1c1.4,0.5,2.8,0.5,4.2,0c3.3-1.2,5.3-4.5,5.8-7.1
				c0.4,0,1-0.6,1.6-2.8c0.8-3-0.1-3.5-0.8-3.4c0.1-0.4,0.3-0.8,0.3-1.2c1.3-7.8-2.5-8.1-2.5-8.1s-0.6-1.2-2.3-2.1
				c-1.1-0.7-2.7-1.2-4.7-1c-0.7,0-1.3,0.2-1.9,0.4c-0.8,0.3-1.5,0.6-2.1,1.1c-0.8,0.5-1.5,1.1-2.1,1.8c-1,1-1.9,2.4-2.3,4.1
				c-0.3,1.3-0.3,2.6,0,4c0.1,0.4,0.2,0.8,0.3,1.2c-0.8-0.1-1.7,0.4-0.8,3.4C23.6,30.7,24.2,31.3,24.6,31.4L24.6,31.4z M24.6,31.4"
				/>
			<path style="fill:#0C9FDE;" d="M47.6,41.6c-4.7-1.2-8.5-3.9-8.5-3.9l-3,9.4l-0.6,1.8l0,0l-0.5,1.5l-1.6-4.4
				c3.8-5.3-0.8-5.3-1-5.3c-0.3,0-4.9-0.1-1,5.3l-1.6,4.4l-0.5-1.5l0,0l-0.6-1.8l-3-9.4c0,0-3.8,2.7-8.5,3.9
				c-3.5,0.9-3.6,4.9-3.5,6.9c0,0,0.2,2.7,0.4,3.9h36.3c0.2-1.2,0.4-3.9,0.4-3.9C51.2,46.5,51,42.5,47.6,41.6L47.6,41.6z M47.6,41.6
				"/>
		</g>
	</g>
</g>
</svg>
