<?xml version="1.0" encoding="iso-8859-1"?>
<!-- Generator: Adobe Illustrator 16.0.0, SVG Export Plug-In . SVG Version: 6.00 Build 0)  -->
<!DOCTYPE svg PUBLIC "-//W3C//DTD SVG 1.1//EN" "http://www.w3.org/Graphics/SVG/1.1/DTD/svg11.dtd">
<svg version="1.1" id="Layer_1" xmlns="http://www.w3.org/2000/svg" xmlns:xlink="http://www.w3.org/1999/xlink" x="0px" y="0px"
	 width="65px" height="65px" viewBox="0 0 65 65" style="enable-background:new 0 0 65 65;" xml:space="preserve">
<path style="fill-rule:evenodd;clip-rule:evenodd;fill:#0C9FDE;stroke:#0C9FDE;stroke-width:2;stroke-miterlimit:10;" d="M32.1,14.4
	c2.9-0.1,5.6,0.6,7.6,1.5c2.1,0.9,3.9,2.1,5.4,3.6c3,3,5.2,6.8,5.5,12.6c0.1,1.5-0.1,2.9-0.4,4.1c-0.8,3.7-2.5,6.5-4.7,8.8
	c-1.5,1.6-3.2,2.8-5.3,3.8c-2.1,1-4.5,1.6-7.3,1.7c-1.4,0.1-2.9-0.1-4.1-0.4c-2.5-0.5-4.6-1.4-6.4-2.7c-3.5-2.4-6.3-5.9-7.4-10.6
	c-0.3-1.2-0.5-2.5-0.5-4c-0.1-2.9,0.6-5.6,1.4-7.6c1.8-4.2,4.8-7.2,8.9-9.2c1-0.5,2.1-0.9,3.3-1.2C29.3,14.7,30.6,14.5,32.1,14.4z
	 M24.2,19.4c-2,1.3-3.7,3-4.9,4.9c-1.2,2-2.2,4.5-2.3,7.5c-0.2,3.3,0.7,5.8,1.8,8c3.5-2.7,7-5.4,10.5-8.2c0.2-0.2,0.6-0.4,0.7-0.6
	c0.1-0.2,0.1-0.6,0.1-0.9c0.6-4.4,1.2-8.8,1.8-13.1C28.8,17.2,26.4,18.1,24.2,19.4z M33,17.1c0.6,4.7,1.3,9.3,1.9,14
	c3.7,2.9,7.4,5.8,11.2,8.7c1.1-2.2,2-4.7,1.8-8c-0.1-3.1-1.1-5.5-2.4-7.5c-1.3-2-2.9-3.7-4.9-4.9C38.5,18.1,36.1,17.2,33,17.1
	C33,17.1,33,17.1,33,17.1z M33.3,35.7c-0.3-0.1-0.7-0.4-0.9-0.3c-0.5,0.2-1.1,0.4-1.6,0.7c-3.8,1.6-7.5,3.1-11.3,4.6
	c1.3,2,3,3.8,5.1,5.1c2.1,1.3,4.7,2.2,8,2.2c3.3,0,5.9-0.9,8-2.2c2.1-1.3,3.8-3,5.1-5.1C41.5,39,37.4,37.3,33.3,35.7z"/>
</svg>
