<?xml version="1.0" encoding="iso-8859-1"?>
<!-- Generator: Adobe Illustrator 16.0.0, SVG Export Plug-In . SVG Version: 6.00 Build 0)  -->
<!DOCTYPE svg PUBLIC "-//W3C//DTD SVG 1.1//EN" "http://www.w3.org/Graphics/SVG/1.1/DTD/svg11.dtd">
<svg version="1.1" id="Layer_1" xmlns="http://www.w3.org/2000/svg" xmlns:xlink="http://www.w3.org/1999/xlink" x="0px" y="0px"
	 width="65px" height="65px" viewBox="0 0 65 65" style="enable-background:new 0 0 65 65;" xml:space="preserve">
<g>
	<g>
		<g>
			<g>
				<path style="fill:#0C9FDE;" d="M13.9,42c0.3,1.7,1.6,3.8,3.7,4.6c0.9,0.3,1.8,0.3,2.7,0c2.1-0.8,3.4-2.9,3.7-4.6
					c0.3,0,0.7-0.4,1.1-1.8c0.5-1.9,0-2.2-0.5-2.2c0.1-0.3,0.2-0.5,0.2-0.8c0.8-5-1.6-5.2-1.6-5.2s-0.4-0.8-1.5-1.4
					c-0.7-0.4-1.7-0.8-3.1-0.6c-0.4,0-0.8,0.1-1.2,0.2c-0.5,0.2-0.9,0.4-1.3,0.7c-0.5,0.3-1,0.7-1.4,1.1c-0.7,0.7-1.2,1.5-1.5,2.6
					c-0.2,0.8-0.2,1.6,0,2.6c0,0.3,0.1,0.5,0.2,0.8c-0.5,0-1.1,0.2-0.5,2.2C13.3,41.6,13.7,42,13.9,42L13.9,42z M13.9,42"/>
				<path style="fill:#0C9FDE;" d="M28.7,48.6c-3-0.8-5.4-2.5-5.4-2.5l-1.9,6L21,53.2l0,0l-0.3,1l-1-2.9c2.5-3.4-0.5-3.4-0.7-3.4
					c-0.2,0-3.1,0-0.7,3.4l-1,2.9l-0.3-1l0,0l-0.4-1.1l-1.9-6c0,0-2.4,1.7-5.4,2.5C7,49.1,6.9,51.7,7,53c0,0,0.1,1.7,0.3,2.5h23.4
					C30.8,54.7,31,53,31,53C31,51.7,30.9,49.1,28.7,48.6L28.7,48.6z M28.7,48.6"/>
			</g>
		</g>
	</g>
	<g>
		<g>
			<g>
				<path style="fill:#0C9FDE;" d="M41,42c0.3,1.7,1.6,3.8,3.7,4.6c0.9,0.3,1.8,0.3,2.7,0c2.1-0.8,3.4-2.9,3.7-4.6
					c0.3,0,0.7-0.4,1.1-1.8c0.5-1.9,0-2.2-0.5-2.2c0.1-0.3,0.2-0.5,0.2-0.8c0.8-5-1.6-5.2-1.6-5.2s-0.4-0.8-1.5-1.4
					c-0.7-0.4-1.7-0.8-3.1-0.6c-0.4,0-0.8,0.1-1.2,0.2c-0.5,0.2-0.9,0.4-1.3,0.7c-0.5,0.3-1,0.7-1.4,1.1c-0.7,0.7-1.2,1.5-1.5,2.6
					c-0.2,0.8-0.2,1.6,0,2.6c0,0.3,0.1,0.5,0.2,0.8c-0.5,0-1.1,0.2-0.5,2.2C40.3,41.6,40.7,42,41,42L41,42z M41,42"/>
				<path style="fill:#0C9FDE;" d="M55.7,48.6c-3-0.8-5.4-2.5-5.4-2.5l-1.9,6L48,53.2l0,0l-0.3,1l-1-2.9c2.5-3.4-0.5-3.4-0.7-3.4
					c-0.2,0-3.1,0-0.7,3.4l-1,2.9l-0.3-1l0,0l-0.4-1.1l-1.9-6c0,0-2.4,1.7-5.4,2.5C34.1,49.1,34,51.7,34,53c0,0,0.1,1.7,0.3,2.5
					h23.4C57.8,54.7,58,53,58,53C58.1,51.7,57.9,49.1,55.7,48.6L55.7,48.6z M55.7,48.6"/>
			</g>
		</g>
	</g>
	<path style="fill:none;stroke:#0C9FDE;stroke-width:4;stroke-linecap:round;stroke-linejoin:round;stroke-miterlimit:10;" d="
		M46,23c0-7.5-6-13.5-13.5-13.5C25,9.5,19,15.6,19,23"/>
	
		<polygon style="fill:#0C9FDE;stroke:#0C9FDE;stroke-width:0.8531;stroke-linecap:round;stroke-linejoin:round;stroke-miterlimit:10;" points="
		23.5,19.6 19,26.4 14.4,19.6 	"/>
	
		<polygon style="fill:#0C9FDE;stroke:#0C9FDE;stroke-width:0.8531;stroke-linecap:round;stroke-linejoin:round;stroke-miterlimit:10;" points="
		50.5,19.6 46,26.4 41.5,19.6 	"/>
</g>
</svg>
