<?xml version="1.0" encoding="UTF-8"?>
<svg xmlns="http://www.w3.org/2000/svg" version="1.1" viewBox="0 0 65 65">
  <defs>
    <style>
      .cls-1 {
        fill: #009ada;
      }
    </style>
  </defs>
  <!-- Generator: Adobe Illustrator 28.6.0, SVG Export Plug-In . SVG Version: 1.2.0 Build 709)  -->
  <g>
    <g id="Layer_1">
      <path class="cls-1" d="M41.744,31.7c-.367,2.1-1.441,3.764-3.084,4.9h9.84v5H16.5v-5h8.152c-.05-.035-.102-.063-.152-.1-1.611-1.171-2.519-2.671-2.893-4.8h-10.207v21.1h42.3v-21.1h-11.956Z"/>
      <path class="cls-1" d="M33.4,13.1v2.4c1.7.2,2.8.6,3.8,1.3,1.6,1.1,2.2,2.5,2.2,5.2h-5c0-1.8-.8-2.6-2.7-2.6-1.5,0-2.4.6-2.4,1.6,0,.7.5,1.1,2,1.7.2.1.9.3,1.9.8,1.2.5,2,.8,2.5,1,.8.4,1.6.8,2.2,1.3,1.3,1,2,2.5,2,4.3,0,3.7-2.4,6-6.5,6.2v2.8h-3.2v-2.8c-2.2-.2-3.3-.6-4.5-1.4-1.6-1.2-2.3-2.8-2.3-5.8h5c.1,2.3,1.2,3.3,3.4,3.3,1.7,0,2.6-.6,2.6-1.7,0-.8-.4-1.2-2.2-2l-2.2-.9c-2.1-.9-3.3-1.5-4.3-2.3-1.1-.9-1.8-2.3-1.8-3.9,0-3.4,2.3-5.6,6.3-6.1v-2.4h3.2"/>
    </g>
  </g>
</svg>