<?xml version="1.0" encoding="UTF-8"?>
<svg id="Layer_1" data-name="Layer 1" xmlns="http://www.w3.org/2000/svg" version="1.1" viewBox="0 0 65 65">
  <defs>
    <style>
      .cls-1 {
        fill: #0c9fde;
        stroke-width: 0px;
      }
    </style>
  </defs>
  <path class="cls-1" d="M31.345,40.076h-3.541v4.911h-5.102v-4.911h-11.117v-3.692l11.155-16.828h5.063v16.676h3.541v3.845h.001ZM15.736,36.232h7.043v-10.623l-7.043,10.623Z"/>
  <path class="cls-1" d="M51.444,36.84c0,5.482-4.454,8.604-9.213,8.604-4.188,0-7.576-2.17-8.565-6.016l3.921-1.294c.609,1.979,2.17,3.273,4.416,3.273,2.398,0,4.149-1.713,4.149-4.53,0-2.856-1.637-4.569-3.959-4.569-1.751,0-3.122.838-4.149,2.361l-3.731-.648,2.208-14.466h13.973v4.454h-10.622l-.99,6.548c1.066-1.485,2.741-2.132,4.835-2.132,4.341,0,7.729,2.969,7.729,8.414h-.002Z"/>
</svg>