<?xml version="1.0" encoding="iso-8859-1"?>
<!-- Generator: Adobe Illustrator 16.0.0, SVG Export Plug-In . SVG Version: 6.00 Build 0)  -->
<!DOCTYPE svg PUBLIC "-//W3C//DTD SVG 1.1//EN" "http://www.w3.org/Graphics/SVG/1.1/DTD/svg11.dtd">
<svg version="1.1" id="Layer_1" xmlns="http://www.w3.org/2000/svg" xmlns:xlink="http://www.w3.org/1999/xlink" x="0px" y="0px"
	 width="65px" height="65px" viewBox="0 0 65 65" style="enable-background:new 0 0 65 65;" xml:space="preserve">
<path style="fill:#009ada;" d="M48.4,22.1c0-1.5-0.9-2.5-2.4-2.7l-0.6-0.1c-0.9-0.1-1.7-0.2-2.5-0.4c-2.8-0.6-5.6-1.9-8.6-4.1
	c-0.5-0.3-1-0.7-1.8-0.7s-1.3,0.4-1.8,0.7c-4.1,2.8-7.8,4.2-11.5,4.5c-1,0-2.7,0.5-2.7,2.8V26c0,2.6,0,5.1,0,7.7
	c0,1,0.1,2.1,0.4,3.3c0.6,2.6,1.9,4.9,4.1,7.1c2.7,2.7,6.1,4.9,10.5,6.5c0.3,0.1,0.6,0.2,0.9,0.2c0.4,0,0.9-0.1,1.2-0.2l1.1-0.5
	c0.9-0.4,1.8-0.8,2.8-1.3c3.5-1.8,6.1-4,8.1-6.6c1.7-2.3,2.7-4.8,2.8-7.3c0.1-1.7,0.1-3.4,0.1-5.1L48.4,22.1z M44.5,34.6
	c-0.1,1.8-0.7,3.5-2,5.2c-1.6,2.2-3.8,4-6.7,5.5c-0.8,0.4-1.7,0.8-2.5,1.2c-0.2,0.1-0.5,0.2-0.7,0.3v-14H20.4c0-2.3,0-4.6,0-6.8
	v-2.9c4-0.4,7.9-1.9,12.1-4.8v14.5h12.1C44.6,33.4,44.6,34,44.5,34.6L44.5,34.6z M44.5,34.6"/>
</svg>
