<?xml version="1.0" encoding="iso-8859-1"?>
<!-- Generator: Adobe Illustrator 16.0.0, SVG Export Plug-In . SVG Version: 6.00 Build 0)  -->
<!DOCTYPE svg PUBLIC "-//W3C//DTD SVG 1.1//EN" "http://www.w3.org/Graphics/SVG/1.1/DTD/svg11.dtd">
<svg version="1.1" id="Layer_1" xmlns="http://www.w3.org/2000/svg" xmlns:xlink="http://www.w3.org/1999/xlink" x="0px" y="0px"
	 width="65px" height="65px" viewBox="0 0 65 65" style="enable-background:new 0 0 65 65;" xml:space="preserve">
<g>
	<g>
		<g>
			<path style="fill:#0C9FDE;" d="M29.1,40c-1.1-0.7-2.6-0.4-3.3,0.7c0.7-1.1,0.4-2.6-0.7-3.3c-1.1-0.7-2.5-0.4-3.3,0.7
				c0.7-1.1,0.4-2.6-0.7-3.3s-2.5-0.4-3.3,0.7l-2.4,3.7c-0.7,1.1-0.4,2.6,0.7,3.3c1.1,0.7,2.6,0.4,3.3-0.7c-0.7,1.1-0.4,2.6,0.7,3.3
				c1.1,0.7,2.5,0.4,3.3-0.7c-0.7,1.1-0.4,2.6,0.7,3.3c1.1,0.7,2.6,0.4,3.3-0.7l2.4-3.7C30.5,42.1,30.2,40.7,29.1,40L29.1,40z
				 M29.1,40"/>
			<path style="fill:#0C9FDE;" d="M45.1,33.5L45.1,33.5l-12.1-7.9l-1.9,2.9c-0.9,1.3-2.3,2.1-3.9,2.1c-0.9,0-1.8-0.3-2.5-0.7
				c-2.1-1.4-2.8-4.2-1.4-6.4l1.1-1.8l-4-1l-6,12.3l1.5,1.3l0-0.1c0.9-1.3,2.3-2.1,3.9-2.1c0.9,0,1.8,0.3,2.5,0.7
				c0.7,0.5,1.3,1.1,1.6,1.8c0.8,0,1.6,0.3,2.3,0.7c0.7,0.5,1.3,1.1,1.6,1.8c0.8,0,1.6,0.3,2.3,0.7c2.1,1.4,2.8,4.2,1.4,6.4l-1.3,2
				l2,1.3c1.1,0.7,2.6,0.4,3.3-0.7c0.7-1.1,0.4-2.5-0.7-3.3l0.8,0.5c1.1,0.7,2.6,0.4,3.3-0.7c0.7-1.1,0.4-2.6-0.7-3.3l0.8,0.5
				c1.1,0.7,2.6,0.4,3.3-0.7c0.7-1.1,0.4-2.6-0.7-3.3l0.8,0.5c1.1,0.7,2.5,0.4,3.3-0.7C46.5,35.7,46.2,34.2,45.1,33.5L45.1,33.5z
				 M45.1,33.5"/>
		</g>
		<path style="fill:#0C9FDE;" d="M47.3,16.9L30,17.4l-4.7,7.3c-0.7,1.1-0.4,2.6,0.7,3.3c1.1,0.7,2.6,0.4,3.3-0.7l3.2-4.8l0.7,0.4
			l12.4,8.1l4.9-3.6L47.3,16.9z M47.3,16.9"/>
	</g>
</g>
</svg>
