<?xml version="1.0" encoding="UTF-8"?>
<svg xmlns="http://www.w3.org/2000/svg" version="1.1" viewBox="0 0 65 65">
  <defs>
    <style>
      .cls-1 {
        fill: #009ada;
      }
    </style>
  </defs>
  <!-- Generator: Adobe Illustrator 28.6.0, SVG Export Plug-In . SVG Version: 1.2.0 Build 709)  -->
  <g>
    <g id="Layer_1">
      <path class="cls-1" d="M52.9,29.1c0-.7-16.3-9.6-21.3-9.9-5.5-.4-19.5-.3-19.5-.3v9.7c.9-.2,4.8.1,6.1,1.2,1.6,1.4,3.3,2.4,5.2,3.2,1.8.8,4.4,2.3,5,2.7,3.7,2.1,4.1,2.6,6,3.6.3,0,.5.2.7.2,0,.2,0,.4,0,.6-.4,0-.6.2-.6.2-.2,0-.3.3-.4.5-.6,1.8-.6,3.4,0,5.2,0,.2.2.4.4.5.4.2.8.4,1.2.5v1.7c0,0,0,.2,0,.3l.4.4-.4.4c0,0,0,.2,0,.3h0c0,.2,0,.3,0,.4l.4.4-.4.4c0,0,0,.2,0,.3h0c0,.2,0,.3,0,.4l.4.4-.4.4c0,0,0,.2,0,.3v1.4c0,0,0,.2,0,.3l.6.6c0,0,.2,0,.3,0s.2,0,.3,0l.6-.6c0,0,0-.2,0-.3v-7.1c.4,0,.7-.3,1.2-.5.2,0,.3-.3.4-.5.6-1.8.6-3.4,0-5.2,0-.2-.2-.4-.4-.5,0,0-.2,0-.6-.2.2-.6.2-1.2.2-1.9v-.8c1.1.6,2.2.5,2.3-.2,0,0,0-5.5-.3-7.8,0-.6-.4-1.4-1.3-2.6.5.2.9.4,1.4.6,2.7,1,7.6,3.6,9.6,3.7,1.1-.2,2.8-1.1,2.6-2.4h0ZM34.3,33.2c-1.5-1-2.8-2.3-3.4-3.3-.7-1.3,1.4-3.2,2.9-2,1.2,1,2.1,2,2.3,2.5.3,1.9.5,4.1.5,4.1v.2c-.2,0-.3.1-.5.2-.4-.6-1-1.2-1.8-1.7h0ZM38.2,41.5c0,.3-.6.6-1.4.6s-1.4-.3-1.4-.6,0-.2.2-.3c.3.5.7.7,1.2.7s.9-.3,1.2-.7c.2,0,.2,0,.2.3h0ZM36.8,39.8h-.4c0-.2,0-.5-.2-.9.5-.6.8-1.7.4-2.8,0-.1,0-.2.2-.3.2.1.6.9.6,2.3s0,1.2-.2,1.6c0,.2-.2.1-.4.1h0Z"/>
    </g>
  </g>
</svg>