<svg xmlns="http://www.w3.org/2000/svg" viewBox="0 0 24 24"><path d="m18.6 15.5-.7-.9H5.4l1.7-2.2A1.22 1.22 0 0 1 8 12h3a3.592 3.592 0 0 1-.7-1H8a2.089 2.089 0 0 0-1.6.8l-1.6 2-.5-.5a.908.908 0 0 0-.7-.3h-.8a.737.737 0 0 0-.8.8.788.788 0 0 0 .8.8h1.4l-.7.9a1.656 1.656 0 0 0-.5 1.2V21a.945.945 0 0 0 1 1h1a.944.944 0 0 0 1-1v-1h10v1a.946.946 0 0 0 1 1h1a.944.944 0 0 0 1-1v-4.3a2.144 2.144 0 0 0-.4-1.2zm-.6 1.2v.3a.944.944 0 0 1-1 1h-2l.7-1.4a1.15 1.15 0 0 1 .9-.6h1.1l.1.1c.11.182.18.387.2.6zM5 18a.944.944 0 0 1-1-1v-.3c.02-.212.09-.418.2-.6l.1-.1h1.1a.96.96 0 0 1 .9.6L7 18zm10-2-1 2.1a1.456 1.456 0 0 1-.9.6H8.9a.96.96 0 0 1-.9-.6L7 16zm1.5-14a5.5 5.5 0 1 0 0 11 5.5 5.5 0 0 0 0-11zm3.66 4.387-2.11 1.666.739 2.415a.12.12 0 0 1-.11.156.12.12 0 0 1-.07-.02l-2.11-1.355-2.107 1.35a.12.12 0 0 1-.18-.137l.766-2.4-2.137-1.675a.121.121 0 0 1-.04-.134.12.12 0 0 1 .115-.082l2.56-.002.901-2.433a.12.12 0 0 1 .225 0l.925 2.433 2.558.003a.12.12 0 0 1 .074.215z"/><path d="M11 18.3a1 1 0 1 0 0-2 1 1 0 0 0 0 2z"/></svg>
