<?xml version="1.0" encoding="UTF-8"?>
<svg id="Layer_1" data-name="Layer 1" xmlns="http://www.w3.org/2000/svg" version="1.1" viewBox="0 0 24 24">
  <defs>
    <style>
      .cls-1 {
        fill: #000;
        stroke-width: 0px;
      }
    </style>
  </defs>
  <path class="cls-1" d="M16.783,13.387l-.683,3.413H7.9l-.684-3.42c-.078-.393.139-.784.514-.926l1.507-.574c1.231,1.526,3.467,1.765,4.993.533.191-.154.365-.327.52-.516l1.512.557h.001c.381.14.602.536.521.934ZM4.801,7.2c-1.325,0-2.4,1.074-2.4,2.4s1.074,2.4,2.4,2.4,2.4-1.074,2.4-2.4-1.074-2.4-2.4-2.4ZM21.599,9.6c0-1.325-1.074-2.4-2.4-2.4s-2.4,1.074-2.4,2.4,1.074,2.4,2.4,2.4,2.4-1.074,2.4-2.4ZM12,12c1.325,0,2.4-1.074,2.4-2.4s-1.074-2.4-2.4-2.4-2.4,1.074-2.4,2.4,1.074,2.4,2.4,2.4ZM23.461,12.454h-.002l-1.512-.557c-.677.821-1.684,1.299-2.748,1.303-.418-.006-.831-.087-1.219-.24.03.22.023.444-.02.662l-.396,1.977h5.976l.444-2.213c.081-.397-.141-.794-.522-.934ZM6.027,12.958c-.391.154-.806.237-1.226.242-1.072-.004-2.087-.488-2.763-1.32l-1.507.574c-.375.142-.592.534-.514.928l.444,2.219h5.976l-.396-1.983c-.041-.218-.046-.441-.014-.66h.001Z"/>
</svg>