<?xml version="1.0" standalone="no"?>
<!DOCTYPE svg PUBLIC "-//W3C//DTD SVG 1.1//EN" "http://www.w3.org/Graphics/SVG/1.1/DTD/svg11.dtd" >
<svg xmlns="http://www.w3.org/2000/svg" xmlns:xlink="http://www.w3.org/1999/xlink" version="1.1">
<metadata>
Created by FontForge 20190801 at Wed Oct 30 07:11:40 2019
 By www-data
Copyright (c) 2019 by Daimler AG. All rights reserved.
</metadata>
<defs>
<font id="MBCorpoSTextOfficeBold" horiz-adv-x="542" >
  <font-face 
    font-family="MBCorpoSTextOfficeBold"
    font-weight="700"
    font-stretch="normal"
    units-per-em="1000"
    panose-1="2 11 8 4 5 0 0 0 0 4"
    ascent="824"
    descent="-176"
    x-height="503"
    cap-height="668"
    bbox="-608 -271 1202 998"
    underline-thickness="100"
    underline-position="-120"
    unicode-range="U+000D-FEFF"
  />
<missing-glyph horiz-adv-x="605" 
d="M493 795v-923l-8 -8h-365l-8 8v923l8 8h365zM128 787v-907h349v907h-349z" />
    <glyph glyph-name=".notdef" horiz-adv-x="605" 
d="M493 795v-923l-8 -8h-365l-8 8v923l8 8h365zM128 787v-907h349v907h-349z" />
    <glyph glyph-name=".null" horiz-adv-x="0" 
 />
    <glyph glyph-name="nonmarkingreturn" unicode="&#xd;" horiz-adv-x="224" 
 />
    <glyph glyph-name="space" unicode=" " horiz-adv-x="224" 
 />
    <glyph glyph-name="exclam" unicode="!" horiz-adv-x="289" 
d="M218 668v-128l-30 -317h-87l-28 317v128h145zM79 14q-25 24 -25 64q0 38 25 62.5t65 24.5t65 -24.5t25 -62.5q0 -40 -25 -64t-65 -24t-65 24z" />
    <glyph glyph-name="quotedbl" unicode="&#x22;" horiz-adv-x="460" 
d="M53 584v84h131v-84l-19 -206h-92zM268 584v84h131v-84l-19 -206h-92z" />
    <glyph glyph-name="numbersign" unicode="#" horiz-adv-x="582" 
d="M442 397l-15 -118h92v-98h-105l-23 -181h-101l23 181h-86l-23 -181h-101l23 181h-81v98h94l15 118h-90v98h103l22 173h101l-22 -173h86l22 173h101l-22 -173h83v-98h-96zM341 397h-86l-15 -118h86z" />
    <glyph glyph-name="dollar" unicode="$" 
d="M460.5 66.5q-46.5 -47.5 -124.5 -61.5v-93h-100v90q-59 6 -113 32t-93 68l70 84q36 -39 81.5 -58t94.5 -19q46 0 72.5 18.5t26.5 56.5q0 36 -24.5 55t-80.5 42l-62 25q-71 29 -111.5 72t-40.5 106q0 75 49 124.5t131 57.5v83h100v-87q93 -17 155 -76l-65 -91
q-31 29 -70.5 45.5t-80.5 16.5q-43 0 -66.5 -19t-23.5 -49t19.5 -46.5t65.5 -35.5l71 -29q49 -19 84 -40.5t58.5 -57.5t23.5 -89q0 -77 -46.5 -124.5z" />
    <glyph glyph-name="percent" unicode="%" horiz-adv-x="852" 
d="M583 668h115l-423 -668h-115zM77 356.5q-46 50.5 -46 135.5q0 86 46 137t122 51t122 -51t46 -137q0 -85 -46 -135.5t-122 -50.5t-122 50.5zM244 413.5q16 26.5 16 78.5q0 54 -16 81.5t-45 27.5t-45 -27.5t-16 -81.5q0 -52 16 -78.5t45 -26.5t45 26.5zM531 38.5
q-46 50.5 -46 135.5q0 86 46 137t122 51t122 -51t46 -137q0 -85 -46 -135.5t-122 -50.5t-122 50.5zM698 94.5q16 26.5 16 79.5q0 54 -16 81.5t-45 27.5t-45.5 -27.5t-16.5 -81.5q0 -52 16.5 -79t45.5 -27t45 26.5z" />
    <glyph glyph-name="ampersand" unicode="&#x26;" horiz-adv-x="611" 
d="M445 0l-44 55q-67 -67 -160 -67q-61 0 -105.5 23.5t-67.5 63t-23 87.5q0 60 32 104.5t92 79.5q-37 45 -55.5 84.5t-18.5 80.5q0 49 24 87.5t65 60t90 21.5q48 0 87.5 -19t63 -53.5t23.5 -80.5q0 -58 -30.5 -102.5t-92.5 -85.5l97 -122q13 30 18.5 63.5t9.5 80.5h105
q-6 -137 -62 -227l108 -134h-156zM236 566.5q-18 -17.5 -18 -49.5q0 -25 13 -50.5t37 -56.5q68 50 68 107q0 32 -16.5 49.5t-40.5 17.5q-25 0 -43 -17.5zM343 137l-112 141q-58 -42 -58 -103q0 -36 22.5 -60t59.5 -24q50 0 88 46z" />
    <glyph glyph-name="quotesingle" unicode="'" horiz-adv-x="245" 
d="M57 584v84h131v-84l-19 -206h-92z" />
    <glyph glyph-name="parenleft" unicode="(" horiz-adv-x="341" 
d="M206.5 34q42.5 -99 119.5 -179l-80 -60q-95 93 -148 207.5t-53 261.5t53 261.5t148 207.5l80 -59q-78 -80 -120 -179.5t-42 -230.5t42.5 -230z" />
    <glyph glyph-name="parenright" unicode=")" horiz-adv-x="341" 
d="M136 494.5q-42 99.5 -120 179.5l79 59q95 -93 148.5 -207.5t53.5 -261.5t-53.5 -261.5t-148.5 -207.5l-79 60q77 80 119.5 179t42.5 230t-42 230.5z" />
    <glyph glyph-name="asterisk" unicode="*" horiz-adv-x="420" 
d="M249 695v-108l100 38l27 -72l-102 -39l72 -89l-63 -47l-73 93l-73 -94l-63 48l70 89l-101 39l28 72l99 -38v108h79z" />
    <glyph glyph-name="plus" unicode="+" 
d="M516 251h-190v-201h-111v201h-190v104h190v201h111v-201h190v-104z" />
    <glyph glyph-name="comma" unicode="," horiz-adv-x="284" 
d="M208 134q26 -31 26 -85q0 -67 -36.5 -128t-91.5 -110l-53 41q32 28 58.5 64.5t33.5 74.5q-4 -1 -12 -1q-36 0 -60 24.5t-24 62.5q0 39 24.5 63.5t61.5 24.5q47 0 73 -31z" />
    <glyph glyph-name="hyphen" unicode="-" horiz-adv-x="384" 
d="M65 332h254v-104h-254v104z" />
    <glyph glyph-name="period" unicode="." horiz-adv-x="276" 
d="M73 14q-25 24 -25 64q0 38 25 62.5t65 24.5t65 -24.5t25 -62.5q0 -40 -25 -64t-65 -24t-65 24z" />
    <glyph glyph-name="slash" unicode="/" horiz-adv-x="438" 
d="M415 668l-286 -763h-109l287 763h108z" />
    <glyph glyph-name="zero" unicode="0" 
d="M141 27.5q-56 39.5 -87 117t-31 189.5t31 189.5t87 117t130 39.5t130 -39.5t87 -117t31 -189.5t-31 -189.5t-87 -117t-130 -39.5t-130 39.5zM379 334q0 235 -108 235t-108 -235t108 -235t108 235z" />
    <glyph glyph-name="one" unicode="1" 
d="M491 108v-108h-412v108h149v369q-27 -13 -63 -18t-85 -6v106q91 1 129.5 27.5t47.5 81.5h103v-560h131z" />
    <glyph glyph-name="two" unicode="2" 
d="M48 106q117 94 178 151.5t90.5 107.5t29.5 105q0 44 -21 72t-62 28q-40 0 -63 -27.5t-23 -69.5h-129q0 64 29.5 111t79 71.5t108.5 24.5q65 0 115 -24.5t78 -71t28 -108.5q0 -101 -75 -187t-210 -179v-6q36 4 102 4h190v-108h-445v106z" />
    <glyph glyph-name="three" unicode="3" 
d="M459 297.5q41 -43.5 41 -111.5q0 -58 -32 -103t-88.5 -70t-126.5 -25q-73 0 -135 35t-89 107l99 43q39 -79 121 -79q53 0 85 28t32 73q0 46 -35 73t-89 27h-41v101h42q45 0 74.5 25.5t29.5 65.5q0 39 -25.5 63t-70.5 24q-37 0 -64 -21t-43 -57l-97 41q17 64 75 103.5
t135 39.5q61 0 110.5 -22.5t78.5 -63.5t29 -94q0 -55 -32 -91t-81 -51v-5q56 -12 97 -55.5z" />
    <glyph glyph-name="four" unicode="4" 
d="M515 129h-92v-129h-129v129h-273v117l227 422h175v-431h92v-108zM272 521q-16 -31 -33 -63l-117 -224h176v203q0 74 4 136h-6q-8 -21 -24 -52z" />
    <glyph glyph-name="five" unicode="5" 
d="M400.5 413q46.5 -26 73.5 -76t27 -120q0 -71 -32.5 -122.5t-87.5 -79t-121 -27.5q-84 0 -141.5 35t-83.5 95l102 50q34 -73 116 -73q51 0 83.5 32.5t32.5 88.5t-31 88.5t-80 32.5q-33 0 -57.5 -13.5t-44.5 -39.5l-103 17l54 367h368v-108h-267l-23 -160h4q42 39 108 39
q57 0 103.5 -26z" />
    <glyph glyph-name="six" unicode="6" 
d="M412 409q44 -26 70.5 -74.5t26.5 -114.5q0 -71 -32.5 -123.5t-84.5 -80.5t-109 -28q-104 0 -174 76.5t-70 251.5q0 119 38 201t101 122.5t137 40.5q59 0 106 -21t73 -50l-61 -83q-21 20 -49.5 34t-63.5 14q-130 0 -144 -208h6q16 31 50 50t85 19t95 -26zM349 126
q29 32 29 86q0 53 -29 85t-71 32t-71 -32t-29 -85q0 -54 29 -86t71 -32t71 32z" />
    <glyph glyph-name="seven" unicode="7" 
d="M494 668v-115q-190 -191 -211 -553h-139q4 121 42.5 235t93 198.5t106.5 124.5v5l-39 -1q-42 -2 -61 -2h-242v108h450z" />
    <glyph glyph-name="eight" unicode="8" 
d="M476 279q32 -40 32 -96q0 -57 -31 -101.5t-85.5 -69t-122.5 -24.5q-67 0 -120.5 22.5t-83.5 63t-30 92.5q0 61 31.5 102.5t81.5 67.5v6q-40 22 -66 61t-26 93q0 52 27.5 94t77 66t111.5 24q59 0 107.5 -23t76.5 -63.5t28 -91.5t-23.5 -89t-65.5 -62v-7q49 -25 81 -65z
M213.5 558.5q-21.5 -22.5 -21.5 -55.5q0 -35 26 -58t80 -49q55 41 55 103q0 36 -23.5 59t-58.5 23q-36 0 -57.5 -22.5zM344 110q27 23 27 61q0 36 -35.5 63.5t-90.5 54.5q-36 -22 -56 -51.5t-20 -63.5q0 -37 27.5 -62t73.5 -25q47 0 74 23z" />
    <glyph glyph-name="nine" unicode="9" 
d="M375.5 652.5q54.5 -27.5 88.5 -83.5t34 -136q0 -108 -69.5 -222.5t-183.5 -225.5l-114 53q124 110 187 228h-5q-36 -28 -94 -28q-49 0 -92.5 26.5t-70 75t-26.5 110.5q0 70 32.5 122.5t85.5 80t111 27.5q62 0 116.5 -27.5zM334 375.5q29 31.5 29 83.5t-29 83.5t-72 31.5
q-42 0 -71 -31.5t-29 -83.5t29 -83.5t71 -31.5q43 0 72 31.5z" />
    <glyph glyph-name="colon" unicode=":" horiz-adv-x="301" 
d="M85 361q-25 24 -25 64q0 38 25 62.5t65 24.5t65 -24.5t25 -62.5q0 -40 -25 -64t-65 -24t-65 24zM86 14q-25 24 -25 64q0 38 25 62.5t65 24.5t65 -24.5t25 -62.5q0 -40 -25 -64t-65 -24t-65 24z" />
    <glyph glyph-name="semicolon" unicode=";" horiz-adv-x="306" 
d="M218 134q26 -31 26 -85q0 -67 -36.5 -128t-91.5 -110l-53 41q32 28 58.5 64.5t33.5 74.5q-4 -1 -12 -1q-36 0 -60 24.5t-24 62.5q0 39 24.5 63.5t61.5 24.5q47 0 73 -31zM89 361q-25 24 -25 64q0 38 25 62.5t65 24.5t65 -24.5t25 -62.5q0 -40 -25 -64t-65 -24t-65 24z
" />
    <glyph glyph-name="less" unicode="&#x3c;" 
d="M479 443l-313 -140l313 -139v-116l-432 201v109l432 201v-116z" />
    <glyph glyph-name="equal" unicode="=" 
d="M37 458h468v-103h-468v103zM37 252h468v-104h-468v104z" />
    <glyph glyph-name="greater" unicode="&#x3e;" 
d="M495 358v-109l-432 -201v116l312 139l-312 140v116z" />
    <glyph glyph-name="question" unicode="?" horiz-adv-x="466" 
d="M328 658q46 -22 73.5 -65t27.5 -102q0 -65 -38 -116t-104 -81v-71h-127v138q64 18 93.5 49t29.5 77q0 36 -15 56.5t-45 20.5q-31 0 -46.5 -22.5t-15.5 -59.5h-133q0 92 53.5 145t145.5 53q55 0 101 -22zM289 140.5q25 -24.5 25 -62.5q0 -40 -25 -64t-65 -24t-65 24
t-25 64q0 38 25 62.5t65 24.5t65 -24.5z" />
    <glyph glyph-name="at" unicode="@" horiz-adv-x="906" 
d="M678.5 657.5q80.5 -47.5 126.5 -129.5t46 -183q0 -23 -3 -49q-9 -81 -42 -139.5t-79.5 -88t-97.5 -29.5q-52 0 -82.5 21.5t-39.5 60.5h-4q-40 -70 -112 -70q-59 0 -96 46.5t-37 126.5q0 28 4 55q10 68 39.5 115.5t66.5 71.5t72 24q76 0 97 -72h6l11 61h108l-46 -255
q-6 -38 -6 -52q0 -21 8.5 -32t29.5 -11q19 0 41 20t39 61.5t22 102.5q1 10 1 30q0 78 -30.5 139.5t-88 97t-135.5 35.5q-88 0 -162 -44t-121 -123t-56 -179q-2 -28 -2 -40q0 -88 33.5 -156t101 -106.5t165.5 -38.5q59 0 112 13.5t91 33.5l31 -84q-101 -53 -245 -53
q-120 0 -209 48t-137 134t-48 199q0 26 3 53q13 128 76 226.5t160.5 152.5t209.5 54q98 0 178.5 -47.5zM478 172q25 32 36 96q5 32 5 51q0 40 -13.5 61.5t-37.5 21.5q-29 0 -52.5 -32t-33.5 -94q-6 -34 -6 -60q0 -76 48 -76q29 0 54 32z" />
    <glyph glyph-name="A" unicode="A" horiz-adv-x="638" 
d="M431 145h-231l-43 -145h-136l215 668h165l217 -668h-145zM400 250l-60 206q-17 63 -21 90h-6q-8 -42 -21 -88l-61 -208h169z" />
    <glyph glyph-name="B" unicode="B" horiz-adv-x="615" 
d="M536 296.5q33 -41.5 33 -101.5q0 -63 -30.5 -107t-83 -66t-116.5 -22h-256v668h225q107 0 169.5 -46.5t62.5 -122.5q0 -49 -25 -83.5t-70 -53.5v-5q58 -19 91 -60.5zM219 561v-167h90q44 0 69 21.5t25 62.5q0 40 -25 61.5t-69 21.5h-90zM398.5 130q28.5 23 28.5 70
q0 46 -28.5 69.5t-78.5 23.5h-101v-186h101q50 0 78.5 23z" />
    <glyph glyph-name="C" unicode="C" horiz-adv-x="630" 
d="M234 159.5q42 -57.5 112 -57.5q48 0 85 30t58 94l111 -55q-30 -90 -99 -136.5t-158 -46.5q-82 0 -149 41.5t-105.5 119.5t-38.5 185t38.5 185t105 119.5t148.5 41.5q86 0 153 -43t97 -128l-110 -53q-39 110 -137 110q-69 0 -111 -57.5t-42 -174.5t42 -174.5z" />
    <glyph glyph-name="D" unicode="D" horiz-adv-x="681" 
d="M478.5 629q72.5 -39 112.5 -114.5t40 -180.5t-40 -180.5t-112.5 -114.5t-167.5 -39h-228v668h228q95 0 167.5 -39zM437.5 170q51.5 58 51.5 164t-51.5 164t-139.5 58h-77v-444h77q88 0 139.5 58z" />
    <glyph glyph-name="E" unicode="E" horiz-adv-x="562" 
d="M507 110v-110h-424v668h417v-110h-279v-161h260v-106h-260v-181h286z" />
    <glyph glyph-name="F" unicode="F" horiz-adv-x="540" 
d="M221 556v-174h254v-108h-254v-274h-138v668h411v-112h-273z" />
    <glyph glyph-name="G" unicode="G" horiz-adv-x="669" 
d="M610 354v-281q-48 -38 -113 -61.5t-136 -23.5q-92 0 -162.5 40t-110 118t-39.5 188q0 106 40.5 184.5t110 120t154.5 41.5t152.5 -36.5t101.5 -106.5l-107 -61q-45 90 -144 90q-77 0 -121.5 -57t-44.5 -175t43 -176t124 -58q77 0 127 38v110h-137v106h262z" />
    <glyph glyph-name="H" unicode="H" horiz-adv-x="676" 
d="M593 668v-668h-138v288h-234v-288h-138v668h138v-268h234v268h138z" />
    <glyph glyph-name="I" unicode="I" horiz-adv-x="396" 
d="M267 561v-454h75v-107h-288v107h75v454h-75v107h288v-107h-75z" />
    <glyph glyph-name="J" unicode="J" horiz-adv-x="382" 
d="M24 -109v114q36 -8 61 -8q40 0 58 19t18 60v592h138v-609q0 -85 -49 -130.5t-132 -45.5q-52 0 -94 8z" />
    <glyph glyph-name="K" unicode="K" horiz-adv-x="622" 
d="M250 292h-29v-292h-138v668h138v-264h27l191 264h152l-236 -308l268 -360h-165z" />
    <glyph glyph-name="L" unicode="L" horiz-adv-x="524" 
d="M493 112v-112h-410v668h138v-556h272z" />
    <glyph glyph-name="M" unicode="M" horiz-adv-x="861" 
d="M83 668h215l109 -417q16 -60 21 -100h6q7 51 20 100l115 417h209v-668h-133v421q0 66 4 138h-6q-14 -64 -34 -134l-118 -425h-128l-115 427q-14 52 -34 132h-5q4 -56 4 -138v-421h-130v668z" />
    <glyph glyph-name="N" unicode="N" horiz-adv-x="682" 
d="M83 668h177l169 -389q29 -68 39 -104h5q-3 60 -3 111v382h129v-668h-177l-169 389q-29 71 -39 108h-6q4 -52 4 -115v-382h-129v668z" />
    <glyph glyph-name="O" unicode="O" horiz-adv-x="706" 
d="M195.5 29.5q-68.5 41.5 -107 120t-38.5 184.5t38.5 184.5t107 120t157.5 41.5t157.5 -41.5t107 -120t38.5 -184.5t-38.5 -184.5t-107 -120t-157.5 -41.5t-157.5 41.5zM469 160.5q45 58.5 45 173.5t-45 173.5t-116 58.5t-116 -58.5t-45 -173.5t45 -173.5t116 -58.5
t116 58.5z" />
    <glyph glyph-name="P" unicode="P" horiz-adv-x="604" 
d="M445.5 644q56.5 -24 89 -71t32.5 -114t-32.5 -114.5t-88.5 -72t-127 -24.5h-98v-248h-138v668h236q70 0 126.5 -24zM396.5 382q28.5 26 28.5 75q0 48 -28.5 73.5t-81.5 25.5h-94v-200h94q53 0 81.5 26z" />
    <glyph glyph-name="Q" unicode="Q" horiz-adv-x="707" 
d="M514 -110l-85 107q-36 -9 -76 -9q-89 0 -157.5 41.5t-107 120t-38.5 184.5t38.5 184.5t107 120t157.5 41.5t157.5 -41.5t107 -120t38.5 -184.5q0 -90 -27.5 -160t-78.5 -115l136 -169h-172zM237 160.5q45 -58.5 116 -58.5t116 58.5t45 173.5t-45 173.5t-116 58.5
t-116 -58.5t-45 -173.5t45 -173.5z" />
    <glyph glyph-name="R" unicode="R" horiz-adv-x="622" 
d="M297 265h-76v-265h-138v668h229q105 0 172.5 -52t67.5 -148q0 -65 -33 -111t-90 -69l175 -288h-162zM221 369h88q47 0 74.5 24t27.5 70t-27.5 70.5t-74.5 24.5h-88v-189z" />
    <glyph glyph-name="S" unicode="S" horiz-adv-x="583" 
d="M185.5 122q47.5 -21 99.5 -21q54 0 85.5 19t31.5 57q0 35 -28 55.5t-84 42.5l-72 28q-158 62 -158 190q0 55 28.5 97.5t79.5 66t118 23.5q71 0 132.5 -22t107.5 -65l-67 -90q-32 30 -75.5 47t-89.5 17q-44 0 -69.5 -19t-25.5 -49q0 -31 22 -50.5t68 -38.5l75 -30
q80 -31 128.5 -74.5t48.5 -120.5q0 -95 -69.5 -146t-182.5 -51q-79 0 -144 27.5t-113 79.5l69 86q37 -38 84.5 -59z" />
    <glyph glyph-name="T" unicode="T" horiz-adv-x="567" 
d="M536 556h-183v-556h-138v556h-184v112h505v-112z" />
    <glyph glyph-name="U" unicode="U" horiz-adv-x="655" 
d="M145 47.5q-67 59.5 -67 172.5v448h138v-430q0 -136 115 -136q54 0 85 33.5t31 102.5v430h130v-448q0 -113 -68 -172.5t-183 -59.5q-114 0 -181 59.5z" />
    <glyph glyph-name="V" unicode="V" horiz-adv-x="628" 
d="M313 138h5q10 44 22 94l123 436h144l-215 -668h-156l-215 668h148l122 -436q15 -50 22 -94z" />
    <glyph glyph-name="W" unicode="W" horiz-adv-x="923" 
d="M650 137h5q5 47 16 101l87 430h136l-157 -668h-159l-94 409q-12 52 -18 108h-5q-6 -62 -17 -107l-93 -410h-164l-158 668h143l87 -429q9 -43 17 -102h5q10 63 18 103l97 428h138l100 -431q12 -46 16 -100z" />
    <glyph glyph-name="X" unicode="X" horiz-adv-x="604" 
d="M589 0h-161l-97 193q-17 33 -27 61h-5q-13 -31 -29 -60l-108 -194h-149l202 341l-186 327h147l95 -178q20 -38 29 -63h5q16 37 30 61l102 180h142l-190 -321z" />
    <glyph glyph-name="Y" unicode="Y" horiz-adv-x="636" 
d="M387 287v-287h-138v284l-230 384h156l115 -204q23 -44 28 -59h6q9 27 29 59l117 204h150z" />
    <glyph glyph-name="Z" unicode="Z" horiz-adv-x="562" 
d="M515 109v-109h-473v119l321 440h-305v109h456v-119l-322 -440h323z" />
    <glyph glyph-name="bracketleft" unicode="[" horiz-adv-x="359" 
d="M327 616h-131v-706h131v-101h-246v908h246v-101z" />
    <glyph glyph-name="backslash" unicode="\" horiz-adv-x="438" 
d="M417 -95h-108l-287 763h109z" />
    <glyph glyph-name="bracketright" unicode="]" horiz-adv-x="359" 
d="M278 717v-908h-246v101h131v706h-131v101h246z" />
    <glyph glyph-name="asciicircum" unicode="^" 
d="M359 368l-88 168l-88 -168h-114l173 312h58l173 -312h-114z" />
    <glyph glyph-name="underscore" unicode="_" horiz-adv-x="500" 
d="M0 -39h500v-102h-500v102z" />
    <glyph glyph-name="grave" unicode="`" horiz-adv-x="448" 
d="M234 579l-129 162h140l95 -162h-106z" />
    <glyph glyph-name="a" unicode="a" horiz-adv-x="530" 
d="M470 0h-121q-6 38 -6 66h-6q-40 -76 -142 -76q-70 0 -112 37t-42 104q0 73 40.5 108.5t101.5 50.5q61 16 144 28v21q0 39 -17 57.5t-53 18.5q-29 0 -47.5 -13t-20.5 -36h-128q5 67 57.5 107t139.5 40q93 0 148 -48.5t55 -140.5v-177q0 -61 9 -147zM302.5 112
q24.5 30 24.5 82v45q-30 -5 -78 -17q-38 -10 -54 -29t-16 -49q0 -62 56 -62q43 0 67.5 30z" />
    <glyph glyph-name="b" unicode="b" horiz-adv-x="586" 
d="M437 484q46 -29 74.5 -88.5t28.5 -145.5q0 -84 -28.5 -143t-74.5 -88t-98 -29q-94 0 -134 75h-5v-65h-127v695h134v-246h4q41 64 128 64q52 0 98 -29zM376 134.5q26 39.5 26 115.5q0 77 -26 117.5t-73 40.5q-45 0 -71.5 -41t-26.5 -116t26.5 -115.5t71.5 -40.5
q47 0 73 39.5z" />
    <glyph glyph-name="c" unicode="c" horiz-adv-x="505" 
d="M156.5 21.5q-53.5 31.5 -83 90.5t-29.5 138q0 80 29.5 139.5t83.5 91.5t124 32q62 0 111 -27.5t79 -85.5l-104 -52q-15 30 -34.5 45t-49.5 15q-45 0 -73 -41t-28 -117q0 -75 28 -115t73 -40q31 0 52.5 16.5t37.5 51.5l103 -53q-28 -62 -81 -91t-114 -29
q-71 0 -124.5 31.5z" />
    <glyph glyph-name="d" unicode="d" horiz-adv-x="586" 
d="M513 695v-695h-127v65h-5q-40 -75 -134 -75q-52 0 -98 29t-74.5 88t-28.5 143q0 86 28.5 145.5t74.5 88.5t98 29q87 0 128 -64h4v246h134zM354.5 135.5q26.5 40.5 26.5 115.5t-26.5 116t-71.5 41q-47 0 -73 -40.5t-26 -117.5q0 -76 26 -115.5t73 -39.5q45 0 71.5 40.5z
" />
    <glyph glyph-name="e" unicode="e" horiz-adv-x="540" 
d="M496 222h-316q12 -130 120 -130q62 0 112 57l71 -76q-74 -83 -194 -83q-72 0 -127.5 30.5t-86.5 89t-31 140.5t29.5 141.5t82.5 90.5t121 31q66 0 116 -30t77.5 -87.5t27.5 -137.5q0 -14 -2 -36zM214 387q-25 -28 -32 -84h184q-12 112 -89 112q-38 0 -63 -28z" />
    <glyph glyph-name="f" unicode="f" horiz-adv-x="382" 
d="M265 585q-14 -18 -14 -57v-25h106v-101h-106v-402h-134v402h-91v101h91v45q0 80 44.5 119.5t122.5 39.5q46 0 79 -6v-102q-36 4 -53 4q-31 0 -45 -18z" />
    <glyph glyph-name="g" unicode="g" horiz-adv-x="543" 
d="M465.5 71q50.5 -39 50.5 -107q0 -73 -66.5 -114t-183.5 -41q-115 0 -179.5 34t-64.5 97q0 41 32 70.5t77 39.5v5q-35 8 -54.5 27t-19.5 49q0 35 28 58.5t74 32.5v5q-46 15 -72.5 47.5t-26.5 79.5q0 75 57 117t144 42q41 0 74 -10h177v-96q-43 0 -92 10v-7
q22 -14 32.5 -34t10.5 -47q0 -52 -47 -86.5t-120 -42.5q-63 -8 -85.5 -18t-22.5 -24q0 -11 11.5 -17.5t39.5 -10.5t89 -11q87 -9 137.5 -48zM206 401.5q-21 -19.5 -21 -50.5t21 -49.5t55 -18.5t55 18.5t21 49.5t-21 50.5t-55 19.5t-55 -19.5zM361 -85.5q31 15.5 31 42.5
q0 26 -31.5 42.5t-91.5 16.5q-61 0 -92 -16t-31 -43t31 -42.5t92 -15.5t92 15.5z" />
    <glyph glyph-name="h" unicode="h" horiz-adv-x="571" 
d="M457.5 467q44.5 -46 44.5 -123v-344h-134v319q0 88 -70 88q-39 0 -65 -29.5t-26 -83.5v-294h-134v695h134v-247h5q40 65 134 65q67 0 111.5 -46z" />
    <glyph glyph-name="i" unicode="i" horiz-adv-x="280" 
d="M207 503v-503h-134v503h134zM82.5 587q-22.5 21 -22.5 55t22 55t58 21t58.5 -21t22.5 -55t-22.5 -55t-58.5 -21q-35 0 -57.5 21z" />
    <glyph glyph-name="j" unicode="j" horiz-adv-x="287" 
d="M-32 -183v103q7 -1 23 -3.5t30 -2.5q31 0 45.5 18t14.5 59v512h133v-529q0 -82 -40 -122.5t-125 -40.5q-48 0 -81 6zM89.5 587q-22.5 21 -22.5 55t22 55t58 21t58.5 -21t22.5 -55t-22.5 -55t-58.5 -21q-35 0 -57.5 21z" />
    <glyph glyph-name="k" unicode="k" horiz-adv-x="528" 
d="M234 224h-27v-224h-134v695h134v-371h24l128 179h146l-169 -218l186 -285h-152z" />
    <glyph glyph-name="l" unicode="l" horiz-adv-x="302" 
d="M270 -1q-33 -9 -83 -9q-117 0 -117 123v582h134v-549q0 -52 29 -52q19 0 37 5v-100z" />
    <glyph glyph-name="m" unicode="m" horiz-adv-x="831" 
d="M718.5 467.5q43.5 -45.5 43.5 -122.5v-345h-133v320q0 43 -14 65t-47 22q-36 0 -59.5 -27.5t-23.5 -84.5v-295h-134v320q0 43 -14 65t-47 22q-36 0 -59.5 -28t-23.5 -84v-295h-134v503h127v-65h6q35 75 130 75q41 0 75 -20t53 -57q20 36 57 56.5t88 20.5
q66 0 109.5 -45.5z" />
    <glyph glyph-name="n" unicode="n" horiz-adv-x="571" 
d="M424 492.5q36 -20.5 57 -58.5t21 -90v-344h-134v319q0 88 -70 88q-39 0 -65 -29.5t-26 -83.5v-294h-134v503h127v-65h6q38 75 138 75q44 0 80 -20.5z" />
    <glyph glyph-name="o" unicode="o" horiz-adv-x="570" 
d="M158 21.5q-54 31.5 -83.5 90.5t-29.5 139t29.5 139t84 91t126.5 32q73 0 127 -32t83.5 -91t29.5 -139t-29.5 -139t-83.5 -90.5t-127 -31.5t-127 31.5zM360.5 135q27.5 40 27.5 116q0 77 -27.5 117t-75.5 40t-75 -40.5t-27 -116.5t27 -116t75 -40t75.5 40z" />
    <glyph glyph-name="p" unicode="p" horiz-adv-x="586" 
d="M437 484q46 -29 74.5 -88t28.5 -144t-28.5 -144.5t-74.5 -88.5t-98 -29q-86 0 -127 63h-5v-232h-134v682h127v-66h4q41 76 135 76q52 0 98 -29zM376 135q26 40 26 117q0 76 -26 116t-73 40q-45 0 -71.5 -41t-26.5 -116q0 -74 26.5 -115t71.5 -41q47 0 73 40z" />
    <glyph glyph-name="q" unicode="q" horiz-adv-x="586" 
d="M513 503v-682h-134v232h-5q-41 -63 -127 -63q-52 0 -98 29t-74.5 88.5t-28.5 144.5t28.5 144t74.5 88t98 29q94 0 135 -76h4v66h127zM354.5 136q26.5 41 26.5 115q0 75 -26.5 116t-71.5 41q-47 0 -73 -40t-26 -116q0 -77 26 -117t73 -40q45 0 71.5 41z" />
    <glyph glyph-name="r" unicode="r" horiz-adv-x="402" 
d="M377 507v-120q-40 4 -55 4q-55 0 -85 -38t-30 -118v-235h-134v503h126v-79h5q17 42 48.5 65.5t77.5 23.5q28 0 47 -6z" />
    <glyph glyph-name="s" unicode="s" horiz-adv-x="485" 
d="M159.5 106.5q37.5 -16.5 78.5 -16.5q81 0 81 47q0 22 -20 35.5t-64 26.5l-51 18q-63 21 -97.5 56t-34.5 91q0 66 50.5 107.5t135.5 41.5q116 0 195 -66l-59 -81q-26 22 -60.5 34.5t-68.5 12.5q-31 0 -48 -11.5t-17 -29.5t16.5 -31t51.5 -25l52 -19q44 -16 74 -32.5
t51.5 -45.5t21.5 -73q0 -72 -55 -114t-149 -42q-66 0 -119.5 21t-93.5 59l61 81q31 -28 68.5 -44.5z" />
    <glyph glyph-name="t" unicode="t" horiz-adv-x="396" 
d="M246 402v-241q0 -36 10.5 -52t34.5 -16q29 0 68 12v-99q-45 -16 -105 -16q-66 0 -103.5 35t-37.5 105v272h-90v101h90v102l133 46v-148h113v-101h-113z" />
    <glyph glyph-name="u" unicode="u" horiz-adv-x="571" 
d="M498 503v-503h-127v65h-6q-38 -75 -138 -75q-44 0 -80 20.5t-57 58.5t-21 90v344h134v-319q0 -88 70 -88q39 0 65 29.5t26 83.5v294h134z" />
    <glyph glyph-name="v" unicode="v" horiz-adv-x="528" 
d="M23 503h140l76 -262q6 -19 19 -74q3 -9 7 -27h5q18 73 25 97l81 266h130l-171 -503h-143z" />
    <glyph glyph-name="w" unicode="w" horiz-adv-x="781" 
d="M25 503h139l57 -267q11 -55 19 -103h5q9 55 20 101l66 269h123l68 -268q14 -54 21 -105h6q6 49 17 105l57 268h133l-134 -503h-142l-62 253q-13 53 -22 114h-6q-11 -65 -23 -113l-63 -254h-145z" />
    <glyph glyph-name="x" unicode="x" horiz-adv-x="497" 
d="M480 0h-151l-58 121q-12 26 -22 59h-5q-9 -29 -26 -59l-63 -121h-142l158 260l-145 243h139l56 -103q12 -21 26 -64h6q11 35 28 63l59 104h133l-147 -238z" />
    <glyph glyph-name="y" unicode="y" horiz-adv-x="521" 
d="M53 -183v103q24 -5 51 -5q33 0 51 21t33 76l7 22l-174 469h140l73 -245q12 -37 25 -96h6q9 48 24 97l77 244h135l-191 -527q-22 -61 -45 -96t-55 -52t-81 -17q-46 0 -76 6z" />
    <glyph glyph-name="z" unicode="z" horiz-adv-x="469" 
d="M425 98v-98h-382v103l231 301h-224v99h373v-104l-231 -301h233z" />
    <glyph glyph-name="braceleft" unicode="{" horiz-adv-x="373" 
d="M214 224q17 -27 17 -88v-141q0 -37 8.5 -56t31.5 -27t70 -8v-93q-92 0 -138.5 16t-64 53t-17.5 106v143q0 33 -7.5 51.5t-29.5 27.5t-66 10v92q44 1 66 10t29.5 27.5t7.5 51.5v143q0 69 17.5 106t64 53t138.5 16v-93q-47 0 -70 -8t-31.5 -27t-8.5 -56v-142q0 -61 -17 -88
t-56 -39q39 -13 56 -40z" />
    <glyph glyph-name="bar" unicode="|" horiz-adv-x="275" 
d="M194 738v-838h-113v838h113z" />
    <glyph glyph-name="braceright" unicode="}" horiz-adv-x="373" 
d="M159 303q-17 27 -17 88v142q0 37 -8.5 56t-31.5 27t-70 8v93q92 0 139 -16t64.5 -53t17.5 -106v-143q0 -33 7.5 -51.5t29.5 -27.5t66 -10v-92q-44 -1 -66 -10t-29.5 -27.5t-7.5 -51.5v-143q0 -69 -17.5 -106t-64.5 -53t-139 -16v93q47 0 70 8t31.5 27t8.5 56v141
q0 61 17 88t57 40q-40 12 -57 39z" />
    <glyph glyph-name="asciitilde" unicode="~" 
d="M302.5 226.5q-24.5 10.5 -48.5 28.5q-16 12 -27.5 17.5t-23.5 5.5q-38 0 -40 -57h-90q1 92 35 130t82 38q29 0 51 -9.5t50 -28.5q31 -24 52 -24q14 0 25.5 16t12.5 42h90q-1 -92 -34.5 -130.5t-79.5 -38.5q-30 0 -54.5 10.5z" />
    <glyph glyph-name="uni00A0" unicode="&#xa0;" horiz-adv-x="224" 
 />
    <glyph glyph-name="exclamdown" unicode="&#xa1;" horiz-adv-x="281" 
d="M74.5 361.5q-25.5 24.5 -25.5 63.5q0 40 25 64t66 24q40 0 65 -24t25 -64q0 -39 -25 -63.5t-65 -24.5t-65.5 24.5zM69 -51l28 331h86l30 -331v-128h-144v128z" />
    <glyph glyph-name="cent" unicode="&#xa2;" 
d="M428.5 127q-38.5 -28 -85.5 -38v-89h-101v89q-85 16 -134.5 82t-49.5 164t50 164t134 83v86h101v-86q96 -18 141 -109l-104 -51q-27 61 -86 61q-44 0 -73 -39.5t-29 -108.5t28.5 -107.5t73.5 -38.5q32 0 54.5 17t38.5 52l102 -54q-22 -49 -60.5 -77z" />
    <glyph glyph-name="sterling" unicode="&#xa3;" 
d="M506 105v-105h-454v92q43 15 69.5 50.5t26.5 74.5q0 32 -9 70h-97v89h69q-9 30 -12.5 54.5t-3.5 55.5q0 85 56 139.5t160 54.5q46 0 89 -12t74 -32l-41 -96q-58 28 -105 28q-48 0 -74.5 -27t-26.5 -76q0 -19 3.5 -37.5t13.5 -51.5h192v-89h-170q5 -30 5 -55
q0 -75 -52 -121v-6h287z" />
    <glyph glyph-name="currency" unicode="&#xa4;" 
d="M453 216l81 -89l-74 -72l-79 86q-49 -30 -112 -30q-62 0 -110 28l-77 -84l-74 72l78 86q-32 55 -32 127q0 70 31 124l-79 87l75 73l76 -84q52 29 112 29q64 0 114 -31l78 86l75 -73l-82 -89q29 -55 29 -122t-30 -124zM346.5 251q27.5 36 27.5 89t-27.5 89t-77.5 36
q-51 0 -79 -36t-28 -89t28 -89t79 -36q50 0 77.5 36z" />
    <glyph glyph-name="yen" unicode="&#xa5;" 
d="M360 336h102v-70h-128v-65h128v-70h-128v-131h-129v131h-128v70h128v65h-128v70h103l-171 332h150l87 -205q4 -9 12 -26.5t12 -31.5h6q9 23 12 28l13 31l88 204h144z" />
    <glyph glyph-name="brokenbar" unicode="&#xa6;" horiz-adv-x="275" 
d="M194 738v-327h-113v327h113zM194 227v-327h-113v327h113z" />
    <glyph glyph-name="section" unicode="&#xa7;" horiz-adv-x="521" 
d="M450 48q0 -68 -51 -110.5t-142 -42.5q-59 0 -113.5 21.5t-93.5 58.5l59 78q29 -27 71 -43.5t78 -16.5q33 0 51 13t18 37q0 19 -17 31.5t-63 32.5l-52 22q-73 30 -109.5 63.5t-36.5 92.5q0 42 21.5 75t56.5 55v6q-42 37 -42 104q0 44 23 79.5t64.5 55.5t95.5 20
q110 0 188 -67l-49 -80q-32 23 -66 35.5t-66 12.5q-30 0 -48 -14t-18 -37q0 -25 16.5 -39t59.5 -33l45 -20q48 -20 77 -38t48 -47t19 -73q0 -41 -20 -73t-52 -54v-4q48 -39 48 -101zM362 262q0 28 -22 45.5t-77 40.5l-54 23q-46 -24 -46 -69q0 -26 23 -43t67 -36l72 -31
q37 28 37 70z" />
    <glyph glyph-name="dieresis" unicode="&#xa8;" horiz-adv-x="448" 
d="M70 592q-20 19 -20 49q0 31 20 50.5t52 19.5t52.5 -19.5t20.5 -50.5q0 -30 -20.5 -49t-52.5 -19t-52 19zM273 592q-20 19 -20 49q0 31 20 50.5t52 19.5t52.5 -19.5t20.5 -50.5q0 -30 -20.5 -49t-52.5 -19t-52 19z" />
    <glyph glyph-name="copyright" unicode="&#xa9;" horiz-adv-x="742" 
d="M206.5 31.5q-73.5 41.5 -115.5 119.5t-42 182q0 105 42 183t115.5 120t165.5 42q91 0 163.5 -42t114.5 -120t42 -183q0 -104 -42 -182t-114.5 -119.5t-163.5 -41.5q-92 0 -165.5 41.5zM503 85q57 34 89 98t32 150t-32 150.5t-89 99t-131 34.5q-75 0 -133 -34.5t-90.5 -99
t-32.5 -150.5t32.5 -150t90.5 -98t133 -34q74 0 131 34zM325.5 247q22.5 -31 57.5 -31q26 0 43.5 15.5t31.5 48.5l72 -39q-17 -52 -57.5 -79t-91.5 -27q-50 0 -89.5 24t-62 69.5t-22.5 108.5t22.5 109t61.5 70t89 24t89 -25.5t57 -74.5l-74 -39q-22 57 -70 57
q-35 0 -57 -30.5t-22 -90.5q0 -59 22.5 -90z" />
    <glyph glyph-name="ordfeminine" unicode="&#xaa;" horiz-adv-x="419" 
d="M355 363.5q2 -32.5 4 -47.5h-92l-4 45h-5q-27 -52 -97 -52q-54 0 -84 26t-30 73q0 52 28.5 76.5t76.5 35.5q47 14 99 20v14q0 49 -47 49q-21 0 -34.5 -7.5t-15.5 -23.5h-93q4 48 41.5 76t101.5 28q69 0 109 -34.5t40 -99.5v-121q0 -25 2 -57.5zM235.5 398
q15.5 19 15.5 54v30l-51 -11q-26 -7 -36.5 -20t-10.5 -34q0 -18 9.5 -28t28.5 -10q29 0 44.5 19z" />
    <glyph glyph-name="guillemotleft" unicode="&#xab;" horiz-adv-x="499" 
d="M145 51l-118 204l118 198h97l-81 -198l81 -204h-97zM347 51l-117 204l117 198h98l-81 -198l81 -204h-98z" />
    <glyph glyph-name="logicalnot" unicode="&#xac;" 
d="M513 355v-284h-109v180h-382v104h491z" />
    <glyph glyph-name="uni00AD" unicode="&#xad;" horiz-adv-x="384" 
d="M65 332h254v-104h-254v104z" />
    <glyph glyph-name="registered" unicode="&#xae;" horiz-adv-x="479" 
d="M339 655q44 -25 69.5 -70.5t25.5 -105.5q0 -61 -25.5 -107t-69.5 -70.5t-99 -24.5t-99.5 24.5t-70 70.5t-25.5 107q0 60 25.5 105.5t70 70.5t99.5 25t99 -25zM350 359q43 44 43 120q0 74 -43 118t-110 44q-68 0 -111.5 -44t-43.5 -118q0 -75 43.5 -119.5t111.5 -44.5
q67 0 110 44zM320 486.5q-11 -16.5 -30 -24.5l55 -95h-71l-41 83h-18v-83h-61v232h86q40 0 65.5 -19.5t25.5 -54.5q0 -22 -11 -38.5zM215 497h23q14 0 22.5 7t8.5 18q0 13 -8.5 20.5t-22.5 7.5h-23v-53z" />
    <glyph glyph-name="macron" unicode="&#xaf;" horiz-adv-x="448" 
d="M64 684h321v-97h-321v97z" />
    <glyph glyph-name="degree" unicode="&#xb0;" horiz-adv-x="379" 
d="M83.5 418q-40.5 44 -40.5 109t40.5 109t106.5 44q43 0 76.5 -20.5t51.5 -55.5t18 -77q0 -65 -40.5 -109t-105.5 -44q-66 0 -106.5 44zM240 469q18 23 18 58t-18 58t-50 23q-33 0 -51 -23t-18 -58t18 -58t51 -23q32 0 50 23z" />
    <glyph glyph-name="plusminus" unicode="&#xb1;" 
d="M498 441v-103h-171v-174h-111v174h-173v103h173v179h111v-179h171zM43 109h455v-104h-455v104z" />
    <glyph glyph-name="uni00B2" unicode="&#xb2;" horiz-adv-x="361" 
d="M42 359q66 48 100 77t52 56.5t18 58.5q0 19 -10 31.5t-30 12.5q-19 0 -30.5 -13t-11.5 -31h-91q0 59 40 91.5t97 32.5q64 0 101.5 -31.5t37.5 -88.5q0 -62 -44.5 -108t-117.5 -86v-5q32 4 65 4h102v-79h-278v78z" />
    <glyph glyph-name="uni00B3" unicode="&#xb3;" horiz-adv-x="362" 
d="M300 452q23 -25 23 -62q0 -51 -41 -83.5t-111 -32.5q-113 0 -143 85l73 31q9 -21 26 -31t38 -10q27 0 40.5 14t13.5 33t-12.5 33.5t-38.5 14.5h-33v71h27q25 0 37 12t12 33q0 18 -12.5 29t-34.5 11q-40 0 -58 -43l-71 30q11 41 47.5 64.5t84.5 23.5q64 0 102.5 -29
t38.5 -75q0 -32 -18 -52.5t-46 -28.5v-6q33 -7 56 -32z" />
    <glyph glyph-name="acute" unicode="&#xb4;" horiz-adv-x="448" 
d="M204 741h140l-129 -162h-106z" />
    <glyph glyph-name="uni00B5" unicode="&#xb5;" horiz-adv-x="596" 
d="M556 103v-102q-27 -9 -61 -9q-47 0 -72 16.5t-35 48.5h-5q-15 -32 -40 -48.5t-57 -16.5q-48 0 -73 30h-6v-201h-134v682h134v-320q0 -45 20 -66.5t53 -21.5q39 0 63.5 29t24.5 85v294h134v-337q0 -40 8.5 -52.5t27.5 -12.5q8 0 18 2z" />
    <glyph glyph-name="paragraph" unicode="&#xb6;" horiz-adv-x="563" 
d="M477 -179h-79v777h-83v-777h-80v430h-22q-90 0 -137.5 53t-47.5 157q0 102 47.5 154.5t137.5 52.5h264v-847z" />
    <glyph glyph-name="periodcentered" unicode="&#xb7;" horiz-adv-x="286" 
d="M78 217q-25 24 -25 64q0 38 25 62.5t65 24.5t65 -24.5t25 -62.5q0 -40 -25 -64t-65 -24t-65 24z" />
    <glyph glyph-name="cedilla" unicode="&#xb8;" horiz-adv-x="448" 
d="M106 -129l46 46q27 -29 54 -29q18 0 28 10t10 27q0 24 -19.5 47.5t-60.5 50.5l90 -9l14 -9q34 -23 55 -45t21 -58q0 -42 -30 -67t-84 -25q-80 0 -124 61z" />
    <glyph glyph-name="uni00B9" unicode="&#xb9;" horiz-adv-x="315" 
d="M288 360v-79h-247v79h77v177q-29 -11 -74 -11v77q85 3 96 65h80v-308h68z" />
    <glyph glyph-name="ordmasculine" unicode="&#xba;" horiz-adv-x="428" 
d="M90 358.5q-46 49.5 -46 133.5q0 85 46 134.5t125 49.5q77 0 123 -49.5t46 -134.5q0 -84 -46 -133.5t-123 -49.5q-79 0 -125 49.5zM260.5 416.5q17.5 26.5 17.5 75.5q0 50 -17.5 77t-45.5 27q-29 0 -47 -27t-18 -77q0 -49 18 -75.5t47 -26.5q28 0 45.5 26.5z" />
    <glyph glyph-name="guillemotright" unicode="&#xbb;" horiz-adv-x="499" 
d="M127 255l-81 198h98l117 -198l-117 -204h-98zM330 255l-81 198h97l118 -198l-118 -204h-97z" />
    <glyph glyph-name="onequarter" unicode="&#xbc;" horiz-adv-x="856" 
d="M288 360v-79h-247v79h77v177q-29 -11 -74 -11v77q85 3 96 65h80v-308h68zM277 0h-114l423 668h115zM823 69h-52v-69h-95v69h-161v86l127 232h129v-240h52v-78zM588 145h98v101q0 45 3 87h-5q-13 -36 -33 -74z" />
    <glyph glyph-name="onehalf" unicode="&#xbd;" horiz-adv-x="869" 
d="M288 360v-79h-247v79h77v177q-29 -11 -74 -11v77q85 3 96 65h80v-308h68zM277 0h-114l423 668h115zM549 78q66 48 100 77t52 56.5t18 58.5q0 19 -10 31.5t-30 12.5q-19 0 -30.5 -13t-11.5 -31h-91q0 59 40 91.5t97 32.5q64 0 101.5 -31.5t37.5 -88.5q0 -62 -44.5 -108
t-117.5 -86v-5q32 4 65 4h102v-79h-278v78z" />
    <glyph glyph-name="threequarters" unicode="&#xbe;" horiz-adv-x="877" 
d="M300 452q23 -25 23 -62q0 -51 -41 -83.5t-111 -32.5q-113 0 -143 85l73 31q9 -21 26 -31t38 -10q27 0 40.5 14t13.5 33t-12.5 33.5t-38.5 14.5h-33v71h27q25 0 37 12t12 33q0 18 -12.5 29t-34.5 11q-40 0 -58 -43l-71 30q11 41 47.5 64.5t84.5 23.5q64 0 102.5 -29
t38.5 -75q0 -32 -18 -52.5t-46 -28.5v-6q33 -7 56 -32zM298 0h-114l423 668h115zM844 69h-52v-69h-95v69h-161v86l127 232h129v-240h52v-78zM609 145h98v101q0 45 3 87h-5q-13 -36 -33 -74z" />
    <glyph glyph-name="questiondown" unicode="&#xbf;" horiz-adv-x="458" 
d="M171 361.5q-25 24.5 -25 63.5q0 40 25 64t65 24q41 0 66 -24t25 -64q0 -39 -25.5 -63.5t-65.5 -24.5t-65 24.5zM432 7q0 -92 -53.5 -145t-145.5 -53q-55 0 -101 22t-73.5 65t-27.5 102q0 65 38 116t104 81v85h127v-152q-64 -18 -93.5 -49t-29.5 -77q0 -36 15 -56.5
t46 -20.5q30 0 45.5 23t15.5 59h133z" />
    <glyph glyph-name="Agrave" unicode="&#xc0;" horiz-adv-x="638" 
d="M431 145h-231l-43 -145h-136l215 668h165l217 -668h-145zM400 250l-60 206q-17 63 -21 90h-6q-8 -42 -21 -88l-61 -208h169zM275 745l-125 144h147l91 -144h-113z" />
    <glyph glyph-name="Aacute" unicode="&#xc1;" horiz-adv-x="638" 
d="M431 145h-231l-43 -145h-136l215 668h165l217 -668h-145zM400 250l-60 206q-17 63 -21 90h-6q-8 -42 -21 -88l-61 -208h169zM343 889h148l-125 -144h-113z" />
    <glyph glyph-name="Acircumflex" unicode="&#xc2;" horiz-adv-x="638" 
d="M431 145h-231l-43 -145h-136l215 668h165l217 -668h-145zM400 250l-60 206q-17 63 -21 90h-6q-8 -42 -21 -88l-61 -208h169zM388 745l-67 74l-67 -74h-110l110 137h134l109 -137h-109z" />
    <glyph glyph-name="Atilde" unicode="&#xc3;" horiz-adv-x="638" 
d="M431 145h-231l-43 -145h-136l215 668h165l217 -668h-145zM400 250l-60 206q-17 63 -21 90h-6q-8 -42 -21 -88l-61 -208h169zM343 750q-19 8 -43 25q-10 7 -20 13t-18 6q-29 0 -33 -46h-87q3 74 35.5 107t77.5 33q25 0 44 -8t41 -24q14 -12 22 -16.5t18 -4.5q13 0 21 10.5
t12 36.5h86q-3 -77 -36 -108.5t-77 -31.5q-24 0 -43 8z" />
    <glyph glyph-name="Adieresis" unicode="&#xc4;" horiz-adv-x="638" 
d="M431 145h-231l-43 -145h-136l215 668h165l217 -668h-145zM400 250l-60 206q-17 63 -21 90h-6q-8 -42 -21 -88l-61 -208h169zM153 752.5q-21 19.5 -21 52.5q0 32 21 52t55 20t54.5 -20t20.5 -52q0 -33 -20.5 -52.5t-54.5 -19.5t-55 19.5zM380 752.5q-21 19.5 -21 52.5
q0 32 21 52t55 20q33 0 54.5 -20t21.5 -52q0 -33 -21.5 -52.5t-54.5 -19.5q-34 0 -55 19.5z" />
    <glyph glyph-name="Aring" unicode="&#xc5;" horiz-adv-x="638" 
d="M431 145h-231l-43 -145h-136l215 668h165l217 -668h-145zM400 250l-60 206q-17 63 -21 90h-6q-8 -42 -21 -88l-61 -208h169zM231.5 745.5q-34.5 29.5 -34.5 77.5q0 47 34.5 77.5t87.5 30.5q54 0 89 -30.5t35 -77.5q0 -48 -35 -77.5t-89 -29.5q-53 0 -87.5 29.5zM355 791
q14 13 14 32q0 20 -14 33t-36 13t-35 -13.5t-13 -32.5t13.5 -32t34.5 -13q22 0 36 13z" />
    <glyph glyph-name="AE" unicode="&#xc6;" horiz-adv-x="887" 
d="M831 110v-110h-412v141h-211l-74 -141h-144l365 668h471v-110h-268v-161h250v-106h-250v-181h273zM419 245v215q0 36 4 92h-5q-11 -30 -42 -91l-113 -216h156z" />
    <glyph glyph-name="Ccedilla" unicode="&#xc7;" horiz-adv-x="630" 
d="M523.5 52q-51.5 -45 -120.5 -58v-7q49 -36 49 -81q0 -46 -31 -71.5t-88 -25.5q-45 0 -78 18t-53 46l51 51q24 -30 53 -30q39 0 39 35q0 29 -32 61q-75 7 -135 50t-94 118.5t-34 175.5q0 107 38.5 185t105 119.5t148.5 41.5q86 0 153 -43t97 -128l-110 -53
q-39 110 -137 110q-69 0 -111 -57.5t-42 -174.5t42 -174.5t112 -57.5q48 0 85 30t58 94l111 -55q-25 -74 -76.5 -119z" />
    <glyph glyph-name="Egrave" unicode="&#xc8;" horiz-adv-x="562" 
d="M507 110v-110h-424v668h417v-110h-279v-161h260v-106h-260v-181h286zM247 745l-125 144h147l91 -144h-113z" />
    <glyph glyph-name="Eacute" unicode="&#xc9;" horiz-adv-x="562" 
d="M507 110v-110h-424v668h417v-110h-279v-161h260v-106h-260v-181h286zM315 889h148l-125 -144h-113z" />
    <glyph glyph-name="Ecircumflex" unicode="&#xca;" horiz-adv-x="562" 
d="M507 110v-110h-424v668h417v-110h-279v-161h260v-106h-260v-181h286zM359 745l-67 74l-67 -74h-110l110 137h134l109 -137h-109z" />
    <glyph glyph-name="Edieresis" unicode="&#xcb;" horiz-adv-x="562" 
d="M507 110v-110h-424v668h417v-110h-279v-161h260v-106h-260v-181h286zM124 752.5q-21 19.5 -21 52.5q0 32 21 52t55 20t54.5 -20t20.5 -52q0 -33 -20.5 -52.5t-54.5 -19.5t-55 19.5zM351 752.5q-21 19.5 -21 52.5q0 32 21 52t55 20q33 0 54.5 -20t21.5 -52
q0 -33 -21.5 -52.5t-54.5 -19.5q-34 0 -55 19.5z" />
    <glyph glyph-name="Igrave" unicode="&#xcc;" horiz-adv-x="396" 
d="M267 561v-454h75v-107h-288v107h75v454h-75v107h288v-107h-75zM153 745l-125 144h147l91 -144h-113z" />
    <glyph glyph-name="Iacute" unicode="&#xcd;" horiz-adv-x="396" 
d="M267 561v-454h75v-107h-288v107h75v454h-75v107h288v-107h-75zM221 889h148l-125 -144h-113z" />
    <glyph glyph-name="Icircumflex" unicode="&#xce;" horiz-adv-x="396" 
d="M152 744h-106l85 138h135l86 -138h-106l-48 69zM342 561h-75v-454h75v-107h-288v107h75v454h-75v107h288v-107z" />
    <glyph glyph-name="Idieresis" unicode="&#xcf;" horiz-adv-x="396" 
d="M155 752.5q-20 -19.5 -51 -19.5t-51.5 20t-20.5 52t20.5 52t51.5 20t51 -20t20 -52q0 -33 -20 -52.5zM344.5 857q20.5 -20 20.5 -52t-20.5 -52t-51.5 -20t-51.5 20t-20.5 52t20.5 52t51.5 20t51.5 -20zM342 561h-75v-454h75v-107h-288v107h75v454h-75v107h288v-107z" />
    <glyph glyph-name="Eth" unicode="&#xd0;" horiz-adv-x="705" 
d="M501.5 629q72.5 -39 113 -114.5t40.5 -180.5t-40.5 -180.5t-113 -114.5t-167.5 -39h-227v299h-82v84h82v285h227q95 0 167.5 -39zM461 170q52 58 52 164t-52 164t-140 58h-76v-173h132v-84h-132v-187h76q88 0 140 58z" />
    <glyph glyph-name="Ntilde" unicode="&#xd1;" horiz-adv-x="682" 
d="M83 668h177l169 -389q29 -68 39 -104h5q-3 60 -3 111v382h129v-668h-177l-169 389q-29 71 -39 108h-6q4 -52 4 -115v-382h-129v668zM378 750q-19 8 -43 25q-10 7 -20 13t-18 6q-29 0 -33 -46h-87q3 74 35.5 107t77.5 33q25 0 44 -8t41 -24q14 -12 22 -16.5t18 -4.5
q13 0 21 10.5t12 36.5h86q-3 -77 -36 -108.5t-77 -31.5q-24 0 -43 8z" />
    <glyph glyph-name="Ograve" unicode="&#xd2;" horiz-adv-x="706" 
d="M195.5 29.5q-68.5 41.5 -107 120t-38.5 184.5t38.5 184.5t107 120t157.5 41.5t157.5 -41.5t107 -120t38.5 -184.5t-38.5 -184.5t-107 -120t-157.5 -41.5t-157.5 41.5zM469 160.5q45 58.5 45 173.5t-45 173.5t-116 58.5t-116 -58.5t-45 -173.5t45 -173.5t116 -58.5
t116 58.5zM307 745l-125 144h147l91 -144h-113z" />
    <glyph glyph-name="Oacute" unicode="&#xd3;" horiz-adv-x="706" 
d="M195.5 29.5q-68.5 41.5 -107 120t-38.5 184.5t38.5 184.5t107 120t157.5 41.5t157.5 -41.5t107 -120t38.5 -184.5t-38.5 -184.5t-107 -120t-157.5 -41.5t-157.5 41.5zM469 160.5q45 58.5 45 173.5t-45 173.5t-116 58.5t-116 -58.5t-45 -173.5t45 -173.5t116 -58.5
t116 58.5zM375 889h148l-125 -144h-113z" />
    <glyph glyph-name="Ocircumflex" unicode="&#xd4;" horiz-adv-x="706" 
d="M195.5 29.5q-68.5 41.5 -107 120t-38.5 184.5t38.5 184.5t107 120t157.5 41.5t157.5 -41.5t107 -120t38.5 -184.5t-38.5 -184.5t-107 -120t-157.5 -41.5t-157.5 41.5zM469 160.5q45 58.5 45 173.5t-45 173.5t-116 58.5t-116 -58.5t-45 -173.5t45 -173.5t116 -58.5
t116 58.5zM419 745l-67 74l-67 -74h-110l110 137h134l109 -137h-109z" />
    <glyph glyph-name="Otilde" unicode="&#xd5;" horiz-adv-x="706" 
d="M195.5 29.5q-68.5 41.5 -107 120t-38.5 184.5t38.5 184.5t107 120t157.5 41.5t157.5 -41.5t107 -120t38.5 -184.5t-38.5 -184.5t-107 -120t-157.5 -41.5t-157.5 41.5zM469 160.5q45 58.5 45 173.5t-45 173.5t-116 58.5t-116 -58.5t-45 -173.5t45 -173.5t116 -58.5
t116 58.5zM374 750q-19 8 -43 25q-10 7 -20 13t-18 6q-29 0 -33 -46h-87q3 74 35.5 107t77.5 33q25 0 44 -8t41 -24q14 -12 22 -16.5t18 -4.5q13 0 21 10.5t12 36.5h86q-3 -77 -36 -108.5t-77 -31.5q-24 0 -43 8z" />
    <glyph glyph-name="Odieresis" unicode="&#xd6;" horiz-adv-x="706" 
d="M195.5 29.5q-68.5 41.5 -107 120t-38.5 184.5t38.5 184.5t107 120t157.5 41.5t157.5 -41.5t107 -120t38.5 -184.5t-38.5 -184.5t-107 -120t-157.5 -41.5t-157.5 41.5zM469 160.5q45 58.5 45 173.5t-45 173.5t-116 58.5t-116 -58.5t-45 -173.5t45 -173.5t116 -58.5
t116 58.5zM184 752.5q-21 19.5 -21 52.5q0 32 21 52t55 20t54.5 -20t20.5 -52q0 -33 -20.5 -52.5t-54.5 -19.5t-55 19.5zM411 752.5q-21 19.5 -21 52.5q0 32 21 52t55 20q33 0 54.5 -20t21.5 -52q0 -33 -21.5 -52.5t-54.5 -19.5q-34 0 -55 19.5z" />
    <glyph glyph-name="multiply" unicode="&#xd7;" 
d="M343 303l164 -174l-74 -74l-162 172l-162 -172l-74 74l164 174l-165 175l73 73l164 -173l164 173l73 -73z" />
    <glyph glyph-name="Oslash" unicode="&#xd8;" horiz-adv-x="709" 
d="M658 334q0 -106 -38.5 -184.5t-107 -120t-157.5 -41.5q-98 0 -172 51l-55 -69l-65 54l59 74q-70 92 -70 236q0 106 38.5 184.5t107 120t157.5 41.5q100 0 173 -52l47 62l67 -51l-53 -71q69 -91 69 -234zM239 507.5q-45 -58.5 -45 -173.5q0 -72 19 -124l239 319
q-40 37 -97 37q-71 0 -116 -58.5zM471 160.5q45 58.5 45 173.5q0 69 -17 118l-237 -317q39 -33 93 -33q71 0 116 58.5z" />
    <glyph glyph-name="Ugrave" unicode="&#xd9;" horiz-adv-x="655" 
d="M145 47.5q-67 59.5 -67 172.5v448h138v-430q0 -136 115 -136q54 0 85 33.5t31 102.5v430h130v-448q0 -113 -68 -172.5t-183 -59.5q-114 0 -181 59.5zM286 745l-125 144h147l91 -144h-113z" />
    <glyph glyph-name="Uacute" unicode="&#xda;" horiz-adv-x="655" 
d="M145 47.5q-67 59.5 -67 172.5v448h138v-430q0 -136 115 -136q54 0 85 33.5t31 102.5v430h130v-448q0 -113 -68 -172.5t-183 -59.5q-114 0 -181 59.5zM354 889h148l-125 -144h-113z" />
    <glyph glyph-name="Ucircumflex" unicode="&#xdb;" horiz-adv-x="655" 
d="M145 47.5q-67 59.5 -67 172.5v448h138v-430q0 -136 115 -136q54 0 85 33.5t31 102.5v430h130v-448q0 -113 -68 -172.5t-183 -59.5q-114 0 -181 59.5zM399 745l-67 74l-67 -74h-110l110 137h134l109 -137h-109z" />
    <glyph glyph-name="Udieresis" unicode="&#xdc;" horiz-adv-x="655" 
d="M145 47.5q-67 59.5 -67 172.5v448h138v-430q0 -136 115 -136q54 0 85 33.5t31 102.5v430h130v-448q0 -113 -68 -172.5t-183 -59.5q-114 0 -181 59.5zM163 752.5q-21 19.5 -21 52.5q0 32 21 52t55 20t54.5 -20t20.5 -52q0 -33 -20.5 -52.5t-54.5 -19.5t-55 19.5z
M390 752.5q-21 19.5 -21 52.5q0 32 21 52t55 20q33 0 54.5 -20t21.5 -52q0 -33 -21.5 -52.5t-54.5 -19.5q-34 0 -55 19.5z" />
    <glyph glyph-name="Yacute" unicode="&#xdd;" horiz-adv-x="636" 
d="M387 287v-287h-138v284l-230 384h156l115 -204q23 -44 28 -59h6q9 27 29 59l117 204h150zM343 889h148l-125 -144h-113z" />
    <glyph glyph-name="Thorn" unicode="&#xde;" horiz-adv-x="610" 
d="M445.5 532q56.5 -24 89 -71t32.5 -114t-32.5 -115t-88.5 -72.5t-127 -24.5h-98v-135h-138v668h138v-112h98q70 0 126.5 -24zM396.5 270q28.5 26 28.5 75q0 47 -28.5 72.5t-81.5 25.5h-94v-199h94q53 0 81.5 26z" />
    <glyph glyph-name="germandbls" unicode="&#xdf;" horiz-adv-x="579" 
d="M465.5 360q30.5 -24 50.5 -64.5t20 -92.5q0 -63 -26.5 -111.5t-74 -75.5t-107.5 -27q-26 0 -56 6l13 102q14 -4 23 -4q43 0 66.5 34t23.5 85q0 54 -25 88t-74 34h-12v101h4q38 0 58.5 21.5t20.5 61.5t-21 62t-60 22q-37 0 -59.5 -25t-22.5 -72v-505h-134v474
q0 113 61.5 173t163.5 60q59 0 105 -22.5t71.5 -62t25.5 -89.5q0 -55 -27.5 -89.5t-70.5 -47.5v-5q33 -7 63.5 -31z" />
    <glyph glyph-name="agrave" unicode="&#xe0;" horiz-adv-x="530" 
d="M470 0h-121q-6 38 -6 66h-6q-40 -76 -142 -76q-70 0 -112 37t-42 104q0 73 40.5 108.5t101.5 50.5q61 16 144 28v21q0 39 -17 57.5t-53 18.5q-29 0 -47.5 -13t-20.5 -36h-128q5 67 57.5 107t139.5 40q93 0 148 -48.5t55 -140.5v-177q0 -61 9 -147zM302.5 112
q24.5 30 24.5 82v45q-30 -5 -78 -17q-38 -10 -54 -29t-16 -49q0 -62 56 -62q43 0 67.5 30zM222 579l-129 162h140l95 -162h-106z" />
    <glyph glyph-name="aacute" unicode="&#xe1;" horiz-adv-x="530" 
d="M470 0h-121q-6 38 -6 66h-6q-40 -76 -142 -76q-70 0 -112 37t-42 104q0 73 40.5 108.5t101.5 50.5q61 16 144 28v21q0 39 -17 57.5t-53 18.5q-29 0 -47.5 -13t-20.5 -36h-128q5 67 57.5 107t139.5 40q93 0 148 -48.5t55 -140.5v-177q0 -61 9 -147zM302.5 112
q24.5 30 24.5 82v45q-30 -5 -78 -17q-38 -10 -54 -29t-16 -49q0 -62 56 -62q43 0 67.5 30zM294 741h140l-129 -162h-106z" />
    <glyph glyph-name="acircumflex" unicode="&#xe2;" horiz-adv-x="530" 
d="M470 0h-121q-6 38 -6 66h-6q-40 -76 -142 -76q-70 0 -112 37t-42 104q0 73 40.5 108.5t101.5 50.5q61 16 144 28v21q0 39 -17 57.5t-53 18.5q-29 0 -47.5 -13t-20.5 -36h-128q5 67 57.5 107t139.5 40q93 0 148 -48.5t55 -140.5v-177q0 -61 9 -147zM302.5 112
q24.5 30 24.5 82v45q-30 -5 -78 -17q-38 -10 -54 -29t-16 -49q0 -62 56 -62q43 0 67.5 30zM326 579l-61 77l-62 -77h-107l104 146h128l104 -146h-106z" />
    <glyph glyph-name="atilde" unicode="&#xe3;" horiz-adv-x="530" 
d="M470 0h-121q-6 38 -6 66h-6q-40 -76 -142 -76q-70 0 -112 37t-42 104q0 73 40.5 108.5t101.5 50.5q61 16 144 28v21q0 39 -17 57.5t-53 18.5q-29 0 -47.5 -13t-20.5 -36h-128q5 67 57.5 107t139.5 40q93 0 148 -48.5t55 -140.5v-177q0 -61 9 -147zM302.5 112
q24.5 30 24.5 82v45q-30 -5 -78 -17q-38 -10 -54 -29t-16 -49q0 -62 56 -62q43 0 67.5 30zM282.5 587q-18.5 9 -37.5 24q-22 18 -36 18q-13 0 -21 -10t-11 -36h-83q3 73 34 105.5t74 32.5q26 0 44 -8.5t36 -23.5q14 -11 21.5 -15.5t16.5 -4.5q13 0 21 10t11 37h83
q-3 -75 -34.5 -106.5t-73.5 -31.5q-26 0 -44.5 9z" />
    <glyph glyph-name="adieresis" unicode="&#xe4;" horiz-adv-x="530" 
d="M470 0h-121q-6 38 -6 66h-6q-40 -76 -142 -76q-70 0 -112 37t-42 104q0 73 40.5 108.5t101.5 50.5q61 16 144 28v21q0 39 -17 57.5t-53 18.5q-29 0 -47.5 -13t-20.5 -36h-128q5 67 57.5 107t139.5 40q93 0 148 -48.5t55 -140.5v-177q0 -61 9 -147zM302.5 112
q24.5 30 24.5 82v45q-30 -5 -78 -17q-38 -10 -54 -29t-16 -49q0 -62 56 -62q43 0 67.5 30zM111 592q-20 19 -20 49q0 31 20 50.5t52 19.5t52.5 -19.5t20.5 -50.5q0 -30 -20.5 -49t-52.5 -19t-52 19zM314 592q-20 19 -20 49q0 31 20 50.5t52 19.5t52.5 -19.5t20.5 -50.5
q0 -30 -20.5 -49t-52.5 -19t-52 19z" />
    <glyph glyph-name="aring" unicode="&#xe5;" horiz-adv-x="530" 
d="M470 0h-121q-6 38 -6 66h-6q-40 -76 -142 -76q-70 0 -112 37t-42 104q0 73 40.5 108.5t101.5 50.5q61 16 144 28v21q0 39 -17 57.5t-53 18.5q-29 0 -47.5 -13t-20.5 -36h-128q5 67 57.5 107t139.5 40q93 0 148 -48.5t55 -140.5v-177q0 -61 9 -147zM302.5 112
q24.5 30 24.5 82v45q-30 -5 -78 -17q-38 -10 -54 -29t-16 -49q0 -62 56 -62q43 0 67.5 30zM175.5 592q-34.5 30 -34.5 78q0 47 34.5 77t87.5 30q54 0 89 -30t35 -77q0 -48 -35 -78t-89 -30q-53 0 -87.5 30zM299 637q14 13 14 33q0 19 -14.5 32.5t-35.5 13.5q-22 0 -35 -13.5
t-13 -32.5t13.5 -32.5t34.5 -13.5q22 0 36 13z" />
    <glyph glyph-name="ae" unicode="&#xe6;" horiz-adv-x="813" 
d="M769 223h-309q11 -132 116 -132q32 0 58 15t51 43l71 -76q-35 -40 -85 -61.5t-107 -21.5q-121 0 -185 92h-6q-53 -92 -173 -92q-74 0 -116.5 36.5t-42.5 103.5q0 74 43 110.5t113 49.5q59 11 130 13v36q0 39 -17 57.5t-53 18.5q-29 0 -47.5 -13t-20.5 -36h-128
q4 66 57.5 106.5t134.5 40.5q101 0 148 -65h6q59 65 150 65q64 0 112 -30.5t75 -88t27 -136.5q0 -11 -2 -35zM494.5 387.5q-24.5 -28.5 -32.5 -84.5h177q-5 58 -25.5 85.5t-57.5 27.5t-61.5 -28.5zM302.5 112q24.5 30 24.5 82v32q-35 -2 -68 -6q-80 -10 -80 -76
q0 -30 14.5 -46t41.5 -16q43 0 67.5 30z" />
    <glyph glyph-name="ccedilla" unicode="&#xe7;" horiz-adv-x="505" 
d="M413.5 31.5q-39.5 -28.5 -87.5 -37.5v-7q50 -38 50 -85q0 -42 -30.5 -67t-83.5 -25q-80 0 -124 61l46 46q13 -14 26 -22t29 -8q18 0 28 10.5t10 27.5q0 34 -41 69q-89 14 -140.5 82t-51.5 174q0 80 29.5 139.5t83.5 91.5t124 32q62 0 111 -27.5t79 -85.5l-104 -52
q-15 30 -34.5 45t-49.5 15q-45 0 -73 -41t-28 -117q0 -75 28 -115t73 -40q31 0 52.5 16.5t37.5 51.5l103 -53q-23 -50 -62.5 -78.5z" />
    <glyph glyph-name="egrave" unicode="&#xe8;" horiz-adv-x="540" 
d="M496 222h-316q12 -130 120 -130q62 0 112 57l71 -76q-74 -83 -194 -83q-72 0 -127.5 30.5t-86.5 89t-31 140.5t29.5 141.5t82.5 90.5t121 31q66 0 116 -30t77.5 -87.5t27.5 -137.5q0 -14 -2 -36zM214 387q-25 -28 -32 -84h184q-12 112 -89 112q-38 0 -63 -28zM235 579
l-129 162h140l95 -162h-106z" />
    <glyph glyph-name="eacute" unicode="&#xe9;" horiz-adv-x="540" 
d="M496 222h-316q12 -130 120 -130q62 0 112 57l71 -76q-74 -83 -194 -83q-72 0 -127.5 30.5t-86.5 89t-31 140.5t29.5 141.5t82.5 90.5t121 31q66 0 116 -30t77.5 -87.5t27.5 -137.5q0 -14 -2 -36zM214 387q-25 -28 -32 -84h184q-12 112 -89 112q-38 0 -63 -28zM306 741
h140l-129 -162h-106z" />
    <glyph glyph-name="ecircumflex" unicode="&#xea;" horiz-adv-x="540" 
d="M496 222h-316q12 -130 120 -130q62 0 112 57l71 -76q-74 -83 -194 -83q-72 0 -127.5 30.5t-86.5 89t-31 140.5t29.5 141.5t82.5 90.5t121 31q66 0 116 -30t77.5 -87.5t27.5 -137.5q0 -14 -2 -36zM214 387q-25 -28 -32 -84h184q-12 112 -89 112q-38 0 -63 -28zM339 579
l-61 77l-62 -77h-107l104 146h128l104 -146h-106z" />
    <glyph glyph-name="edieresis" unicode="&#xeb;" horiz-adv-x="540" 
d="M496 222h-316q12 -130 120 -130q62 0 112 57l71 -76q-74 -83 -194 -83q-72 0 -127.5 30.5t-86.5 89t-31 140.5t29.5 141.5t82.5 90.5t121 31q66 0 116 -30t77.5 -87.5t27.5 -137.5q0 -14 -2 -36zM214 387q-25 -28 -32 -84h184q-12 112 -89 112q-38 0 -63 -28zM123 592
q-20 19 -20 49q0 31 20 50.5t52 19.5t52.5 -19.5t20.5 -50.5q0 -30 -20.5 -49t-52.5 -19t-52 19zM326 592q-20 19 -20 49q0 31 20 50.5t52 19.5t52.5 -19.5t20.5 -50.5q0 -30 -20.5 -49t-52.5 -19t-52 19z" />
    <glyph glyph-name="igrave" unicode="&#xec;" horiz-adv-x="280" 
d="M207 503v-503h-134v503h134zM98 579l-129 162h140l95 -162h-106z" />
    <glyph glyph-name="iacute" unicode="&#xed;" horiz-adv-x="280" 
d="M207 503v-503h-134v503h134zM169 741h140l-129 -162h-106z" />
    <glyph glyph-name="icircumflex" unicode="&#xee;" horiz-adv-x="280" 
d="M95 579h-101l82 146h128l84 -146h-101l-47 76zM73 503h134v-503h-134v503z" />
    <glyph glyph-name="idieresis" unicode="&#xef;" horiz-adv-x="280" 
d="M2.5 593q-18.5 18 -18.5 48q0 31 18.5 49.5t48.5 18.5q29 0 48 -18.5t19 -49.5q0 -30 -19 -48t-48 -18q-30 0 -48.5 18zM181 593q-19 18 -19 48q0 31 19 49.5t49 18.5t49 -18.5t19 -49.5q0 -30 -19 -48t-49 -18t-49 18zM207 503v-503h-134v503h134z" />
    <glyph glyph-name="eth" unicode="&#xf0;" horiz-adv-x="564" 
d="M516 267q0 -132 -62 -204.5t-173 -72.5q-110 0 -173 67t-63 180q0 70 25 124.5t69.5 84.5t99.5 30q78 0 121 -55h5q-29 71 -91 130l-122 -49l-24 59l96 39q-30 29 -65 57l95 56q50 -38 82 -70l106 42l24 -59l-82 -33q132 -152 132 -326zM356.5 134.5
q27.5 39.5 27.5 102.5q0 67 -27.5 104.5t-73.5 37.5t-73 -37t-27 -106q0 -68 26.5 -104.5t73.5 -36.5q46 0 73.5 39.5z" />
    <glyph glyph-name="ntilde" unicode="&#xf1;" horiz-adv-x="571" 
d="M424 492.5q36 -20.5 57 -58.5t21 -90v-344h-134v319q0 88 -70 88q-39 0 -65 -29.5t-26 -83.5v-294h-134v503h127v-65h6q38 75 138 75q44 0 80 -20.5zM307.5 587q-18.5 9 -37.5 24q-22 18 -36 18q-13 0 -21 -10t-11 -36h-83q3 73 34 105.5t74 32.5q26 0 44 -8.5t36 -23.5
q14 -11 21.5 -15.5t16.5 -4.5q13 0 21 10t11 37h83q-3 -75 -34.5 -106.5t-73.5 -31.5q-26 0 -44.5 9z" />
    <glyph glyph-name="ograve" unicode="&#xf2;" horiz-adv-x="570" 
d="M158 21.5q-54 31.5 -83.5 90.5t-29.5 139t29.5 139t84 91t126.5 32q73 0 127 -32t83.5 -91t29.5 -139t-29.5 -139t-83.5 -90.5t-127 -31.5t-127 31.5zM360.5 135q27.5 40 27.5 116q0 77 -27.5 117t-75.5 40t-75 -40.5t-27 -116.5t27 -116t75 -40t75.5 40zM243 579
l-129 162h140l95 -162h-106z" />
    <glyph glyph-name="oacute" unicode="&#xf3;" horiz-adv-x="570" 
d="M158 21.5q-54 31.5 -83.5 90.5t-29.5 139t29.5 139t84 91t126.5 32q73 0 127 -32t83.5 -91t29.5 -139t-29.5 -139t-83.5 -90.5t-127 -31.5t-127 31.5zM360.5 135q27.5 40 27.5 116q0 77 -27.5 117t-75.5 40t-75 -40.5t-27 -116.5t27 -116t75 -40t75.5 40zM314 741h140
l-129 -162h-106z" />
    <glyph glyph-name="ocircumflex" unicode="&#xf4;" horiz-adv-x="570" 
d="M158 21.5q-54 31.5 -83.5 90.5t-29.5 139t29.5 139t84 91t126.5 32q73 0 127 -32t83.5 -91t29.5 -139t-29.5 -139t-83.5 -90.5t-127 -31.5t-127 31.5zM360.5 135q27.5 40 27.5 116q0 77 -27.5 117t-75.5 40t-75 -40.5t-27 -116.5t27 -116t75 -40t75.5 40zM347 579l-61 77
l-62 -77h-107l104 146h128l104 -146h-106z" />
    <glyph glyph-name="otilde" unicode="&#xf5;" horiz-adv-x="570" 
d="M158 21.5q-54 31.5 -83.5 90.5t-29.5 139t29.5 139t84 91t126.5 32q73 0 127 -32t83.5 -91t29.5 -139t-29.5 -139t-83.5 -90.5t-127 -31.5t-127 31.5zM360.5 135q27.5 40 27.5 116q0 77 -27.5 117t-75.5 40t-75 -40.5t-27 -116.5t27 -116t75 -40t75.5 40zM302.5 587
q-18.5 9 -37.5 24q-22 18 -36 18q-13 0 -21 -10t-11 -36h-83q3 73 34 105.5t74 32.5q26 0 44 -8.5t36 -23.5q14 -11 21.5 -15.5t16.5 -4.5q13 0 21 10t11 37h83q-3 -75 -34.5 -106.5t-73.5 -31.5q-26 0 -44.5 9z" />
    <glyph glyph-name="odieresis" unicode="&#xf6;" horiz-adv-x="570" 
d="M158 21.5q-54 31.5 -83.5 90.5t-29.5 139t29.5 139t84 91t126.5 32q73 0 127 -32t83.5 -91t29.5 -139t-29.5 -139t-83.5 -90.5t-127 -31.5t-127 31.5zM360.5 135q27.5 40 27.5 116q0 77 -27.5 117t-75.5 40t-75 -40.5t-27 -116.5t27 -116t75 -40t75.5 40zM131 592
q-20 19 -20 49q0 31 20 50.5t52 19.5t52.5 -19.5t20.5 -50.5q0 -30 -20.5 -49t-52.5 -19t-52 19zM334 592q-20 19 -20 49q0 31 20 50.5t52 19.5t52.5 -19.5t20.5 -50.5q0 -30 -20.5 -49t-52.5 -19t-52 19z" />
    <glyph glyph-name="divide" unicode="&#xf7;" 
d="M215.5 437q-21.5 20 -21.5 52t21.5 52.5t55.5 20.5q33 0 54.5 -20.5t21.5 -52.5t-21.5 -52t-54.5 -20q-34 0 -55.5 20zM25 355h491v-104h-491v104zM215.5 65q-21.5 20 -21.5 52t21.5 52.5t55.5 20.5q33 0 54.5 -20.5t21.5 -52.5t-21.5 -52t-54.5 -20q-34 0 -55.5 20z" />
    <glyph glyph-name="oslash" unicode="&#xf8;" horiz-adv-x="577" 
d="M480 422q49 -66 49 -171q0 -80 -29.5 -139t-83.5 -90.5t-127 -31.5q-75 0 -131 34l-50 -58l-61 50l52 62q-50 69 -50 173q0 80 29.5 139t83.5 91t127 32q77 0 132 -35l47 57l61 -52zM210 370.5q-30 -41.5 -30 -119.5q0 -39 7 -66l163 206q-25 21 -61 21q-49 0 -79 -41.5z
M368 130q30 41 30 121q0 38 -7 65l-162 -207q26 -20 60 -20q49 0 79 41z" />
    <glyph glyph-name="ugrave" unicode="&#xf9;" horiz-adv-x="571" 
d="M498 503v-503h-127v65h-6q-38 -75 -138 -75q-44 0 -80 20.5t-57 58.5t-21 90v344h134v-319q0 -88 70 -88q39 0 65 29.5t26 83.5v294h134zM245 579l-129 162h140l95 -162h-106z" />
    <glyph glyph-name="uacute" unicode="&#xfa;" horiz-adv-x="571" 
d="M498 503v-503h-127v65h-6q-38 -75 -138 -75q-44 0 -80 20.5t-57 58.5t-21 90v344h134v-319q0 -88 70 -88q39 0 65 29.5t26 83.5v294h134zM317 741h140l-129 -162h-106z" />
    <glyph glyph-name="ucircumflex" unicode="&#xfb;" horiz-adv-x="571" 
d="M498 503v-503h-127v65h-6q-38 -75 -138 -75q-44 0 -80 20.5t-57 58.5t-21 90v344h134v-319q0 -88 70 -88q39 0 65 29.5t26 83.5v294h134zM349 579l-61 77l-62 -77h-107l104 146h128l104 -146h-106z" />
    <glyph glyph-name="udieresis" unicode="&#xfc;" horiz-adv-x="571" 
d="M498 503v-503h-127v65h-6q-38 -75 -138 -75q-44 0 -80 20.5t-57 58.5t-21 90v344h134v-319q0 -88 70 -88q39 0 65 29.5t26 83.5v294h134zM134 592q-20 19 -20 49q0 31 20 50.5t52 19.5t52.5 -19.5t20.5 -50.5q0 -30 -20.5 -49t-52.5 -19t-52 19zM337 592q-20 19 -20 49
q0 31 20 50.5t52 19.5t52.5 -19.5t20.5 -50.5q0 -30 -20.5 -49t-52.5 -19t-52 19z" />
    <glyph glyph-name="yacute" unicode="&#xfd;" horiz-adv-x="521" 
d="M53 -183v103q24 -5 51 -5q33 0 51 21t33 76l7 22l-174 469h140l73 -245q12 -37 25 -96h6q9 48 24 97l77 244h135l-191 -527q-22 -61 -45 -96t-55 -52t-81 -17q-46 0 -76 6zM291 741h140l-129 -162h-106z" />
    <glyph glyph-name="thorn" unicode="&#xfe;" horiz-adv-x="586" 
d="M437 484q46 -29 74.5 -88t28.5 -144t-28.5 -144.5t-74.5 -88.5t-98 -29q-86 0 -127 63h-5v-232h-134v874h134v-246h4q41 64 128 64q52 0 98 -29zM376 135q26 40 26 117q0 76 -26 116t-73 40q-45 0 -71.5 -41t-26.5 -116q0 -74 26.5 -115t71.5 -41q47 0 73 40z" />
    <glyph glyph-name="ydieresis" unicode="&#xff;" horiz-adv-x="521" 
d="M53 -183v103q24 -5 51 -5q33 0 51 21t33 76l7 22l-174 469h140l73 -245q12 -37 25 -96h6q9 48 24 97l77 244h135l-191 -527q-22 -61 -45 -96t-55 -52t-81 -17q-46 0 -76 6zM108 592q-20 19 -20 49q0 31 20 50.5t52 19.5t52.5 -19.5t20.5 -50.5q0 -30 -20.5 -49t-52.5 -19
t-52 19zM311 592q-20 19 -20 49q0 31 20 50.5t52 19.5t52.5 -19.5t20.5 -50.5q0 -30 -20.5 -49t-52.5 -19t-52 19z" />
    <glyph glyph-name="Amacron" unicode="&#x100;" horiz-adv-x="638" 
d="M431 145h-231l-43 -145h-136l215 668h165l217 -668h-145zM400 250l-60 206q-17 63 -21 90h-6q-8 -42 -21 -88l-61 -208h169zM151 860h340v-102h-340v102z" />
    <glyph glyph-name="amacron" unicode="&#x101;" horiz-adv-x="530" 
d="M470 0h-121q-6 38 -6 66h-6q-40 -76 -142 -76q-70 0 -112 37t-42 104q0 73 40.5 108.5t101.5 50.5q61 16 144 28v21q0 39 -17 57.5t-53 18.5q-29 0 -47.5 -13t-20.5 -36h-128q5 67 57.5 107t139.5 40q93 0 148 -48.5t55 -140.5v-177q0 -61 9 -147zM302.5 112
q24.5 30 24.5 82v45q-30 -5 -78 -17q-38 -10 -54 -29t-16 -49q0 -62 56 -62q43 0 67.5 30zM104 684h321v-97h-321v97z" />
    <glyph glyph-name="Abreve" unicode="&#x102;" horiz-adv-x="638" 
d="M431 145h-231l-43 -145h-136l215 668h165l217 -668h-145zM400 250l-60 206q-17 63 -21 90h-6q-8 -42 -21 -88l-61 -208h169zM205.5 769.5q-43.5 38.5 -49.5 111.5h87q10 -66 77 -66t78 66h87q-6 -73 -49.5 -111.5t-115.5 -38.5q-71 0 -114.5 38.5z" />
    <glyph glyph-name="abreve" unicode="&#x103;" horiz-adv-x="530" 
d="M470 0h-121q-6 38 -6 66h-6q-40 -76 -142 -76q-70 0 -112 37t-42 104q0 73 40.5 108.5t101.5 50.5q61 16 144 28v21q0 39 -17 57.5t-53 18.5q-29 0 -47.5 -13t-20.5 -36h-128q5 67 57.5 107t139.5 40q93 0 148 -48.5t55 -140.5v-177q0 -61 9 -147zM302.5 112
q24.5 30 24.5 82v45q-30 -5 -78 -17q-38 -10 -54 -29t-16 -49q0 -62 56 -62q43 0 67.5 30zM157 610.5q-41 37.5 -46 108.5h83q5 -34 24 -50t47 -16t47 16t24 50h83q-5 -71 -46 -108.5t-108 -37.5t-108 37.5z" />
    <glyph glyph-name="Aogonek" unicode="&#x104;" horiz-adv-x="638" 
d="M431 145h-231l-43 -145h-136l215 668h165l217 -668h-145zM400 250l-60 206q-17 63 -21 90h-6q-8 -42 -21 -88l-61 -208h169zM410.5 -165.5q-32.5 25.5 -32.5 63.5q0 58 75 108l33 21l103 -5q-85 -40 -85 -85q0 -14 9 -22.5t22 -8.5q23 0 45 25l53 -63
q-27 -30 -57.5 -44.5t-78.5 -14.5q-54 0 -86.5 25.5z" />
    <glyph glyph-name="aogonek" unicode="&#x105;" horiz-adv-x="530" 
d="M484 -130q-19 -29 -48 -45t-66 -16q-52 0 -83.5 24.5t-31.5 62.5q0 30 20.5 56t69.5 55l3 2q-5 30 -5 57h-6q-40 -76 -142 -76q-70 0 -112 37t-42 104q0 73 40.5 108.5t101.5 50.5q61 16 144 28v21q0 39 -17 57.5t-53 18.5q-29 0 -47.5 -13t-20.5 -36h-128q5 67 57.5 107
t139.5 40q93 0 148 -48.5t55 -140.5v-177q0 -61 9 -147h-36q-60 -42 -60 -74q0 -12 6.5 -18.5t17.5 -6.5q10 0 18.5 6t17.5 18zM302.5 112q24.5 30 24.5 82v45q-30 -5 -78 -17q-38 -10 -54 -29t-16 -49q0 -62 56 -62q43 0 67.5 30z" />
    <glyph glyph-name="Cacute" unicode="&#x106;" horiz-adv-x="630" 
d="M234 159.5q42 -57.5 112 -57.5q48 0 85 30t58 94l111 -55q-30 -90 -99 -136.5t-158 -46.5q-82 0 -149 41.5t-105.5 119.5t-38.5 185t38.5 185t105 119.5t148.5 41.5q86 0 153 -43t97 -128l-110 -53q-39 110 -137 110q-69 0 -111 -57.5t-42 -174.5t42 -174.5zM365 889h148
l-125 -144h-113z" />
    <glyph glyph-name="cacute" unicode="&#x107;" horiz-adv-x="505" 
d="M156.5 21.5q-53.5 31.5 -83 90.5t-29.5 138q0 80 29.5 139.5t83.5 91.5t124 32q62 0 111 -27.5t79 -85.5l-104 -52q-15 30 -34.5 45t-49.5 15q-45 0 -73 -41t-28 -117q0 -75 28 -115t73 -40q31 0 52.5 16.5t37.5 51.5l103 -53q-28 -62 -81 -91t-114 -29
q-71 0 -124.5 31.5zM305 741h140l-129 -162h-106z" />
    <glyph glyph-name="Ccircumflex" unicode="&#x108;" horiz-adv-x="630" 
d="M234 159.5q42 -57.5 112 -57.5q48 0 85 30t58 94l111 -55q-30 -90 -99 -136.5t-158 -46.5q-82 0 -149 41.5t-105.5 119.5t-38.5 185t38.5 185t105 119.5t148.5 41.5q86 0 153 -43t97 -128l-110 -53q-39 110 -137 110q-69 0 -111 -57.5t-42 -174.5t42 -174.5zM409 745
l-67 74l-67 -74h-110l110 137h134l109 -137h-109z" />
    <glyph glyph-name="ccircumflex" unicode="&#x109;" horiz-adv-x="505" 
d="M156.5 21.5q-53.5 31.5 -83 90.5t-29.5 138q0 80 29.5 139.5t83.5 91.5t124 32q62 0 111 -27.5t79 -85.5l-104 -52q-15 30 -34.5 45t-49.5 15q-45 0 -73 -41t-28 -117q0 -75 28 -115t73 -40q31 0 52.5 16.5t37.5 51.5l103 -53q-28 -62 -81 -91t-114 -29
q-71 0 -124.5 31.5zM338 579l-61 77l-62 -77h-107l104 146h128l104 -146h-106z" />
    <glyph glyph-name="Cdotaccent" unicode="&#x10a;" horiz-adv-x="630" 
d="M234 159.5q42 -57.5 112 -57.5q48 0 85 30t58 94l111 -55q-30 -90 -99 -136.5t-158 -46.5q-82 0 -149 41.5t-105.5 119.5t-38.5 185t38.5 185t105 119.5t148.5 41.5q86 0 153 -43t97 -128l-110 -53q-39 110 -137 110q-69 0 -111 -57.5t-42 -174.5t42 -174.5zM281.5 755
q-23.5 22 -23.5 57q0 36 23 58t61 22t61 -22t23 -58q0 -35 -23.5 -57t-60.5 -22t-60.5 22z" />
    <glyph glyph-name="cdotaccent" unicode="&#x10b;" horiz-adv-x="505" 
d="M156.5 21.5q-53.5 31.5 -83 90.5t-29.5 138q0 80 29.5 139.5t83.5 91.5t124 32q62 0 111 -27.5t79 -85.5l-104 -52q-15 30 -34.5 45t-49.5 15q-45 0 -73 -41t-28 -117q0 -75 28 -115t73 -40q31 0 52.5 16.5t37.5 51.5l103 -53q-28 -62 -81 -91t-114 -29
q-71 0 -124.5 31.5zM217.5 587q-22.5 21 -22.5 55t22 55t58 21t58.5 -21t22.5 -55t-22.5 -55t-58.5 -21q-35 0 -57.5 21z" />
    <glyph glyph-name="Ccaron" unicode="&#x10c;" horiz-adv-x="630" 
d="M234 159.5q42 -57.5 112 -57.5q48 0 85 30t58 94l111 -55q-30 -90 -99 -136.5t-158 -46.5q-82 0 -149 41.5t-105.5 119.5t-38.5 185t38.5 185t105 119.5t148.5 41.5q86 0 153 -43t97 -128l-110 -53q-39 110 -137 110q-69 0 -111 -57.5t-42 -174.5t42 -174.5zM520 882
l-109 -137h-134l-110 137h110l67 -74l67 74h109z" />
    <glyph glyph-name="ccaron" unicode="&#x10d;" horiz-adv-x="505" 
d="M156.5 21.5q-53.5 31.5 -83 90.5t-29.5 138q0 80 29.5 139.5t83.5 91.5t124 32q62 0 111 -27.5t79 -85.5l-104 -52q-15 30 -34.5 45t-49.5 15q-45 0 -73 -41t-28 -117q0 -75 28 -115t73 -40q31 0 52.5 16.5t37.5 51.5l103 -53q-28 -62 -81 -91t-114 -29
q-71 0 -124.5 31.5zM444 725l-104 -146h-128l-104 146h107l62 -77l61 77h106z" />
    <glyph glyph-name="Dcaron" unicode="&#x10e;" horiz-adv-x="681" 
d="M478.5 629q72.5 -39 112.5 -114.5t40 -180.5t-40 -180.5t-112.5 -114.5t-167.5 -39h-228v668h228q95 0 167.5 -39zM437.5 170q51.5 58 51.5 164t-51.5 164t-139.5 58h-77v-444h77q88 0 139.5 58zM491 882l-109 -137h-134l-110 137h110l67 -74l67 74h109z" />
    <glyph glyph-name="dcaron" unicode="&#x10f;" horiz-adv-x="674" 
d="M379 695h134v-695h-127v65h-5q-40 -75 -134 -75q-52 0 -98 29t-74.5 88t-28.5 143q0 86 28.5 145.5t74.5 88.5t98 29q87 0 128 -64h4v246zM704 695l-42 -240h-90l13 240h119zM354.5 135.5q26.5 40.5 26.5 115.5t-26.5 116t-71.5 41q-47 0 -73 -40.5t-26 -117.5
q0 -76 26 -115.5t73 -39.5q45 0 71.5 40.5z" />
    <glyph glyph-name="Dcroat" unicode="&#x110;" horiz-adv-x="705" 
d="M501.5 629q72.5 -39 113 -114.5t40.5 -180.5t-40.5 -180.5t-113 -114.5t-167.5 -39h-227v299h-82v84h82v285h227q95 0 167.5 -39zM461 170q52 58 52 164t-52 164t-140 58h-76v-173h132v-84h-132v-187h76q88 0 140 58z" />
    <glyph glyph-name="dcroat" unicode="&#x111;" horiz-adv-x="586" 
d="M581 544h-68v-544h-127v65h-4q-41 -75 -135 -75q-52 0 -98 28.5t-74.5 85.5t-28.5 138t28.5 138t74.5 85.5t98 28.5q86 0 128 -63h4v113h-188v72h188v79h134v-79h68v-72zM354.5 134q26.5 39 26.5 109q0 68 -27 107.5t-71 39.5q-47 0 -73 -39t-26 -109q0 -71 26 -109
t73 -38q45 0 71.5 39z" />
    <glyph glyph-name="Emacron" unicode="&#x112;" horiz-adv-x="562" 
d="M507 110v-110h-424v668h417v-110h-279v-161h260v-106h-260v-181h286zM122 860h340v-102h-340v102z" />
    <glyph glyph-name="emacron" unicode="&#x113;" horiz-adv-x="540" 
d="M496 222h-316q12 -130 120 -130q62 0 112 57l71 -76q-74 -83 -194 -83q-72 0 -127.5 30.5t-86.5 89t-31 140.5t29.5 141.5t82.5 90.5t121 31q66 0 116 -30t77.5 -87.5t27.5 -137.5q0 -14 -2 -36zM214 387q-25 -28 -32 -84h184q-12 112 -89 112q-38 0 -63 -28zM117 684
h321v-97h-321v97z" />
    <glyph glyph-name="Ebreve" unicode="&#x114;" horiz-adv-x="562" 
d="M507 110v-110h-424v668h417v-110h-279v-161h260v-106h-260v-181h286zM177.5 769.5q-43.5 38.5 -49.5 111.5h87q10 -66 77 -66t78 66h87q-6 -73 -49.5 -111.5t-115.5 -38.5q-71 0 -114.5 38.5z" />
    <glyph glyph-name="ebreve" unicode="&#x115;" horiz-adv-x="540" 
d="M496 222h-316q12 -130 120 -130q62 0 112 57l71 -76q-74 -83 -194 -83q-72 0 -127.5 30.5t-86.5 89t-31 140.5t29.5 141.5t82.5 90.5t121 31q66 0 116 -30t77.5 -87.5t27.5 -137.5q0 -14 -2 -36zM214 387q-25 -28 -32 -84h184q-12 112 -89 112q-38 0 -63 -28zM169 610.5
q-41 37.5 -46 108.5h83q5 -34 24 -50t47 -16t47 16t24 50h83q-5 -71 -46 -108.5t-108 -37.5t-108 37.5z" />
    <glyph glyph-name="Edotaccent" unicode="&#x116;" horiz-adv-x="562" 
d="M507 110v-110h-424v668h417v-110h-279v-161h260v-106h-260v-181h286zM231.5 755q-23.5 22 -23.5 57q0 36 23 58t61 22t61 -22t23 -58q0 -35 -23.5 -57t-60.5 -22t-60.5 22z" />
    <glyph glyph-name="edotaccent" unicode="&#x117;" horiz-adv-x="540" 
d="M496 222h-316q12 -130 120 -130q62 0 112 57l71 -76q-74 -83 -194 -83q-72 0 -127.5 30.5t-86.5 89t-31 140.5t29.5 141.5t82.5 90.5t121 31q66 0 116 -30t77.5 -87.5t27.5 -137.5q0 -14 -2 -36zM214 387q-25 -28 -32 -84h184q-12 112 -89 112q-38 0 -63 -28zM219.5 587
q-22.5 21 -22.5 55t22 55t58 21t58.5 -21t22.5 -55t-22.5 -55t-58.5 -21q-35 0 -57.5 21z" />
    <glyph glyph-name="Eogonek" unicode="&#x118;" horiz-adv-x="562" 
d="M520 -122q-48 -69 -141 -69q-62 0 -94.5 25.5t-32.5 70.5q0 51 54 90v5h-223v668h417v-110h-279v-161h260v-106h-260v-181h286v-110h-88q-39 -32 -39 -60q0 -31 33 -31q26 0 51 27z" />
    <glyph glyph-name="eogonek" unicode="&#x119;" horiz-adv-x="540" 
d="M496 222h-316q12 -130 120 -130q62 0 112 57l71 -76q-36 -40 -86 -63q-71 -40 -71 -77q0 -31 32 -31q26 0 51 29l54 -55q-50 -67 -137 -67q-57 0 -88.5 26t-31.5 69q0 46 47 83v5q-96 11 -152.5 78.5t-56.5 179.5q0 82 29.5 141.5t82.5 90.5t121 31q66 0 116 -30
t77.5 -87.5t27.5 -137.5q0 -14 -2 -36zM214 387q-25 -28 -32 -84h184q-12 112 -89 112q-38 0 -63 -28z" />
    <glyph glyph-name="Ecaron" unicode="&#x11a;" horiz-adv-x="562" 
d="M507 110v-110h-424v668h417v-110h-279v-161h260v-106h-260v-181h286zM470 882l-109 -137h-134l-110 137h110l67 -74l67 74h109z" />
    <glyph glyph-name="ecaron" unicode="&#x11b;" horiz-adv-x="540" 
d="M496 222h-316q12 -130 120 -130q62 0 112 57l71 -76q-74 -83 -194 -83q-72 0 -127.5 30.5t-86.5 89t-31 140.5t29.5 141.5t82.5 90.5t121 31q66 0 116 -30t77.5 -87.5t27.5 -137.5q0 -14 -2 -36zM214 387q-25 -28 -32 -84h184q-12 112 -89 112q-38 0 -63 -28zM445 725
l-104 -146h-128l-104 146h107l62 -77l61 77h106z" />
    <glyph glyph-name="Gcircumflex" unicode="&#x11c;" horiz-adv-x="669" 
d="M610 354v-281q-48 -38 -113 -61.5t-136 -23.5q-92 0 -162.5 40t-110 118t-39.5 188q0 106 40.5 184.5t110 120t154.5 41.5t152.5 -36.5t101.5 -106.5l-107 -61q-45 90 -144 90q-77 0 -121.5 -57t-44.5 -175t43 -176t124 -58q77 0 127 38v110h-137v106h262zM419 745
l-67 74l-67 -74h-110l110 137h134l109 -137h-109z" />
    <glyph glyph-name="gcircumflex" unicode="&#x11d;" horiz-adv-x="543" 
d="M465.5 71q50.5 -39 50.5 -107q0 -73 -66.5 -114t-183.5 -41q-115 0 -179.5 34t-64.5 97q0 41 32 70.5t77 39.5v5q-35 8 -54.5 27t-19.5 49q0 35 28 58.5t74 32.5v5q-46 15 -72.5 47.5t-26.5 79.5q0 75 57 117t144 42q41 0 74 -10h177v-96q-43 0 -92 10v-7
q22 -14 32.5 -34t10.5 -47q0 -52 -47 -86.5t-120 -42.5q-63 -8 -85.5 -18t-22.5 -24q0 -11 11.5 -17.5t39.5 -10.5t89 -11q87 -9 137.5 -48zM206 401.5q-21 -19.5 -21 -50.5t21 -49.5t55 -18.5t55 18.5t21 49.5t-21 50.5t-55 19.5t-55 -19.5zM361 -85.5q31 15.5 31 42.5
q0 26 -31.5 42.5t-91.5 16.5q-61 0 -92 -16t-31 -43t31 -42.5t92 -15.5t92 15.5zM332 579l-61 77l-62 -77h-107l104 146h128l104 -146h-106z" />
    <glyph glyph-name="Gbreve" unicode="&#x11e;" horiz-adv-x="669" 
d="M610 354v-281q-48 -38 -113 -61.5t-136 -23.5q-92 0 -162.5 40t-110 118t-39.5 188q0 106 40.5 184.5t110 120t154.5 41.5t152.5 -36.5t101.5 -106.5l-107 -61q-45 90 -144 90q-77 0 -121.5 -57t-44.5 -175t43 -176t124 -58q77 0 127 38v110h-137v106h262zM236.5 769.5
q-43.5 38.5 -49.5 111.5h87q10 -66 77 -66t78 66h87q-6 -73 -49.5 -111.5t-115.5 -38.5q-71 0 -114.5 38.5z" />
    <glyph glyph-name="gbreve" unicode="&#x11f;" horiz-adv-x="543" 
d="M465.5 71q50.5 -39 50.5 -107q0 -73 -66.5 -114t-183.5 -41q-115 0 -179.5 34t-64.5 97q0 41 32 70.5t77 39.5v5q-35 8 -54.5 27t-19.5 49q0 35 28 58.5t74 32.5v5q-46 15 -72.5 47.5t-26.5 79.5q0 75 57 117t144 42q41 0 74 -10h177v-96q-43 0 -92 10v-7
q22 -14 32.5 -34t10.5 -47q0 -52 -47 -86.5t-120 -42.5q-63 -8 -85.5 -18t-22.5 -24q0 -11 11.5 -17.5t39.5 -10.5t89 -11q87 -9 137.5 -48zM206 401.5q-21 -19.5 -21 -50.5t21 -49.5t55 -18.5t55 18.5t21 49.5t-21 50.5t-55 19.5t-55 -19.5zM361 -85.5q31 15.5 31 42.5
q0 26 -31.5 42.5t-91.5 16.5q-61 0 -92 -16t-31 -43t31 -42.5t92 -15.5t92 15.5zM162 610.5q-41 37.5 -46 108.5h83q5 -34 24 -50t47 -16t47 16t24 50h83q-5 -71 -46 -108.5t-108 -37.5t-108 37.5z" />
    <glyph glyph-name="Gdotaccent" unicode="&#x120;" horiz-adv-x="669" 
d="M610 354v-281q-48 -38 -113 -61.5t-136 -23.5q-92 0 -162.5 40t-110 118t-39.5 188q0 106 40.5 184.5t110 120t154.5 41.5t152.5 -36.5t101.5 -106.5l-107 -61q-45 90 -144 90q-77 0 -121.5 -57t-44.5 -175t43 -176t124 -58q77 0 127 38v110h-137v106h262zM291.5 755
q-23.5 22 -23.5 57q0 36 23 58t61 22t61 -22t23 -58q0 -35 -23.5 -57t-60.5 -22t-60.5 22z" />
    <glyph glyph-name="gdotaccent" unicode="&#x121;" horiz-adv-x="543" 
d="M465.5 71q50.5 -39 50.5 -107q0 -73 -66.5 -114t-183.5 -41q-115 0 -179.5 34t-64.5 97q0 41 32 70.5t77 39.5v5q-35 8 -54.5 27t-19.5 49q0 35 28 58.5t74 32.5v5q-46 15 -72.5 47.5t-26.5 79.5q0 75 57 117t144 42q41 0 74 -10h177v-96q-43 0 -92 10v-7
q22 -14 32.5 -34t10.5 -47q0 -52 -47 -86.5t-120 -42.5q-63 -8 -85.5 -18t-22.5 -24q0 -11 11.5 -17.5t39.5 -10.5t89 -11q87 -9 137.5 -48zM206 401.5q-21 -19.5 -21 -50.5t21 -49.5t55 -18.5t55 18.5t21 49.5t-21 50.5t-55 19.5t-55 -19.5zM361 -85.5q31 15.5 31 42.5
q0 26 -31.5 42.5t-91.5 16.5q-61 0 -92 -16t-31 -43t31 -42.5t92 -15.5t92 15.5zM212.5 587q-22.5 21 -22.5 55t22 55t58 21t58.5 -21t22.5 -55t-22.5 -55t-58.5 -21q-35 0 -57.5 21z" />
    <glyph glyph-name="uni0122" unicode="&#x122;" horiz-adv-x="669" 
d="M610 354v-281q-48 -38 -113 -61.5t-136 -23.5q-92 0 -162.5 40t-110 118t-39.5 188q0 106 40.5 184.5t110 120t154.5 41.5t152.5 -36.5t101.5 -106.5l-107 -61q-45 90 -144 90q-77 0 -121.5 -57t-44.5 -175t43 -176t124 -58q77 0 127 38v110h-137v106h262zM421 -64
q20 -21 20 -58q0 -77 -91 -149l-41 34q49 43 60 69q-3 -1 -10 -1q-32 0 -50 16.5t-18 45.5q0 28 19.5 46t52.5 18q38 0 58 -21z" />
    <glyph glyph-name="uni0123" unicode="&#x123;" horiz-adv-x="543" 
d="M465.5 71q50.5 -39 50.5 -107q0 -73 -66.5 -114t-183.5 -41q-115 0 -179.5 34t-64.5 97q0 41 32 70.5t77 39.5v5q-35 8 -54.5 27t-19.5 49q0 35 28 58.5t74 32.5v5q-46 15 -72.5 47.5t-26.5 79.5q0 75 57 117t144 42q41 0 74 -10h177v-96q-43 0 -92 10v-7
q22 -14 32.5 -34t10.5 -47q0 -52 -47 -86.5t-120 -42.5q-63 -8 -85.5 -18t-22.5 -24q0 -11 11.5 -17.5t39.5 -10.5t89 -11q87 -9 137.5 -48zM206 401.5q-21 -19.5 -21 -50.5t21 -49.5t55 -18.5t55 18.5t21 49.5t-21 50.5t-55 19.5t-55 -19.5zM361 -85.5q31 15.5 31 42.5
q0 26 -31.5 42.5t-91.5 16.5q-61 0 -92 -16t-31 -43t31 -42.5t92 -15.5t92 15.5zM318 672.5q18 -16.5 18 -42.5q0 -27 -19 -46t-50 -19q-36 0 -55.5 22t-19.5 58q0 73 88 145l39 -33q-46 -38 -58 -69q3 1 10 1q29 0 47 -16.5z" />
    <glyph glyph-name="Hcircumflex" unicode="&#x124;" horiz-adv-x="676" 
d="M593 668v-668h-138v288h-234v-288h-138v668h138v-268h234v268h138zM406 745l-67 74l-67 -74h-110l110 137h134l109 -137h-109z" />
    <glyph glyph-name="hcircumflex" unicode="&#x125;" horiz-adv-x="571" 
d="M457.5 467q44.5 -46 44.5 -123v-344h-134v319q0 88 -70 88q-39 0 -65 -29.5t-26 -83.5v-294h-134v695h134v-247h5q40 65 134 65q67 0 111.5 -46zM334 772l-67 74l-67 -74h-110l110 137h134l109 -137h-109z" />
    <glyph glyph-name="Hbar" unicode="&#x126;" horiz-adv-x="723" 
d="M694 484h-78v-484h-138v280h-234v-280h-138v484h-77v83h77v101h138v-101h234v101h138v-101h78v-83zM478 484h-234v-92h234v92z" />
    <glyph glyph-name="hbar" unicode="&#x127;" horiz-adv-x="571" 
d="M425.5 473.5q35.5 -20.5 56 -58.5t20.5 -89v-326h-134v300q0 43 -16.5 66t-53.5 23q-39 0 -65 -29.5t-26 -83.5v-276h-134v544h-68v72h68v79h134v-79h187v-72h-187v-115h5q39 65 134 65q44 0 79.5 -20.5z" />
    <glyph glyph-name="Itilde" unicode="&#x128;" horiz-adv-x="396" 
d="M129 778.5q-6 -9.5 -9 -35.5h-83q2 75 31.5 108.5t72.5 33.5q24 0 42 -9t37 -25q19 -19 32 -19q11 0 16 9.5t9 37.5h83q-2 -77 -31.5 -109.5t-71.5 -32.5q-45 0 -82 35q-9 9 -15.5 12.5t-13.5 3.5q-11 0 -17 -9.5zM342 561h-75v-454h75v-107h-288v107h75v454h-75v107h288
v-107z" />
    <glyph glyph-name="itilde" unicode="&#x129;" horiz-adv-x="280" 
d="M205.5 678.5q5.5 9.5 9.5 37.5h80q-3 -76 -31.5 -107t-69.5 -31q-24 0 -40 9t-35 26q-18 16 -28 16t-16.5 -10t-7.5 -36h-81q3 74 31 106t70 32q23 0 39.5 -9t33.5 -25q7 -7 14.5 -12.5t14.5 -5.5q11 0 16.5 9.5zM207 503v-503h-134v503h134z" />
    <glyph glyph-name="Imacron" unicode="&#x12a;" horiz-adv-x="396" 
d="M343 860v-102h-289v102h289zM342 561h-75v-454h75v-107h-288v107h75v454h-75v107h288v-107z" />
    <glyph glyph-name="imacron" unicode="&#x12b;" horiz-adv-x="280" 
d="M10 684h262v-97h-262v97zM207 503v-503h-134v503h134z" />
    <glyph glyph-name="Ibreve" unicode="&#x12c;" horiz-adv-x="396" 
d="M88.5 769.5q-36.5 37.5 -41.5 111.5h87q3 -35 18 -50t46 -15t46.5 15t17.5 50h87q-5 -74 -41 -111.5t-110 -37.5q-73 0 -109.5 37.5zM342 561h-75v-454h75v-107h-288v107h75v454h-75v107h288v-107z" />
    <glyph glyph-name="ibreve" unicode="&#x12d;" horiz-adv-x="280" 
d="M4 719h83q3 -35 16 -50.5t37 -15.5t37.5 15.5t16.5 50.5h82q-9 -146 -136 -146t-136 146zM207 503v-503h-134v503h134z" />
    <glyph glyph-name="Iogonek" unicode="&#x12e;" horiz-adv-x="396" 
d="M355 -122q-48 -69 -141 -69q-62 0 -94.5 25.5t-32.5 70.5q0 51 54 90v5h-87v107h75v454h-75v107h288v-107h-75v-454h75v-107h-88q-39 -32 -39 -60q0 -31 33 -31q26 0 51 27z" />
    <glyph glyph-name="iogonek" unicode="&#x12f;" horiz-adv-x="280" 
d="M82.5 587q-22.5 21 -22.5 55t22 55t58 21t58.5 -21t22.5 -55t-22.5 -55t-58.5 -21q-35 0 -57.5 21zM247 -126q-21 -31 -51 -48t-67 -17q-52 0 -83 25.5t-31 65.5q0 53 58 102v501h134v-503h-32q-45 -39 -45 -71q0 -13 7.5 -20t18.5 -7q19 0 39 25z" />
    <glyph glyph-name="Idotaccent" unicode="&#x130;" horiz-adv-x="396" 
d="M267 561v-454h75v-107h-288v107h75v454h-75v107h288v-107h-75zM137.5 755q-23.5 22 -23.5 57q0 36 23 58t61 22t61 -22t23 -58q0 -35 -23.5 -57t-60.5 -22t-60.5 22z" />
    <glyph glyph-name="dotlessi" unicode="&#x131;" horiz-adv-x="280" 
d="M207 503v-503h-134v503h134z" />
    <glyph glyph-name="Jcircumflex" unicode="&#x134;" horiz-adv-x="382" 
d="M185 744h-106l85 138h135l86 -138h-106l-48 69zM161 668h138v-609q0 -85 -49 -130.5t-132 -45.5q-52 0 -94 8v114q36 -8 61 -8q40 0 58 19t18 60v592z" />
    <glyph glyph-name="jcircumflex" unicode="&#x135;" horiz-adv-x="287" 
d="M103 579h-101l82 146h128l84 -146h-101l-47 76zM81 503h133v-529q0 -82 -40 -122.5t-125 -40.5q-48 0 -81 6v103q7 -1 23 -3.5t30 -2.5q31 0 45.5 18t14.5 59v512z" />
    <glyph glyph-name="uni0136" unicode="&#x136;" horiz-adv-x="622" 
d="M250 292h-29v-292h-138v668h138v-264h27l191 264h152l-236 -308l268 -360h-165zM382 -64q20 -21 20 -58q0 -77 -91 -149l-41 34q49 43 60 69q-3 -1 -10 -1q-32 0 -50 16.5t-18 45.5q0 28 19.5 46t52.5 18q38 0 58 -21z" />
    <glyph glyph-name="uni0137" unicode="&#x137;" horiz-adv-x="528" 
d="M234 224h-27v-224h-134v695h134v-371h24l128 179h146l-169 -218l186 -285h-152zM333.5 -66q19.5 -22 19.5 -58q0 -74 -88 -145l-39 33q46 38 58 69q-3 -1 -10 -1q-29 0 -47 16.5t-18 42.5q0 27 19 46t50 19q36 0 55.5 -22z" />
    <glyph glyph-name="Lacute" unicode="&#x139;" horiz-adv-x="524" 
d="M493 112v-112h-410v668h138v-556h272zM179 889h148l-125 -144h-113z" />
    <glyph glyph-name="lacute" unicode="&#x13a;" horiz-adv-x="302" 
d="M270 -1q-33 -9 -83 -9q-117 0 -117 123v582h134v-549q0 -52 29 -52q19 0 37 5v-100zM160 916h148l-125 -144h-113z" />
    <glyph glyph-name="uni013B" unicode="&#x13b;" horiz-adv-x="524" 
d="M493 112v-112h-410v668h138v-556h272zM343 -64q20 -21 20 -58q0 -77 -91 -149l-41 34q49 43 60 69q-3 -1 -10 -1q-32 0 -50 16.5t-18 45.5q0 28 19.5 46t52.5 18q38 0 58 -21z" />
    <glyph glyph-name="uni013C" unicode="&#x13c;" horiz-adv-x="302" 
d="M270 -1q-33 -9 -83 -9q-117 0 -117 123v582h134v-549q0 -52 29 -52q19 0 37 5v-100zM221.5 -66q19.5 -22 19.5 -58q0 -74 -88 -145l-39 33q46 38 58 69q-3 -1 -10 -1q-29 0 -47 16.5t-18 42.5q0 27 19 46t50 19q36 0 55.5 -22z" />
    <glyph glyph-name="Lcaron" unicode="&#x13d;" horiz-adv-x="530" 
d="M493 112v-112h-410v668h138v-556h272zM414 428h-90l13 240h118z" />
    <glyph glyph-name="lcaron" unicode="&#x13e;" horiz-adv-x="370" 
d="M270 -1q-33 -9 -83 -9q-117 0 -117 123v582h134v-549q0 -52 29 -52q19 0 37 5v-100zM276 695h119l-42 -240h-90z" />
    <glyph glyph-name="Ldot" unicode="&#x13f;" horiz-adv-x="531" 
d="M493 112v-112h-410v668h138v-556h272zM360 313.5q-21 19.5 -21 50.5q0 33 20 53.5t54 20.5t55 -20t21 -52t-21 -52t-55 -20q-32 0 -53 19.5z" />
    <glyph glyph-name="ldot" unicode="&#x140;" horiz-adv-x="418" 
d="M270 -1q-33 -9 -83 -9q-117 0 -117 123v582h134v-549q0 -52 29 -52q19 0 37 5v-100zM294 315q-20 20 -20 51q0 32 20 52t52 20t51.5 -20t19.5 -52q0 -31 -19.5 -51t-51.5 -20t-52 20z" />
    <glyph glyph-name="Lslash" unicode="&#x141;" horiz-adv-x="567" 
d="M536 112v-112h-410v270l-86 -38v92l86 38v306h138v-253l129 58v-92l-129 -58v-211h272z" />
    <glyph glyph-name="lslash" unicode="&#x142;" horiz-adv-x="355" 
d="M237 335v-189q0 -28 7.5 -40t22.5 -12q19 0 37 5v-100q-34 -9 -84 -9q-116 0 -116 123v172l-67 -28v76l67 30v332h133v-281l68 30v-77z" />
    <glyph glyph-name="Nacute" unicode="&#x143;" horiz-adv-x="682" 
d="M83 668h177l169 -389q29 -68 39 -104h5q-3 60 -3 111v382h129v-668h-177l-169 389q-29 71 -39 108h-6q4 -52 4 -115v-382h-129v668zM379 889h148l-125 -144h-113z" />
    <glyph glyph-name="nacute" unicode="&#x144;" horiz-adv-x="571" 
d="M424 492.5q36 -20.5 57 -58.5t21 -90v-344h-134v319q0 88 -70 88q-39 0 -65 -29.5t-26 -83.5v-294h-134v503h127v-65h6q38 75 138 75q44 0 80 -20.5zM319 741h140l-129 -162h-106z" />
    <glyph glyph-name="uni0145" unicode="&#x145;" horiz-adv-x="682" 
d="M83 668h177l169 -389q29 -68 39 -104h5q-3 60 -3 111v382h129v-668h-177l-169 389q-29 71 -39 108h-6q4 -52 4 -115v-382h-129v668zM396 -64q20 -21 20 -58q0 -77 -91 -149l-41 34q49 43 60 69q-3 -1 -10 -1q-32 0 -50 16.5t-18 45.5q0 28 19.5 46t52.5 18q38 0 58 -21z
" />
    <glyph glyph-name="uni0146" unicode="&#x146;" horiz-adv-x="571" 
d="M424 492.5q36 -20.5 57 -58.5t21 -90v-344h-134v319q0 88 -70 88q-39 0 -65 -29.5t-26 -83.5v-294h-134v503h127v-65h6q38 75 138 75q44 0 80 -20.5zM336.5 -66q19.5 -22 19.5 -58q0 -74 -88 -145l-39 33q46 38 58 69q-3 -1 -10 -1q-29 0 -47 16.5t-18 42.5q0 27 19 46
t50 19q36 0 55.5 -22z" />
    <glyph glyph-name="Ncaron" unicode="&#x147;" horiz-adv-x="682" 
d="M83 668h177l169 -389q29 -68 39 -104h5q-3 60 -3 111v382h129v-668h-177l-169 389q-29 71 -39 108h-6q4 -52 4 -115v-382h-129v668zM533 882l-109 -137h-134l-110 137h110l67 -74l67 74h109z" />
    <glyph glyph-name="ncaron" unicode="&#x148;" horiz-adv-x="571" 
d="M424 492.5q36 -20.5 57 -58.5t21 -90v-344h-134v319q0 88 -70 88q-39 0 -65 -29.5t-26 -83.5v-294h-134v503h127v-65h6q38 75 138 75q44 0 80 -20.5zM458 725l-104 -146h-128l-104 146h107l62 -77l61 77h106z" />
    <glyph glyph-name="Eng" unicode="&#x14a;" horiz-adv-x="682" 
d="M599 668v-660q0 -87 -47.5 -132t-129.5 -45q-53 0 -90 8v90q29 -8 62 -8q38 0 55.5 13.5t20.5 47.5l-215 407q-25 48 -41 107h-5q3 -55 3 -114v-382h-129v668h164l182 -363q22 -43 39 -103h6q-4 53 -4 110v356h129z" />
    <glyph glyph-name="eng" unicode="&#x14b;" horiz-adv-x="571" 
d="M424 492.5q36 -20.5 57 -58.5t21 -90v-370q0 -82 -40.5 -122.5t-125.5 -40.5q-46 0 -81 6v103q7 -1 23 -3.5t30 -2.5q32 0 46 18t14 59v328q0 88 -70 88q-39 0 -65 -29.5t-26 -83.5v-294h-134v503h127v-65h6q38 75 138 75q44 0 80 -20.5z" />
    <glyph glyph-name="Omacron" unicode="&#x14c;" horiz-adv-x="706" 
d="M195.5 29.5q-68.5 41.5 -107 120t-38.5 184.5t38.5 184.5t107 120t157.5 41.5t157.5 -41.5t107 -120t38.5 -184.5t-38.5 -184.5t-107 -120t-157.5 -41.5t-157.5 41.5zM469 160.5q45 58.5 45 173.5t-45 173.5t-116 58.5t-116 -58.5t-45 -173.5t45 -173.5t116 -58.5
t116 58.5zM182 860h340v-102h-340v102z" />
    <glyph glyph-name="omacron" unicode="&#x14d;" horiz-adv-x="570" 
d="M158 21.5q-54 31.5 -83.5 90.5t-29.5 139t29.5 139t84 91t126.5 32q73 0 127 -32t83.5 -91t29.5 -139t-29.5 -139t-83.5 -90.5t-127 -31.5t-127 31.5zM360.5 135q27.5 40 27.5 116q0 77 -27.5 117t-75.5 40t-75 -40.5t-27 -116.5t27 -116t75 -40t75.5 40zM125 684h321
v-97h-321v97z" />
    <glyph glyph-name="Obreve" unicode="&#x14e;" horiz-adv-x="706" 
d="M195.5 29.5q-68.5 41.5 -107 120t-38.5 184.5t38.5 184.5t107 120t157.5 41.5t157.5 -41.5t107 -120t38.5 -184.5t-38.5 -184.5t-107 -120t-157.5 -41.5t-157.5 41.5zM469 160.5q45 58.5 45 173.5t-45 173.5t-116 58.5t-116 -58.5t-45 -173.5t45 -173.5t116 -58.5
t116 58.5zM237.5 769.5q-43.5 38.5 -49.5 111.5h87q10 -66 77 -66t78 66h87q-6 -73 -49.5 -111.5t-115.5 -38.5q-71 0 -114.5 38.5z" />
    <glyph glyph-name="obreve" unicode="&#x14f;" horiz-adv-x="570" 
d="M158 21.5q-54 31.5 -83.5 90.5t-29.5 139t29.5 139t84 91t126.5 32q73 0 127 -32t83.5 -91t29.5 -139t-29.5 -139t-83.5 -90.5t-127 -31.5t-127 31.5zM360.5 135q27.5 40 27.5 116q0 77 -27.5 117t-75.5 40t-75 -40.5t-27 -116.5t27 -116t75 -40t75.5 40zM177 610.5
q-41 37.5 -46 108.5h83q5 -34 24 -50t47 -16t47 16t24 50h83q-5 -71 -46 -108.5t-108 -37.5t-108 37.5z" />
    <glyph glyph-name="Ohungarumlaut" unicode="&#x150;" horiz-adv-x="706" 
d="M195.5 29.5q-68.5 41.5 -107 120t-38.5 184.5t38.5 184.5t107 120t157.5 41.5t157.5 -41.5t107 -120t38.5 -184.5t-38.5 -184.5t-107 -120t-157.5 -41.5t-157.5 41.5zM469 160.5q45 58.5 45 173.5t-45 173.5t-116 58.5t-116 -58.5t-45 -173.5t45 -173.5t116 -58.5
t116 58.5zM270 882h134l-96 -137h-118zM475 882h142l-114 -137h-113z" />
    <glyph glyph-name="ohungarumlaut" unicode="&#x151;" horiz-adv-x="570" 
d="M158 21.5q-54 31.5 -83.5 90.5t-29.5 139t29.5 139t84 91t126.5 32q73 0 127 -32t83.5 -91t29.5 -139t-29.5 -139t-83.5 -90.5t-127 -31.5t-127 31.5zM360.5 135q27.5 40 27.5 116q0 77 -27.5 117t-75.5 40t-75 -40.5t-27 -116.5t27 -116t75 -40t75.5 40zM221 725h126
l-101 -146h-114zM410 725h142l-125 -146h-108z" />
    <glyph glyph-name="OE" unicode="&#x152;" horiz-adv-x="971" 
d="M914 112v-112h-408v72h-3q-58 -84 -177 -84q-79 0 -141.5 40.5t-98 118.5t-35.5 187t35.5 187t98 118.5t141.5 40.5q118 0 176 -83h4v71h403v-112h-272v-159h255v-106h-255v-179h277zM461 160q41 58 41 174t-41 174t-112 58q-72 0 -114 -58.5t-42 -173.5t42 -173.5
t114 -58.5q71 0 112 58z" />
    <glyph glyph-name="oe" unicode="&#x153;" horiz-adv-x="870" 
d="M826 223h-309q11 -131 112 -131q61 0 113 57l71 -76q-73 -83 -193 -83q-113 0 -168 76h-6q-55 -76 -164 -76q-110 0 -173.5 70t-63.5 191t63.5 191.5t173.5 70.5q54 0 95.5 -20t67.5 -58h5q26 38 67 58t93 20q65 0 114.5 -30t76.5 -87.5t27 -137.5q0 -11 -2 -35z
M549.5 388q-23.5 -28 -30.5 -85h176q-10 113 -85 113q-37 0 -60.5 -28zM356 134.5q26 39.5 26 116.5t-26 117t-74 40q-47 0 -73 -40t-26 -117t26 -116.5t73 -39.5q48 0 74 39.5z" />
    <glyph glyph-name="Racute" unicode="&#x154;" horiz-adv-x="622" 
d="M297 265h-76v-265h-138v668h229q105 0 172.5 -52t67.5 -148q0 -65 -33 -111t-90 -69l175 -288h-162zM221 369h88q47 0 74.5 24t27.5 70t-27.5 70.5t-74.5 24.5h-88v-189zM316 889h148l-125 -144h-113z" />
    <glyph glyph-name="racute" unicode="&#x155;" horiz-adv-x="402" 
d="M377 507v-120q-40 4 -55 4q-55 0 -85 -38t-30 -118v-235h-134v503h126v-79h5q17 42 48.5 65.5t77.5 23.5q28 0 47 -6zM242 741h140l-129 -162h-106z" />
    <glyph glyph-name="uni0156" unicode="&#x156;" horiz-adv-x="622" 
d="M297 265h-76v-265h-138v668h229q105 0 172.5 -52t67.5 -148q0 -65 -33 -111t-90 -69l175 -288h-162zM221 369h88q47 0 74.5 24t27.5 70t-27.5 70.5t-74.5 24.5h-88v-189zM378 -64q20 -21 20 -58q0 -77 -91 -149l-41 34q49 43 60 69q-3 -1 -10 -1q-32 0 -50 16.5t-18 45.5
q0 28 19.5 46t52.5 18q38 0 58 -21z" />
    <glyph glyph-name="uni0157" unicode="&#x157;" horiz-adv-x="402" 
d="M377 507v-120q-40 4 -55 4q-55 0 -85 -38t-30 -118v-235h-134v503h126v-79h5q17 42 48.5 65.5t77.5 23.5q28 0 47 -6zM191.5 -66q19.5 -22 19.5 -58q0 -74 -88 -145l-39 33q46 38 58 69q-3 -1 -10 -1q-29 0 -47 16.5t-18 42.5q0 27 19 46t50 19q36 0 55.5 -22z" />
    <glyph glyph-name="Rcaron" unicode="&#x158;" horiz-adv-x="622" 
d="M297 265h-76v-265h-138v668h229q105 0 172.5 -52t67.5 -148q0 -65 -33 -111t-90 -69l175 -288h-162zM221 369h88q47 0 74.5 24t27.5 70t-27.5 70.5t-74.5 24.5h-88v-189zM471 882l-109 -137h-134l-110 137h110l67 -74l67 74h109z" />
    <glyph glyph-name="rcaron" unicode="&#x159;" horiz-adv-x="402" 
d="M377 507v-120q-40 4 -55 4q-55 0 -85 -38t-30 -118v-235h-134v503h126v-79h5q17 42 48.5 65.5t77.5 23.5q28 0 47 -6zM381 725l-104 -146h-128l-104 146h107l62 -77l61 77h106z" />
    <glyph glyph-name="Sacute" unicode="&#x15a;" horiz-adv-x="583" 
d="M185.5 122q47.5 -21 99.5 -21q54 0 85.5 19t31.5 57q0 35 -28 55.5t-84 42.5l-72 28q-158 62 -158 190q0 55 28.5 97.5t79.5 66t118 23.5q71 0 132.5 -22t107.5 -65l-67 -90q-32 30 -75.5 47t-89.5 17q-44 0 -69.5 -19t-25.5 -49q0 -31 22 -50.5t68 -38.5l75 -30
q80 -31 128.5 -74.5t48.5 -120.5q0 -95 -69.5 -146t-182.5 -51q-79 0 -144 27.5t-113 79.5l69 86q37 -38 84.5 -59zM317 889h148l-125 -144h-113z" />
    <glyph glyph-name="sacute" unicode="&#x15b;" horiz-adv-x="485" 
d="M159.5 106.5q37.5 -16.5 78.5 -16.5q81 0 81 47q0 22 -20 35.5t-64 26.5l-51 18q-63 21 -97.5 56t-34.5 91q0 66 50.5 107.5t135.5 41.5q116 0 195 -66l-59 -81q-26 22 -60.5 34.5t-68.5 12.5q-31 0 -48 -11.5t-17 -29.5t16.5 -31t51.5 -25l52 -19q44 -16 74 -32.5
t51.5 -45.5t21.5 -73q0 -72 -55 -114t-149 -42q-66 0 -119.5 21t-93.5 59l61 81q31 -28 68.5 -44.5zM271 741h140l-129 -162h-106z" />
    <glyph glyph-name="Scircumflex" unicode="&#x15c;" horiz-adv-x="583" 
d="M185.5 122q47.5 -21 99.5 -21q54 0 85.5 19t31.5 57q0 35 -28 55.5t-84 42.5l-72 28q-158 62 -158 190q0 55 28.5 97.5t79.5 66t118 23.5q71 0 132.5 -22t107.5 -65l-67 -90q-32 30 -75.5 47t-89.5 17q-44 0 -69.5 -19t-25.5 -49q0 -31 22 -50.5t68 -38.5l75 -30
q80 -31 128.5 -74.5t48.5 -120.5q0 -95 -69.5 -146t-182.5 -51q-79 0 -144 27.5t-113 79.5l69 86q37 -38 84.5 -59zM361 745l-67 74l-67 -74h-110l110 137h134l109 -137h-109z" />
    <glyph glyph-name="scircumflex" unicode="&#x15d;" horiz-adv-x="485" 
d="M159.5 106.5q37.5 -16.5 78.5 -16.5q81 0 81 47q0 22 -20 35.5t-64 26.5l-51 18q-63 21 -97.5 56t-34.5 91q0 66 50.5 107.5t135.5 41.5q116 0 195 -66l-59 -81q-26 22 -60.5 34.5t-68.5 12.5q-31 0 -48 -11.5t-17 -29.5t16.5 -31t51.5 -25l52 -19q44 -16 74 -32.5
t51.5 -45.5t21.5 -73q0 -72 -55 -114t-149 -42q-66 0 -119.5 21t-93.5 59l61 81q31 -28 68.5 -44.5zM304 579l-61 77l-62 -77h-107l104 146h128l104 -146h-106z" />
    <glyph glyph-name="Scedilla" unicode="&#x15e;" horiz-adv-x="583" 
d="M492.5 58q-48.5 -49 -131.5 -64v-7q49 -36 49 -81q0 -46 -31 -71.5t-88 -25.5q-45 0 -78 18t-53 46l51 51q24 -30 53 -30q39 0 39 35q0 30 -31 59q-73 3 -133.5 30.5t-106.5 76.5l69 86q37 -38 84.5 -59t99.5 -21q54 0 85.5 19t31.5 57q0 35 -28 55.5t-84 42.5l-72 28
q-158 62 -158 190q0 55 28.5 97.5t79.5 66t118 23.5q71 0 132.5 -22t107.5 -65l-67 -90q-32 30 -75.5 47t-89.5 17q-44 0 -69.5 -19t-25.5 -49q0 -31 22 -50.5t68 -38.5l75 -30q80 -31 128.5 -74.5t48.5 -120.5q0 -78 -48.5 -127z" />
    <glyph glyph-name="scedilla" unicode="&#x15f;" horiz-adv-x="485" 
d="M410.5 49q-36.5 -39 -102.5 -53v-6q53 -38 53 -88q0 -42 -30.5 -67t-83.5 -25q-80 0 -124 61l46 46q13 -14 26 -22t29 -8q18 0 28 10.5t10 27.5q0 33 -37 65q-60 3 -109.5 24t-85.5 56l61 81q31 -28 68.5 -44.5t78.5 -16.5q81 0 81 47q0 22 -20 35.5t-64 26.5l-51 18
q-63 21 -97.5 56t-34.5 91q0 66 50.5 107.5t135.5 41.5q116 0 195 -66l-59 -81q-26 22 -60.5 34.5t-68.5 12.5q-31 0 -48 -11.5t-17 -29.5t16.5 -31t51.5 -25l52 -19q44 -16 74 -32.5t51.5 -45.5t21.5 -73q0 -58 -36.5 -97z" />
    <glyph glyph-name="Scaron" unicode="&#x160;" horiz-adv-x="583" 
d="M185.5 122q47.5 -21 99.5 -21q54 0 85.5 19t31.5 57q0 35 -28 55.5t-84 42.5l-72 28q-158 62 -158 190q0 55 28.5 97.5t79.5 66t118 23.5q71 0 132.5 -22t107.5 -65l-67 -90q-32 30 -75.5 47t-89.5 17q-44 0 -69.5 -19t-25.5 -49q0 -31 22 -50.5t68 -38.5l75 -30
q80 -31 128.5 -74.5t48.5 -120.5q0 -95 -69.5 -146t-182.5 -51q-79 0 -144 27.5t-113 79.5l69 86q37 -38 84.5 -59zM472 882l-109 -137h-134l-110 137h110l67 -74l67 74h109z" />
    <glyph glyph-name="scaron" unicode="&#x161;" horiz-adv-x="485" 
d="M159.5 106.5q37.5 -16.5 78.5 -16.5q81 0 81 47q0 22 -20 35.5t-64 26.5l-51 18q-63 21 -97.5 56t-34.5 91q0 66 50.5 107.5t135.5 41.5q116 0 195 -66l-59 -81q-26 22 -60.5 34.5t-68.5 12.5q-31 0 -48 -11.5t-17 -29.5t16.5 -31t51.5 -25l52 -19q44 -16 74 -32.5
t51.5 -45.5t21.5 -73q0 -72 -55 -114t-149 -42q-66 0 -119.5 21t-93.5 59l61 81q31 -28 68.5 -44.5zM410 725l-104 -146h-128l-104 146h107l62 -77l61 77h106z" />
    <glyph glyph-name="uni0162" unicode="&#x162;" horiz-adv-x="567" 
d="M343 0v-4q51 -40 51 -90q0 -46 -30.5 -71.5t-87.5 -25.5q-44 0 -77.5 17.5t-53.5 45.5l51 51q25 -29 52 -29q39 0 39 35q0 37 -38 71h-34v556h-184v112h505v-112h-183v-556h-10z" />
    <glyph glyph-name="uni0163" unicode="&#x163;" horiz-adv-x="396" 
d="M246 402v-241q0 -36 10.5 -52t34.5 -16q29 0 68 12v-99q-24 -9 -61 -14v-5q49 -39 49 -85q0 -42 -30.5 -67t-83.5 -25q-80 0 -124 61l46 46q13 -14 26 -22t29 -8q18 0 28 10.5t10 27.5q0 35 -44 71q-43 12 -67 45.5t-24 88.5v272h-90v101h90v102l133 46v-148h113v-101
h-113z" />
    <glyph glyph-name="Tcaron" unicode="&#x164;" horiz-adv-x="567" 
d="M536 556h-183v-556h-138v556h-184v112h505v-112zM461 882l-109 -137h-134l-110 137h110l67 -74l67 74h109z" />
    <glyph glyph-name="tcaron" unicode="&#x165;" horiz-adv-x="397" 
d="M429 777l-36 -208h-94l11 208h119zM246 503h113v-101h-113v-241q0 -36 10.5 -52t34.5 -16q29 0 68 12v-99q-45 -16 -105 -16q-66 0 -103.5 35t-37.5 105v272h-90v101h90v102l133 46v-148z" />
    <glyph glyph-name="Tbar" unicode="&#x166;" horiz-adv-x="583" 
d="M361 556v-190h122v-83h-122v-283h-138v283h-122v83h122v190h-184v112h505v-112h-183z" />
    <glyph glyph-name="tbar" unicode="&#x167;" horiz-adv-x="403" 
d="M251 402v-105h102v-72h-102v-64q0 -36 10 -52t35 -16q28 0 67 12v-99q-45 -16 -105 -16q-66 0 -103.5 35t-37.5 105v95h-79v72h79v105h-90v101h90v102l134 46v-148h113v-101h-113z" />
    <glyph glyph-name="Utilde" unicode="&#x168;" horiz-adv-x="655" 
d="M145 47.5q-67 59.5 -67 172.5v448h138v-430q0 -136 115 -136q54 0 85 33.5t31 102.5v430h130v-448q0 -113 -68 -172.5t-183 -59.5q-114 0 -181 59.5zM354 750q-19 8 -43 25q-10 7 -20 13t-18 6q-29 0 -33 -46h-87q3 74 35.5 107t77.5 33q25 0 44 -8t41 -24
q14 -12 22 -16.5t18 -4.5q13 0 21 10.5t12 36.5h86q-3 -77 -36 -108.5t-77 -31.5q-24 0 -43 8z" />
    <glyph glyph-name="utilde" unicode="&#x169;" horiz-adv-x="571" 
d="M498 503v-503h-127v65h-6q-38 -75 -138 -75q-44 0 -80 20.5t-57 58.5t-21 90v344h134v-319q0 -88 70 -88q39 0 65 29.5t26 83.5v294h134zM305.5 587q-18.5 9 -37.5 24q-22 18 -36 18q-13 0 -21 -10t-11 -36h-83q3 73 34 105.5t74 32.5q26 0 44 -8.5t36 -23.5
q14 -11 21.5 -15.5t16.5 -4.5q13 0 21 10t11 37h83q-3 -75 -34.5 -106.5t-73.5 -31.5q-26 0 -44.5 9z" />
    <glyph glyph-name="Umacron" unicode="&#x16a;" horiz-adv-x="655" 
d="M145 47.5q-67 59.5 -67 172.5v448h138v-430q0 -136 115 -136q54 0 85 33.5t31 102.5v430h130v-448q0 -113 -68 -172.5t-183 -59.5q-114 0 -181 59.5zM161 860h340v-102h-340v102z" />
    <glyph glyph-name="umacron" unicode="&#x16b;" horiz-adv-x="571" 
d="M498 503v-503h-127v65h-6q-38 -75 -138 -75q-44 0 -80 20.5t-57 58.5t-21 90v344h134v-319q0 -88 70 -88q39 0 65 29.5t26 83.5v294h134zM127 684h321v-97h-321v97z" />
    <glyph glyph-name="Ubreve" unicode="&#x16c;" horiz-adv-x="655" 
d="M145 47.5q-67 59.5 -67 172.5v448h138v-430q0 -136 115 -136q54 0 85 33.5t31 102.5v430h130v-448q0 -113 -68 -172.5t-183 -59.5q-114 0 -181 59.5zM216.5 769.5q-43.5 38.5 -49.5 111.5h87q10 -66 77 -66t78 66h87q-6 -73 -49.5 -111.5t-115.5 -38.5q-71 0 -114.5 38.5
z" />
    <glyph glyph-name="ubreve" unicode="&#x16d;" horiz-adv-x="571" 
d="M498 503v-503h-127v65h-6q-38 -75 -138 -75q-44 0 -80 20.5t-57 58.5t-21 90v344h134v-319q0 -88 70 -88q39 0 65 29.5t26 83.5v294h134zM179 610.5q-41 37.5 -46 108.5h83q5 -34 24 -50t47 -16t47 16t24 50h83q-5 -71 -46 -108.5t-108 -37.5t-108 37.5z" />
    <glyph glyph-name="Uring" unicode="&#x16e;" horiz-adv-x="655" 
d="M145 47.5q-67 59.5 -67 172.5v448h138v-430q0 -136 115 -136q54 0 85 33.5t31 102.5v430h130v-448q0 -113 -68 -172.5t-183 -59.5q-114 0 -181 59.5zM242.5 745.5q-34.5 29.5 -34.5 77.5q0 47 34.5 77.5t87.5 30.5q54 0 89 -30.5t35 -77.5q0 -48 -35 -77.5t-89 -29.5
q-53 0 -87.5 29.5zM366 791q14 13 14 32q0 20 -14 33t-36 13t-35 -13.5t-13 -32.5t13.5 -32t34.5 -13q22 0 36 13z" />
    <glyph glyph-name="uring" unicode="&#x16f;" horiz-adv-x="571" 
d="M498 503v-503h-127v65h-6q-38 -75 -138 -75q-44 0 -80 20.5t-57 58.5t-21 90v344h134v-319q0 -88 70 -88q39 0 65 29.5t26 83.5v294h134zM198.5 592q-34.5 30 -34.5 78q0 47 34.5 77t87.5 30q54 0 89 -30t35 -77q0 -48 -35 -78t-89 -30q-53 0 -87.5 30zM322 637
q14 13 14 33q0 19 -14.5 32.5t-35.5 13.5q-22 0 -35 -13.5t-13 -32.5t13.5 -32.5t34.5 -13.5q22 0 36 13z" />
    <glyph glyph-name="Uhungarumlaut" unicode="&#x170;" horiz-adv-x="655" 
d="M145 47.5q-67 59.5 -67 172.5v448h138v-430q0 -136 115 -136q54 0 85 33.5t31 102.5v430h130v-448q0 -113 -68 -172.5t-183 -59.5q-114 0 -181 59.5zM250 882h134l-96 -137h-118zM455 882h142l-114 -137h-113z" />
    <glyph glyph-name="uhungarumlaut" unicode="&#x171;" horiz-adv-x="571" 
d="M498 503v-503h-127v65h-6q-38 -75 -138 -75q-44 0 -80 20.5t-57 58.5t-21 90v344h134v-319q0 -88 70 -88q39 0 65 29.5t26 83.5v294h134zM224 725h126l-101 -146h-114zM413 725h142l-125 -146h-108z" />
    <glyph glyph-name="Uogonek" unicode="&#x172;" horiz-adv-x="655" 
d="M400 -60q0 -31 33 -31q26 0 51 27l56 -58q-48 -69 -141 -69q-62 0 -94.5 25.5t-32.5 70.5q0 44 40 78v5q-107 4 -170.5 63.5t-63.5 168.5v448h138v-430q0 -136 115 -136q54 0 85 33.5t31 102.5v430h130v-448q0 -74 -30 -125.5t-85 -78.5q-62 -40 -62 -76z" />
    <glyph glyph-name="uogonek" unicode="&#x173;" horiz-adv-x="571" 
d="M518 -130q-19 -29 -48 -45t-66 -16q-52 0 -83.5 24.5t-31.5 62.5q0 28 19 53.5t63 52.5v63h-6q-38 -75 -138 -75q-44 0 -80 20.5t-57 58.5t-21 90v344h134v-319q0 -88 70 -88q39 0 65 29.5t26 83.5v294h134v-503h-30q-60 -42 -60 -74q0 -12 6.5 -18.5t17.5 -6.5
q10 0 18.5 6t17.5 18z" />
    <glyph glyph-name="Wcircumflex" unicode="&#x174;" horiz-adv-x="923" 
d="M650 137h5q5 47 16 101l87 430h136l-157 -668h-159l-94 409q-12 52 -18 108h-5q-6 -62 -17 -107l-93 -410h-164l-158 668h143l87 -429q9 -43 17 -102h5q10 63 18 103l97 428h138l100 -431q12 -46 16 -100zM532 745l-67 74l-67 -74h-110l110 137h134l109 -137h-109z" />
    <glyph glyph-name="wcircumflex" unicode="&#x175;" horiz-adv-x="781" 
d="M25 503h139l57 -267q11 -55 19 -103h5q9 55 20 101l66 269h123l68 -268q14 -54 21 -105h6q6 49 17 105l57 268h133l-134 -503h-142l-62 253q-13 53 -22 114h-6q-11 -65 -23 -113l-63 -254h-145zM455 579l-61 77l-62 -77h-107l104 146h128l104 -146h-106z" />
    <glyph glyph-name="Ycircumflex" unicode="&#x176;" horiz-adv-x="636" 
d="M387 287v-287h-138v284l-230 384h156l115 -204q23 -44 28 -59h6q9 27 29 59l117 204h150zM388 745l-67 74l-67 -74h-110l110 137h134l109 -137h-109z" />
    <glyph glyph-name="ycircumflex" unicode="&#x177;" horiz-adv-x="521" 
d="M53 -183v103q24 -5 51 -5q33 0 51 21t33 76l7 22l-174 469h140l73 -245q12 -37 25 -96h6q9 48 24 97l77 244h135l-191 -527q-22 -61 -45 -96t-55 -52t-81 -17q-46 0 -76 6zM324 579l-61 77l-62 -77h-107l104 146h128l104 -146h-106z" />
    <glyph glyph-name="Ydieresis" unicode="&#x178;" horiz-adv-x="636" 
d="M387 287v-287h-138v284l-230 384h156l115 -204q23 -44 28 -59h6q9 27 29 59l117 204h150zM153 752.5q-21 19.5 -21 52.5q0 32 21 52t55 20t54.5 -20t20.5 -52q0 -33 -20.5 -52.5t-54.5 -19.5t-55 19.5zM380 752.5q-21 19.5 -21 52.5q0 32 21 52t55 20q33 0 54.5 -20
t21.5 -52q0 -33 -21.5 -52.5t-54.5 -19.5q-34 0 -55 19.5z" />
    <glyph glyph-name="Zacute" unicode="&#x179;" horiz-adv-x="562" 
d="M515 109v-109h-473v119l321 440h-305v109h456v-119l-322 -440h323zM305 889h148l-125 -144h-113z" />
    <glyph glyph-name="zacute" unicode="&#x17a;" horiz-adv-x="469" 
d="M425 98v-98h-382v103l231 301h-224v99h373v-104l-231 -301h233zM265 741h140l-129 -162h-106z" />
    <glyph glyph-name="Zdotaccent" unicode="&#x17b;" horiz-adv-x="562" 
d="M515 109v-109h-473v119l321 440h-305v109h456v-119l-322 -440h323zM222.5 755q-23.5 22 -23.5 57q0 36 23 58t61 22t61 -22t23 -58q0 -35 -23.5 -57t-60.5 -22t-60.5 22z" />
    <glyph glyph-name="zdotaccent" unicode="&#x17c;" horiz-adv-x="469" 
d="M425 98v-98h-382v103l231 301h-224v99h373v-104l-231 -301h233zM177.5 587q-22.5 21 -22.5 55t22 55t58 21t58.5 -21t22.5 -55t-22.5 -55t-58.5 -21q-35 0 -57.5 21z" />
    <glyph glyph-name="Zcaron" unicode="&#x17d;" horiz-adv-x="562" 
d="M515 109v-109h-473v119l321 440h-305v109h456v-119l-322 -440h323zM460 882l-109 -137h-134l-110 137h110l67 -74l67 74h109z" />
    <glyph glyph-name="zcaron" unicode="&#x17e;" horiz-adv-x="469" 
d="M425 98v-98h-382v103l231 301h-224v99h373v-104l-231 -301h233zM403 725l-104 -146h-128l-104 146h107l62 -77l61 77h106z" />
    <glyph glyph-name="uni018F" unicode="&#x18f;" horiz-adv-x="672" 
d="M480.5 639.5q68.5 -40.5 105 -117.5t36.5 -186t-36.5 -187.5t-103 -119.5t-154.5 -41q-132 0 -206.5 88.5t-74.5 248.5q0 25 3 44h429q-6 100 -50 148t-119 48q-42 0 -77 -21.5t-62 -59.5l-102 68q83 128 249 128q94 0 162.5 -40.5zM475 263h-292q15 -161 146 -161
q125 0 146 161z" />
    <glyph glyph-name="florin" unicode="&#x192;" 
d="M352 523q-6 -22 -11 -78l-7 -68h124v-89h-132l-22 -224q-7 -68 -19.5 -104t-32.5 -58q-46 -47 -131 -47q-47 0 -81 7l12 102q20 -5 47 -5q34 0 50 21q9 12 15.5 36.5t12.5 85.5l17 186h-124v89h132l10 106q7 65 21 101.5t38 57.5t55 29.5t76 8.5q47 0 79 -10l-12 -101
q-24 6 -49 6q-17 0 -29.5 -4t-21.5 -14q-11 -12 -17 -34z" />
    <glyph glyph-name="uni01C4" unicode="&#x1c4;" horiz-adv-x="1231" 
d="M478.5 629q72.5 -39 112.5 -114.5t40 -180.5t-40 -180.5t-112.5 -114.5t-167.5 -39h-228v668h228q95 0 167.5 -39zM437.5 170q51.5 58 51.5 164t-51.5 164t-139.5 58h-77v-444h77q88 0 139.5 58zM1184 109v-109h-473v119l321 440h-305v109h456v-119l-322 -440h323z
M1129 882l-109 -137h-134l-110 137h110l67 -74l67 74h109z" />
    <glyph glyph-name="uni01C5" unicode="&#x1c5;" horiz-adv-x="1145" 
d="M478.5 629q72.5 -39 112.5 -114.5t40 -180.5t-40 -180.5t-112.5 -114.5t-167.5 -39h-228v668h228q95 0 167.5 -39zM437.5 170q51.5 58 51.5 164t-51.5 164t-139.5 58h-77v-444h77q88 0 139.5 58zM1100 98v-98h-382v103l231 301h-224v99h373v-104l-231 -301h233zM1078 725
l-104 -146h-128l-104 146h107l62 -77l61 77h106z" />
    <glyph glyph-name="uni01C6" unicode="&#x1c6;" horiz-adv-x="1055" 
d="M513 695v-695h-127v65h-5q-40 -75 -134 -75q-52 0 -98 29t-74.5 88t-28.5 143q0 86 28.5 145.5t74.5 88.5t98 29q87 0 128 -64h4v246h134zM354.5 135.5q26.5 40.5 26.5 115.5t-26.5 116t-71.5 41q-47 0 -73 -40.5t-26 -117.5q0 -76 26 -115.5t73 -39.5q45 0 71.5 40.5z
M1011 98v-98h-382v103l231 301h-224v99h373v-104l-231 -301h233zM989 725l-104 -146h-128l-104 146h107l62 -77l61 77h106z" />
    <glyph glyph-name="uni01C7" unicode="&#x1c7;" horiz-adv-x="906" 
d="M493 112v-112h-410v668h138v-556h272zM547 -109v114q36 -8 61 -8q40 0 58 19t18 60v592h138v-609q0 -85 -49 -130.5t-132 -45.5q-52 0 -94 8z" />
    <glyph glyph-name="uni01C8" unicode="&#x1c8;" horiz-adv-x="811" 
d="M493 112v-112h-410v668h138v-556h272zM492 -183v103q7 -1 23 -3.5t30 -2.5q31 0 45.5 18t14.5 59v512h133v-529q0 -82 -40 -122.5t-125 -40.5q-48 0 -81 6zM613.5 587q-22.5 21 -22.5 55t22 55t58 21t58.5 -21t22.5 -55t-22.5 -55t-58.5 -21q-35 0 -57.5 21z" />
    <glyph glyph-name="uni01C9" unicode="&#x1c9;" horiz-adv-x="589" 
d="M270 -1q-33 -9 -83 -9q-117 0 -117 123v582h134v-549q0 -52 29 -52q19 0 37 5v-100zM270 -183v103q7 -1 23 -3.5t30 -2.5q31 0 45.5 18t14.5 59v512h133v-529q0 -82 -40 -122.5t-125 -40.5q-48 0 -81 6zM391.5 587q-22.5 21 -22.5 55t22 55t58 21t58.5 -21t22.5 -55
t-22.5 -55t-58.5 -21q-35 0 -57.5 21z" />
    <glyph glyph-name="uni01CA" unicode="&#x1ca;" horiz-adv-x="1063" 
d="M83 668h177l169 -389q29 -68 39 -104h5q-3 60 -3 111v382h129v-668h-177l-169 389q-29 71 -39 108h-6q4 -52 4 -115v-382h-129v668zM705 -109v114q36 -8 61 -8q40 0 58 19t18 60v592h138v-609q0 -85 -49 -130.5t-132 -45.5q-52 0 -94 8z" />
    <glyph glyph-name="uni01CB" unicode="&#x1cb;" horiz-adv-x="962" 
d="M83 668h177l169 -389q29 -68 39 -104h5q-3 60 -3 111v382h129v-668h-177l-169 389q-29 71 -39 108h-6q4 -52 4 -115v-382h-129v668zM643 -183v103q7 -1 23 -3.5t30 -2.5q31 0 45.5 18t14.5 59v512h133v-529q0 -82 -40 -122.5t-125 -40.5q-48 0 -81 6zM764.5 587
q-22.5 21 -22.5 55t22 55t58 21t58.5 -21t22.5 -55t-22.5 -55t-58.5 -21q-35 0 -57.5 21z" />
    <glyph glyph-name="uni01CC" unicode="&#x1cc;" horiz-adv-x="858" 
d="M424 492.5q36 -20.5 57 -58.5t21 -90v-344h-134v319q0 88 -70 88q-39 0 -65 -29.5t-26 -83.5v-294h-134v503h127v-65h6q38 75 138 75q44 0 80 -20.5zM539 -183v103q7 -1 23 -3.5t30 -2.5q31 0 45.5 18t14.5 59v512h133v-529q0 -82 -40 -122.5t-125 -40.5q-48 0 -81 6z
M660.5 587q-22.5 21 -22.5 55t22 55t58 21t58.5 -21t22.5 -55t-22.5 -55t-58.5 -21q-35 0 -57.5 21z" />
    <glyph glyph-name="uni01CD" unicode="&#x1cd;" horiz-adv-x="638" 
d="M431 145h-231l-43 -145h-136l215 668h165l217 -668h-145zM400 250l-60 206q-17 63 -21 90h-6q-8 -42 -21 -88l-61 -208h169zM498 882l-109 -137h-134l-110 137h110l67 -74l67 74h109z" />
    <glyph glyph-name="uni01CE" unicode="&#x1ce;" horiz-adv-x="530" 
d="M470 0h-121q-6 38 -6 66h-6q-40 -76 -142 -76q-70 0 -112 37t-42 104q0 73 40.5 108.5t101.5 50.5q61 16 144 28v21q0 39 -17 57.5t-53 18.5q-29 0 -47.5 -13t-20.5 -36h-128q5 67 57.5 107t139.5 40q93 0 148 -48.5t55 -140.5v-177q0 -61 9 -147zM302.5 112
q24.5 30 24.5 82v45q-30 -5 -78 -17q-38 -10 -54 -29t-16 -49q0 -62 56 -62q43 0 67.5 30zM432 725l-104 -146h-128l-104 146h107l62 -77l61 77h106z" />
    <glyph glyph-name="uni01CF" unicode="&#x1cf;" horiz-adv-x="396" 
d="M131 745l-85 138h106l46 -69l48 69h106l-86 -138h-135zM342 561h-75v-454h75v-107h-288v107h75v454h-75v107h288v-107z" />
    <glyph glyph-name="uni01D0" unicode="&#x1d0;" horiz-adv-x="280" 
d="M76 579l-82 146h101l45 -76l47 76h101l-84 -146h-128zM73 503h134v-503h-134v503z" />
    <glyph glyph-name="uni01D1" unicode="&#x1d1;" horiz-adv-x="706" 
d="M195.5 29.5q-68.5 41.5 -107 120t-38.5 184.5t38.5 184.5t107 120t157.5 41.5t157.5 -41.5t107 -120t38.5 -184.5t-38.5 -184.5t-107 -120t-157.5 -41.5t-157.5 41.5zM469 160.5q45 58.5 45 173.5t-45 173.5t-116 58.5t-116 -58.5t-45 -173.5t45 -173.5t116 -58.5
t116 58.5zM530 882l-109 -137h-134l-110 137h110l67 -74l67 74h109z" />
    <glyph glyph-name="uni01D2" unicode="&#x1d2;" horiz-adv-x="570" 
d="M158 21.5q-54 31.5 -83.5 90.5t-29.5 139t29.5 139t84 91t126.5 32q73 0 127 -32t83.5 -91t29.5 -139t-29.5 -139t-83.5 -90.5t-127 -31.5t-127 31.5zM360.5 135q27.5 40 27.5 116q0 77 -27.5 117t-75.5 40t-75 -40.5t-27 -116.5t27 -116t75 -40t75.5 40zM453 725
l-104 -146h-128l-104 146h107l62 -77l61 77h106z" />
    <glyph glyph-name="uni01D3" unicode="&#x1d3;" horiz-adv-x="655" 
d="M145 47.5q-67 59.5 -67 172.5v448h138v-430q0 -136 115 -136q54 0 85 33.5t31 102.5v430h130v-448q0 -113 -68 -172.5t-183 -59.5q-114 0 -181 59.5zM509 882l-109 -137h-134l-110 137h110l67 -74l67 74h109z" />
    <glyph glyph-name="uni01D4" unicode="&#x1d4;" horiz-adv-x="571" 
d="M498 503v-503h-127v65h-6q-38 -75 -138 -75q-44 0 -80 20.5t-57 58.5t-21 90v344h134v-319q0 -88 70 -88q39 0 65 29.5t26 83.5v294h134zM455 725l-104 -146h-128l-104 146h107l62 -77l61 77h106z" />
    <glyph glyph-name="uni01D5" unicode="&#x1d5;" horiz-adv-x="655" 
d="M145 47.5q-67 59.5 -67 172.5v448h138v-430q0 -136 115 -136q54 0 85 33.5t31 102.5v430h130v-448q0 -113 -68 -172.5t-183 -59.5q-114 0 -181 59.5zM161 900v90h340v-90h-340zM163.5 735q-21.5 20 -21.5 52t21.5 52.5t54.5 20.5q34 0 55 -20.5t21 -52.5t-21 -52t-55 -20
q-33 0 -54.5 20zM390.5 735q-20.5 20 -20.5 52t20.5 52.5t54.5 20.5q33 0 55 -20.5t22 -52.5t-22 -52t-55 -20q-34 0 -54.5 20z" />
    <glyph glyph-name="uni01D6" unicode="&#x1d6;" horiz-adv-x="571" 
d="M498 503v-503h-127v65h-6q-38 -75 -138 -75q-44 0 -80 20.5t-57 58.5t-21 90v344h134v-319q0 -88 70 -88q39 0 65 29.5t26 83.5v294h134zM127 843h321v-97h-321v97zM134 568q-20 19 -20 50t20 50t52 19t52 -19t20 -50t-20 -50t-52 -19t-52 19zM337 568q-20 19 -20 50
t20 50t52 19t52.5 -19t20.5 -50t-20.5 -50t-52.5 -19t-52 19z" />
    <glyph glyph-name="uni01D7" unicode="&#x1d7;" horiz-adv-x="655" 
d="M145 47.5q-67 59.5 -67 172.5v448h138v-430q0 -136 115 -136q54 0 85 33.5t31 102.5v430h130v-448q0 -113 -68 -172.5t-183 -59.5q-114 0 -181 59.5zM337 998h147l-102 -114h-113zM163.5 735q-21.5 20 -21.5 52t21.5 52.5t54.5 20.5q34 0 55 -20.5t21 -52.5t-21 -52
t-55 -20q-33 0 -54.5 20zM390.5 735q-20.5 20 -20.5 52t20.5 52.5t54.5 20.5q33 0 55 -20.5t22 -52.5t-22 -52t-55 -20q-34 0 -54.5 20z" />
    <glyph glyph-name="uni01D8" unicode="&#x1d8;" horiz-adv-x="571" 
d="M498 503v-503h-127v65h-6q-38 -75 -138 -75q-44 0 -80 20.5t-57 58.5t-21 90v344h134v-319q0 -88 70 -88q39 0 65 29.5t26 83.5v294h134zM324 887h140l-129 -161h-106zM134 568q-20 19 -20 50t20 50t52 19q33 0 53 -19t20 -50t-20.5 -50t-52.5 -19t-52 19zM337 568
q-20 19 -20 50t20 50t52 19q33 0 53 -19t20 -50t-20.5 -50t-52.5 -19t-52 19z" />
    <glyph glyph-name="uni01D9" unicode="&#x1d9;" horiz-adv-x="655" 
d="M145 47.5q-67 59.5 -67 172.5v448h138v-430q0 -136 115 -136q54 0 85 33.5t31 102.5v430h130v-448q0 -113 -68 -172.5t-183 -59.5q-114 0 -181 59.5zM261 884l-104 114h112l62 -57l62 57h112l-105 -114h-139zM273 839.5q21 -20.5 21 -52.5t-21 -52t-55 -20
q-33 0 -54.5 20t-21.5 52t21.5 52.5t54.5 20.5q34 0 55 -20.5zM500 839.5q22 -20.5 22 -52.5t-22 -52t-55 -20q-34 0 -54.5 20t-20.5 52t20.5 52.5t54.5 20.5q33 0 55 -20.5z" />
    <glyph glyph-name="uni01DA" unicode="&#x1da;" horiz-adv-x="571" 
d="M498 503v-503h-127v65h-6q-38 -75 -138 -75q-44 0 -80 20.5t-57 58.5t-21 90v344h134v-319q0 -88 70 -88q39 0 65 29.5t26 83.5v294h134zM223 726l-104 146h107l62 -77l61 77h107l-105 -146h-128zM238 668q20 -19 20 -50t-20 -50t-52 -19t-52 19t-20 50t20 50t52 19
t52 -19zM441.5 668q20.5 -19 20.5 -50t-20.5 -50t-52.5 -19t-52 19t-20 50t20 50t52 19t52.5 -19z" />
    <glyph glyph-name="uni01DB" unicode="&#x1db;" horiz-adv-x="655" 
d="M145 47.5q-67 59.5 -67 172.5v448h138v-430q0 -136 115 -136q54 0 85 33.5t31 102.5v430h130v-448q0 -113 -68 -172.5t-183 -59.5q-114 0 -181 59.5zM178 998h147l69 -114h-113zM163.5 735q-21.5 20 -21.5 52t21.5 52.5t54.5 20.5q34 0 55 -20.5t21 -52.5t-21 -52
t-55 -20q-33 0 -54.5 20zM390.5 735q-20.5 20 -20.5 52t20.5 52.5t54.5 20.5q33 0 55 -20.5t22 -52.5t-22 -52t-55 -20q-34 0 -54.5 20z" />
    <glyph glyph-name="uni01DC" unicode="&#x1dc;" horiz-adv-x="571" 
d="M498 503v-503h-127v65h-6q-38 -75 -138 -75q-44 0 -80 20.5t-57 58.5t-21 90v344h134v-319q0 -88 70 -88q39 0 65 29.5t26 83.5v294h134zM249 726l-129 161h140l95 -161h-106zM134 568q-20 19 -20 50t20 50t52 19q33 0 53 -19t20 -50t-20.5 -50t-52.5 -19t-52 19z
M337 568q-20 19 -20 50t20 50t52 19q33 0 53 -19t20 -50t-20.5 -50t-52.5 -19t-52 19z" />
    <glyph glyph-name="uni01F1" unicode="&#x1f1;" horiz-adv-x="1231" 
d="M478.5 629q72.5 -39 112.5 -114.5t40 -180.5t-40 -180.5t-112.5 -114.5t-167.5 -39h-228v668h228q95 0 167.5 -39zM437.5 170q51.5 58 51.5 164t-51.5 164t-139.5 58h-77v-444h77q88 0 139.5 58zM1184 109v-109h-473v119l321 440h-305v109h456v-119l-322 -440h323z" />
    <glyph glyph-name="uni01F2" unicode="&#x1f2;" horiz-adv-x="1145" 
d="M478.5 629q72.5 -39 112.5 -114.5t40 -180.5t-40 -180.5t-112.5 -114.5t-167.5 -39h-228v668h228q95 0 167.5 -39zM437.5 170q51.5 58 51.5 164t-51.5 164t-139.5 58h-77v-444h77q88 0 139.5 58zM1100 98v-98h-382v103l231 301h-224v99h373v-104l-231 -301h233z" />
    <glyph glyph-name="uni01F3" unicode="&#x1f3;" horiz-adv-x="1055" 
d="M513 695v-695h-127v65h-5q-40 -75 -134 -75q-52 0 -98 29t-74.5 88t-28.5 143q0 86 28.5 145.5t74.5 88.5t98 29q87 0 128 -64h4v246h134zM354.5 135.5q26.5 40.5 26.5 115.5t-26.5 116t-71.5 41q-47 0 -73 -40.5t-26 -117.5q0 -76 26 -115.5t73 -39.5q45 0 71.5 40.5z
M1011 98v-98h-382v103l231 301h-224v99h373v-104l-231 -301h233z" />
    <glyph glyph-name="uni0218" unicode="&#x218;" horiz-adv-x="583" 
d="M185.5 122q47.5 -21 99.5 -21q54 0 85.5 19t31.5 57q0 35 -28 55.5t-84 42.5l-72 28q-158 62 -158 190q0 55 28.5 97.5t79.5 66t118 23.5q71 0 132.5 -22t107.5 -65l-67 -90q-32 30 -75.5 47t-89.5 17q-44 0 -69.5 -19t-25.5 -49q0 -31 22 -50.5t68 -38.5l75 -30
q80 -31 128.5 -74.5t48.5 -120.5q0 -95 -69.5 -146t-182.5 -51q-79 0 -144 27.5t-113 79.5l69 86q37 -38 84.5 -59zM348 -64q20 -21 20 -58q0 -77 -91 -149l-41 34q49 43 60 69q-3 -1 -10 -1q-32 0 -50 16.5t-18 45.5q0 28 19.5 46t52.5 18q38 0 58 -21z" />
    <glyph glyph-name="uni0219" unicode="&#x219;" horiz-adv-x="485" 
d="M159.5 106.5q37.5 -16.5 78.5 -16.5q81 0 81 47q0 22 -20 35.5t-64 26.5l-51 18q-63 21 -97.5 56t-34.5 91q0 66 50.5 107.5t135.5 41.5q116 0 195 -66l-59 -81q-26 22 -60.5 34.5t-68.5 12.5q-31 0 -48 -11.5t-17 -29.5t16.5 -31t51.5 -25l52 -19q44 -16 74 -32.5
t51.5 -45.5t21.5 -73q0 -72 -55 -114t-149 -42q-66 0 -119.5 21t-93.5 59l61 81q31 -28 68.5 -44.5zM293.5 -66q19.5 -22 19.5 -58q0 -74 -88 -145l-39 33q46 38 58 69q-3 -1 -10 -1q-29 0 -47 16.5t-18 42.5q0 27 19 46t50 19q36 0 55.5 -22z" />
    <glyph glyph-name="uni021A" unicode="&#x21a;" horiz-adv-x="567" 
d="M536 556h-183v-556h-138v556h-184v112h505v-112zM338 -64q20 -21 20 -58q0 -77 -91 -149l-41 34q49 43 60 69q-3 -1 -10 -1q-32 0 -50 16.5t-18 45.5q0 28 19.5 46t52.5 18q38 0 58 -21z" />
    <glyph glyph-name="uni021B" unicode="&#x21b;" horiz-adv-x="396" 
d="M246 402v-241q0 -36 10.5 -52t34.5 -16q29 0 68 12v-99q-45 -16 -105 -16q-66 0 -103.5 35t-37.5 105v272h-90v101h90v102l133 46v-148h113v-101h-113zM279.5 -66q19.5 -22 19.5 -58q0 -74 -88 -145l-39 33q46 38 58 69q-3 -1 -10 -1q-29 0 -47 16.5t-18 42.5q0 27 19 46
t50 19q36 0 55.5 -22z" />
    <glyph glyph-name="uni0232" unicode="&#x232;" horiz-adv-x="636" 
d="M387 287v-287h-138v284l-230 384h156l115 -204q23 -44 28 -59h6q9 27 29 59l117 204h150zM151 860h340v-102h-340v102z" />
    <glyph glyph-name="uni0233" unicode="&#x233;" horiz-adv-x="521" 
d="M53 -183v103q24 -5 51 -5q33 0 51 21t33 76l7 22l-174 469h140l73 -245q12 -37 25 -96h6q9 48 24 97l77 244h135l-191 -527q-22 -61 -45 -96t-55 -52t-81 -17q-46 0 -76 6zM102 684h321v-97h-321v97z" />
    <glyph glyph-name="uni0237" unicode="&#x237;" horiz-adv-x="287" 
d="M-32 -183v103q7 -1 23 -3.5t30 -2.5q31 0 45.5 18t14.5 59v512h133v-529q0 -82 -40 -122.5t-125 -40.5q-48 0 -81 6z" />
    <glyph glyph-name="uni0259" unicode="&#x259;" horiz-adv-x="541" 
d="M378.5 482.5q55.5 -30.5 86.5 -89t31 -140.5t-29.5 -141.5t-82.5 -90.5t-121 -31q-66 0 -116 30t-77.5 87.5t-27.5 137.5q0 14 2 36h316q-12 130 -120 130q-62 0 -112 -57l-71 76q74 83 194 83q72 0 127.5 -30.5zM326 116q25 28 32 84h-184q12 -112 89 -112q38 0 63 28z
" />
    <glyph glyph-name="uni02BB" unicode="&#x2bb;" horiz-adv-x="260" 
d="M189.5 506.5q21.5 -22.5 21.5 -56.5q0 -36 -22 -58t-56 -22q-43 0 -66.5 28.5t-23.5 77.5q0 60 33.5 112t83.5 92l40 -43q-25 -19 -47 -47.5t-28 -60.5h10q33 0 54.5 -22.5z" />
    <glyph glyph-name="uni02BC" unicode="&#x2bc;" horiz-adv-x="257" 
d="M192.5 651.5q23.5 -28.5 23.5 -77.5q0 -60 -33 -112t-83 -92l-41 43q25 20 47.5 48t28.5 60h-11q-33 0 -54.5 22t-21.5 57q0 36 22.5 58t55.5 22q43 0 66.5 -28.5z" />
    <glyph glyph-name="circumflex" unicode="&#x2c6;" horiz-adv-x="448" 
d="M286 579l-61 77l-62 -77h-107l104 146h128l104 -146h-106z" />
    <glyph glyph-name="caron" unicode="&#x2c7;" horiz-adv-x="448" 
d="M392 725l-104 -146h-128l-104 146h107l62 -77l61 77h106z" />
    <glyph glyph-name="breve" unicode="&#x2d8;" horiz-adv-x="448" 
d="M116 610.5q-41 37.5 -46 108.5h83q5 -34 24 -50t47 -16t47 16t24 50h83q-5 -71 -46 -108.5t-108 -37.5t-108 37.5z" />
    <glyph glyph-name="dotaccent" unicode="&#x2d9;" horiz-adv-x="448" 
d="M166.5 587q-22.5 21 -22.5 55t22 55t58 21t58.5 -21t22.5 -55t-22.5 -55t-58.5 -21q-35 0 -57.5 21z" />
    <glyph glyph-name="ring" unicode="&#x2da;" horiz-adv-x="448" 
d="M135.5 592q-34.5 30 -34.5 78q0 47 34.5 77t87.5 30q54 0 89 -30t35 -77q0 -48 -35 -78t-89 -30q-53 0 -87.5 30zM259 637q14 13 14 33q0 19 -14.5 32.5t-35.5 13.5q-22 0 -35 -13.5t-13 -32.5t13.5 -32.5t34.5 -13.5q22 0 36 13z" />
    <glyph glyph-name="ogonek" unicode="&#x2db;" horiz-adv-x="448" 
d="M126.5 -165q-31.5 26 -31.5 70q0 32 21 58t62 51l108 9q-37 -24 -54 -45.5t-17 -42.5q0 -15 8.5 -24t24.5 -9q26 0 51 29l54 -55q-50 -67 -137 -67q-58 0 -89.5 26z" />
    <glyph glyph-name="tilde" unicode="&#x2dc;" horiz-adv-x="448" 
d="M241.5 587q-18.5 9 -37.5 24q-22 18 -36 18q-13 0 -21 -10t-11 -36h-83q3 73 34 105.5t74 32.5q26 0 44 -8.5t36 -23.5q14 -11 21.5 -15.5t16.5 -4.5q13 0 21 10t11 37h83q-3 -75 -34.5 -106.5t-73.5 -31.5q-26 0 -44.5 9z" />
    <glyph glyph-name="hungarumlaut" unicode="&#x2dd;" horiz-adv-x="448" 
d="M106 725h126l-101 -146h-114zM295 725h142l-125 -146h-108z" />
    <glyph glyph-name="gravecomb" unicode="&#x300;" horiz-adv-x="0" 
d="M-471 579l-129 162h140l95 -162h-106z" />
    <glyph glyph-name="acutecomb" unicode="&#x301;" horiz-adv-x="0" 
d="M-505 741h140l-129 -162h-106z" />
    <glyph glyph-name="uni0302" unicode="&#x302;" horiz-adv-x="0" 
d="M-370 579l-61 77l-62 -77h-107l104 146h128l104 -146h-106z" />
    <glyph glyph-name="tildecomb" unicode="&#x303;" horiz-adv-x="0" 
d="M-411.5 587q-18.5 9 -37.5 24q-22 18 -36 18q-13 0 -21 -10t-11 -36h-83q3 73 34 105.5t74 32.5q26 0 44 -8.5t36 -23.5q14 -11 21.5 -15.5t16.5 -4.5q13 0 21 10t11 37h83q-3 -75 -34.5 -106.5t-73.5 -31.5q-26 0 -44.5 9z" />
    <glyph glyph-name="uni0304" unicode="&#x304;" horiz-adv-x="0" 
d="M-600 684h321v-97h-321v97z" />
    <glyph glyph-name="uni0306" unicode="&#x306;" horiz-adv-x="0" 
d="M-554 610.5q-41 37.5 -46 108.5h83q5 -34 24 -50t47 -16t47 16t24 50h83q-5 -71 -46 -108.5t-108 -37.5t-108 37.5z" />
    <glyph glyph-name="uni0307" unicode="&#x307;" horiz-adv-x="0" 
d="M-577.5 587q-22.5 21 -22.5 55t22 55t58 21t58.5 -21t22.5 -55t-22.5 -55t-58.5 -21q-35 0 -57.5 21z" />
    <glyph glyph-name="uni0308" unicode="&#x308;" horiz-adv-x="0" 
d="M-580 592q-20 19 -20 49q0 31 20 50.5t52 19.5t52.5 -19.5t20.5 -50.5q0 -30 -20.5 -49t-52.5 -19t-52 19zM-377 592q-20 19 -20 49q0 31 20 50.5t52 19.5t52.5 -19.5t20.5 -50.5q0 -30 -20.5 -49t-52.5 -19t-52 19z" />
    <glyph glyph-name="uni030A" unicode="&#x30a;" horiz-adv-x="0" 
d="M-565.5 592q-34.5 30 -34.5 78q0 47 34.5 77t87.5 30q54 0 89 -30t35 -77q0 -48 -35 -78t-89 -30q-53 0 -87.5 30zM-442 637q14 13 14 33q0 19 -14.5 32.5t-35.5 13.5q-22 0 -35 -13.5t-13 -32.5t13.5 -32.5t34.5 -13.5q22 0 36 13z" />
    <glyph glyph-name="uni030B" unicode="&#x30b;" horiz-adv-x="0" 
d="M-511 725h126l-101 -146h-114zM-322 725h142l-125 -146h-108z" />
    <glyph glyph-name="uni030C" unicode="&#x30c;" horiz-adv-x="0" 
d="M-264 725l-104 -146h-128l-104 146h107l62 -77l61 77h106z" />
    <glyph glyph-name="uni0312" unicode="&#x312;" horiz-adv-x="0" 
d="M-480 672.5q18 -16.5 18 -42.5q0 -27 -19 -46t-50 -19q-36 0 -55.5 22t-19.5 58q0 73 88 145l39 -33q-46 -38 -58 -69q3 1 10 1q29 0 47 -16.5z" />
    <glyph glyph-name="uni0326" unicode="&#x326;" horiz-adv-x="0" 
d="M-475.5 -66q19.5 -22 19.5 -58q0 -74 -88 -145l-39 33q46 38 58 69q-3 -1 -10 -1q-29 0 -47 16.5t-18 42.5q0 27 19 46t50 19q36 0 55.5 -22z" />
    <glyph glyph-name="uni0327" unicode="&#x327;" horiz-adv-x="0" 
d="M-600 -129l46 46q27 -29 54 -29q18 0 28 10t10 27q0 24 -19.5 47.5t-60.5 50.5l90 -9l14 -9q34 -23 55 -45t21 -58q0 -42 -30 -67t-84 -25q-80 0 -124 61z" />
    <glyph glyph-name="uni0328" unicode="&#x328;" horiz-adv-x="0" 
d="M-568.5 -165q-31.5 26 -31.5 70q0 32 21 58t62 51l108 9q-37 -24 -54 -45.5t-17 -42.5q0 -15 8.5 -24t24.5 -9q26 0 51 29l54 -55q-50 -67 -137 -67q-58 0 -89.5 26z" />
    <glyph glyph-name="uni0394" unicode="&#x394;" horiz-adv-x="646" 
d="M612 98v-98h-578v98l206 570h163zM166 105h305l-120 350l-10 29q-9 25 -20 62h-5q-3 -8 -7 -24q-4 -13 -9 -29.5t-12 -35.5z" />
    <glyph glyph-name="uni03A9" unicode="&#x3a9;" horiz-adv-x="719" 
d="M53 101h136v5q-60 40 -93 108t-33 159q0 94 38.5 163.5t106 106.5t152.5 37t152.5 -37t106 -106.5t38.5 -163.5q0 -91 -33 -159t-94 -108v-5h136v-101h-258v109q44 33 77 97.5t33 147.5q0 108 -45 160t-113 52t-113 -52t-45 -160q0 -83 32.5 -147.5t76.5 -97.5v-109h-258
v101z" />
    <glyph glyph-name="uni03BC" unicode="&#x3bc;" horiz-adv-x="596" 
d="M556 103v-102q-27 -9 -61 -9q-47 0 -72 16.5t-35 48.5h-5q-15 -32 -40 -48.5t-57 -16.5q-48 0 -73 30h-6v-201h-134v682h134v-320q0 -45 20 -66.5t53 -21.5q39 0 63.5 29t24.5 85v294h134v-337q0 -40 8.5 -52.5t27.5 -12.5q8 0 18 2z" />
    <glyph glyph-name="pi" unicode="&#x3c0;" horiz-adv-x="589" 
d="M463 404v-248q0 -34 8.5 -46t32.5 -12q9 0 19 1.5t17 3.5v-96q-11 -4 -32.5 -8t-40.5 -4q-49 0 -76 12t-39 42t-12 85v270h-101l-37 -404h-125l40 404h-77v99h505v-99h-82z" />
    <glyph glyph-name="uni0E3F" unicode="&#xe3f;" 
d="M451 55.5q-55 -49.5 -138 -54.5v-89h-100v88h-161v668h161v81h100v-83q82 -8 126 -52t44 -115q0 -101 -87 -139v-5q53 -19 81.5 -60t28.5 -101q0 -89 -55 -138.5zM181 563v-171h94q39 0 59.5 22t20.5 65q0 84 -76 84h-98zM346 128q26 23 26 71q0 47 -23.5 71t-67.5 24
h-100v-189h96q43 0 69 23z" />
    <glyph glyph-name="Wgrave" unicode="&#x1e80;" horiz-adv-x="923" 
d="M650 137h5q5 47 16 101l87 430h136l-157 -668h-159l-94 409q-12 52 -18 108h-5q-6 -62 -17 -107l-93 -410h-164l-158 668h143l87 -429q9 -43 17 -102h5q10 63 18 103l97 428h138l100 -431q12 -46 16 -100zM420 745l-125 144h147l91 -144h-113z" />
    <glyph glyph-name="wgrave" unicode="&#x1e81;" horiz-adv-x="781" 
d="M25 503h139l57 -267q11 -55 19 -103h5q9 55 20 101l66 269h123l68 -268q14 -54 21 -105h6q6 49 17 105l57 268h133l-134 -503h-142l-62 253q-13 53 -22 114h-6q-11 -65 -23 -113l-63 -254h-145zM351 579l-129 162h140l95 -162h-106z" />
    <glyph glyph-name="Wacute" unicode="&#x1e82;" horiz-adv-x="923" 
d="M650 137h5q5 47 16 101l87 430h136l-157 -668h-159l-94 409q-12 52 -18 108h-5q-6 -62 -17 -107l-93 -410h-164l-158 668h143l87 -429q9 -43 17 -102h5q10 63 18 103l97 428h138l100 -431q12 -46 16 -100zM488 889h148l-125 -144h-113z" />
    <glyph glyph-name="wacute" unicode="&#x1e83;" horiz-adv-x="781" 
d="M25 503h139l57 -267q11 -55 19 -103h5q9 55 20 101l66 269h123l68 -268q14 -54 21 -105h6q6 49 17 105l57 268h133l-134 -503h-142l-62 253q-13 53 -22 114h-6q-11 -65 -23 -113l-63 -254h-145zM423 741h140l-129 -162h-106z" />
    <glyph glyph-name="Wdieresis" unicode="&#x1e84;" horiz-adv-x="923" 
d="M650 137h5q5 47 16 101l87 430h136l-157 -668h-159l-94 409q-12 52 -18 108h-5q-6 -62 -17 -107l-93 -410h-164l-158 668h143l87 -429q9 -43 17 -102h5q10 63 18 103l97 428h138l100 -431q12 -46 16 -100zM297 752.5q-21 19.5 -21 52.5q0 32 21 52t55 20t54.5 -20
t20.5 -52q0 -33 -20.5 -52.5t-54.5 -19.5t-55 19.5zM524 752.5q-21 19.5 -21 52.5q0 32 21 52t55 20q33 0 54.5 -20t21.5 -52q0 -33 -21.5 -52.5t-54.5 -19.5q-34 0 -55 19.5z" />
    <glyph glyph-name="wdieresis" unicode="&#x1e85;" horiz-adv-x="781" 
d="M25 503h139l57 -267q11 -55 19 -103h5q9 55 20 101l66 269h123l68 -268q14 -54 21 -105h6q6 49 17 105l57 268h133l-134 -503h-142l-62 253q-13 53 -22 114h-6q-11 -65 -23 -113l-63 -254h-145zM240 592q-20 19 -20 49q0 31 20 50.5t52 19.5t52.5 -19.5t20.5 -50.5
q0 -30 -20.5 -49t-52.5 -19t-52 19zM443 592q-20 19 -20 49q0 31 20 50.5t52 19.5t52.5 -19.5t20.5 -50.5q0 -30 -20.5 -49t-52.5 -19t-52 19z" />
    <glyph glyph-name="uni1E9E" unicode="&#x1e9e;" horiz-adv-x="645" 
d="M563 283q38 -46 38 -109q0 -85 -58 -135.5t-151 -50.5q-68 0 -116 25l34 104q33 -18 69 -18q39 0 59 20t20 52t-22 57t-73 51l-55 30v67l111 167q-45 25 -92 25q-65 0 -88.5 -43t-23.5 -120v-405h-138v418q0 126 61 194t188 68q73 0 139 -23t119 -67l-145 -212l17 -10
q69 -39 107 -85z" />
    <glyph glyph-name="uni1EBC" unicode="&#x1ebc;" horiz-adv-x="562" 
d="M507 110v-110h-424v668h417v-110h-279v-161h260v-106h-260v-181h286zM314 750q-19 8 -43 25q-10 7 -20 13t-18 6q-29 0 -33 -46h-87q3 74 35.5 107t77.5 33q25 0 44 -8t41 -24q14 -12 22 -16.5t18 -4.5q13 0 21 10.5t12 36.5h86q-3 -77 -36 -108.5t-77 -31.5q-24 0 -43 8
z" />
    <glyph glyph-name="uni1EBD" unicode="&#x1ebd;" horiz-adv-x="540" 
d="M496 222h-316q12 -130 120 -130q62 0 112 57l71 -76q-74 -83 -194 -83q-72 0 -127.5 30.5t-86.5 89t-31 140.5t29.5 141.5t82.5 90.5t121 31q66 0 116 -30t77.5 -87.5t27.5 -137.5q0 -14 -2 -36zM214 387q-25 -28 -32 -84h184q-12 112 -89 112q-38 0 -63 -28zM294.5 587
q-18.5 9 -37.5 24q-22 18 -36 18q-13 0 -21 -10t-11 -36h-83q3 73 34 105.5t74 32.5q26 0 44 -8.5t36 -23.5q14 -11 21.5 -15.5t16.5 -4.5q13 0 21 10t11 37h83q-3 -75 -34.5 -106.5t-73.5 -31.5q-26 0 -44.5 9z" />
    <glyph glyph-name="Ygrave" unicode="&#x1ef2;" horiz-adv-x="636" 
d="M387 287v-287h-138v284l-230 384h156l115 -204q23 -44 28 -59h6q9 27 29 59l117 204h150zM275 745l-125 144h147l91 -144h-113z" />
    <glyph glyph-name="ygrave" unicode="&#x1ef3;" horiz-adv-x="521" 
d="M53 -183v103q24 -5 51 -5q33 0 51 21t33 76l7 22l-174 469h140l73 -245q12 -37 25 -96h6q9 48 24 97l77 244h135l-191 -527q-22 -61 -45 -96t-55 -52t-81 -17q-46 0 -76 6zM220 579l-129 162h140l95 -162h-106z" />
    <glyph glyph-name="uni1EF8" unicode="&#x1ef8;" horiz-adv-x="636" 
d="M387 287v-287h-138v284l-230 384h156l115 -204q23 -44 28 -59h6q9 27 29 59l117 204h150zM343 750q-19 8 -43 25q-10 7 -20 13t-18 6q-29 0 -33 -46h-87q3 74 35.5 107t77.5 33q25 0 44 -8t41 -24q14 -12 22 -16.5t18 -4.5q13 0 21 10.5t12 36.5h86q-3 -77 -36 -108.5
t-77 -31.5q-24 0 -43 8z" />
    <glyph glyph-name="uni1EF9" unicode="&#x1ef9;" horiz-adv-x="521" 
d="M53 -183v103q24 -5 51 -5q33 0 51 21t33 76l7 22l-174 469h140l73 -245q12 -37 25 -96h6q9 48 24 97l77 244h135l-191 -527q-22 -61 -45 -96t-55 -52t-81 -17q-46 0 -76 6zM279.5 587q-18.5 9 -37.5 24q-22 18 -36 18q-13 0 -21 -10t-11 -36h-83q3 73 34 105.5t74 32.5
q26 0 44 -8.5t36 -23.5q14 -11 21.5 -15.5t16.5 -4.5q13 0 21 10t11 37h83q-3 -75 -34.5 -106.5t-73.5 -31.5q-26 0 -44.5 9z" />
    <glyph glyph-name="uni2007" unicode="&#x2007;" 
 />
    <glyph glyph-name="uni2008" unicode="&#x2008;" horiz-adv-x="276" 
 />
    <glyph glyph-name="uni2009" unicode="&#x2009;" horiz-adv-x="125" 
 />
    <glyph glyph-name="uni200B" unicode="&#x200b;" horiz-adv-x="0" 
 />
    <glyph glyph-name="uni2010" unicode="&#x2010;" horiz-adv-x="384" 
d="M65 332h254v-104h-254v104z" />
    <glyph glyph-name="uni2011" unicode="&#x2011;" horiz-adv-x="384" 
d="M65 332h254v-104h-254v104z" />
    <glyph glyph-name="figuredash" unicode="&#x2012;" 
d="M37 328h468v-96h-468v96z" />
    <glyph glyph-name="endash" unicode="&#x2013;" horiz-adv-x="496" 
d="M64 328h369v-96h-369v96z" />
    <glyph glyph-name="emdash" unicode="&#x2014;" horiz-adv-x="841" 
d="M64 328h713v-96h-713v96z" />
    <glyph glyph-name="quoteleft" unicode="&#x2018;" horiz-adv-x="260" 
d="M188.5 506.5q21.5 -22.5 21.5 -56.5q0 -36 -22 -58t-56 -22q-43 0 -66.5 28.5t-23.5 77.5q0 60 33.5 112t83.5 92l40 -43q-25 -19 -47 -47.5t-28 -60.5h10q33 0 54.5 -22.5z" />
    <glyph glyph-name="quoteright" unicode="&#x2019;" horiz-adv-x="257" 
d="M192.5 651.5q23.5 -28.5 23.5 -77.5q0 -60 -33 -112t-83 -92l-41 43q25 20 47.5 48t28.5 60h-11q-33 0 -54.5 22t-21.5 57q0 36 22.5 58t55.5 22q43 0 66.5 -28.5z" />
    <glyph glyph-name="quotesinglbase" unicode="&#x201a;" horiz-adv-x="266" 
d="M195.5 118.5q23.5 -28.5 23.5 -77.5q0 -60 -33 -112t-83 -92l-41 43q25 20 47.5 48t28.5 60h-11q-33 0 -54.5 22t-21.5 57q0 36 22.5 58t55.5 22q43 0 66.5 -28.5z" />
    <glyph glyph-name="quotedblleft" unicode="&#x201c;" horiz-adv-x="481" 
d="M188.5 506.5q21.5 -22.5 21.5 -56.5q0 -36 -22 -58t-56 -22q-43 0 -66.5 28.5t-23.5 77.5q0 60 33.5 112t83.5 92l40 -43q-25 -19 -47 -47.5t-28 -60.5h10q33 0 54.5 -22.5zM410 506.5q22 -22.5 22 -56.5q0 -36 -22 -58t-56 -22q-43 0 -66.5 28.5t-23.5 77.5q0 60 33 112
t83 92l40 -43q-25 -19 -47 -47.5t-28 -60.5h10q33 0 55 -22.5z" />
    <glyph glyph-name="quotedblright" unicode="&#x201d;" horiz-adv-x="478" 
d="M192.5 651.5q23.5 -28.5 23.5 -77.5q0 -60 -33 -112t-83 -92l-41 43q25 20 47.5 48t28.5 60h-11q-33 0 -54.5 22t-21.5 57q0 36 22.5 58t55.5 22q43 0 66.5 -28.5zM413.5 651.5q23.5 -28.5 23.5 -77.5q0 -60 -33 -112t-83 -92l-41 43q25 20 47.5 48t28.5 60h-11
q-33 0 -54.5 22t-21.5 57q0 36 22.5 58t55.5 22q43 0 66.5 -28.5z" />
    <glyph glyph-name="quotedblbase" unicode="&#x201e;" horiz-adv-x="488" 
d="M195.5 118.5q23.5 -28.5 23.5 -77.5q0 -60 -33 -112t-83 -92l-41 43q25 20 47.5 48t28.5 60h-11q-33 0 -54.5 22t-21.5 57q0 36 22.5 58t55.5 22q43 0 66.5 -28.5zM416.5 118.5q23.5 -28.5 23.5 -77.5q0 -60 -33 -112t-83 -92l-41 43q25 20 47.5 48t28.5 60h-11
q-33 0 -54.5 22t-21.5 57q0 36 22.5 58t55.5 22q43 0 66.5 -28.5z" />
    <glyph glyph-name="dagger" unicode="&#x2020;" horiz-adv-x="468" 
d="M441 370h-151v-470h-112v470h-151v100h151v198h112v-198h151v-100z" />
    <glyph glyph-name="daggerdbl" unicode="&#x2021;" horiz-adv-x="508" 
d="M310 370v-161h151v-101h-151v-208h-112v208h-151v101h151v161h-151v100h151v198h112v-198h151v-100h-151z" />
    <glyph glyph-name="bullet" unicode="&#x2022;" horiz-adv-x="442" 
d="M330 389.5q42 -43.5 42 -110.5t-43 -110.5t-108 -43.5q-66 0 -109 43.5t-43 110.5t43.5 110.5t110.5 43.5q65 0 107 -43.5z" />
    <glyph glyph-name="ellipsis" unicode="&#x2026;" horiz-adv-x="820" 
d="M73 14q-25 24 -25 64q0 38 25 62.5t65 24.5t65 -24.5t25 -62.5q0 -40 -25 -64t-65 -24t-65 24zM345 14q-25 24 -25 64q0 38 25 62.5t65 24.5t65 -24.5t25 -62.5q0 -40 -25 -64t-65 -24t-65 24zM616 14q-25 24 -25 64q0 38 25 62.5t65 24.5t65 -24.5t25 -62.5
q0 -40 -25 -64t-65 -24t-65 24z" />
    <glyph glyph-name="perthousand" unicode="&#x2030;" horiz-adv-x="1233" 
d="M583 668h115l-423 -668h-115zM77 356.5q-46 50.5 -46 135.5q0 86 46 137t122 51t122 -51t46 -137q0 -85 -46 -135.5t-122 -50.5t-122 50.5zM244 413.5q16 26.5 16 78.5q0 54 -16 81.5t-45 27.5t-45 -27.5t-16 -81.5q0 -52 16 -78.5t45 -26.5t45 26.5zM531 38.5
q-46 50.5 -46 135.5q0 86 46 137t122 51t122 -51t46 -137q0 -85 -46 -135.5t-122 -50.5t-122 50.5zM698 94.5q16 26.5 16 79.5q0 54 -16 81.5t-45 27.5t-45.5 -27.5t-16.5 -81.5q0 -52 16.5 -79t45.5 -27t45 26.5zM912 38.5q-46 50.5 -46 135.5q0 86 46 137t122 51t122 -51
t46 -137q0 -85 -46 -135.5t-122 -50.5t-122 50.5zM1079 94.5q16 26.5 16 79.5q0 54 -16 81.5t-45 27.5t-45.5 -27.5t-16.5 -81.5q0 -52 16.5 -79t45.5 -27t45 26.5z" />
    <glyph glyph-name="minute" unicode="&#x2032;" horiz-adv-x="257" 
d="M94 668h133l-83 -281h-95z" />
    <glyph glyph-name="second" unicode="&#x2033;" horiz-adv-x="445" 
d="M94 668h129l-81 -281h-93zM285 668h130l-81 -281h-93z" />
    <glyph glyph-name="uni2034" unicode="&#x2034;" horiz-adv-x="638" 
d="M94 668h131l-82 -281h-94zM286 668h130l-81 -281h-94zM477 668h131l-82 -281h-93z" />
    <glyph glyph-name="guilsinglleft" unicode="&#x2039;" horiz-adv-x="312" 
d="M154 51l-126 204l126 198h106l-94 -198l94 -204h-106z" />
    <glyph glyph-name="guilsinglright" unicode="&#x203a;" horiz-adv-x="312" 
d="M138 255l-93 198h106l126 -198l-126 -204h-106z" />
    <glyph glyph-name="fraction" unicode="&#x2044;" horiz-adv-x="159" 
d="M-71 0h-114l423 668h115z" />
    <glyph glyph-name="uni2060" unicode="&#x2060;" horiz-adv-x="0" 
 />
    <glyph glyph-name="uni2070" unicode="&#x2070;" horiz-adv-x="406" 
d="M84.5 327.5q-44.5 53.5 -44.5 147.5t44.5 147t118.5 53t118.5 -53t44.5 -147q0 -95 -44.5 -148t-118.5 -53t-118.5 53.5zM260 475q0 120 -57 120t-57 -120q0 -62 14.5 -91t42.5 -29q57 0 57 120z" />
    <glyph glyph-name="uni2074" unicode="&#x2074;" horiz-adv-x="372" 
d="M339 350h-52v-69h-95v69h-161v86l127 232h129v-240h52v-78zM104 426h98v101q0 45 3 87h-5q-13 -36 -33 -74z" />
    <glyph glyph-name="uni2075" unicode="&#x2075;" horiz-adv-x="357" 
d="M284.5 501q34.5 -35 34.5 -93q0 -62 -43 -98t-109 -36q-53 0 -88 21.5t-49 56.5l75 36q7 -17 22 -26t36 -9q25 0 40 15t15 40t-15 41t-39 16q-29 0 -50 -25l-75 11l32 217h229v-78h-157l-12 -78h4q21 24 61 24q54 0 88.5 -35z" />
    <glyph glyph-name="uni2076" unicode="&#x2076;" horiz-adv-x="375" 
d="M303 501q35 -34 35 -91q0 -43 -21 -74t-55 -46.5t-72 -15.5q-64 0 -108.5 43.5t-44.5 148.5q0 102 48 155.5t124 53.5q37 0 67.5 -12t47.5 -28l-44 -62q-33 25 -66 25q-40 0 -59.5 -25t-22.5 -84h5q10 20 32.5 33t49.5 13q49 0 84 -34zM223.5 366.5q14.5 14.5 14.5 41.5
q0 29 -14 43.5t-36 14.5q-21 0 -35.5 -14.5t-14.5 -44.5q0 -26 14.5 -40.5t35.5 -14.5t35.5 14.5z" />
    <glyph glyph-name="uni2077" unicode="&#x2077;" horiz-adv-x="323" 
d="M297 668v-84q-55 -54 -80.5 -130t-27.5 -173h-111q0 70 22.5 133t55.5 107.5t64 65.5v5q-35 -3 -62 -3h-130v79h269z" />
    <glyph glyph-name="uni2078" unicode="&#x2078;" horiz-adv-x="386" 
d="M348 392q0 -54 -44.5 -86t-111.5 -32q-71 0 -112.5 28.5t-41.5 75.5q0 63 72 95v6q-27 15 -43 35.5t-16 51.5q0 48 40 78.5t103 30.5q60 0 99.5 -30t39.5 -76q0 -56 -55 -83v-6q70 -30 70 -88zM159.5 599.5q-12.5 -11.5 -12.5 -30.5q0 -17 13.5 -29.5t44.5 -25.5
q37 22 37 53q0 20 -14.5 32t-34.5 12q-21 0 -33.5 -11.5zM234 352.5q15 10.5 15 29.5q0 20 -19 33.5t-53 28.5q-21 -12 -32 -27.5t-11 -31.5q0 -19 16 -31t43 -12q26 0 41 10.5z" />
    <glyph glyph-name="uni2079" unicode="&#x2079;" horiz-adv-x="369" 
d="M252.5 659.5q35.5 -15.5 58 -49t22.5 -84.5q0 -64 -44 -131.5t-116 -123.5l-79 37q76 60 112 125h-3q-22 -15 -58 -15q-49 0 -83 32.5t-34 87.5q0 44 21.5 75t55.5 46.5t73 15.5t74.5 -15.5zM217 499q16 15 16 42q0 28 -15.5 42.5t-37.5 14.5q-21 0 -37 -15t-16 -42
q0 -28 15 -42.5t38 -14.5q21 0 37 15z" />
    <glyph glyph-name="uni207A" unicode="&#x207a;" horiz-adv-x="368" 
d="M336 426h-112v-117h-80v117h-112v76h112v116h80v-116h112v-76z" />
    <glyph glyph-name="uni207B" unicode="&#x207b;" horiz-adv-x="405" 
d="M51 502h303v-76h-303v76z" />
    <glyph glyph-name="uni207C" unicode="&#x207c;" horiz-adv-x="407" 
d="M52 562h303v-75h-303v75zM52 441h303v-74h-303v74z" />
    <glyph glyph-name="uni207D" unicode="&#x207d;" horiz-adv-x="223" 
d="M142 352.5q18 -58.5 54 -105.5l-60 -34q-46 52 -72 117.5t-26 138.5q0 74 25.5 138.5t72.5 117.5l60 -35q-36 -46 -54 -103.5t-18 -117.5q0 -58 18 -116.5z" />
    <glyph glyph-name="uni207E" unicode="&#x207e;" horiz-adv-x="223" 
d="M80.5 586q-18.5 58 -53.5 104l60 35q47 -53 72.5 -117.5t25.5 -138.5q0 -73 -26 -138.5t-72 -117.5l-60 34q36 47 54 105.5t18 116.5q0 59 -18.5 117z" />
    <glyph glyph-name="uni2080" unicode="&#x2080;" horiz-adv-x="406" 
d="M84.5 -103.5q-44.5 53.5 -44.5 147.5t44.5 147t118.5 53t118.5 -53t44.5 -147q0 -95 -44.5 -148t-118.5 -53t-118.5 53.5zM260 44q0 120 -57 120t-57 -120q0 -62 14.5 -91t42.5 -29q57 0 57 120z" />
    <glyph glyph-name="uni2081" unicode="&#x2081;" horiz-adv-x="315" 
d="M288 -71v-79h-247v79h77v177q-29 -11 -74 -11v77q85 3 96 65h80v-308h68z" />
    <glyph glyph-name="uni2082" unicode="&#x2082;" horiz-adv-x="361" 
d="M42 -72q66 48 100 77t52 56.5t18 58.5q0 19 -10 31.5t-30 12.5q-19 0 -30.5 -13t-11.5 -31h-91q0 59 40 91.5t97 32.5q64 0 101.5 -31.5t37.5 -88.5q0 -62 -44.5 -108t-117.5 -86v-5q32 4 65 4h102v-79h-278v78z" />
    <glyph glyph-name="uni2083" unicode="&#x2083;" horiz-adv-x="362" 
d="M300 21q23 -25 23 -62q0 -51 -41 -83.5t-111 -32.5q-113 0 -143 85l73 31q9 -21 26 -31t38 -10q27 0 40.5 14t13.5 33t-12.5 33.5t-38.5 14.5h-33v71h27q25 0 37 12t12 33q0 18 -12.5 29t-34.5 11q-40 0 -58 -43l-71 30q11 41 47.5 64.5t84.5 23.5q64 0 102.5 -29
t38.5 -75q0 -32 -18 -52.5t-46 -28.5v-6q33 -7 56 -32z" />
    <glyph glyph-name="uni2084" unicode="&#x2084;" horiz-adv-x="372" 
d="M339 -81h-52v-69h-95v69h-161v86l127 232h129v-240h52v-78zM104 -5h98v101q0 45 3 87h-5q-13 -36 -33 -74z" />
    <glyph glyph-name="uni2085" unicode="&#x2085;" horiz-adv-x="357" 
d="M284.5 70q34.5 -35 34.5 -93q0 -62 -43 -98t-109 -36q-53 0 -88 21.5t-49 56.5l75 36q7 -17 22 -26t36 -9q25 0 40 15t15 40t-15 41t-39 16q-29 0 -50 -25l-75 11l32 217h229v-78h-157l-12 -78h4q21 24 61 24q54 0 88.5 -35z" />
    <glyph glyph-name="uni2086" unicode="&#x2086;" horiz-adv-x="375" 
d="M303 71q35 -34 35 -91q0 -43 -21 -74t-55 -46.5t-72 -15.5q-64 0 -108.5 43.5t-44.5 148.5q0 102 48 155.5t124 53.5q37 0 67.5 -12t47.5 -28l-44 -62q-33 25 -66 25q-40 0 -59.5 -25t-22.5 -84h5q10 20 32.5 33t49.5 13q49 0 84 -34zM223.5 -63.5q14.5 14.5 14.5 41.5
q0 29 -14 43.5t-36 14.5q-21 0 -35.5 -14.5t-14.5 -44.5q0 -26 14.5 -40.5t35.5 -14.5t35.5 14.5z" />
    <glyph glyph-name="uni2087" unicode="&#x2087;" horiz-adv-x="323" 
d="M297 237v-84q-55 -54 -80.5 -130t-27.5 -173h-111q0 70 22.5 133t55.5 107.5t64 65.5v5q-35 -3 -62 -3h-130v79h269z" />
    <glyph glyph-name="uni2088" unicode="&#x2088;" horiz-adv-x="386" 
d="M348 -38q0 -54 -44.5 -86t-111.5 -32q-71 0 -112.5 28.5t-41.5 75.5q0 63 72 95v6q-27 15 -43 35.5t-16 51.5q0 48 40 78.5t103 30.5q60 0 99.5 -30t39.5 -76q0 -56 -55 -83v-6q70 -30 70 -88zM159.5 169.5q-12.5 -11.5 -12.5 -30.5q0 -17 13.5 -29.5t44.5 -25.5
q37 22 37 53q0 20 -14.5 32t-34.5 12q-21 0 -33.5 -11.5zM234 -77.5q15 10.5 15 29.5q0 20 -19 33.5t-53 28.5q-21 -12 -32 -27.5t-11 -31.5q0 -19 16 -31t43 -12q26 0 41 10.5z" />
    <glyph glyph-name="uni2089" unicode="&#x2089;" horiz-adv-x="369" 
d="M252.5 232.5q35.5 -15.5 58 -49t22.5 -84.5q0 -64 -44 -131.5t-116 -123.5l-79 37q76 60 112 125h-3q-22 -15 -58 -15q-49 0 -83 32.5t-34 87.5q0 44 21.5 75t55.5 46.5t73 15.5t74.5 -15.5zM217 72q16 15 16 42q0 28 -15.5 42.5t-37.5 14.5q-21 0 -37 -15t-16 -42
q0 -28 15 -42.5t38 -14.5q21 0 37 15z" />
    <glyph glyph-name="colonmonetary" unicode="&#x20a1;" 
d="M347 5l-10 -93h-74l10 89q-30 1 -62 11l-11 -100h-74l16 135q-55 41 -85.5 114t-30.5 170q0 137 52.5 223.5t146.5 107.5l11 87h74l-10 -81q35 -2 61 -10l12 91h74l-16 -124q56 -41 83 -127l-105 -48q-17 54 -46.5 79t-72.5 25q-58 0 -94 -54.5t-36 -165.5
q0 -108 34.5 -164t96.5 -56q91 0 128 119l104 -52q-47 -150 -176 -176z" />
    <glyph glyph-name="uni20A6" unicode="&#x20a6;" 
d="M473 370v-65h65v-70h-65v-235h-159l-104 351q-13 48 -27 138h-6q5 -77 5 -131v-358h-112v235h-66v70h66v65h-66v70h66v228h163l100 -350q7 -25 17 -83q7 -39 10 -53h5q-4 68 -4 128v358h112v-228h65v-70h-65z" />
    <glyph glyph-name="uni20A9" unicode="&#x20a9;" horiz-adv-x="810" 
d="M686 382l-10 -66h86v-70h-97l-37 -246h-149l-58 431q-5 44 -11 99h-5q-6 -55 -11 -98l-56 -432h-155l-38 246h-97v70h86l-10 66h-76v70h65l-33 216h132l45 -426q1 -17 5 -46q1 -8 2 -17.5t1 -18.5h6l9 82l53 426h150l56 -430l3 -25q5 -31 6 -55h6l7 81l42 429h126
l-33 -216h66v-70h-76z" />
    <glyph glyph-name="uni20AA" unicode="&#x20aa;" horiz-adv-x="820" 
d="M477 490.5q40 -12.5 60 -48.5t20 -105v-126h-107v92q0 43 -6 59.5t-30 22.5t-85 6h-124v-391h-127v503h290q69 0 109 -12.5zM278 0v300h107v-188h28q82 0 129.5 18t71 67t23.5 140v166h125v-164q0 -138 -41.5 -212t-121 -100.5t-210.5 -26.5h-111z" />
    <glyph glyph-name="dong" unicode="&#x20ab;" 
d="M496 622v-70h-70v-430h-112v53h-5q-30 -61 -100 -61q-66 0 -109 51.5t-43 142.5q0 62 21 106.5t56 67.5t76 23q64 0 94 -51h5v98h-139v70h139v62h117v-62h70zM298 229q17 30 17 81q0 50 -17.5 80t-49.5 30t-50.5 -30t-18.5 -82q0 -50 18.5 -79.5t50.5 -29.5q33 0 50 30z
M52 70h417v-70h-417v70z" />
    <glyph glyph-name="Euro" unicode="&#x20ac;" 
d="M536 150q-25 -78 -81 -120t-139 -42q-94 0 -160.5 63t-86.5 184h-59v70h52q-1 9 -1 29q0 24 1 36h-52v70h60q21 118 87 179t158 61q79 0 136.5 -43.5t78.5 -118.5l-110 -37q-16 47 -41.5 67.5t-60.5 20.5q-41 0 -70.5 -32t-42.5 -97h152v-70h-160q-1 -11 -1 -36
q0 -20 1 -29h160v-70h-153q12 -68 42 -102t73 -34q79 0 107 94z" />
    <glyph glyph-name="uni20AD" unicode="&#x20ad;" 
d="M204 305h-15v-305h-128v305h-53v89h53v274h128v-274h14l171 274h141l-186 -274h159v-89h-146l202 -305h-154z" />
    <glyph glyph-name="uni20AE" unicode="&#x20ae;" 
d="M335 563v-118l101 38v-75l-101 -36v-71l101 37v-74l-101 -37v-227h-128v189l-101 -37v75l101 36v70l-101 -36v74l101 36v156h-180v105h488v-105h-180z" />
    <glyph glyph-name="uni20B1" unicode="&#x20b1;" 
d="M540 480h-67q1 -8 1 -26q0 -11 -2 -31h68v-72h-86q-24 -56 -74.5 -86t-122.5 -30h-54v-235h-129v351h-68v72h68v57h-68v72h68v116h183q72 0 123.5 -30t75.5 -86h84v-72zM315.5 365q24.5 33 24.5 87q0 53 -24.5 85t-77.5 32h-36v-237h36q53 0 77.5 33z" />
    <glyph glyph-name="uni20B2" unicode="&#x20b2;" 
d="M519 73q-76 -60 -175 -71v-90h-101v91q-108 16 -165 102t-57 229q0 145 58 231t164 100v84h101v-86q120 -23 173 -136l-102 -62q-36 90 -123 90q-137 0 -137 -220q0 -113 35.5 -168t114.5 -55q55 0 92 24v116h-92v106h214v-285z" />
    <glyph glyph-name="uni20B4" unicode="&#x20b4;" 
d="M320 310v-5h206v-70h-301q-30 -28 -30 -68q0 -35 24.5 -52.5t67.5 -17.5t79 18.5t73 58.5l70 -84q-45 -49 -105 -75.5t-126 -26.5q-97 0 -156 45.5t-59 131.5q0 37 15 70h-65v70h120q19 15 41 31t45 29v5h-206v70h300q18 14 25 29t7 34q0 30 -20.5 48t-59.5 18
q-70 0 -135 -62l-65 91q87 82 215 82q89 0 143 -46.5t54 -125.5q0 -34 -16 -68h65v-70h-118q-59 -42 -88 -60z" />
    <glyph glyph-name="uni20B5" unicode="&#x20b5;" 
d="M343 4v-92h-100v92q-100 17 -158 103t-58 224q0 143 57 231t159 103v84h100v-86q129 -25 172 -165l-106 -48q-31 104 -118 104q-58 0 -94 -54.5t-36 -165.5q0 -108 34.5 -164t96.5 -56q44 0 76 28.5t52 90.5l104 -52q-48 -152 -181 -177z" />
    <glyph glyph-name="uni20B8" unicode="&#x20b8;" 
d="M515 668v-105h-488v105h488zM27 497h488v-105h-180v-392h-128v392h-180v105z" />
    <glyph glyph-name="uni20B9" unicode="&#x20b9;" 
d="M357 570v-5q47 -25 64 -77h95v-89h-89q-7 -58 -37.5 -96t-85.5 -60l171 -243h-162l-143 217q-36 -2 -58 -2h-43v98h40q83 0 125.5 19t54.5 67h-261v89h263q-11 42 -51.5 62t-114.5 20h-97v98h488v-98h-159z" />
    <glyph glyph-name="uni20BA" unicode="&#x20ba;" 
d="M107 232l-87 -31v74l87 32v70l-87 -32v74l87 32v217h129v-182l115 41v-74l-115 -42v-70l115 42v-74l-115 -41v-146q70 6 119 49.5t71 119.5l113 -46q-40 -121 -126.5 -183t-241.5 -62h-64v232z" />
    <glyph glyph-name="uni20BC" unicode="&#x20bc;" horiz-adv-x="790" 
d="M666 438.5q77 -116.5 77 -340.5v-98h-128v83q0 173 -42 264.5t-123 113.5v-421h-117v420q-78 -24 -118.5 -115.5t-40.5 -261.5v-83h-129v98q0 222 76 338.5t212 136.5v107h117v-107q139 -18 216 -134.5z" />
    <glyph glyph-name="uni20BD" unicode="&#x20bd;" 
d="M213 275v-65h184v-88h-184v-122h-129v122h-63v88h63v65h-63v96h63v297h213q105 0 169 -49.5t64 -147.5q0 -99 -61.5 -147.5t-171.5 -48.5h-84zM213 568v-196h73q108 0 108 98q0 48 -26 73t-75 25h-80z" />
    <glyph glyph-name="uni20BF" unicode="&#x20bf;" 
d="M464.5 73q-41.5 -47 -108.5 -64v-97h-73v88h-64v-88h-73v88h-94v668h94v81h73v-81h46h18v81h73v-92q62 -17 94.5 -58t32.5 -100q0 -98 -89 -138v-6q53 -19 82.5 -60t29.5 -101q0 -74 -41.5 -121zM181 563v-171h84q44 0 67 22t23 65q0 84 -87 84h-87zM345 128q29 23 29 71
q0 47 -26.5 71t-75.5 24h-91v-189h87q48 0 77 23z" />
    <glyph glyph-name="uni2113" unicode="&#x2113;" horiz-adv-x="486" 
d="M460 77q-24 -33 -73 -60t-110 -27q-79 0 -125.5 37.5t-46.5 137.5v1q-21 -8 -57 -19l-17 98q43 14 74 27v189q0 70 9.5 112.5t29.5 70.5q44 63 135 63q72 0 114 -47.5t42 -134.5q0 -84 -47 -161t-153 -139v-30q0 -54 13.5 -78t49.5 -24q31 0 59 18t48 41zM235 347
q50 40 69.5 85.5t19.5 98.5q0 35 -10.5 52.5t-28.5 17.5q-13 0 -23.5 -7.5t-15.5 -20.5q-7 -17 -9 -42t-2 -73v-111z" />
    <glyph glyph-name="uni2116" unicode="&#x2116;" horiz-adv-x="1051" 
d="M713.5 351.5q-45.5 50.5 -45.5 135.5q0 87 45.5 137.5t121.5 50.5q77 0 122.5 -50.5t45.5 -137.5q0 -85 -45.5 -135.5t-122.5 -50.5q-76 0 -121.5 50.5zM83 668h177l169 -389q29 -68 39 -104h5q-3 60 -3 111v382h129v-668h-177l-168 389q-28 65 -40 108h-5q3 -58 3 -115
v-382h-129v668zM880 408q17 27 17 79q0 53 -17 80t-45 27t-44.5 -27t-16.5 -80q0 -52 17 -79t44 -27q28 0 45 27zM989 168h-305v84h305v-84z" />
    <glyph glyph-name="uni2117" unicode="&#x2117;" horiz-adv-x="742" 
d="M535.5 636q72.5 -42 114.5 -120t42 -183q0 -104 -42 -182t-114.5 -119.5t-163.5 -41.5q-92 0 -165.5 41.5t-115.5 119.5t-42 182q0 105 42 183t115.5 120t165.5 42q91 0 163.5 -42zM503 85q57 34 89 98t32 150t-32 150.5t-89 99t-131 34.5q-75 0 -133 -34.5t-90.5 -99
t-32.5 -150.5t32.5 -150t90.5 -98t133 -34q74 0 131 34zM497.5 498.5q40.5 -31.5 40.5 -96.5q0 -62 -41 -95t-108 -33h-48v-136h-96v392h144q68 0 108.5 -31.5zM425 362q15 13 15 39q0 28 -14.5 40.5t-42.5 12.5h-42v-105h42q27 0 42 13z" />
    <glyph glyph-name="uni2120" unicode="&#x2120;" horiz-adv-x="865" 
d="M194 367q25 0 40.5 8t15.5 25q0 16 -15.5 27t-43.5 21l-37 14q-90 35 -90 107q0 48 35.5 77t93.5 29q85 0 138 -49l-41 -58q-19 17 -43.5 26t-48.5 9q-21 0 -33 -8.5t-12 -21.5q0 -15 11.5 -24t34.5 -18l38 -15q46 -18 74 -42t28 -69q0 -54 -39.5 -82.5t-103.5 -28.5
q-90 0 -148 61l44 57q42 -45 102 -45zM386 668h148l41 -196q5 -28 7.5 -44.5t4.5 -25.5h5q1 8 4 27.5t8 41.5l46 197h143v-368h-92v200q0 43 4 95h-5q-4 -20 -22 -93l-47 -201h-89l-45 203q-3 12 -14 67q-1 5 -2 11.5t-3 12.5h-6q3 -42 3 -95v-200h-89v368z" />
    <glyph glyph-name="trademark" unicode="&#x2122;" horiz-adv-x="834" 
d="M323 591h-99v-291h-95v291h-98v77h292v-77zM761 668v-368h-92v200q0 35 3 66l1 29h-5l-9 -41q-7 -25 -12 -52l-48 -201h-89l-45 203l-4 21q-8 44 -15 70h-5q3 -42 3 -95v-200h-90v368h149l41 -196q3 -13 8 -48l3 -22h5q9 54 12 69l46 197h143z" />
    <glyph glyph-name="uni2126" unicode="&#x2126;" horiz-adv-x="719" 
d="M53 101h136v5q-60 40 -93 108t-33 159q0 94 38.5 163.5t106 106.5t152.5 37t152.5 -37t106 -106.5t38.5 -163.5q0 -91 -33 -159t-94 -108v-5h136v-101h-258v109q44 33 77 97.5t33 147.5q0 108 -45 160t-113 52t-113 -52t-45 -160q0 -83 32.5 -147.5t76.5 -97.5v-109h-258
v101z" />
    <glyph glyph-name="estimated" unicode="&#x212e;" horiz-adv-x="669" 
d="M164 325v-179q29 -46 79.5 -73t112.5 -27q73 0 122.5 26t87.5 87l48 -36q-49 -73 -112.5 -103t-144.5 -30q-94 0 -163.5 42t-106.5 119.5t-37 180.5q0 105 37 183.5t103.5 120.5t152.5 42q88 0 151.5 -39t96.5 -110t33 -165q0 -23 -1 -39h-459zM236 598q-46 -25 -72 -72
v-158h342v181q-54 74 -163 74q-61 0 -107 -25z" />
    <glyph glyph-name="uni2153" unicode="&#x2153;" horiz-adv-x="874" 
d="M288 360v-79h-247v79h77v177q-29 -11 -74 -11v77q85 3 96 65h80v-308h68zM277 0h-114l423 668h115zM812 171q23 -25 23 -62q0 -51 -41 -83.5t-111 -32.5q-113 0 -143 85l73 31q9 -21 26 -31t38 -10q27 0 40.5 14t13.5 33t-12.5 33.5t-38.5 14.5h-33v71h27q25 0 37 12
t12 33q0 18 -12.5 29t-34.5 11q-40 0 -58 -43l-71 30q11 41 47.5 64.5t84.5 23.5q64 0 102.5 -29t38.5 -75q0 -32 -18 -52.5t-46 -28.5v-6q33 -7 56 -32z" />
    <glyph glyph-name="uni2154" unicode="&#x2154;" horiz-adv-x="920" 
d="M42 359q66 48 100 77t52 56.5t18 58.5q0 19 -10 31.5t-30 12.5q-19 0 -30.5 -13t-11.5 -31h-91q0 59 40 91.5t97 32.5q64 0 101.5 -31.5t37.5 -88.5q0 -62 -44.5 -108t-117.5 -86v-5q32 4 65 4h102v-79h-278v78zM322 0h-114l423 668h115zM858 171q23 -25 23 -62
q0 -51 -41 -83.5t-111 -32.5q-113 0 -143 85l73 31q9 -21 26 -31t38 -10q27 0 40.5 14t13.5 33t-12.5 33.5t-38.5 14.5h-33v71h27q25 0 37 12t12 33q0 18 -12.5 29t-34.5 11q-40 0 -58 -43l-71 30q11 41 47.5 64.5t84.5 23.5q64 0 102.5 -29t38.5 -75q0 -32 -18 -52.5
t-46 -28.5v-6q33 -7 56 -32z" />
    <glyph glyph-name="arrowleft" unicode="&#x2190;" horiz-adv-x="683" 
d="M639 258h-425l126 -118l-72 -73l-243 244l243 243l72 -73l-126 -119h425v-104z" />
    <glyph glyph-name="arrowup" unicode="&#x2191;" horiz-adv-x="530" 
d="M435 305l-117 124v-410h-107v408l-115 -122l-73 72l243 242l241 -242z" />
    <glyph glyph-name="arrowright" unicode="&#x2192;" horiz-adv-x="683" 
d="M658 311l-243 -244l-72 73l126 118h-425v104h425l-126 119l72 73z" />
    <glyph glyph-name="arrowdown" unicode="&#x2193;" horiz-adv-x="533" 
d="M510 244l-243 -243l-244 243l73 73l116 -124v413h108v-414l117 125z" />
    <glyph glyph-name="uni2196" unicode="&#x2196;" horiz-adv-x="563" 
d="M465 60l-304 309l6 -190h-103v358h354v-101l-185 5l305 -307z" />
    <glyph glyph-name="uni2197" unicode="&#x2197;" horiz-adv-x="563" 
d="M499 537v-358h-102l5 190l-304 -309l-73 74l306 307l-186 -5v101h354z" />
    <glyph glyph-name="uni2198" unicode="&#x2198;" horiz-adv-x="570" 
d="M499 451v-358h-353v102l185 -6l-305 307l73 74l303 -308l-5 189h102z" />
    <glyph glyph-name="uni2199" unicode="&#x2199;" horiz-adv-x="570" 
d="M239 189l185 6v-102h-353v358h102l-5 -189l303 308l74 -74z" />
    <glyph glyph-name="partialdiff" unicode="&#x2202;" horiz-adv-x="560" 
d="M419 595.5q90 -111.5 90 -311.5q0 -144 -60 -219t-173 -75q-73 0 -126 31.5t-81.5 89t-28.5 132.5q0 72 26.5 126t74 83.5t106.5 29.5q81 0 119 -52h5q-19 89 -92.5 131.5t-180.5 47.5l26 102q205 -4 295 -115.5zM350 134.5q26 39.5 26 104.5q0 67 -26 104.5t-71 37.5
q-47 0 -74 -37.5t-27 -106.5q0 -68 26.5 -105t74.5 -37q45 0 71 39.5z" />
    <glyph glyph-name="emptyset" unicode="&#x2205;" horiz-adv-x="792" 
d="M673 535q58 -88 58 -201q0 -97 -43 -176t-119.5 -124.5t-171.5 -45.5q-116 0 -204 67l-79 -79l-70 70l80 80q-31 43 -47.5 96t-16.5 112q0 96 43.5 175t120.5 124.5t173 45.5q60 0 113.5 -18.5t96.5 -53.5l71 71l69 -69zM200 201l334 333q-60 47 -137 47
q-65 0 -118 -32.5t-83 -88.5t-30 -126q0 -74 34 -133zM596 458l-331 -331q58 -41 132 -41q64 0 116 32.5t82 89t30 126.5q0 69 -29 124z" />
    <glyph glyph-name="uni2206" unicode="&#x2206;" horiz-adv-x="646" 
d="M612 98v-98h-578v98l206 570h163zM166 105h305l-120 350l-10 29q-9 25 -20 62h-5q-3 -8 -7 -24q-4 -13 -9 -29.5t-12 -35.5z" />
    <glyph glyph-name="product" unicode="&#x220f;" horiz-adv-x="667" 
d="M583 -110h-138v666h-224v-666h-138v778h500v-778z" />
    <glyph glyph-name="summation" unicode="&#x2211;" horiz-adv-x="563" 
d="M522 559h-329l181 -280l-181 -280h329v-109h-471v119l177 270l-177 270v119h471v-109z" />
    <glyph glyph-name="minus" unicode="&#x2212;" 
d="M48 355h446v-104h-446v104z" />
    <glyph glyph-name="uni2219" unicode="&#x2219;" 
d="M216.5 250.5q-21.5 19.5 -21.5 51.5t21.5 52.5t55.5 20.5q33 0 54 -20.5t21 -52.5q0 -31 -21 -51t-54 -20q-34 0 -55.5 19.5z" />
    <glyph glyph-name="radical" unicode="&#x221a;" horiz-adv-x="581" 
d="M566 817l-184 -997h-147l-109 352h-118v102h206l67 -231q8 -27 18 -79h6q6 39 5 36q1 20 6 46l127 771h123z" />
    <glyph glyph-name="infinity" unicode="&#x221e;" horiz-adv-x="753" 
d="M619 451.5q37 -18.5 60.5 -56.5t23.5 -93t-23 -93t-59.5 -56.5t-75.5 -18.5q-51 0 -90.5 21t-77.5 67q-37 -46 -76 -67t-90 -21q-40 0 -77 18.5t-60.5 56.5t-23.5 93t23.5 93t60.5 56.5t77 18.5q51 0 90 -21t76 -67q37 46 76 67t89 21q40 0 77 -18.5zM270.5 248.5
q21.5 16.5 50.5 53.5q-28 38 -50 54t-49 16q-31 0 -50 -20t-19 -50t19 -50t50 -20q27 0 48.5 16.5zM583 252q18 20 18 50t-18 50t-49 20q-28 0 -51 -16t-52 -54q30 -37 53 -53.5t50 -16.5q31 0 49 20z" />
    <glyph glyph-name="integral" unicode="&#x222b;" horiz-adv-x="358" 
d="M346 811v-102q-30 5 -53 5q-31 0 -45 -18t-14 -58v-670q0 -79 -39.5 -119t-104.5 -40q-48 0 -79 7v102q30 -5 53 -5q31 0 45 18t14 58v670q0 79 39.5 119t104.5 40q48 0 79 -7z" />
    <glyph glyph-name="congruent" unicode="&#x2245;" 
d="M312 554q-26 11 -62 33q-26 15 -39.5 21.5t-27.5 6.5q-23 0 -34.5 -16t-15.5 -52h-96q13 177 133 177q31 0 57.5 -11t59.5 -31q24 -15 40.5 -22.5t32.5 -7.5q22 0 33.5 14t16.5 53h95q-8 -96 -45 -136t-88 -40q-34 0 -60 11zM37 458h468v-103h-468v103zM37 252h468v-104
h-468v104z" />
    <glyph glyph-name="approxequal" unicode="&#x2248;" 
d="M314 343q-27 11 -65 32q-48 29 -71 29q-24 0 -36.5 -16t-16.5 -52h-100q7 97 45.5 137t93.5 40q32 0 61.5 -12t62.5 -30q29 -17 46 -23.5t34 -6.5q24 0 34 13.5t14 53.5h100q-8 -97 -46.5 -136.5t-93.5 -39.5q-35 0 -62 11zM316.5 115.5q-28.5 11.5 -64.5 32.5
q-44 28 -71 28q-24 0 -36.5 -16t-16.5 -52h-100q8 98 46.5 137.5t93.5 39.5q32 0 62 -12t61 -30q31 -17 47.5 -23t32.5 -6q24 0 34 13.5t14 52.5h100q-8 -97 -46.5 -136.5t-93.5 -39.5q-34 0 -62.5 11.5z" />
    <glyph glyph-name="uni2259" unicode="&#x2259;" 
d="M189 525h-111l153 225h77l153 -225h-111l-80 123zM505 458v-104h-468v104h468zM37 252h468v-103h-468v103z" />
    <glyph glyph-name="notequal" unicode="&#x2260;" 
d="M348 355l-51 -103h208v-104h-260l-56 -113h-95l56 113h-113v104h164l51 103h-215v103h266l53 107h96l-53 -107h106v-103h-157z" />
    <glyph glyph-name="lessequal" unicode="&#x2264;" 
d="M493 502l-319 -115l319 -115v-113l-451 175v105l451 175v-112zM42 109h451v-104h-451v104z" />
    <glyph glyph-name="greaterequal" unicode="&#x2265;" 
d="M500 439v-105l-451 -175v113l318 115l-318 115v112zM49 109h450v-104h-450v104z" />
    <glyph glyph-name="dotmath" unicode="&#x22c5;" 
d="M216.5 250.5q-21.5 19.5 -21.5 51.5t21.5 52.5t55.5 20.5q33 0 54 -20.5t21 -52.5q0 -31 -21 -51t-54 -20q-34 0 -55.5 19.5z" />
    <glyph glyph-name="uni2300" unicode="&#x2300;" 
d="M472 433q37 -61 37 -138q0 -71 -32 -127.5t-86.5 -88t-121.5 -31.5q-75 0 -137 41l-51 -51l-68 68l53 53q-37 61 -37 136q0 72 32 128.5t87 88t121 31.5q75 0 137 -41l57 57l67 -68zM197.5 430q-32.5 -20 -51 -55.5t-18.5 -79.5q0 -34 12 -64l200 199q-32 20 -71 20
t-71.5 -20zM340.5 161q32.5 20 51.5 55t19 79q0 37 -12 65l-200 -200q33 -19 70 -19q39 0 71.5 20z" />
    <glyph glyph-name="filledbox" unicode="&#x25a0;" horiz-adv-x="834" 
d="M751 668v-668h-668v668h668z" />
    <glyph glyph-name="uni25A1" unicode="&#x25a1;" horiz-adv-x="834" 
d="M83 668h668v-668h-668v668zM686 61v546h-538v-546h538z" />
    <glyph glyph-name="triagup" unicode="&#x25b2;" horiz-adv-x="745" 
d="M735 0h-726l363 685z" />
    <glyph glyph-name="uni25B3" unicode="&#x25b3;" horiz-adv-x="745" 
d="M735 0h-726l363 685zM373 550l-259 -489h517z" />
    <glyph glyph-name="uni25B4" unicode="&#x25b4;" horiz-adv-x="355" 
d="M335 204h-315l157 279z" />
    <glyph glyph-name="uni25B8" unicode="&#x25b8;" horiz-adv-x="355" 
d="M58 186v315l279 -157z" />
    <glyph glyph-name="triagdn" unicode="&#x25bc;" horiz-adv-x="745" 
d="M9 668h726l-363 -685z" />
    <glyph glyph-name="uni25BD" unicode="&#x25bd;" horiz-adv-x="745" 
d="M735 668l-363 -685l-363 685h726zM114 607l259 -489l258 489h-517z" />
    <glyph glyph-name="uni25BE" unicode="&#x25be;" horiz-adv-x="355" 
d="M20 473h315l-158 -279z" />
    <glyph glyph-name="uni25C2" unicode="&#x25c2;" horiz-adv-x="355" 
d="M297 501v-315l-279 157z" />
    <glyph glyph-name="lozenge" unicode="&#x25ca;" 
d="M523 340l-223 -340h-58l-223 340l223 340h58zM138 340l133 -210l133 210l-133 210z" />
    <glyph glyph-name="circle" unicode="&#x25cb;" horiz-adv-x="799" 
d="M219.5 19q-80.5 48 -126 131t-45.5 184t45.5 184t126 130.5t181.5 47.5t181 -47.5t125 -130t45 -184.5t-45 -185t-125 -130.5t-181 -47.5t-181.5 48zM548 71q64 39 98.5 108t34.5 155t-34.5 154.5t-98.5 107.5t-147 39q-84 0 -148 -39t-99.5 -107.5t-35.5 -154.5t35 -155
t99.5 -108t148.5 -39q83 0 147 39z" />
    <glyph glyph-name="uni25CF" unicode="&#x25cf;" horiz-adv-x="799" 
d="M219.5 19q-80.5 48 -126 131t-45.5 184t45.5 184t126 130.5t181.5 47.5t181 -47.5t125 -130t45 -184.5t-45 -185t-125 -130.5t-181 -47.5t-181.5 48z" />
    <glyph glyph-name="fi" unicode="&#xfb01;" horiz-adv-x="662" 
d="M265 585q-14 -18 -14 -57v-25h106v-101h-106v-402h-134v402h-91v101h91v45q0 80 44.5 119.5t122.5 39.5q46 0 79 -6v-102q-36 4 -53 4q-31 0 -45 -18zM589 503v-503h-134v503h134zM464.5 587q-22.5 21 -22.5 55t22 55t58 21t58.5 -21t22.5 -55t-22.5 -55t-58.5 -21
q-35 0 -57.5 21z" />
    <glyph glyph-name="fl" unicode="&#xfb02;" horiz-adv-x="684" 
d="M265 585q-14 -18 -14 -57v-25h106v-101h-106v-402h-134v402h-91v101h91v45q0 80 44.5 119.5t122.5 39.5q46 0 79 -6v-102q-36 4 -53 4q-31 0 -45 -18zM652 -1q-33 -9 -83 -9q-117 0 -117 123v582h134v-549q0 -52 29 -52q19 0 37 5v-100z" />
    <glyph glyph-name="uniFEFF" unicode="&#xfeff;" horiz-adv-x="0" 
 />
    <glyph glyph-name="NULL" horiz-adv-x="0" 
 />
    <glyph glyph-name="uni00A40301" horiz-adv-x="382" 
d="M24 -109v114q36 -8 61 -8q40 0 58 19t18 60v592h138v-609q0 -85 -49 -130.5t-132 -45.5q-52 0 -94 8zM254 889h148l-125 -144h-113z" />
    <glyph glyph-name="L_periodcentered.latnCAT" horiz-adv-x="531" 
d="M493 112v-112h-410v668h138v-556h272zM360 313.5q-21 19.5 -21 50.5q0 33 20 53.5t54 20.5t55 -20t21 -52t-21 -52t-55 -20q-32 0 -53 19.5z" />
    <glyph glyph-name="i.loclTRK" horiz-adv-x="280" 
d="M207 503v-503h-134v503h134zM82.5 587q-22.5 21 -22.5 55t22 55t58 21t58.5 -21t22.5 -55t-22.5 -55t-58.5 -21q-35 0 -57.5 21z" />
    <glyph glyph-name="uni006A0301" horiz-adv-x="287" 
d="M-32 -183v103q7 -1 23 -3.5t30 -2.5q31 0 45.5 18t14.5 59v512h133v-529q0 -82 -40 -122.5t-125 -40.5q-48 0 -81 6zM177 741h140l-129 -162h-106z" />
    <glyph glyph-name="l_periodcentered.latnCAT" horiz-adv-x="418" 
d="M270 -1q-33 -9 -83 -9q-117 0 -117 123v582h134v-549q0 -52 29 -52q19 0 37 5v-100zM294 315q-20 20 -20 51q0 32 20 52t52 20t51.5 -20t19.5 -52q0 -31 -19.5 -51t-51.5 -20t-52 20z" />
    <glyph glyph-name="uni01F2.sc" horiz-adv-x="1186" 
d="M478.5 629q72.5 -39 112.5 -114.5t40 -180.5t-40 -180.5t-112.5 -114.5t-167.5 -39h-228v668h228q95 0 167.5 -39zM437.5 170q51.5 58 51.5 164t-51.5 164t-139.5 58h-77v-444h77q88 0 139.5 58zM1138 107v-107h-412v116l255 308h-241v106h397v-114l-256 -309h257z" />
    <glyph glyph-name="uni01C5.sc" horiz-adv-x="1186" 
d="M478.5 629q72.5 -39 112.5 -114.5t40 -180.5t-40 -180.5t-112.5 -114.5t-167.5 -39h-228v668h228q95 0 167.5 -39zM437.5 170q51.5 58 51.5 164t-51.5 164t-139.5 58h-77v-444h77q88 0 139.5 58zM1138 107v-107h-412v116l255 308h-241v106h397v-114l-256 -309h257z
M1103 753l-104 -146h-128l-104 146h107l62 -77l61 77h106z" />
    <glyph glyph-name="uni01C8.sc" horiz-adv-x="862" 
d="M493 112v-112h-410v668h138v-556h272zM544 -88v107q35 -5 49 -5q32 0 45 13.5t13 38.5v464h135v-476q0 -71 -43 -109t-117 -38q-49 0 -82 5z" />
    <glyph glyph-name="uni01CB.sc" horiz-adv-x="1020" 
d="M83 668h177l169 -389q29 -68 39 -104h5q-3 60 -3 111v382h129v-668h-177l-169 389q-29 71 -39 108h-6q4 -52 4 -115v-382h-129v668zM702 -88v107q35 -5 49 -5q32 0 45 13.5t13 38.5v464h135v-476q0 -71 -43 -109t-117 -38q-49 0 -82 5z" />
    <glyph glyph-name="a.sc" horiz-adv-x="565" 
d="M372 99h-187l-29 -99h-134l179 531h161l182 -531h-143zM343 201l-41 140q-13 44 -20 85h-5q-8 -44 -19 -83l-42 -142h127z" />
    <glyph glyph-name="aacute.sc" horiz-adv-x="565" 
d="M372 99h-187l-29 -99h-134l179 531h161l182 -531h-143zM343 201l-41 140q-13 44 -20 85h-5q-8 -44 -19 -83l-42 -142h127zM313 769h140l-129 -162h-106z" />
    <glyph glyph-name="abreve.sc" horiz-adv-x="565" 
d="M372 99h-187l-29 -99h-134l179 531h161l182 -531h-143zM343 201l-41 140q-13 44 -20 85h-5q-8 -44 -19 -83l-42 -142h127zM176 638.5q-41 37.5 -46 108.5h83q5 -34 24 -50t47 -16t47 16t24 50h83q-5 -71 -46 -108.5t-108 -37.5t-108 37.5z" />
    <glyph glyph-name="uni01CE.sc" horiz-adv-x="565" 
d="M372 99h-187l-29 -99h-134l179 531h161l182 -531h-143zM343 201l-41 140q-13 44 -20 85h-5q-8 -44 -19 -83l-42 -142h127zM452 753l-104 -146h-128l-104 146h107l62 -77l61 77h106z" />
    <glyph glyph-name="acircumflex.sc" horiz-adv-x="565" 
d="M372 99h-187l-29 -99h-134l179 531h161l182 -531h-143zM343 201l-41 140q-13 44 -20 85h-5q-8 -44 -19 -83l-42 -142h127zM346 607l-61 77l-62 -77h-107l104 146h128l104 -146h-106z" />
    <glyph glyph-name="adieresis.sc" horiz-adv-x="565" 
d="M372 99h-187l-29 -99h-134l179 531h161l182 -531h-143zM343 201l-41 140q-13 44 -20 85h-5q-8 -44 -19 -83l-42 -142h127zM130 620q-20 19 -20 49q0 31 20 50.5t52 19.5t52.5 -19.5t20.5 -50.5q0 -30 -20.5 -49t-52.5 -19t-52 19zM333 620q-20 19 -20 49q0 31 20 50.5
t52 19.5t52.5 -19.5t20.5 -50.5q0 -30 -20.5 -49t-52.5 -19t-52 19z" />
    <glyph glyph-name="ae.sc" horiz-adv-x="774" 
d="M720 107v-107h-360v102h-170l-53 -102h-140l297 531h421v-107h-221v-99h206v-103h-206v-115h226zM360 203v145q0 50 3 89h-5q-13 -37 -38 -87l-77 -147h117z" />
    <glyph glyph-name="agrave.sc" horiz-adv-x="565" 
d="M372 99h-187l-29 -99h-134l179 531h161l182 -531h-143zM343 201l-41 140q-13 44 -20 85h-5q-8 -44 -19 -83l-42 -142h127zM242 607l-129 162h140l95 -162h-106z" />
    <glyph glyph-name="amacron.sc" horiz-adv-x="565" 
d="M372 99h-187l-29 -99h-134l179 531h161l182 -531h-143zM343 201l-41 140q-13 44 -20 85h-5q-8 -44 -19 -83l-42 -142h127zM124 712h321v-97h-321v97z" />
    <glyph glyph-name="aogonek.sc" horiz-adv-x="565" 
d="M372 99h-187l-29 -99h-134l179 531h161l182 -531h-143zM343 201l-41 140q-13 44 -20 85h-5q-8 -44 -19 -83l-42 -142h127zM343 -165.5q-32 25.5 -32 63.5q0 58 75 108l17 11l113 5q-85 -41 -85 -89q0 -15 8.5 -23t22.5 -8q15 0 24.5 6.5t20.5 20.5l53 -54
q-25 -34 -54.5 -50t-77.5 -16q-53 0 -85 25.5z" />
    <glyph glyph-name="aring.sc" horiz-adv-x="565" 
d="M372 99h-187l-29 -99h-134l179 531h161l182 -531h-143zM343 201l-41 140q-13 44 -20 85h-5q-8 -44 -19 -83l-42 -142h127zM195.5 620q-34.5 30 -34.5 78q0 47 34.5 77t87.5 30q54 0 89 -30t35 -77q0 -48 -35 -78t-89 -30q-53 0 -87.5 30zM319 665q14 13 14 33
q0 19 -14.5 32.5t-35.5 13.5q-22 0 -35 -13.5t-13 -32.5t13.5 -32.5t34.5 -13.5q22 0 36 13z" />
    <glyph glyph-name="atilde.sc" horiz-adv-x="565" 
d="M372 99h-187l-29 -99h-134l179 531h161l182 -531h-143zM343 201l-41 140q-13 44 -20 85h-5q-8 -44 -19 -83l-42 -142h127zM301.5 615q-18.5 9 -37.5 24q-22 18 -36 18q-13 0 -21 -10t-11 -36h-83q3 73 34 105.5t74 32.5q26 0 44 -8.5t36 -23.5q14 -11 21.5 -15.5
t16.5 -4.5q13 0 21 10t11 37h83q-3 -75 -34.5 -106.5t-73.5 -31.5q-26 0 -44.5 9z" />
    <glyph glyph-name="b.sc" horiz-adv-x="548" 
d="M476 237.5q27 -32.5 27 -77.5q0 -75 -56 -117.5t-140 -42.5h-231v531h200q94 0 148 -37.5t54 -96.5q0 -36 -20 -63t-57 -44v-4q48 -16 75 -48.5zM208 429v-111h73q31 0 47.5 14.5t16.5 41.5q0 26 -16 40.5t-47 14.5h-74zM347 118q18 16 18 46q0 29 -18.5 45.5t-53.5 16.5
h-85v-124h85q36 0 54 16z" />
    <glyph glyph-name="c.sc" horiz-adv-x="550" 
d="M218.5 140q31.5 -40 85.5 -40q76 0 106 91l107 -53q-23 -71 -81.5 -109.5t-134.5 -38.5q-75 0 -132.5 33.5t-89.5 96t-32 145.5t33 145.5t91 96t129 33.5q73 0 130 -36t79 -100l-106 -54q-13 40 -38.5 60.5t-61.5 20.5q-54 0 -85 -40.5t-31 -125.5t31.5 -125z" />
    <glyph glyph-name="cacute.sc" horiz-adv-x="550" 
d="M218.5 140q31.5 -40 85.5 -40q76 0 106 91l107 -53q-23 -71 -81.5 -109.5t-134.5 -38.5q-75 0 -132.5 33.5t-89.5 96t-32 145.5t33 145.5t91 96t129 33.5q73 0 130 -36t79 -100l-106 -54q-13 40 -38.5 60.5t-61.5 20.5q-54 0 -85 -40.5t-31 -125.5t31.5 -125zM327 769
h140l-129 -162h-106z" />
    <glyph glyph-name="ccaron.sc" horiz-adv-x="550" 
d="M218.5 140q31.5 -40 85.5 -40q76 0 106 91l107 -53q-23 -71 -81.5 -109.5t-134.5 -38.5q-75 0 -132.5 33.5t-89.5 96t-32 145.5t33 145.5t91 96t129 33.5q73 0 130 -36t79 -100l-106 -54q-13 40 -38.5 60.5t-61.5 20.5q-54 0 -85 -40.5t-31 -125.5t31.5 -125zM465 753
l-104 -146h-128l-104 146h107l62 -77l61 77h106z" />
    <glyph glyph-name="ccedilla.sc" horiz-adv-x="550" 
d="M458.5 46q-41.5 -36 -96.5 -49v-7q54 -39 54 -88q0 -42 -30.5 -67t-83.5 -25q-80 0 -124 61l46 46q13 -14 26 -22t29 -8q18 0 28 10.5t10 27.5q0 33 -38 66q-69 4 -121.5 39t-81.5 95.5t-29 139.5q0 83 33 145.5t91 96t129 33.5q73 0 130 -36t79 -100l-106 -54
q-13 40 -38.5 60.5t-61.5 20.5q-54 0 -85 -40.5t-31 -125.5t31.5 -125t85.5 -40q76 0 106 91l107 -53q-17 -56 -58.5 -92z" />
    <glyph glyph-name="ccircumflex.sc" horiz-adv-x="550" 
d="M218.5 140q31.5 -40 85.5 -40q76 0 106 91l107 -53q-23 -71 -81.5 -109.5t-134.5 -38.5q-75 0 -132.5 33.5t-89.5 96t-32 145.5t33 145.5t91 96t129 33.5q73 0 130 -36t79 -100l-106 -54q-13 40 -38.5 60.5t-61.5 20.5q-54 0 -85 -40.5t-31 -125.5t31.5 -125zM359 607
l-61 77l-62 -77h-107l104 146h128l104 -146h-106z" />
    <glyph glyph-name="cdotaccent.sc" horiz-adv-x="550" 
d="M218.5 140q31.5 -40 85.5 -40q76 0 106 91l107 -53q-23 -71 -81.5 -109.5t-134.5 -38.5q-75 0 -132.5 33.5t-89.5 96t-32 145.5t33 145.5t91 96t129 33.5q73 0 130 -36t79 -100l-106 -54q-13 40 -38.5 60.5t-61.5 20.5q-54 0 -85 -40.5t-31 -125.5t31.5 -125zM239.5 615
q-22.5 21 -22.5 55t22 55t58 21t58.5 -21t22.5 -55t-22.5 -55t-58.5 -21q-35 0 -57.5 21z" />
    <glyph glyph-name="d.sc" horiz-adv-x="601" 
d="M423 497.5q62 -32.5 96.5 -92.5t34.5 -140q0 -79 -34.5 -139.5t-96.5 -93t-143 -32.5h-204v530h204q81 0 143 -32.5zM375.5 151.5q39.5 42.5 39.5 113.5t-39 114t-106 43h-59v-313h59q66 0 105.5 42.5z" />
    <glyph glyph-name="dcaron.sc" horiz-adv-x="601" 
d="M423 497.5q62 -32.5 96.5 -92.5t34.5 -140q0 -79 -34.5 -139.5t-96.5 -93t-143 -32.5h-204v530h204q81 0 143 -32.5zM375.5 151.5q39.5 42.5 39.5 113.5t-39 114t-106 43h-59v-313h59q66 0 105.5 42.5zM450 753l-104 -146h-128l-104 146h107l62 -77l61 77h106z" />
    <glyph glyph-name="dcroat.sc" horiz-adv-x="621" 
d="M443 497.5q62 -32.5 96.5 -92.5t34.5 -140q0 -79 -34.5 -139.5t-96.5 -93t-143 -32.5h-204v231h-68v79h68v220h204q81 0 143 -32.5zM395.5 151.5q39.5 42.5 39.5 113.5q0 72 -39 114.5t-106 42.5h-58v-112h101v-79h-101v-122h58q66 0 105.5 42.5z" />
    <glyph glyph-name="uni01F3.sc" horiz-adv-x="1098" 
d="M423 497.5q62 -32.5 96.5 -92.5t34.5 -140q0 -79 -34.5 -139.5t-96.5 -93t-143 -32.5h-204v530h204q81 0 143 -32.5zM375.5 151.5q39.5 42.5 39.5 113.5t-39 114t-106 43h-59v-313h59q66 0 105.5 42.5zM1050 107v-107h-412v116l255 308h-241v106h397v-114l-256 -309h257z
" />
    <glyph glyph-name="uni01C6.sc" horiz-adv-x="1098" 
d="M423 497.5q62 -32.5 96.5 -92.5t34.5 -140q0 -79 -34.5 -139.5t-96.5 -93t-143 -32.5h-204v530h204q81 0 143 -32.5zM375.5 151.5q39.5 42.5 39.5 113.5t-39 114t-106 43h-59v-313h59q66 0 105.5 42.5zM1050 107v-107h-412v116l255 308h-241v106h397v-114l-256 -309h257z
M1015 753l-104 -146h-128l-104 146h107l62 -77l61 77h106z" />
    <glyph glyph-name="e.sc" horiz-adv-x="500" 
d="M445 107v-107h-369v530h364v-106h-229v-99h213v-103h-213v-115h234z" />
    <glyph glyph-name="eacute.sc" horiz-adv-x="500" 
d="M445 107v-107h-369v530h364v-106h-229v-99h213v-103h-213v-115h234zM289 769h140l-129 -162h-106z" />
    <glyph glyph-name="ebreve.sc" horiz-adv-x="500" 
d="M445 107v-107h-369v530h364v-106h-229v-99h213v-103h-213v-115h234zM152 638.5q-41 37.5 -46 108.5h83q5 -34 24 -50t47 -16t47 16t24 50h83q-5 -71 -46 -108.5t-108 -37.5t-108 37.5z" />
    <glyph glyph-name="ecaron.sc" horiz-adv-x="500" 
d="M445 107v-107h-369v530h364v-106h-229v-99h213v-103h-213v-115h234zM428 753l-104 -146h-128l-104 146h107l62 -77l61 77h106z" />
    <glyph glyph-name="ecircumflex.sc" horiz-adv-x="500" 
d="M445 107v-107h-369v530h364v-106h-229v-99h213v-103h-213v-115h234zM322 607l-61 77l-62 -77h-107l104 146h128l104 -146h-106z" />
    <glyph glyph-name="edieresis.sc" horiz-adv-x="500" 
d="M445 107v-107h-369v530h364v-106h-229v-99h213v-103h-213v-115h234zM106 620q-20 19 -20 49q0 31 20 50.5t52 19.5t52.5 -19.5t20.5 -50.5q0 -30 -20.5 -49t-52.5 -19t-52 19zM309 620q-20 19 -20 49q0 31 20 50.5t52 19.5t52.5 -19.5t20.5 -50.5q0 -30 -20.5 -49
t-52.5 -19t-52 19z" />
    <glyph glyph-name="edotaccent.sc" horiz-adv-x="500" 
d="M445 107v-107h-369v530h364v-106h-229v-99h213v-103h-213v-115h234zM201.5 615q-22.5 21 -22.5 55t22 55t58 21t58.5 -21t22.5 -55t-22.5 -55t-58.5 -21q-35 0 -57.5 21z" />
    <glyph glyph-name="egrave.sc" horiz-adv-x="500" 
d="M445 107v-107h-369v530h364v-106h-229v-99h213v-103h-213v-115h234zM218 607l-129 162h140l95 -162h-106z" />
    <glyph glyph-name="emacron.sc" horiz-adv-x="500" 
d="M445 107v-107h-369v530h364v-106h-229v-99h213v-103h-213v-115h234zM99 712h321v-97h-321v97z" />
    <glyph glyph-name="eng.sc" horiz-adv-x="600" 
d="M525 531v-536q0 -76 -42.5 -115t-116.5 -39q-39 0 -70 4v86q30 -4 50 -4q52 0 54 49l-155 293q-29 56 -42 106h-6q3 -54 3 -110v-265h-124v531h157l129 -253q27 -54 36 -102h6q-4 80 -4 104v251h125z" />
    <glyph glyph-name="eogonek.sc" horiz-adv-x="500" 
d="M459 -124q-50 -67 -137 -67q-58 0 -89.5 26t-31.5 70q0 49 53 89v6h-178v530h364v-106h-229v-99h213v-103h-213v-115h234v-107h-84q-40 -34 -40 -65q0 -15 8.5 -24t24.5 -9q26 0 51 29z" />
    <glyph glyph-name="eth.sc" horiz-adv-x="621" 
d="M443 497.5q62 -32.5 96.5 -92.5t34.5 -140q0 -79 -34.5 -139.5t-96.5 -93t-143 -32.5h-204v231h-68v79h68v220h204q81 0 143 -32.5zM395.5 151.5q39.5 42.5 39.5 113.5q0 72 -39 114.5t-106 42.5h-58v-112h101v-79h-101v-122h58q66 0 105.5 42.5z" />
    <glyph glyph-name="uni1EBD.sc" horiz-adv-x="500" 
d="M445 107v-107h-369v530h364v-106h-229v-99h213v-103h-213v-115h234zM277.5 615q-18.5 9 -37.5 24q-22 18 -36 18q-13 0 -21 -10t-11 -36h-83q3 73 34 105.5t74 32.5q26 0 44 -8.5t36 -23.5q14 -11 21.5 -15.5t16.5 -4.5q13 0 21 10t11 37h83q-3 -75 -34.5 -106.5
t-73.5 -31.5q-26 0 -44.5 9z" />
    <glyph glyph-name="f.sc" horiz-adv-x="486" 
d="M211 422v-111h210v-104h-210v-207h-135v530h359v-108h-224z" />
    <glyph glyph-name="g.sc" horiz-adv-x="590" 
d="M533 292v-235q-43 -29 -100 -48t-115 -19q-80 0 -141.5 34t-95.5 96t-34 145t34.5 145.5t95 96.5t134.5 34t132 -30.5t88 -86.5l-104 -59q-37 67 -113 67q-60 0 -94 -40t-34 -127q0 -169 129 -169q58 0 96 25v72h-104v99h226z" />
    <glyph glyph-name="gbreve.sc" horiz-adv-x="590" 
d="M533 292v-235q-43 -29 -100 -48t-115 -19q-80 0 -141.5 34t-95.5 96t-34 145t34.5 145.5t95 96.5t134.5 34t132 -30.5t88 -86.5l-104 -59q-37 67 -113 67q-60 0 -94 -40t-34 -127q0 -169 129 -169q58 0 96 25v72h-104v99h226zM204 638.5q-41 37.5 -46 108.5h83
q5 -34 24 -50t47 -16t47 16t24 50h83q-5 -71 -46 -108.5t-108 -37.5t-108 37.5z" />
    <glyph glyph-name="gcircumflex.sc" horiz-adv-x="590" 
d="M533 292v-235q-43 -29 -100 -48t-115 -19q-80 0 -141.5 34t-95.5 96t-34 145t34.5 145.5t95 96.5t134.5 34t132 -30.5t88 -86.5l-104 -59q-37 67 -113 67q-60 0 -94 -40t-34 -127q0 -169 129 -169q58 0 96 25v72h-104v99h226zM374 607l-61 77l-62 -77h-107l104 146h128
l104 -146h-106z" />
    <glyph glyph-name="uni0123.sc" horiz-adv-x="590" 
d="M533 292v-235q-43 -29 -100 -48t-115 -19q-80 0 -141.5 34t-95.5 96t-34 145t34.5 145.5t95 96.5t134.5 34t132 -30.5t88 -86.5l-104 -59q-37 67 -113 67q-60 0 -94 -40t-34 -127q0 -169 129 -169q58 0 96 25v72h-104v99h226zM367.5 -65q19.5 -22 19.5 -58
q0 -74 -88 -145l-39 33q46 38 58 69q-3 -1 -10 -1q-29 0 -47 16.5t-18 42.5q0 27 19 46t50 19q36 0 55.5 -22z" />
    <glyph glyph-name="gdotaccent.sc" horiz-adv-x="590" 
d="M533 292v-235q-43 -29 -100 -48t-115 -19q-80 0 -141.5 34t-95.5 96t-34 145t34.5 145.5t95 96.5t134.5 34t132 -30.5t88 -86.5l-104 -59q-37 67 -113 67q-60 0 -94 -40t-34 -127q0 -169 129 -169q58 0 96 25v72h-104v99h226zM253.5 615q-22.5 21 -22.5 55t22 55t58 21
t58.5 -21t22.5 -55t-22.5 -55t-58.5 -21q-35 0 -57.5 21z" />
    <glyph glyph-name="germandbls.sc" horiz-adv-x="1050" 
d="M264 92q83 0 83 48q0 22 -20.5 37t-72.5 31l-57 19q-65 21 -101 60.5t-36 91.5q0 75 54 118t143 43q63 0 117.5 -17.5t94.5 -52.5l-61 -89q-28 26 -69 42.5t-76 16.5q-31 0 -50 -12t-19 -34q0 -19 18.5 -32t53.5 -26l58 -21q70 -24 113.5 -60.5t43.5 -101.5
q0 -80 -60.5 -121.5t-159.5 -41.5q-68 0 -126.5 23.5t-100.5 65.5l66 85q74 -72 164 -72zM789 92q83 0 83 48q0 22 -20.5 37t-72.5 31l-57 19q-65 21 -101 60.5t-36 91.5q0 75 54 118t143 43q63 0 117.5 -17.5t94.5 -52.5l-61 -89q-28 26 -69 42.5t-76 16.5q-31 0 -50 -12
t-19 -34q0 -19 18.5 -32t53.5 -26l58 -21q70 -24 113.5 -60.5t43.5 -101.5q0 -80 -60.5 -121.5t-159.5 -41.5q-68 0 -126.5 23.5t-100.5 65.5l66 85q74 -72 164 -72z" />
    <glyph glyph-name="h.sc" horiz-adv-x="600" 
d="M524 530v-530h-136v219h-177v-219h-135v530h135v-202h177v202h136z" />
    <glyph glyph-name="hbar.sc" horiz-adv-x="635" 
d="M603 382h-62v-382h-135v211h-177v-211h-136v382h-62v79h62v70h136v-70h177v70h135v-70h62v-79zM406 382h-177v-61h177v61z" />
    <glyph glyph-name="hcircumflex.sc" horiz-adv-x="600" 
d="M524 530v-530h-136v219h-177v-219h-135v530h135v-202h177v202h136zM362 607l-61 77l-62 -77h-107l104 146h128l104 -146h-106z" />
    <glyph glyph-name="i.sc" horiz-adv-x="369" 
d="M252 431v-331h63v-100h-261v100h63v331h-63v99h261v-99h-63z" />
    <glyph glyph-name="iacute.sc" horiz-adv-x="369" 
d="M252 431v-331h63v-100h-261v100h63v331h-63v99h261v-99h-63zM214 769h140l-129 -162h-106z" />
    <glyph glyph-name="ibreve.sc" horiz-adv-x="369" 
d="M49 747h83q3 -35 16 -50.5t37 -15.5t37.5 15.5t16.5 50.5h82q-9 -146 -136 -146t-136 146zM315 431h-63v-331h63v-100h-261v100h63v331h-63v99h261v-99z" />
    <glyph glyph-name="uni01D0.sc" horiz-adv-x="369" 
d="M121 607l-82 146h101l45 -76l47 76h101l-84 -146h-128zM315 431h-63v-331h63v-100h-261v100h63v331h-63v99h261v-99z" />
    <glyph glyph-name="icircumflex.sc" horiz-adv-x="369" 
d="M140 607h-101l82 146h128l84 -146h-101l-47 76zM315 431h-63v-331h63v-100h-261v100h63v331h-63v99h261v-99z" />
    <glyph glyph-name="idieresis.sc" horiz-adv-x="369" 
d="M144 621q-19 -18 -48 -18q-30 0 -48.5 18t-18.5 48q0 31 18.5 49.5t48.5 18.5q29 0 48 -18.5t19 -49.5q0 -30 -19 -48zM324 718.5q19 -18.5 19 -49.5q0 -30 -19 -48t-49 -18t-49 18t-19 48q0 31 19 49.5t49 18.5t49 -18.5zM315 431h-63v-331h63v-100h-261v100h63v331h-63
v99h261v-99z" />
    <glyph glyph-name="i.sc.loclTRK" horiz-adv-x="369" 
d="M252 431v-331h63v-100h-261v100h63v331h-63v99h261v-99h-63zM126.5 615q-22.5 21 -22.5 55t22 55t58 21t58.5 -21t22.5 -55t-22.5 -55t-58.5 -21q-35 0 -57.5 21z" />
    <glyph glyph-name="dotlessi.sc" horiz-adv-x="369" 
d="M252 431v-331h63v-100h-261v100h63v331h-63v99h261v-99h-63z" />
    <glyph glyph-name="igrave.sc" horiz-adv-x="369" 
d="M252 431v-331h63v-100h-261v100h63v331h-63v99h261v-99h-63zM142 607l-129 162h140l95 -162h-106z" />
    <glyph glyph-name="imacron.sc" horiz-adv-x="369" 
d="M316 712v-97h-262v97h262zM315 431h-63v-331h63v-100h-261v100h63v331h-63v99h261v-99z" />
    <glyph glyph-name="iogonek.sc" horiz-adv-x="369" 
d="M330 -124q-50 -67 -137 -67q-58 0 -89.5 26t-31.5 70q0 49 53 89v6h-71v100h63v331h-63v99h261v-99h-63v-331h63v-100h-83q-40 -34 -40 -65q0 -15 8.5 -24t24.5 -9q26 0 51 29z" />
    <glyph glyph-name="itilde.sc" horiz-adv-x="369" 
d="M118.5 647q-6.5 -10 -7.5 -36h-81q3 74 31 106t70 32q23 0 39.5 -9t33.5 -25q7 -7 14.5 -12.5t14.5 -5.5q11 0 16.5 9.5t9.5 37.5h80q-3 -76 -31.5 -107t-69.5 -31q-24 0 -40 9t-35 26q-18 16 -28 16t-16.5 -10zM315 431h-63v-331h63v-100h-261v100h63v331h-63v99h261
v-99z" />
    <glyph glyph-name="j.sc" horiz-adv-x="338" 
d="M20 -88v107q35 -5 49 -5q32 0 45 13.5t13 38.5v464h135v-476q0 -71 -43 -109t-117 -38q-49 0 -82 5z" />
    <glyph glyph-name="uni006A0301.sc" horiz-adv-x="338" 
d="M20 -88v107q35 -5 49 -5q32 0 45 13.5t13 38.5v464h135v-476q0 -71 -43 -109t-117 -38q-49 0 -82 5zM223 769h140l-129 -162h-106z" />
    <glyph glyph-name="jcircumflex.sc" horiz-adv-x="338" 
d="M149 607h-101l82 146h128l84 -146h-101l-47 76zM127 530h135v-476q0 -71 -43 -109t-117 -38q-49 0 -82 5v107q35 -5 49 -5q32 0 45 13.5t13 38.5v464z" />
    <glyph glyph-name="uni0237.sc" horiz-adv-x="338" 
d="M20 -88v107q35 -5 49 -5q32 0 45 13.5t13 38.5v464h135v-476q0 -71 -43 -109t-117 -38q-49 0 -82 5z" />
    <glyph glyph-name="k.sc" horiz-adv-x="560" 
d="M231 231h-21v-231h-134v530h134v-205h20l148 205h148l-188 -241l215 -289h-160z" />
    <glyph glyph-name="uni0137.sc" horiz-adv-x="560" 
d="M231 231h-21v-231h-134v530h134v-205h20l148 205h148l-188 -241l215 -289h-160zM351.5 -66q19.5 -22 19.5 -58q0 -74 -88 -145l-39 33q46 38 58 69q-3 -1 -10 -1q-29 0 -47 16.5t-18 42.5q0 27 19 46t50 19q36 0 55.5 -22z" />
    <glyph glyph-name="l.sc" horiz-adv-x="470" 
d="M435 109v-109h-359v530h135v-421h224z" />
    <glyph glyph-name="l_periodcentered.latnCAT.sc" horiz-adv-x="489" 
d="M211 109h224v-109h-359v530h135v-421zM436.5 360q19.5 -20 19.5 -52q0 -31 -19.5 -51t-51.5 -20t-52 20t-20 51q0 32 20 52t52 20t51.5 -20z" />
    <glyph glyph-name="lacute.sc" horiz-adv-x="470" 
d="M435 109v-109h-359v530h135v-421h224zM172 769h140l-129 -162h-106z" />
    <glyph glyph-name="lcaron.sc" horiz-adv-x="476" 
d="M435 109v-109h-359v530h135v-421h224zM373 318h-85l13 212h112z" />
    <glyph glyph-name="uni013C.sc" horiz-adv-x="470" 
d="M435 109v-109h-359v530h135v-421h224zM308.5 -66q19.5 -22 19.5 -58q0 -74 -88 -145l-39 33q46 38 58 69q-3 -1 -10 -1q-29 0 -47 16.5t-18 42.5q0 27 19 46t50 19q36 0 55.5 -22z" />
    <glyph glyph-name="ldot.sc" horiz-adv-x="489" 
d="M211 109h224v-109h-359v530h135v-421zM436.5 360q19.5 -20 19.5 -52q0 -31 -19.5 -51t-51.5 -20t-52 20t-20 51q0 32 20 52t52 20t51.5 -20z" />
    <glyph glyph-name="uni01C9.sc" horiz-adv-x="808" 
d="M435 109v-109h-359v530h135v-421h224zM490 -88v107q35 -5 49 -5q32 0 45 13.5t13 38.5v464h135v-476q0 -71 -43 -109t-117 -38q-49 0 -82 5z" />
    <glyph glyph-name="lslash.sc" horiz-adv-x="503" 
d="M468 109v-109h-358v211l-69 -29v87l69 29v232h135v-184l100 43v-86l-100 -43v-151h223z" />
    <glyph glyph-name="m.sc" horiz-adv-x="763" 
d="M76 531h206l77 -295q16 -62 20 -97h5q5 49 18 96l84 296h201v-531h-129v298q0 68 4 130h-6q-13 -65 -31 -127l-86 -301h-123l-83 303q-14 54 -22 91l-7 34h-5q0 -17 1 -30q2 -46 2 -100v-298h-126v531z" />
    <glyph glyph-name="n.sc" horiz-adv-x="601" 
d="M76 531h167l119 -269q29 -73 37 -104h5l-1 23q-3 47 -3 83v267h125v-531h-166l-119 268q-27 70 -37 107h-6q3 -54 3 -110v-265h-124v531z" />
    <glyph glyph-name="nacute.sc" horiz-adv-x="601" 
d="M76 531h167l119 -269q29 -73 37 -104h5l-1 23q-3 47 -3 83v267h125v-531h-166l-119 268q-27 70 -37 107h-6q3 -54 3 -110v-265h-124v531zM340 769h140l-129 -162h-106z" />
    <glyph glyph-name="ncaron.sc" horiz-adv-x="601" 
d="M76 531h167l119 -269q29 -73 37 -104h5l-1 23q-3 47 -3 83v267h125v-531h-166l-119 268q-27 70 -37 107h-6q3 -54 3 -110v-265h-124v531zM479 753l-104 -146h-128l-104 146h107l62 -77l61 77h106z" />
    <glyph glyph-name="uni0146.sc" horiz-adv-x="601" 
d="M76 531h167l119 -269q29 -73 37 -104h5l-1 23q-3 47 -3 83v267h125v-531h-166l-119 268q-27 70 -37 107h-6q3 -54 3 -110v-265h-124v531zM361.5 -66q19.5 -22 19.5 -58q0 -74 -88 -145l-39 33q46 38 58 69q-3 -1 -10 -1q-29 0 -47 16.5t-18 42.5q0 27 19 46t50 19
q36 0 55.5 -22z" />
    <glyph glyph-name="ntilde.sc" horiz-adv-x="601" 
d="M76 531h167l119 -269q29 -73 37 -104h5l-1 23q-3 47 -3 83v267h125v-531h-166l-119 268q-27 70 -37 107h-6q3 -54 3 -110v-265h-124v531zM328.5 615q-18.5 9 -37.5 24q-22 18 -36 18q-13 0 -21 -10t-11 -36h-83q3 73 34 105.5t74 32.5q26 0 44 -8.5t36 -23.5
q14 -11 21.5 -15.5t16.5 -4.5q13 0 21 10t11 37h83q-3 -75 -34.5 -106.5t-73.5 -31.5q-26 0 -44.5 9z" />
    <glyph glyph-name="uni01CC.sc" horiz-adv-x="939" 
d="M76 531h167l119 -269q29 -73 37 -104h5l-1 23q-3 47 -3 83v267h125v-531h-166l-119 268q-27 70 -37 107h-6q3 -54 3 -110v-265h-124v531zM621 -88v107q35 -5 49 -5q32 0 45 13.5t13 38.5v464h135v-476q0 -71 -43 -109t-117 -38q-49 0 -82 5z" />
    <glyph glyph-name="o.sc" horiz-adv-x="619" 
d="M173 24q-60 34 -93 96.5t-33 144.5t33 144.5t93 96.5t137 34t136.5 -34t92.5 -96.5t33 -144.5t-33 -144.5t-92.5 -96.5t-136.5 -34t-137 34zM398.5 142.5q34.5 41.5 34.5 122.5q0 82 -34 123t-89 41t-89.5 -41t-34.5 -123q0 -81 34.5 -122.5t89.5 -41.5q54 0 88.5 41.5z
" />
    <glyph glyph-name="oacute.sc" horiz-adv-x="619" 
d="M173 24q-60 34 -93 96.5t-33 144.5t33 144.5t93 96.5t137 34t136.5 -34t92.5 -96.5t33 -144.5t-33 -144.5t-92.5 -96.5t-136.5 -34t-137 34zM398.5 142.5q34.5 41.5 34.5 122.5q0 82 -34 123t-89 41t-89.5 -41t-34.5 -123q0 -81 34.5 -122.5t89.5 -41.5q54 0 88.5 41.5z
M338 769h140l-129 -162h-106z" />
    <glyph glyph-name="obreve.sc" horiz-adv-x="619" 
d="M173 24q-60 34 -93 96.5t-33 144.5t33 144.5t93 96.5t137 34t136.5 -34t92.5 -96.5t33 -144.5t-33 -144.5t-92.5 -96.5t-136.5 -34t-137 34zM398.5 142.5q34.5 41.5 34.5 122.5q0 82 -34 123t-89 41t-89.5 -41t-34.5 -123q0 -81 34.5 -122.5t89.5 -41.5q54 0 88.5 41.5z
M201 638.5q-41 37.5 -46 108.5h83q5 -34 24 -50t47 -16t47 16t24 50h83q-5 -71 -46 -108.5t-108 -37.5t-108 37.5z" />
    <glyph glyph-name="uni01D2.sc" horiz-adv-x="619" 
d="M173 24q-60 34 -93 96.5t-33 144.5t33 144.5t93 96.5t137 34t136.5 -34t92.5 -96.5t33 -144.5t-33 -144.5t-92.5 -96.5t-136.5 -34t-137 34zM398.5 142.5q34.5 41.5 34.5 122.5q0 82 -34 123t-89 41t-89.5 -41t-34.5 -123q0 -81 34.5 -122.5t89.5 -41.5q54 0 88.5 41.5z
M477 753l-104 -146h-128l-104 146h107l62 -77l61 77h106z" />
    <glyph glyph-name="ocircumflex.sc" horiz-adv-x="619" 
d="M173 24q-60 34 -93 96.5t-33 144.5t33 144.5t93 96.5t137 34t136.5 -34t92.5 -96.5t33 -144.5t-33 -144.5t-92.5 -96.5t-136.5 -34t-137 34zM398.5 142.5q34.5 41.5 34.5 122.5q0 82 -34 123t-89 41t-89.5 -41t-34.5 -123q0 -81 34.5 -122.5t89.5 -41.5q54 0 88.5 41.5z
M371 607l-61 77l-62 -77h-107l104 146h128l104 -146h-106z" />
    <glyph glyph-name="odieresis.sc" horiz-adv-x="619" 
d="M173 24q-60 34 -93 96.5t-33 144.5t33 144.5t93 96.5t137 34t136.5 -34t92.5 -96.5t33 -144.5t-33 -144.5t-92.5 -96.5t-136.5 -34t-137 34zM398.5 142.5q34.5 41.5 34.5 122.5q0 82 -34 123t-89 41t-89.5 -41t-34.5 -123q0 -81 34.5 -122.5t89.5 -41.5q54 0 88.5 41.5z
M155 620q-20 19 -20 49q0 31 20 50.5t52 19.5t52.5 -19.5t20.5 -50.5q0 -30 -20.5 -49t-52.5 -19t-52 19zM358 620q-20 19 -20 49q0 31 20 50.5t52 19.5t52.5 -19.5t20.5 -50.5q0 -30 -20.5 -49t-52.5 -19t-52 19z" />
    <glyph glyph-name="oe.sc" horiz-adv-x="840" 
d="M785 109v-109h-355v52h-4q-49 -62 -143 -62q-67 0 -120.5 33t-84 95t-30.5 147t30.5 147.5t83.5 95t121 32.5q95 0 143 -61h4v51h351v-108h-223v-98h208v-101h-208v-114h227zM394 140q32 43 32 125q0 83 -32 125.5t-87 42.5q-56 0 -88 -42.5t-32 -125.5t32 -125.5
t88 -42.5q55 0 87 43z" />
    <glyph glyph-name="ograve.sc" horiz-adv-x="619" 
d="M173 24q-60 34 -93 96.5t-33 144.5t33 144.5t93 96.5t137 34t136.5 -34t92.5 -96.5t33 -144.5t-33 -144.5t-92.5 -96.5t-136.5 -34t-137 34zM398.5 142.5q34.5 41.5 34.5 122.5q0 82 -34 123t-89 41t-89.5 -41t-34.5 -123q0 -81 34.5 -122.5t89.5 -41.5q54 0 88.5 41.5z
M266 607l-129 162h140l95 -162h-106z" />
    <glyph glyph-name="ohungarumlaut.sc" horiz-adv-x="619" 
d="M173 24q-60 34 -93 96.5t-33 144.5t33 144.5t93 96.5t137 34t136.5 -34t92.5 -96.5t33 -144.5t-33 -144.5t-92.5 -96.5t-136.5 -34t-137 34zM398.5 142.5q34.5 41.5 34.5 122.5q0 82 -34 123t-89 41t-89.5 -41t-34.5 -123q0 -81 34.5 -122.5t89.5 -41.5q54 0 88.5 41.5z
M245 753h126l-101 -146h-114zM434 753h142l-125 -146h-108z" />
    <glyph glyph-name="omacron.sc" horiz-adv-x="619" 
d="M173 24q-60 34 -93 96.5t-33 144.5t33 144.5t93 96.5t137 34t136.5 -34t92.5 -96.5t33 -144.5t-33 -144.5t-92.5 -96.5t-136.5 -34t-137 34zM398.5 142.5q34.5 41.5 34.5 122.5q0 82 -34 123t-89 41t-89.5 -41t-34.5 -123q0 -81 34.5 -122.5t89.5 -41.5q54 0 88.5 41.5z
M148 712h321v-97h-321v97z" />
    <glyph glyph-name="oslash.sc" horiz-adv-x="622" 
d="M574 265q0 -82 -33.5 -144.5t-93 -96.5t-136.5 -34q-83 0 -146 40l-46 -55l-62 52l49 57q-57 72 -57 181q0 82 33 144.5t92.5 96.5t136.5 34q84 0 149 -41l40 50l64 -49l-45 -57q55 -72 55 -178zM222.5 387.5q-34.5 -41.5 -34.5 -122.5q0 -41 10 -76l184 217
q-29 23 -71 23q-54 0 -88.5 -41.5zM400.5 142.5q34.5 41.5 34.5 122.5q0 37 -8 69l-181 -214q26 -19 65 -19q55 0 89.5 41.5z" />
    <glyph glyph-name="otilde.sc" horiz-adv-x="619" 
d="M173 24q-60 34 -93 96.5t-33 144.5t33 144.5t93 96.5t137 34t136.5 -34t92.5 -96.5t33 -144.5t-33 -144.5t-92.5 -96.5t-136.5 -34t-137 34zM398.5 142.5q34.5 41.5 34.5 122.5q0 82 -34 123t-89 41t-89.5 -41t-34.5 -123q0 -81 34.5 -122.5t89.5 -41.5q54 0 88.5 41.5z
M326.5 615q-18.5 9 -37.5 24q-22 18 -36 18q-13 0 -21 -10t-11 -36h-83q3 73 34 105.5t74 32.5q26 0 44 -8.5t36 -23.5q14 -11 21.5 -15.5t16.5 -4.5q13 0 21 10t11 37h83q-3 -75 -34.5 -106.5t-73.5 -31.5q-26 0 -44.5 9z" />
    <glyph glyph-name="p.sc" horiz-adv-x="535" 
d="M439.5 485.5q58.5 -44.5 58.5 -125.5q0 -82 -58 -128.5t-151 -46.5h-78v-185h-135v530h213q92 0 150.5 -44.5zM359 357q0 67 -75 67h-73v-138h73q75 0 75 71z" />
    <glyph glyph-name="q.sc" horiz-adv-x="620" 
d="M441 -87l-72 83q-28 -6 -59 -6q-77 0 -137 34t-93 96.5t-33 144.5t33 144.5t93 96.5t137 34t136.5 -34t92.5 -96.5t33 -144.5q0 -66 -22.5 -120.5t-62.5 -91.5l116 -140h-162zM220.5 142.5q34.5 -41.5 89.5 -41.5q54 0 88.5 41.5t34.5 122.5t-34.5 122.5t-88.5 41.5
q-55 0 -89.5 -41t-34.5 -123q0 -81 34.5 -122.5z" />
    <glyph glyph-name="r.sc" horiz-adv-x="557" 
d="M269 197h-58v-197h-135v531h202q93 0 151.5 -40.5t58.5 -114.5q0 -52 -26 -88t-72 -55l145 -233h-158zM211 295h66q34 0 52.5 16.5t18.5 48.5q0 31 -18.5 48.5t-52.5 17.5h-66v-131z" />
    <glyph glyph-name="racute.sc" horiz-adv-x="557" 
d="M269 197h-58v-197h-135v531h202q93 0 151.5 -40.5t58.5 -114.5q0 -52 -26 -88t-72 -55l145 -233h-158zM211 295h66q34 0 52.5 16.5t18.5 48.5q0 31 -18.5 48.5t-52.5 17.5h-66v-131zM298 769h140l-129 -162h-106z" />
    <glyph glyph-name="rcaron.sc" horiz-adv-x="557" 
d="M269 197h-58v-197h-135v531h202q93 0 151.5 -40.5t58.5 -114.5q0 -52 -26 -88t-72 -55l145 -233h-158zM211 295h66q34 0 52.5 16.5t18.5 48.5q0 31 -18.5 48.5t-52.5 17.5h-66v-131zM437 753l-104 -146h-128l-104 146h107l62 -77l61 77h106z" />
    <glyph glyph-name="uni0157.sc" horiz-adv-x="557" 
d="M269 197h-58v-197h-135v531h202q93 0 151.5 -40.5t58.5 -114.5q0 -52 -26 -88t-72 -55l145 -233h-158zM211 295h66q34 0 52.5 16.5t18.5 48.5q0 31 -18.5 48.5t-52.5 17.5h-66v-131zM336.5 -66q19.5 -22 19.5 -58q0 -74 -88 -145l-39 33q46 38 58 69q-3 -1 -10 -1
q-29 0 -47 16.5t-18 42.5q0 27 19 46t50 19q36 0 55.5 -22z" />
    <glyph glyph-name="s.sc" horiz-adv-x="525" 
d="M264 92q83 0 83 48q0 22 -20.5 37t-72.5 31l-57 19q-65 21 -101 60.5t-36 91.5q0 75 54 118t143 43q63 0 117.5 -17.5t94.5 -52.5l-61 -89q-28 26 -69 42.5t-76 16.5q-31 0 -50 -12t-19 -34q0 -19 18.5 -32t53.5 -26l58 -21q70 -24 113.5 -60.5t43.5 -101.5
q0 -80 -60.5 -121.5t-159.5 -41.5q-68 0 -126.5 23.5t-100.5 65.5l66 85q74 -72 164 -72z" />
    <glyph glyph-name="sacute.sc" horiz-adv-x="525" 
d="M264 92q83 0 83 48q0 22 -20.5 37t-72.5 31l-57 19q-65 21 -101 60.5t-36 91.5q0 75 54 118t143 43q63 0 117.5 -17.5t94.5 -52.5l-61 -89q-28 26 -69 42.5t-76 16.5q-31 0 -50 -12t-19 -34q0 -19 18.5 -32t53.5 -26l58 -21q70 -24 113.5 -60.5t43.5 -101.5
q0 -80 -60.5 -121.5t-159.5 -41.5q-68 0 -126.5 23.5t-100.5 65.5l66 85q74 -72 164 -72zM291 769h140l-129 -162h-106z" />
    <glyph glyph-name="scaron.sc" horiz-adv-x="525" 
d="M264 92q83 0 83 48q0 22 -20.5 37t-72.5 31l-57 19q-65 21 -101 60.5t-36 91.5q0 75 54 118t143 43q63 0 117.5 -17.5t94.5 -52.5l-61 -89q-28 26 -69 42.5t-76 16.5q-31 0 -50 -12t-19 -34q0 -19 18.5 -32t53.5 -26l58 -21q70 -24 113.5 -60.5t43.5 -101.5
q0 -80 -60.5 -121.5t-159.5 -41.5q-68 0 -126.5 23.5t-100.5 65.5l66 85q74 -72 164 -72zM430 753l-104 -146h-128l-104 146h107l62 -77l61 77h106z" />
    <glyph glyph-name="scedilla.sc" horiz-adv-x="525" 
d="M442 50q-39 -40 -107 -53v-7q54 -39 54 -88q0 -42 -30.5 -67t-83.5 -25q-80 0 -124 61l46 46q13 -14 26 -22t29 -8q18 0 28 10.5t10 27.5q0 31 -37 65q-65 1 -121.5 24.5t-97.5 64.5l66 85q74 -72 164 -72q83 0 83 48q0 22 -20.5 37t-72.5 31l-57 19q-65 21 -101 60.5
t-36 91.5q0 75 54 118t143 43q63 0 117.5 -17.5t94.5 -52.5l-61 -89q-28 26 -69 42.5t-76 16.5q-31 0 -50 -12t-19 -34q0 -19 18.5 -32t53.5 -26l58 -21q70 -24 113.5 -60.5t43.5 -101.5q0 -63 -39 -103z" />
    <glyph glyph-name="uni0259.sc" horiz-adv-x="589" 
d="M471.5 470q69.5 -71 69.5 -203q0 -86 -31.5 -148.5t-89 -95.5t-133.5 -33q-114 0 -178 71.5t-64 201.5q0 21 3 37h356q-10 132 -130 132q-73 0 -121 -64l-89 61q36 56 92 84t122 28q124 0 193.5 -71zM404 208h-232q5 -54 36 -83t81 -29q104 0 115 112z" />
    <glyph glyph-name="scircumflex.sc" horiz-adv-x="525" 
d="M264 92q83 0 83 48q0 22 -20.5 37t-72.5 31l-57 19q-65 21 -101 60.5t-36 91.5q0 75 54 118t143 43q63 0 117.5 -17.5t94.5 -52.5l-61 -89q-28 26 -69 42.5t-76 16.5q-31 0 -50 -12t-19 -34q0 -19 18.5 -32t53.5 -26l58 -21q70 -24 113.5 -60.5t43.5 -101.5
q0 -80 -60.5 -121.5t-159.5 -41.5q-68 0 -126.5 23.5t-100.5 65.5l66 85q74 -72 164 -72zM324 607l-61 77l-62 -77h-107l104 146h128l104 -146h-106z" />
    <glyph glyph-name="uni0219.sc" horiz-adv-x="525" 
d="M264 92q83 0 83 48q0 22 -20.5 37t-72.5 31l-57 19q-65 21 -101 60.5t-36 91.5q0 75 54 118t143 43q63 0 117.5 -17.5t94.5 -52.5l-61 -89q-28 26 -69 42.5t-76 16.5q-31 0 -50 -12t-19 -34q0 -19 18.5 -32t53.5 -26l58 -21q70 -24 113.5 -60.5t43.5 -101.5
q0 -80 -60.5 -121.5t-159.5 -41.5q-68 0 -126.5 23.5t-100.5 65.5l66 85q74 -72 164 -72zM320.5 -66q19.5 -22 19.5 -58q0 -74 -88 -145l-39 33q46 38 58 69q-3 -1 -10 -1q-29 0 -47 16.5t-18 42.5q0 27 19 46t50 19q36 0 55.5 -22z" />
    <glyph glyph-name="t.sc" horiz-adv-x="508" 
d="M474 422h-152v-422h-136v422h-152v108h440v-108z" />
    <glyph glyph-name="tbar.sc" horiz-adv-x="520" 
d="M328 422v-130h101v-79h-101v-213h-136v213h-100v79h100v130h-152v108h440v-108h-152z" />
    <glyph glyph-name="tcaron.sc" horiz-adv-x="508" 
d="M474 422h-152v-422h-136v422h-152v108h440v-108zM422 753l-104 -146h-128l-104 146h107l62 -77l61 77h106z" />
    <glyph glyph-name="uni0163.sc" horiz-adv-x="508" 
d="M305 0v-6q57 -43 57 -95q0 -42 -29.5 -65.5t-81.5 -23.5q-80 0 -124 61l46 46q27 -29 54 -29q35 0 35 32q0 40 -46 80h-30v422h-152v108h440v-108h-152v-422h-17z" />
    <glyph glyph-name="uni021B.sc" horiz-adv-x="508" 
d="M474 422h-152v-422h-136v422h-152v108h440v-108zM304.5 -66q19.5 -22 19.5 -58q0 -74 -88 -145l-39 33q46 38 58 69q-3 -1 -10 -1q-29 0 -47 16.5t-18 42.5q0 27 19 46t50 19q36 0 55.5 -22z" />
    <glyph glyph-name="thorn.sc" horiz-adv-x="541" 
d="M439.5 401q58.5 -45 58.5 -126q0 -82 -58 -128.5t-151 -46.5h-78v-100h-135v530h135v-84h78q92 0 150.5 -45zM359 272q0 33 -18.5 50.5t-56.5 17.5h-73v-141h73q75 0 75 73z" />
    <glyph glyph-name="u.sc" horiz-adv-x="577" 
d="M130 39q-59 49 -59 140v351h135v-331q0 -51 23 -74.5t63 -23.5t64 24.5t24 73.5v331h126v-351q0 -91 -59.5 -140t-158.5 -49t-158 49z" />
    <glyph glyph-name="uacute.sc" horiz-adv-x="577" 
d="M130 39q-59 49 -59 140v351h135v-331q0 -51 23 -74.5t63 -23.5t64 24.5t24 73.5v331h126v-351q0 -91 -59.5 -140t-158.5 -49t-158 49zM322 769h140l-129 -162h-106z" />
    <glyph glyph-name="ubreve.sc" horiz-adv-x="577" 
d="M130 39q-59 49 -59 140v351h135v-331q0 -51 23 -74.5t63 -23.5t64 24.5t24 73.5v331h126v-351q0 -91 -59.5 -140t-158.5 -49t-158 49zM184 638.5q-41 37.5 -46 108.5h83q5 -34 24 -50t47 -16t47 16t24 50h83q-5 -71 -46 -108.5t-108 -37.5t-108 37.5z" />
    <glyph glyph-name="uni01D4.sc" horiz-adv-x="577" 
d="M130 39q-59 49 -59 140v351h135v-331q0 -51 23 -74.5t63 -23.5t64 24.5t24 73.5v331h126v-351q0 -91 -59.5 -140t-158.5 -49t-158 49zM460 753l-104 -146h-128l-104 146h107l62 -77l61 77h106z" />
    <glyph glyph-name="ucircumflex.sc" horiz-adv-x="577" 
d="M130 39q-59 49 -59 140v351h135v-331q0 -51 23 -74.5t63 -23.5t64 24.5t24 73.5v331h126v-351q0 -91 -59.5 -140t-158.5 -49t-158 49zM354 607l-61 77l-62 -77h-107l104 146h128l104 -146h-106z" />
    <glyph glyph-name="udieresis.sc" horiz-adv-x="577" 
d="M130 39q-59 49 -59 140v351h135v-331q0 -51 23 -74.5t63 -23.5t64 24.5t24 73.5v331h126v-351q0 -91 -59.5 -140t-158.5 -49t-158 49zM139 620q-20 19 -20 49q0 31 20 50.5t52 19.5t52.5 -19.5t20.5 -50.5q0 -30 -20.5 -49t-52.5 -19t-52 19zM342 620q-20 19 -20 49
q0 31 20 50.5t52 19.5t52.5 -19.5t20.5 -50.5q0 -30 -20.5 -49t-52.5 -19t-52 19z" />
    <glyph glyph-name="uni01D8.sc" horiz-adv-x="577" 
d="M130 39q-59 49 -59 140v351h135v-331q0 -51 23 -74.5t63 -23.5t64 24.5t24 73.5v331h126v-351q0 -91 -59.5 -140t-158.5 -49t-158 49zM329 915h140l-129 -161h-106zM139 596q-20 19 -20 50t20 50t52 19q33 0 53 -19t20 -50t-20.5 -50t-52.5 -19t-52 19zM342 596
q-20 19 -20 50t20 50t52 19q33 0 53 -19t20 -50t-20.5 -50t-52.5 -19t-52 19z" />
    <glyph glyph-name="uni01DA.sc" horiz-adv-x="577" 
d="M130 39q-59 49 -59 140v351h135v-331q0 -51 23 -74.5t63 -23.5t64 24.5t24 73.5v331h126v-351q0 -91 -59.5 -140t-158.5 -49t-158 49zM228 754l-104 146h107l62 -77l61 77h107l-105 -146h-128zM243 696q20 -19 20 -50t-20 -50t-52 -19t-52 19t-20 50t20 50t52 19t52 -19z
M446.5 696q20.5 -19 20.5 -50t-20.5 -50t-52.5 -19t-52 19t-20 50t20 50t52 19t52.5 -19z" />
    <glyph glyph-name="uni01DC.sc" horiz-adv-x="577" 
d="M130 39q-59 49 -59 140v351h135v-331q0 -51 23 -74.5t63 -23.5t64 24.5t24 73.5v331h126v-351q0 -91 -59.5 -140t-158.5 -49t-158 49zM254 754l-129 161h140l95 -161h-106zM139 596q-20 19 -20 50t20 50t52 19q33 0 53 -19t20 -50t-20.5 -50t-52.5 -19t-52 19zM342 596
q-20 19 -20 50t20 50t52 19q33 0 53 -19t20 -50t-20.5 -50t-52.5 -19t-52 19z" />
    <glyph glyph-name="uni01D6.sc" horiz-adv-x="577" 
d="M130 39q-59 49 -59 140v351h135v-331q0 -51 23 -74.5t63 -23.5t64 24.5t24 73.5v331h126v-351q0 -91 -59.5 -140t-158.5 -49t-158 49zM132 871h321v-97h-321v97zM139 596q-20 19 -20 50t20 50t52 19t52 -19t20 -50t-20 -50t-52 -19t-52 19zM342 596q-20 19 -20 50t20 50
t52 19t52.5 -19t20.5 -50t-20.5 -50t-52.5 -19t-52 19z" />
    <glyph glyph-name="ugrave.sc" horiz-adv-x="577" 
d="M130 39q-59 49 -59 140v351h135v-331q0 -51 23 -74.5t63 -23.5t64 24.5t24 73.5v331h126v-351q0 -91 -59.5 -140t-158.5 -49t-158 49zM250 607l-129 162h140l95 -162h-106z" />
    <glyph glyph-name="uhungarumlaut.sc" horiz-adv-x="577" 
d="M130 39q-59 49 -59 140v351h135v-331q0 -51 23 -74.5t63 -23.5t64 24.5t24 73.5v331h126v-351q0 -91 -59.5 -140t-158.5 -49t-158 49zM229 753h126l-101 -146h-114zM418 753h142l-125 -146h-108z" />
    <glyph glyph-name="umacron.sc" horiz-adv-x="577" 
d="M130 39q-59 49 -59 140v351h135v-331q0 -51 23 -74.5t63 -23.5t64 24.5t24 73.5v331h126v-351q0 -91 -59.5 -140t-158.5 -49t-158 49zM132 712h321v-97h-321v97z" />
    <glyph glyph-name="uogonek.sc" horiz-adv-x="577" 
d="M366 -25.5q-15 -19.5 -15 -39.5q0 -15 8.5 -24t24.5 -9q24 0 50 28l54 -54q-50 -67 -136 -67q-58 0 -89.5 26t-31.5 70q0 43 43 80v5q-93 4 -148 53t-55 136v351h135v-331q0 -51 23 -74.5t63 -23.5t64 24.5t24 73.5v331h126v-351q0 -57 -24.5 -98.5t-68.5 -63.5
q-32 -23 -47 -42.5z" />
    <glyph glyph-name="uring.sc" horiz-adv-x="577" 
d="M130 39q-59 49 -59 140v351h135v-331q0 -51 23 -74.5t63 -23.5t64 24.5t24 73.5v331h126v-351q0 -91 -59.5 -140t-158.5 -49t-158 49zM203.5 620q-34.5 30 -34.5 78q0 47 34.5 77t87.5 30q54 0 89 -30t35 -77q0 -48 -35 -78t-89 -30q-53 0 -87.5 30zM327 665q14 13 14 33
q0 19 -14.5 32.5t-35.5 13.5q-22 0 -35 -13.5t-13 -32.5t13.5 -32.5t34.5 -13.5q22 0 36 13z" />
    <glyph glyph-name="utilde.sc" horiz-adv-x="577" 
d="M130 39q-59 49 -59 140v351h135v-331q0 -51 23 -74.5t63 -23.5t64 24.5t24 73.5v331h126v-351q0 -91 -59.5 -140t-158.5 -49t-158 49zM310.5 615q-18.5 9 -37.5 24q-22 18 -36 18q-13 0 -21 -10t-11 -36h-83q3 73 34 105.5t74 32.5q26 0 44 -8.5t36 -23.5
q14 -11 21.5 -15.5t16.5 -4.5q13 0 21 10t11 37h83q-3 -75 -34.5 -106.5t-73.5 -31.5q-26 0 -44.5 9z" />
    <glyph glyph-name="v.sc" horiz-adv-x="554" 
d="M275 131h6q8 44 19 83l92 317h142l-181 -531h-152l-178 531h144l89 -318q12 -41 19 -82z" />
    <glyph glyph-name="w.sc" horiz-adv-x="799" 
d="M556 119h6q3 45 14 98l62 314h131l-128 -531h-154l-66 283q-7 32 -17 103h-5q-5 -52 -15 -101l-65 -285h-161l-129 531h141l60 -314q9 -45 15 -98h6q8 55 16 98l67 314h136l71 -315q11 -50 15 -97z" />
    <glyph glyph-name="wacute.sc" horiz-adv-x="799" 
d="M556 119h6q3 45 14 98l62 314h131l-128 -531h-154l-66 283q-7 32 -17 103h-5q-5 -52 -15 -101l-65 -285h-161l-129 531h141l60 -314q9 -45 15 -98h6q8 55 16 98l67 314h136l71 -315q11 -50 15 -97zM433 769h140l-129 -162h-106z" />
    <glyph glyph-name="wcircumflex.sc" horiz-adv-x="799" 
d="M556 119h6q3 45 14 98l62 314h131l-128 -531h-154l-66 283q-7 32 -17 103h-5q-5 -52 -15 -101l-65 -285h-161l-129 531h141l60 -314q9 -45 15 -98h6q8 55 16 98l67 314h136l71 -315q11 -50 15 -97zM466 607l-61 77l-62 -77h-107l104 146h128l104 -146h-106z" />
    <glyph glyph-name="wdieresis.sc" horiz-adv-x="799" 
d="M556 119h6q3 45 14 98l62 314h131l-128 -531h-154l-66 283q-7 32 -17 103h-5q-5 -52 -15 -101l-65 -285h-161l-129 531h141l60 -314q9 -45 15 -98h6q8 55 16 98l67 314h136l71 -315q11 -50 15 -97zM250 620q-20 19 -20 49q0 31 20 50.5t52 19.5t52.5 -19.5t20.5 -50.5
q0 -30 -20.5 -49t-52.5 -19t-52 19zM453 620q-20 19 -20 49q0 31 20 50.5t52 19.5t52.5 -19.5t20.5 -50.5q0 -30 -20.5 -49t-52.5 -19t-52 19z" />
    <glyph glyph-name="wgrave.sc" horiz-adv-x="799" 
d="M556 119h6q3 45 14 98l62 314h131l-128 -531h-154l-66 283q-7 32 -17 103h-5q-5 -52 -15 -101l-65 -285h-161l-129 531h141l60 -314q9 -45 15 -98h6q8 55 16 98l67 314h136l71 -315q11 -50 15 -97zM361 607l-129 162h140l95 -162h-106z" />
    <glyph glyph-name="x.sc" horiz-adv-x="541" 
d="M523 0h-158l-68 135q-13 26 -23 55h-5q-13 -29 -28 -54l-77 -136h-147l167 272l-154 259h145l66 -119q16 -30 29 -63h5q2 4 8.5 21t22.5 45l67 116h141l-158 -259z" />
    <glyph glyph-name="y.sc" horiz-adv-x="556" 
d="M345 216v-216h-135v215l-193 316h153l79 -147q21 -40 29 -64h6q2 6 9.5 23.5t17.5 35.5l85 152h146z" />
    <glyph glyph-name="yacute.sc" horiz-adv-x="556" 
d="M345 216v-216h-135v215l-193 316h153l79 -147q21 -40 29 -64h6q2 6 9.5 23.5t17.5 35.5l85 152h146zM312 769h140l-129 -162h-106z" />
    <glyph glyph-name="ycircumflex.sc" horiz-adv-x="556" 
d="M345 216v-216h-135v215l-193 316h153l79 -147q21 -40 29 -64h6q2 6 9.5 23.5t17.5 35.5l85 152h146zM344 607l-61 77l-62 -77h-107l104 146h128l104 -146h-106z" />
    <glyph glyph-name="ydieresis.sc" horiz-adv-x="556" 
d="M345 216v-216h-135v215l-193 316h153l79 -147q21 -40 29 -64h6q2 6 9.5 23.5t17.5 35.5l85 152h146zM129 620q-20 19 -20 49q0 31 20 50.5t52 19.5t52.5 -19.5t20.5 -50.5q0 -30 -20.5 -49t-52.5 -19t-52 19zM332 620q-20 19 -20 49q0 31 20 50.5t52 19.5t52.5 -19.5
t20.5 -50.5q0 -30 -20.5 -49t-52.5 -19t-52 19z" />
    <glyph glyph-name="ygrave.sc" horiz-adv-x="556" 
d="M345 216v-216h-135v215l-193 316h153l79 -147q21 -40 29 -64h6q2 6 9.5 23.5t17.5 35.5l85 152h146zM240 607l-129 162h140l95 -162h-106z" />
    <glyph glyph-name="uni0233.sc" horiz-adv-x="556" 
d="M345 216v-216h-135v215l-193 316h153l79 -147q21 -40 29 -64h6q2 6 9.5 23.5t17.5 35.5l85 152h146zM122 712h321v-97h-321v97z" />
    <glyph glyph-name="uni1EF9.sc" horiz-adv-x="556" 
d="M345 216v-216h-135v215l-193 316h153l79 -147q21 -40 29 -64h6q2 6 9.5 23.5t17.5 35.5l85 152h146zM299.5 615q-18.5 9 -37.5 24q-22 18 -36 18q-13 0 -21 -10t-11 -36h-83q3 73 34 105.5t74 32.5q26 0 44 -8.5t36 -23.5q14 -11 21.5 -15.5t16.5 -4.5q13 0 21 10t11 37
h83q-3 -75 -34.5 -106.5t-73.5 -31.5q-26 0 -44.5 9z" />
    <glyph glyph-name="z.sc" horiz-adv-x="505" 
d="M457 107v-107h-412v116l255 308h-241v106h397v-114l-256 -309h257z" />
    <glyph glyph-name="zacute.sc" horiz-adv-x="505" 
d="M457 107v-107h-412v116l255 308h-241v106h397v-114l-256 -309h257zM283 769h140l-129 -162h-106z" />
    <glyph glyph-name="zcaron.sc" horiz-adv-x="505" 
d="M457 107v-107h-412v116l255 308h-241v106h397v-114l-256 -309h257zM422 753l-104 -146h-128l-104 146h107l62 -77l61 77h106z" />
    <glyph glyph-name="zdotaccent.sc" horiz-adv-x="505" 
d="M457 107v-107h-412v116l255 308h-241v106h397v-114l-256 -309h257zM195.5 615q-22.5 21 -22.5 55t22 55t58 21t58.5 -21t22.5 -55t-22.5 -55t-58.5 -21q-35 0 -57.5 21z" />
    <glyph glyph-name="uni01F1.c2sc" horiz-adv-x="1098" 
d="M423 497.5q62 -32.5 96.5 -92.5t34.5 -140q0 -79 -34.5 -139.5t-96.5 -93t-143 -32.5h-204v530h204q81 0 143 -32.5zM375.5 151.5q39.5 42.5 39.5 113.5t-39 114t-106 43h-59v-313h59q66 0 105.5 42.5zM1050 107v-107h-412v116l255 308h-241v106h397v-114l-256 -309h257z
" />
    <glyph glyph-name="uni01C4.c2sc" horiz-adv-x="1098" 
d="M423 497.5q62 -32.5 96.5 -92.5t34.5 -140q0 -79 -34.5 -139.5t-96.5 -93t-143 -32.5h-204v530h204q81 0 143 -32.5zM375.5 151.5q39.5 42.5 39.5 113.5t-39 114t-106 43h-59v-313h59q66 0 105.5 42.5zM1050 107v-107h-412v116l255 308h-241v106h397v-114l-256 -309h257z
M1015 753l-104 -146h-128l-104 146h107l62 -77l61 77h106z" />
    <glyph glyph-name="uni01F2.c2sc" horiz-adv-x="1098" 
d="M423 497.5q62 -32.5 96.5 -92.5t34.5 -140q0 -79 -34.5 -139.5t-96.5 -93t-143 -32.5h-204v530h204q81 0 143 -32.5zM375.5 151.5q39.5 42.5 39.5 113.5t-39 114t-106 43h-59v-313h59q66 0 105.5 42.5zM1050 107v-107h-412v116l255 308h-241v106h397v-114l-256 -309h257z
" />
    <glyph glyph-name="uni01C5.c2sc" horiz-adv-x="1098" 
d="M423 497.5q62 -32.5 96.5 -92.5t34.5 -140q0 -79 -34.5 -139.5t-96.5 -93t-143 -32.5h-204v530h204q81 0 143 -32.5zM375.5 151.5q39.5 42.5 39.5 113.5t-39 114t-106 43h-59v-313h59q66 0 105.5 42.5zM1050 107v-107h-412v116l255 308h-241v106h397v-114l-256 -309h257z
M1015 753l-104 -146h-128l-104 146h107l62 -77l61 77h106z" />
    <glyph glyph-name="uni1E9E.c2sc" horiz-adv-x="567" 
d="M491 228.5q31 -35.5 31 -89.5q0 -71 -48.5 -110t-127.5 -39q-59 0 -98 21l29 95q26 -13 55 -13q24 0 38.5 12.5t14.5 33.5q0 39 -54 68l-54 27v61l80 124q-33 18 -67 18q-55 0 -71 -34.5t-16 -85.5v-317h-132v328q0 213 218 213q61 0 118 -20t100 -56l-109 -166l9 -5
q53 -30 84 -65.5z" />
    <glyph glyph-name="Idotaccent.c2sc" horiz-adv-x="369" 
d="M252 431v-331h63v-100h-261v100h63v331h-63v99h261v-99h-63zM126.5 615q-22.5 21 -22.5 55t22 55t58 21t58.5 -21t22.5 -55t-22.5 -55t-58.5 -21q-35 0 -57.5 21z" />
    <glyph glyph-name="uni01C7.c2sc" horiz-adv-x="808" 
d="M435 109v-109h-359v530h135v-421h224zM490 -88v107q35 -5 49 -5q32 0 45 13.5t13 38.5v464h135v-476q0 -71 -43 -109t-117 -38q-49 0 -82 5z" />
    <glyph glyph-name="L_periodcentered.latnCAT.c2sc" horiz-adv-x="489" 
d="M211 109h224v-109h-359v530h135v-421zM436.5 360q19.5 -20 19.5 -52q0 -31 -19.5 -51t-51.5 -20t-52 20t-20 51q0 32 20 52t52 20t51.5 -20z" />
    <glyph glyph-name="Ldot.c2sc" horiz-adv-x="489" 
d="M211 109h224v-109h-359v530h135v-421zM436.5 360q19.5 -20 19.5 -52q0 -31 -19.5 -51t-51.5 -20t-52 20t-20 51q0 32 20 52t52 20t51.5 -20z" />
    <glyph glyph-name="uni01C8.c2sc" horiz-adv-x="808" 
d="M435 109v-109h-359v530h135v-421h224zM490 -88v107q35 -5 49 -5q32 0 45 13.5t13 38.5v464h135v-476q0 -71 -43 -109t-117 -38q-49 0 -82 5z" />
    <glyph glyph-name="uni01CA.c2sc" horiz-adv-x="939" 
d="M76 531h167l119 -269q29 -73 37 -104h5l-1 23q-3 47 -3 83v267h125v-531h-166l-119 268q-27 70 -37 107h-6q3 -54 3 -110v-265h-124v531zM621 -88v107q35 -5 49 -5q32 0 45 13.5t13 38.5v464h135v-476q0 -71 -43 -109t-117 -38q-49 0 -82 5z" />
    <glyph glyph-name="uni01CB.c2sc" horiz-adv-x="939" 
d="M76 531h167l119 -269q29 -73 37 -104h5l-1 23q-3 47 -3 83v267h125v-531h-166l-119 268q-27 70 -37 107h-6q3 -54 3 -110v-265h-124v531zM621 -88v107q35 -5 49 -5q32 0 45 13.5t13 38.5v464h135v-476q0 -71 -43 -109t-117 -38q-49 0 -82 5z" />
    <glyph glyph-name="fi.sc" horiz-adv-x="851" 
d="M211 422v-111h210v-104h-210v-207h-135v530h359v-108h-224zM735 431v-331h63v-100h-261v100h63v331h-63v99h261v-99h-63z" />
    <glyph glyph-name="fl.sc" horiz-adv-x="955" 
d="M211 422v-111h210v-104h-210v-207h-135v530h359v-108h-224zM921 109v-109h-359v530h135v-421h224z" />
    <glyph glyph-name="uni20BC.tf" 
d="M510 378.5q12 -63.5 12 -155.5v-223h-126v207q0 83 -4.5 128t-20.5 76q-19 37 -52 51v-422h-100v421q-32 -14 -51 -52q-14 -31 -19 -79t-5 -123v-207h-124v223q0 92 12 155.5t41 105.5q51 74 143 89v107h106v-107q95 -14 147 -89q29 -42 41 -105.5z" />
    <glyph glyph-name="uni20AA.tf" 
d="M314 492q32 -11 49 -47t17 -107v-144h-85v110q0 53 -4.5 72t-24.5 26t-72 7h-79v-409h-95v503h207q55 0 87 -11zM167 0v317h85v-223h19q64 0 95.5 11t48.5 54t17 138v206h95v-202q0 -131 -30.5 -195.5t-92.5 -85t-176 -20.5h-61z" />
    <glyph glyph-name="uni20A9.tf" 
d="M489 382l-8 -66h58v-70h-66l-28 -246h-126l-37 408q-1 26 -5 63l-3 37h-5l-8 -98l-33 -410h-126l-30 246h-69v70h60l-8 66h-52v70h44l-27 216h118l22 -424l4 -82h6l8 81l40 425h109l42 -426l3 -25q4 -37 5 -55h6l3 81l23 425h113l-25 -216h42v-70h-50z" />
    <glyph glyph-name="uni0E3F.c2sc" horiz-adv-x="533" 
d="M428 44.5q-50 -41.5 -122 -44.5v-70h-93v70h-145v530h145v65h93v-66q74 -7 113 -42t39 -90q0 -38 -18.5 -65.5t-53.5 -43.5v-4q44 -16 68 -48.5t24 -76.5q0 -73 -50 -114.5zM193 430v-115h81q26 0 40 15.5t14 42.5q0 57 -54 57h-81zM324.5 117.5q19.5 16.5 19.5 45.5
q0 31 -17 48.5t-46 17.5h-88v-128h83q29 0 48.5 16.5z" />
    <glyph glyph-name="uni20BF.c2sc" horiz-adv-x="534" 
d="M442 57q-38 -40 -100 -52v-75h-72v70h-47v-70h-72v70h-83v530h83v65h72v-65h47v65h72v-72q58 -13 87.5 -46t29.5 -82q0 -74 -72 -107v-4q45 -16 69 -48t24 -76q0 -63 -38 -103zM315 415q-14 15 -41 15h-80v-115h78q28 0 42.5 15.5t14.5 43.5q0 26 -14 41zM327 117.5
q17 16.5 17 47.5q0 30 -16.5 47t-46.5 17h-87v-128h87q29 0 46 16.5z" />
    <glyph glyph-name="uni20B5.c2sc" horiz-adv-x="515" 
d="M320 3v-73h-93v75q-85 16 -134.5 84.5t-49.5 173.5q0 108 48.5 178.5t135.5 85.5v68h93v-69q111 -18 149 -132l-104 -48q-22 75 -89 75q-45 0 -71.5 -37.5t-26.5 -117.5q0 -77 25.5 -117t73.5 -40q70 0 97 87l104 -51q-43 -122 -158 -142z" />
    <glyph glyph-name="cent.c2sc" horiz-adv-x="462" 
d="M371 97q-32 -22 -71 -30v-67h-93v66q-75 12 -118 65t-43 135q0 81 43.5 135.5t117.5 67.5v61h93v-62q78 -18 116 -87l-100 -49q-12 20 -26 30.5t-36 10.5q-34 0 -55 -28t-21 -79t21 -77.5t55 -26.5q23 0 39.5 12t29.5 37l98 -54q-18 -38 -50 -60z" />
    <glyph glyph-name="colonmonetary.c2sc" horiz-adv-x="520" 
d="M334 6l-9 -76h-72l8 71q-18 0 -38 5l-8 -76h-73l12 104q-52 33 -80 91.5t-28 137.5q0 103 43.5 172t122.5 88l9 72h72l-8 -65q26 -2 38 -4l8 69h72l-11 -94q55 -34 80 -107l-105 -48q-22 75 -89 75q-45 0 -71.5 -37.5t-26.5 -117.5q0 -77 25.5 -117t74.5 -40q69 0 96 87
l104 -51q-40 -116 -146 -139z" />
    <glyph glyph-name="currency.c2sc" horiz-adv-x="553" 
d="M435 176l69 -71l-70 -69l-69 70q-42 -21 -91 -21q-50 0 -88 20l-67 -69l-70 69l66 68q-25 44 -25 97q0 54 24 96l-67 69l71 69l67 -69q38 20 89 20t92 -22l69 71l71 -69l-70 -72q22 -44 22 -93q0 -51 -23 -94zM334 209.5q21 24.5 21 60.5q0 37 -21 61t-60 24t-60 -24.5
t-21 -60.5t21 -60.5t60 -24.5t60 24.5z" />
    <glyph glyph-name="dollar.c2sc" horiz-adv-x="489" 
d="M408.5 53.5q-40.5 -38.5 -109.5 -49.5v-74h-93v73q-49 6 -94.5 27.5t-77.5 55.5l67 80q31 -31 69.5 -46.5t80.5 -15.5q33 0 52.5 11.5t19.5 35.5q0 23 -20.5 37.5t-63.5 27.5l-53 16q-62 19 -95.5 56t-33.5 90q0 62 40 101.5t109 48.5v67h93v-69q82 -12 139 -62l-63 -88
q-25 22 -60 35.5t-67 13.5t-49.5 -12t-17.5 -31q0 -20 15 -31.5t50 -22.5l64 -20q62 -19 100.5 -53.5t38.5 -96.5q0 -66 -40.5 -104.5z" />
    <glyph glyph-name="dong.c2sc" horiz-adv-x="487" 
d="M440 500v-64h-59v-341h-105v40h-5q-26 -46 -87 -46q-56 0 -93 40.5t-37 114.5q0 73 36.5 114t90.5 41q58 0 85 -38h4v75h-114v64h114v44h111v-44h59zM263 184q13 22 13 60q0 39 -13 61t-39 22q-27 0 -41.5 -21.5t-14.5 -61.5q0 -39 14.5 -60.5t41.5 -21.5q26 0 39 22z
M53 65h361v-65h-361v65z" />
    <glyph glyph-name="Euro.c2sc" horiz-adv-x="551" 
d="M510 120q-22 -62 -72 -96t-123 -34q-82 0 -141 50t-76 145h-56v63h49v17q0 16 1 24h-50v63h57q19 92 76.5 140t138.5 48q69 0 121 -36t70 -95l-107 -35q-22 60 -82 60q-64 0 -87 -82h120v-63h-128q-1 -8 -1 -24v-17h129v-63h-121q10 -45 33.5 -67t55.5 -22q31 0 53 17
t33 49z" />
    <glyph glyph-name="uni20B2.c2sc" horiz-adv-x="532" 
d="M482 59q-67 -49 -156 -57v-72h-93v75q-90 15 -137 84t-47 176q0 111 48.5 179.5t135.5 82.5v68h93v-69q106 -17 153 -109l-97 -56q-28 61 -97 61q-54 0 -81 -37.5t-27 -117.5t27.5 -119.5t91.5 -39.5q41 0 69 15v68h-77v103h194v-235z" />
    <glyph glyph-name="uni20B4.c2sc" horiz-adv-x="541" 
d="M327 253v-5h164v-63h-247q-27 -21 -27 -48q0 -42 68 -42q37 0 65 14.5t61 47.5l67 -81q-39 -41 -91 -63t-110 -22q-84 0 -135.5 37t-51.5 107q0 31 12 50h-55v63h115q19 15 55 36v5h-170v63h254q14 11 18.5 20.5t4.5 20.5q0 19 -15.5 30t-46.5 11q-54 0 -108 -48l-63 89
q75 65 188 65q75 0 123 -37t48 -98q0 -28 -13 -53h54v-63h-107z" />
    <glyph glyph-name="uni20AD.c2sc" horiz-adv-x="548" 
d="M222 240h-8v-240h-125v240h-47v82h47v208h125v-208h12l128 208h136l-146 -208h125v-82h-116l160 -240h-146z" />
    <glyph glyph-name="uni20BA.c2sc" horiz-adv-x="529" 
d="M118 192l-72 -25v68l72 24v43l-72 -25v67l72 25v161h125v-125l84 27v-66l-84 -28v-43l84 27v-66l-84 -27v-114q48 5 88 41t57 87l109 -46q-37 -100 -115 -148.5t-208 -48.5h-56v192z" />
    <glyph glyph-name="uni20BC.c2sc" horiz-adv-x="697" 
d="M587 344q62 -94 62 -265v-79h-126v65q0 119 -27 189.5t-87 92.5v-315h-123v315q-59 -22 -86 -92t-27 -190v-65h-125v79q0 172 62 265t176 112v84h123v-84q116 -18 178 -112z" />
    <glyph glyph-name="uni20A6.c2sc" horiz-adv-x="579" 
d="M474 289v-42h54v-63h-54v-184h-163l-69 265q-11 54 -19 101l-5 29h-5q2 -47 2 -134v-261h-110v184h-55v63h55v42h-55v63h55v178h162l69 -265q15 -63 24 -125h6q-4 68 -4 130v260h112v-178h54v-63h-54z" />
    <glyph glyph-name="uni20B1.c2sc" horiz-adv-x="580" 
d="M535 372h-60q1 -6 1 -19q0 -12 -1 -18h60v-63h-73q-40 -94 -183 -94h-46v-178h-126v272h-59v63h59v37h-59v63h59v95h171q66 0 113.5 -23.5t68.5 -71.5h75v-63zM326 288q20 24 20 64t-18.5 64t-51.5 24h-43v-176h35q38 0 58 24z" />
    <glyph glyph-name="uni20BD.c2sc" horiz-adv-x="519" 
d="M220 216v-42h156v-82h-156v-92h-127v92h-52v82h52v42h-52v86h52v229h196q90 0 144.5 -39.5t54.5 -119.5t-52 -118t-147 -38h-69zM220 440v-136h58q38 0 59 18.5t21 48.5q0 31 -19.5 50t-53.5 19h-65z" />
    <glyph glyph-name="uni20B9.c2sc" horiz-adv-x="512" 
d="M304 183l134 -183h-155l-107 154q-34 -3 -72 -3h-19v86h27q71 0 107 13t48 52h-222v82h222q-10 33 -43.5 47t-98.5 14h-80v86h423v-86h-128v-5q34 -20 48 -56h81v-82h-76q-13 -84 -89 -119z" />
    <glyph glyph-name="uni20AA.c2sc" horiz-adv-x="733" 
d="M419.5 397q32.5 -7 52.5 -35.5t20 -88.5v-96h-95v61q0 26 -4.5 38t-18.5 16t-45 4h-138v-296h-121v404h259q58 0 90.5 -7zM249 0v235h96v-127h57q54 0 85 9.5t47 40t16 92.5v154h120v-149q0 -101 -28.5 -155.5t-91.5 -77t-175 -22.5h-126z" />
    <glyph glyph-name="sterling.c2sc" horiz-adv-x="487" 
d="M449 101v-101h-393v85q36 13 57.5 40t21.5 52q0 20 -6 44h-82v83h55q-11 37 -11 79q0 68 48.5 113t141.5 45q39 0 76 -9.5t64 -23.5l-39 -93q-49 18 -84 18q-36 0 -57 -18t-21 -53q0 -21 11 -58h158v-83h-136q2 -20 2 -29q0 -53 -36 -85v-6h230z" />
    <glyph glyph-name="uni20B8.c2sc" horiz-adv-x="518" 
d="M471 530v-100h-424v100h424zM47 389h424v-101h-151v-288h-125v288h-148v101z" />
    <glyph glyph-name="uni20AE.c2sc" horiz-adv-x="491" 
d="M309 430v-76l79 27v-66l-79 -27v-44l79 27v-66l-79 -28v-177h-126v143l-79 -27v66l79 27v44l-79 -27v66l79 28v110h-148v100h423v-100h-149z" />
    <glyph glyph-name="uni20A9.c2sc" horiz-adv-x="713" 
d="M601 298l-7 -42h68v-63h-79l-32 -193h-132l-46 301q-4 26 -10 88l-2 24h-5l-3 -30q-3 -48 -8 -81l-45 -302h-138l-32 193h-79v63h68l-7 42h-61v63h50l-28 169h120l37 -312l3 -25q1 -8 3 -30t3 -46h6q2 22 2 30l7 70l41 313h129l43 -316q7 -57 9 -97h5q3 56 9 98l37 315
h113l-28 -169h50v-63h-61z" />
    <glyph glyph-name="yen.c2sc" horiz-adv-x="516" 
d="M346 267h78v-63h-105v-41h105v-63h-105v-100h-126v100h-104v63h104v41h-104v63h77l-141 263h143l67 -147q19 -47 22 -55h5l23 55l68 147h138z" />
    <glyph glyph-name="florin.c2sc" horiz-adv-x="429" 
d="M285.5 406.5q-4.5 -14.5 -8.5 -56.5l-5 -45h102v-82h-110l-19 -185q-5 -49 -15.5 -76t-29.5 -46q-41 -40 -117 -40q-38 0 -71 5l10 97q16 -2 38 -2q28 0 41 15q7 8 12 25t10 61l14 146h-106v82h114l8 82q9 89 51 122q22 17 49 24t70 7q39 0 69 -7l-11 -97q-16 4 -40 4
q-29 0 -40 -11q-11 -8 -15.5 -22.5z" />
    <glyph glyph-name="zero.zero" 
d="M401 640.5q56 -39.5 87 -117t31 -189.5t-31 -189.5t-87 -117t-130 -39.5t-130 39.5t-87 117t-31 189.5t31 189.5t87 117t130 39.5t130 -39.5zM183 494l195 -216q2 34 2 56q0 235 -109 235q-62 0 -88 -75zM360 176l-196 215q-2 -34 -2 -57q0 -235 109 -235q61 0 89 77z
" />
    </font>
</defs>
</svg>
