<?xml version="1.0" encoding="utf-8"?>
<!-- Generator: Adobe Illustrator 28.2.0, SVG Export Plug-In . SVG Version: 6.00 Build 0)  -->
<svg version="1.1" id="Layer_1" xmlns="http://www.w3.org/2000/svg" xmlns:xlink="http://www.w3.org/1999/xlink" x="0px" y="0px"
	 viewBox="0 0 55.363 14.117" style="enable-background:new 0 0 55.363 14.117;" xml:space="preserve">
<style type="text/css">
	.st0{fill:#FFFFFF;}
</style>
<path class="st0" d="M2.845,10.771H2.501c-0.093-0.427-0.338-0.638-0.745-0.638c-0.584,0-0.952,0.525-0.952,1.369
	c0,0.844,0.368,1.369,0.957,1.369c0.461,0,0.736-0.3,0.794-0.844h0.344c-0.059,0.741-0.466,1.168-1.124,1.168
	c-0.834,0-1.363-0.658-1.363-1.688s0.529-1.698,1.349-1.698C2.369,9.809,2.767,10.158,2.845,10.771"/>
<path class="st0" d="M3.566,11.419H3.223c0.049-0.437,0.353-0.673,0.873-0.673c0.378,0,0.652,0.143,0.741,0.383
	c0.044,0.123,0.054,0.231,0.054,0.525v0.869c0,0.382,0.005,0.451,0.063,0.613H4.626c-0.035-0.123-0.04-0.162-0.049-0.314
	c-0.138,0.25-0.363,0.373-0.682,0.373c-0.456,0-0.751-0.26-0.751-0.668c0-0.328,0.186-0.569,0.54-0.701
	c0.211-0.079,0.451-0.133,0.795-0.192l0.073-0.009v-0.103c0-0.349-0.127-0.486-0.471-0.486C3.777,11.036,3.615,11.159,3.566,11.419
	 M4.552,11.875c-0.78,0.142-1.055,0.304-1.055,0.628c0,0.24,0.182,0.407,0.452,0.407c0.26,0,0.476-0.147,0.554-0.373
	c0.035-0.108,0.049-0.24,0.049-0.426V11.875z"/>
<path class="st0" d="M5.357,10.81H5.69c0.035,0.093,0.045,0.177,0.049,0.319c0.143-0.26,0.359-0.383,0.673-0.383
	c0.324,0,0.525,0.128,0.642,0.407c0.157-0.274,0.388-0.407,0.716-0.407c0.28,0,0.496,0.108,0.599,0.3
	c0.079,0.137,0.089,0.22,0.089,0.667v1.422H8.119v-1.422c0-0.516-0.098-0.662-0.456-0.662c-0.368,0-0.555,0.24-0.555,0.711v1.373
	H6.765v-1.368v-0.138c0-0.417-0.123-0.578-0.447-0.578c-0.367,0-0.559,0.25-0.559,0.73v1.354H5.415v-1.604v-0.118
	C5.415,11.046,5.406,10.982,5.357,10.81"/>
<path class="st0" d="M9.139,9.819h0.015c0.142,0,0.245,0.108,0.245,0.255c0,0.142-0.103,0.245-0.25,0.245
	c-0.142,0-0.25-0.103-0.25-0.245C8.899,9.937,9.002,9.829,9.139,9.819 M8.968,10.81h0.363v2.325H8.968V10.81z"/>
<path class="st0" d="M9.719,11.973c0-0.726,0.417-1.227,1.015-1.227c0.599,0,1.016,0.501,1.016,1.227
	c0,0.721-0.417,1.222-1.016,1.222C10.136,13.195,9.719,12.694,9.719,11.973 M10.072,11.973c0,0.554,0.265,0.927,0.662,0.927
	c0.398,0,0.663-0.373,0.663-0.927c0-0.56-0.265-0.932-0.663-0.932C10.337,11.041,10.072,11.413,10.072,11.973"/>
<path class="st0" d="M12.073,10.81h0.329c0.039,0.113,0.044,0.177,0.044,0.339c0.157-0.27,0.398-0.403,0.712-0.403
	c0.495,0,0.74,0.275,0.74,0.829v0.226v1.334h-0.343v-1.314v-0.167c0-0.412-0.148-0.603-0.466-0.603
	c-0.393,0-0.619,0.289-0.619,0.784v1.3h-0.343V11.6v-0.172C12.127,11.051,12.122,11.011,12.073,10.81"/>
<path class="st0" d="M16.209,12.032h-1.585c0.015,0.569,0.251,0.868,0.672,0.868c0.256,0,0.408-0.098,0.54-0.353l0.319,0.039
	c-0.142,0.403-0.436,0.609-0.863,0.609c-0.623,0-1.021-0.467-1.021-1.197c0-0.761,0.393-1.252,1.001-1.252
	c0.569,0,0.942,0.467,0.942,1.188C16.214,11.953,16.214,11.988,16.209,12.032 M15.856,11.762c-0.039-0.471-0.25-0.726-0.599-0.726
	c-0.338,0-0.554,0.25-0.622,0.726H15.856z"/>
<path class="st0" d="M18.137,11.448h-0.334c-0.034-0.285-0.182-0.417-0.475-0.417c-0.266,0-0.447,0.142-0.447,0.348
	c0,0.192,0.098,0.265,0.544,0.393c0.418,0.127,0.555,0.196,0.653,0.338c0.064,0.099,0.098,0.221,0.098,0.358
	c0,0.447-0.324,0.727-0.844,0.727c-0.559,0-0.878-0.28-0.878-0.776v-0.005h0.334c0.029,0.334,0.206,0.496,0.54,0.496
	c0.304,0,0.495-0.162,0.495-0.412c0-0.231-0.059-0.27-0.667-0.456c-0.452-0.143-0.623-0.314-0.623-0.638
	c0-0.393,0.324-0.658,0.799-0.658C17.828,10.746,18.113,10.997,18.137,11.448"/>
<path class="st0" d="M19.3,10.81h0.368l0.633,1.938l0.652-1.938h0.358l-0.765,2.164l-0.103,0.294
	c-0.142,0.393-0.28,0.598-0.495,0.726c-0.143,0.079-0.304,0.123-0.491,0.123c-0.024,0-0.059-0.005-0.103-0.005v-0.305h0.024
	c0.408,0,0.535-0.107,0.707-0.578l0.024-0.069L19.3,10.81z"/>
<path class="st0" d="M22.626,9.863h0.594c0.446,0,0.623,0.019,0.804,0.083c0.319,0.108,0.505,0.378,0.505,0.731
	c0,0.373-0.176,0.604-0.544,0.716c0.486,0.118,0.716,0.383,0.716,0.83c0,0.397-0.216,0.721-0.549,0.829
	c-0.216,0.068-0.393,0.083-0.957,0.083h-0.569V9.863z M22.989,11.271h0.309c0.319,0,0.476-0.025,0.613-0.103
	c0.157-0.084,0.246-0.255,0.246-0.461c0-0.226-0.113-0.403-0.295-0.471c-0.132-0.049-0.245-0.059-0.583-0.059h-0.29V11.271z
	 M22.989,12.826h0.324c0.397,0,0.564-0.02,0.711-0.083c0.177-0.079,0.285-0.285,0.285-0.54c0-0.275-0.138-0.486-0.373-0.559
	c-0.147-0.049-0.27-0.064-0.618-0.064h-0.329V12.826z"/>
<path class="st0" d="M25.05,10.81h0.338v1.423c0,0.481,0.133,0.657,0.481,0.657c0.226,0,0.417-0.123,0.505-0.333
	c0.044-0.104,0.065-0.231,0.065-0.427v-1.32h0.343v1.619v0.196c0,0.304,0.005,0.353,0.054,0.51h-0.334
	c-0.039-0.107-0.049-0.176-0.049-0.309c-0.137,0.26-0.324,0.368-0.623,0.368c-0.353,0-0.643-0.181-0.731-0.466
	c-0.039-0.127-0.049-0.23-0.049-0.495V10.81z"/>
<path class="st0" d="M28.842,11.448h-0.334c-0.034-0.285-0.181-0.417-0.475-0.417c-0.266,0-0.447,0.142-0.447,0.348
	c0,0.192,0.098,0.265,0.544,0.393c0.418,0.127,0.555,0.196,0.653,0.338c0.064,0.099,0.098,0.221,0.098,0.358
	c0,0.447-0.324,0.727-0.844,0.727c-0.559,0-0.878-0.28-0.878-0.776v-0.005h0.334c0.029,0.334,0.206,0.496,0.54,0.496
	c0.304,0,0.495-0.162,0.495-0.412c0-0.231-0.059-0.27-0.667-0.456c-0.452-0.143-0.623-0.314-0.623-0.638
	c0-0.393,0.324-0.658,0.799-0.658C28.533,10.746,28.818,10.997,28.842,11.448"/>
<path class="st0" d="M31.055,12.032h-1.585c0.015,0.569,0.251,0.868,0.672,0.868c0.256,0,0.408-0.098,0.54-0.353L31,12.586
	c-0.142,0.403-0.436,0.609-0.863,0.609c-0.623,0-1.021-0.467-1.021-1.197c0-0.761,0.393-1.252,1.001-1.252
	c0.569,0,0.942,0.467,0.942,1.188C31.059,11.953,31.059,11.988,31.055,12.032 M30.701,11.762c-0.039-0.471-0.25-0.726-0.599-0.726
	c-0.338,0-0.554,0.25-0.622,0.726H30.701z"/>
<path class="st0" d="M32.983,11.448h-0.334c-0.034-0.285-0.181-0.417-0.476-0.417c-0.265,0-0.446,0.142-0.446,0.348
	c0,0.192,0.098,0.265,0.545,0.393c0.417,0.127,0.554,0.196,0.652,0.338c0.064,0.099,0.098,0.221,0.098,0.358
	c0,0.447-0.324,0.727-0.844,0.727c-0.559,0-0.878-0.28-0.878-0.776v-0.005h0.334c0.029,0.334,0.206,0.496,0.539,0.496
	c0.305,0,0.496-0.162,0.496-0.412c0-0.231-0.059-0.27-0.667-0.456c-0.452-0.143-0.623-0.314-0.623-0.638
	c0-0.393,0.323-0.658,0.799-0.658C32.674,10.746,32.958,10.997,32.983,11.448"/>
<path class="st0" d="M1.051,5.298v0.081c0,0.395,0.108,0.467,0.737,0.521v0.215C1.357,6.079,1.159,6.07,0.898,6.07
	C0.647,6.07,0.44,6.079,0,6.115V5.9c0.638-0.054,0.719-0.117,0.737-0.602l0.188-4.41V0.825c0-0.404-0.125-0.502-0.745-0.529V0.071
	c0.341,0.027,0.503,0.036,0.745,0.036c0.315,0,0.512-0.009,0.854-0.045l1.67,4.544l1.689-4.544C5.533,0.098,5.748,0.107,6,0.107
	c0.224,0,0.377-0.009,0.718-0.036v0.216c-0.62,0.045-0.745,0.134-0.745,0.529v0.072l0.09,4.41C6.071,5.783,6.161,5.855,6.808,5.9
	v0.215C6.269,6.07,6.009,6.052,5.685,6.052c-0.323,0-0.584,0.018-1.131,0.063V5.9c0.61-0.036,0.745-0.135,0.745-0.557V5.298
	L5.227,0.646L3.736,4.651c-0.027,0.09-0.054,0.153-0.143,0.413C3.485,5.352,3.521,5.253,3.476,5.397L3.431,5.513L3.395,5.63
	L3.359,5.72L3.323,5.819L3.287,5.917H3.153C2.892,5.172,3.009,5.486,2.695,4.615L1.231,0.628L1.051,5.298z"/>
<path class="st0" d="M10.851,4.706c-0.107,0.924-0.7,1.472-1.598,1.472c-1.105,0-1.805-0.853-1.805-2.218
	c0-1.302,0.709-2.2,1.742-2.2c1.033,0,1.625,0.754,1.652,2.11H8.175c0.018,0.674,0.063,0.997,0.171,1.284
	C8.534,5.64,8.867,5.882,9.36,5.882c0.629,0,1.033-0.413,1.141-1.176H10.851z M10.124,3.547c-0.045-1.06-0.35-1.554-0.943-1.554
	c-0.566,0-0.898,0.53-0.988,1.554H10.124z"/>
<path class="st0" d="M11.472,1.922c0.512-0.054,0.817-0.108,1.185-0.216c0.054,0.369,0.063,0.467,0.081,0.854
	c0.207-0.53,0.584-0.818,1.069-0.818c0.431,0,0.763,0.315,0.763,0.719c0,0.278-0.143,0.44-0.386,0.44
	c-0.197,0-0.359-0.135-0.359-0.297c0-0.044,0-0.044,0.036-0.188c0.009-0.036,0.009-0.045,0.009-0.09
	c0-0.117-0.117-0.206-0.269-0.206c-0.477,0-0.773,0.565-0.773,1.455v1.877c0,0.386,0.099,0.457,0.647,0.484v0.18
	c-0.476-0.045-0.71-0.054-1.006-0.054c-0.305,0-0.53,0.009-1.006,0.054v-0.18c0.548-0.027,0.647-0.098,0.647-0.484V2.658
	c-0.01-0.583,0.009-0.565-0.638-0.583V1.922z"/>
<path class="st0" d="M18.065,3.143h-0.198c-0.161-0.781-0.503-1.158-1.041-1.158c-0.674,0-1.069,0.736-1.069,1.975
	c0,1.294,0.341,1.931,1.042,1.931c0.556,0,0.889-0.386,0.996-1.185h0.36c-0.108,0.961-0.62,1.482-1.428,1.482
	c-1.069,0-1.752-0.871-1.752-2.237c0-1.293,0.737-2.209,1.797-2.209c0.359,0,0.619,0.108,0.897,0.377l0.234-0.458h0.162V3.143z"/>
<path class="st0" d="M22.287,4.706c-0.107,0.924-0.7,1.472-1.598,1.472c-1.105,0-1.805-0.853-1.805-2.218
	c0-1.302,0.709-2.2,1.742-2.2c1.033,0,1.625,0.754,1.652,2.11h-2.667c0.018,0.674,0.063,0.997,0.171,1.284
	c0.188,0.486,0.521,0.728,1.014,0.728c0.629,0,1.033-0.413,1.141-1.176H22.287z M21.56,3.547c-0.045-1.06-0.35-1.554-0.943-1.554
	c-0.566,0-0.898,0.53-0.988,1.554H21.56z"/>
<path class="st0" d="M27.084,5.945c-0.674,0.081-0.8,0.108-1.186,0.233c-0.081-0.341-0.089-0.386-0.116-0.718
	c-0.261,0.512-0.611,0.736-1.123,0.736c-0.979,0-1.661-0.916-1.661-2.218c0-1.266,0.682-2.182,1.625-2.182
	c0.494,0,0.746,0.161,1.087,0.7v-1.58c0-0.459-0.072-0.521-0.638-0.521V0.233C25.539,0.197,25.979,0.116,26.428,0v5.181
	c0,0.539,0.054,0.593,0.656,0.611V5.945z M23.752,3.987c0,1.266,0.341,1.958,0.979,1.958c0.655,0,0.988-0.638,0.988-1.877
	c0-1.347-0.342-2.021-1.015-2.021C24.075,2.047,23.752,2.703,23.752,3.987"/>
<path class="st0" d="M31,4.706c-0.107,0.924-0.7,1.472-1.598,1.472c-1.105,0-1.805-0.853-1.805-2.218c0-1.302,0.709-2.2,1.742-2.2
	c1.033,0,1.625,0.754,1.652,2.11h-2.667c0.018,0.674,0.063,0.997,0.171,1.284c0.188,0.486,0.521,0.728,1.014,0.728
	c0.629,0,1.033-0.413,1.141-1.176H31z M30.273,3.547c-0.045-1.06-0.35-1.554-0.943-1.554c-0.566,0-0.898,0.53-0.988,1.554H30.273z"
	/>
<path class="st0" d="M31.828,4.697h0.198c0.153,0.817,0.53,1.203,1.167,1.203c0.521,0,0.925-0.35,0.925-0.808
	c0-0.278-0.134-0.458-0.502-0.646c-0.072-0.045,0-0.009-0.225-0.108c-0.305-0.144-0.099-0.045-0.638-0.297
	c-0.656-0.296-0.862-0.556-0.862-1.077c0-0.71,0.548-1.195,1.365-1.195c0.323,0,0.593,0.09,0.898,0.288l0.153-0.369h0.152V3.08
	h-0.197c-0.081-0.718-0.386-1.059-0.934-1.059c-0.485,0-0.853,0.323-0.853,0.736c0,0.287,0.134,0.449,0.503,0.638
	c0.081,0.045,0.26,0.125,0.449,0.206l0.377,0.162c0.674,0.296,0.916,0.593,0.916,1.114c0,0.754-0.602,1.293-1.446,1.293
	c-0.395,0-0.736-0.117-1.078-0.368l-0.215,0.395h-0.153V4.697z"/>
<rect x="35.178" y="3.484" class="st0" width="2.308" height="0.404"/>
<path class="st0" d="M40.137,0.098c1.132,0,1.769,0.53,1.769,1.464c0,0.629-0.332,1.078-0.979,1.329
	c0.817,0.171,1.266,0.692,1.266,1.5c0,0.548-0.296,1.096-0.745,1.383c-0.359,0.233-0.736,0.314-1.41,0.314h-2.263V5.873
	c0.665-0.054,0.737-0.117,0.737-0.602V0.915c0-0.485-0.09-0.557-0.737-0.601V0.098H40.137z M39.877,2.819
	c0.862,0,1.23-0.368,1.23-1.239c0-0.835-0.323-1.203-1.078-1.203h-0.763v2.442H39.877z M39.266,5.352
	c0,0.386,0.081,0.458,0.548,0.458h0.332c0.799,0,1.248-0.503,1.248-1.401c0-0.907-0.395-1.311-1.275-1.311h-0.853V5.352z"/>
<path class="st0" d="M46.388,4.706c-0.107,0.924-0.7,1.472-1.598,1.472c-1.105,0-1.805-0.853-1.805-2.218
	c0-1.302,0.709-2.2,1.742-2.2c1.033,0,1.625,0.754,1.652,2.11h-2.667c0.018,0.674,0.063,0.997,0.171,1.284
	c0.188,0.486,0.521,0.728,1.014,0.728c0.629,0,1.033-0.413,1.141-1.176H46.388z M45.661,3.547c-0.045-1.06-0.35-1.554-0.943-1.554
	c-0.566,0-0.898,0.53-0.988,1.554H45.661z"/>
<path class="st0" d="M47.018,1.957c0.53-0.072,0.836-0.144,1.186-0.27c0.053,0.207,0.08,0.45,0.098,0.782
	c0.333-0.494,0.692-0.701,1.222-0.701c0.835,0,1.302,0.548,1.302,1.527v2.156c0,0.386,0.099,0.457,0.647,0.485v0.179
	c-0.467-0.045-0.674-0.054-1.015-0.054c-0.27,0-0.512,0.009-0.943,0.054V5.936c0.476-0.019,0.593-0.108,0.593-0.468v-2.2
	c0-0.772-0.234-1.096-0.782-1.096c-0.629,0-0.952,0.387-0.952,1.132v2.164c0,0.36,0.117,0.449,0.584,0.468v0.179
	c-0.431-0.036-0.674-0.054-0.943-0.054c-0.341,0-0.539,0.009-1.006,0.054V5.936c0.557-0.028,0.647-0.099,0.647-0.485V2.675
	c-0.009-0.529-0.027-0.547-0.521-0.556h-0.117V1.957z"/>
<path class="st0" d="M54.402,2.083h-0.997c-0.583,0-0.727,0.126-1.042,0.934h-0.188l0.206-1.167h2.982L52.92,5.855h1.051
	c0.602,0,0.862-0.242,1.131-1.06h0.189l-0.234,1.294h-3.089L54.402,2.083z"/>
</svg>
