<?xml version="1.0" encoding="iso-8859-1"?>
<!-- Generator: Adobe Illustrator 16.0.0, SVG Export Plug-In . SVG Version: 6.00 Build 0)  -->
<!DOCTYPE svg PUBLIC "-//W3C//DTD SVG 1.1//EN" "http://www.w3.org/Graphics/SVG/1.1/DTD/svg11.dtd">
<svg version="1.1" id="Layer_1" xmlns="http://www.w3.org/2000/svg" xmlns:xlink="http://www.w3.org/1999/xlink" x="0px" y="0px"
	 width="65px" height="65px" viewBox="0 0 65 65" style="enable-background:new 0 0 65 65;" xml:space="preserve">
<g>
	<g>
		<g>
			<path style="fill:#009ada;" d="M45.2,39.9c-0.8,0.3-2.8,1-3.6,1.5c0.4,0.2,0.7,0.5,1,0.9c0.1,0,0.1-0.1,0.2-0.1l0.6-0.3
				c0.9-0.5,2.8-1.2,3.8-1.7C46.5,39.6,45.9,39.6,45.2,39.9L45.2,39.9z M45.2,39.9"/>
			<path style="fill:#009ada;" d="M18.4,42.9c-0.4-0.6-1.1-1-1.8-1l-3.7,0.3c-1.2,0.1-2.2,1.1-2.1,2.4l0.6,8.5
				c0.1,1.2,1.1,2.2,2.4,2.1l3.7-0.3c0.8-0.1,1.4-0.6,1.7-1.2l16.2,0.7c1.8,0.2,3.5,0,5.1-0.9l0.5-0.2l12.2-7.4c0.6-0.4,1-1,1.1-1.7
				c0-0.8-0.4-1.8-1.6-1.9c-0.8-0.1-2.5,0.9-3,1.1c-1.7,0.9-4,2.2-5.5,3.3c-0.1,0.1-0.3,0.2-0.4,0.2c-0.7,0.5-1.4,0.8-2.2,0.9
				c-4.4,1-10.9,1.1-10.9,1.1l-0.4,0c-0.3,0-0.5-0.2-0.6-0.5c0-0.3,0.2-0.6,0.5-0.6l9.6-0.9c1.1-0.1,1.9-1.2,1.8-2.3
				c-0.1-1.2-1.1-2-2.2-1.9l-8.5-0.1c-0.6,0-1.5-0.2-2.1-0.3C23.2,40.6,20.1,42.2,18.4,42.9L18.4,42.9z M15.1,53.1
				c-0.7,0-1.3-0.6-1.3-1.3s0.6-1.3,1.3-1.3c0.7,0,1.3,0.6,1.3,1.3S15.8,53.1,15.1,53.1L15.1,53.1z M15.1,53.1"/>
		</g>
		<path style="fill:#009ada;" d="M43.8,44.8c1.3-0.9,3.8-2.3,5.3-3.1c0.4-0.2,0.9-0.5,1.4-0.6c-0.6-0.4-1.3-0.5-2-0.2
			c-1.4,0.6-3.9,1.8-5.2,2.6c0,0,0,0,0,0.1c0.1,0.3,0.2,0.6,0.2,0.9c0,0.2,0,0.5,0,0.7C43.6,45,43.7,44.9,43.8,44.8L43.8,44.8z
			 M43.8,44.8"/>
	</g>
	<g>
		<g>
			<path style="fill:#009ada;" d="M30.6,9.9h3.6v2.7c2,0.2,3.1,0.6,4.3,1.5c1.8,1.2,2.5,2.9,2.5,5.9h-5.6c0-2.1-0.9-3-3.1-3
				c-1.7,0-2.7,0.7-2.7,1.8c0,0.8,0.5,1.2,2.3,1.9c0.2,0.1,1,0.4,2.2,0.9c1.3,0.5,2.2,0.9,2.8,1.2c0.9,0.4,1.8,0.9,2.5,1.4
				c1.5,1.1,2.3,2.8,2.3,4.9c0,4.2-2.7,6.8-7.4,7.1v3.2h-3.6v-3.2c-2.5-0.2-3.7-0.6-5.1-1.6C23.7,33.2,23,31.4,23,28h5.6
				c0.1,2.6,1.3,3.8,3.8,3.8c1.9,0,2.9-0.7,2.9-1.9c0-0.9-0.5-1.4-2.5-2.2l-2.5-1.1c-2.4-1-3.8-1.7-4.8-2.6c-1.3-1-2-2.6-2-4.4
				c0-3.8,2.6-6.4,7.1-6.9V9.9z"/>
		</g>
	</g>
</g>
</svg>
