<?xml version="1.0" encoding="iso-8859-1"?>
<!-- Generator: Adobe Illustrator 16.0.0, SVG Export Plug-In . SVG Version: 6.00 Build 0)  -->
<!DOCTYPE svg PUBLIC "-//W3C//DTD SVG 1.1//EN" "http://www.w3.org/Graphics/SVG/1.1/DTD/svg11.dtd">
<svg version="1.1" id="Layer_1" xmlns="http://www.w3.org/2000/svg" xmlns:xlink="http://www.w3.org/1999/xlink" x="0px" y="0px"
	 width="65px" height="65px" viewBox="0 0 65 65" style="enable-background:new 0 0 65 65;" xml:space="preserve">
<g>
	<g>
		<path style="fill:#009ada;" d="M34.7,15.4v3.1c5.4,0.6,8,3.5,8,8.6h-6.6c0-2.4-1-3.4-3.5-3.4c-1.9,0-3.1,0.8-3.1,2.1
			c0,0.9,0.6,1.4,2.6,2.2c3.1,1.2,6.8,2.9,7.8,3.5c2.5,1.5,3.5,3.5,3.5,6.3c0,4.8-3.2,7.9-8.6,8.2v3.7h-4.1v-3.7
			c-6.1-0.4-9.1-3.6-8.9-9.5h6.6c0.2,3,1.5,4.4,4.5,4.4c2.1,0,3.4-0.8,3.4-2.2c0-0.8-0.4-1.4-1.3-1.9c-0.7-0.4-0.7-0.4-4.5-2
			c-2.8-1.2-4.4-2.1-5.6-3c-1.5-1.2-2.3-3.1-2.3-5.1c0-3.7,2.3-6.5,6-7.6c0.7-0.2,1.2-0.3,2.3-0.4v-3.2H34.7z"/>
	</g>
</g>
</svg>
