<?xml version="1.0" encoding="utf-8"?>
<!-- Generator: Adobe Illustrator 28.2.0, SVG Export Plug-In . SVG Version: 6.00 Build 0)  -->
<svg version="1.1" id="Layer_1" xmlns="http://www.w3.org/2000/svg" xmlns:xlink="http://www.w3.org/1999/xlink" x="0px" y="0px"
	 viewBox="0 0 58.4 58.4" style="enable-background:new 0 0 58.4 58.4;" xml:space="preserve">
<style type="text/css">
	.st0{fill-rule:evenodd;clip-rule:evenodd;fill:#FFFFFF;}
	.st1{fill:none;}
</style>
<path class="st0" d="M51.9,1.4H6.4c-2.8,0-5,2.3-5,5V52c0,2.8,2.3,5,5,5h23.2V35h-5.7l0.1-8.2h5.6l0.1-5.3c0.1-3.4,0.1-4,0.4-4.9
	c0.9-3.2,2.7-5.1,5.7-6c1.5-0.5,3.6-0.6,7.6-0.6h4.1v4.1v4l-2.9,0.1c-3.2,0.1-4.1,0.1-4.8,1c-0.3,0.4-0.3,0.6-0.3,3.3v4.4h8.1
	l-1,8.1h-7.3v22h12.6c2.8,0,5-2.3,5-5V6.4C56.9,3.6,54.7,1.4,51.9,1.4z"/>
<rect y="0" class="st1" width="58.4" height="58.4"/>
</svg>
