<?xml version="1.0" encoding="utf-8"?>
<!-- Generator: Adobe Illustrator 28.2.0, SVG Export Plug-In . SVG Version: 6.00 Build 0)  -->
<svg version="1.1" id="Layer_1" xmlns="http://www.w3.org/2000/svg" xmlns:xlink="http://www.w3.org/1999/xlink" x="0px" y="0px"
	 viewBox="0 0 58.4 58.4" style="enable-background:new 0 0 58.4 58.4;" xml:space="preserve">
<style type="text/css">
	.st0{fill-rule:evenodd;clip-rule:evenodd;fill:#FFFFFF;}
	.st1{fill:none;}
</style>
<path class="st0" d="M40.3,56.9H18.1c-8.7,0-15.8-7.1-15.8-15.8V17.3c0-8.7,7.1-15.8,15.8-15.8h22.3c8.7,0,15.8,7.1,15.8,15.8v23.8
	C56.2,49.8,49.1,56.9,40.3,56.9z M18.1,5.5c-6.5,0-11.8,5.3-11.8,11.8v23.8c0,6.5,5.3,11.8,11.8,11.8h22.3c6.5,0,11.8-5.3,11.8-11.8
	V17.3c0-6.5-5.3-11.8-11.8-11.8L18.1,5.5z M29.2,43.9c-8.1,0-14.7-6.6-14.7-14.7c0-3.9,1.5-7.6,4.2-10.3c2.7-2.8,6.4-4.4,10.2-4.4
	h0.4c4.6,0.1,8.4,1.7,11,4.5c2.5,2.6,3.7,6.2,3.6,10.3c-0.1,3.9-1.6,7.6-4.4,10.4C36.8,42.3,33.1,43.9,29.2,43.9z M28.9,19.4
	c-2.5,0-4.9,1-6.6,2.9c-1.8,1.9-2.8,4.3-2.8,6.9c0,5.4,4.4,9.8,9.8,9.8s9.6-4.3,9.8-9.8c0.1-2.8-0.7-5.1-2.3-6.8
	c-1.7-1.8-4.3-2.8-7.5-2.9C29,19.4,28.9,19.4,28.9,19.4z M47.7,14c0,1.9-1.5,3.4-3.4,3.4s-3.4-1.5-3.4-3.4s1.5-3.4,3.4-3.4
	S47.7,12.1,47.7,14z"/>
<path class="st1" d="M0,0h58.4v58.4H0V0z"/>
</svg>
