<?xml version="1.0" encoding="utf-8"?>
<!-- Generator: Adobe Illustrator 28.2.0, SVG Export Plug-In . SVG Version: 6.00 Build 0)  -->
<svg version="1.1" id="Layer_1" xmlns="http://www.w3.org/2000/svg" xmlns:xlink="http://www.w3.org/1999/xlink" x="0px" y="0px"
	 viewBox="0 0 58.4 58.4" style="enable-background:new 0 0 58.4 58.4;" xml:space="preserve">
<style type="text/css">
	.st0{fill-rule:evenodd;clip-rule:evenodd;fill:#FFFFFF;}
	.st1{fill:none;}
</style>
<path class="st0" d="M52,1.4H6.4c-2.8,0-5,2.3-5,5V52c0,2.8,2.3,5,5,5H52c2.8,0,5-2.3,5-5V6.4C57,3.6,54.7,1.4,52,1.4z M18.2,48.2
	H10V21.7h8.3v26.5H18.2z M14.1,18.1c-2.6,0-4.8-2.1-4.8-4.8c0-2.6,2.1-4.8,4.8-4.8c2.6,0,4.8,2.1,4.8,4.8
	C18.9,15.9,16.7,18.1,14.1,18.1z M49.1,48.2h-8.2V35.3c0-3.1-0.1-7-4.3-7c-4.3,0-4.9,3.3-4.9,6.8v13.1h-8.2V21.7l0,0h7.9v3.6h0.1
	c1.1-2.1,3.8-4.3,7.8-4.3c8.3,0,9.9,5.5,9.9,12.6v14.6H49.1z"/>
<rect y="0" class="st1" width="58.4" height="58.4"/>
</svg>
