<?xml version="1.0" encoding="utf-8"?>
<!-- Generator: Adobe Illustrator 28.2.0, SVG Export Plug-In . SVG Version: 6.00 Build 0)  -->
<svg version="1.1" id="Layer_1" xmlns="http://www.w3.org/2000/svg" xmlns:xlink="http://www.w3.org/1999/xlink" x="0px" y="0px"
	 viewBox="0 0 58.4 58.4" style="enable-background:new 0 0 58.4 58.4;" xml:space="preserve">
<style type="text/css">
	.st0{fill-rule:evenodd;clip-rule:evenodd;fill:#FFFFFF;}
	.st1{fill:none;}
</style>
<path class="st0" d="M56.9,28.9c0,0,0,9.1-1.2,13.4c-0.6,2.4-2.5,4.3-4.9,4.9c-4.3,1.2-21.7,1.2-21.7,1.2s-17.3,0-21.7-1.2
	c-2.4-0.6-4.3-2.5-4.9-4.9c-1-4.3-1-13.4-1-13.4s0-9.1,1.2-13.4c0.6-2.4,2.5-4.3,4.9-4.9c4.3-1.2,21.7-1.2,21.7-1.2s17.3,0,21.7,1.2
	c2.4,0.6,4.3,2.5,4.9,4.9C56.9,19.8,56.9,28.9,56.9,28.9z M23.5,20.6L38,28.9l-14.5,8.2V20.6z"/>
<rect y="0" class="st1" width="58.4" height="58.4"/>
</svg>
