<?xml version="1.0" encoding="UTF-8"?>
<svg xmlns="http://www.w3.org/2000/svg" version="1.1" viewBox="0 0 24 24">
  <defs>
    <style>
      .cls-1 {
        fill: none;
      }

      .cls-2 {
        fill: #fff;
      }
    </style>
  </defs>
  <!-- Generator: Adobe Illustrator 28.6.0, SVG Export Plug-In . SVG Version: 1.2.0 Build 709)  -->
  <g>
    <g id="Layer_1">
      <g id="Layer_1-2" data-name="Layer_1">
        <path class="cls-2" d="M16.5,2c-3.038,0-5.5,2.462-5.5,5.5s2.462,5.5,5.5,5.5,5.5-2.462,5.5-5.5-2.462-5.5-5.5-5.5ZM20.16,6.387l-2.11,1.666.739,2.415c.02.063-.015.131-.078.151-.01.003-.021.005-.032.005-.025,0-.049-.006-.07-.02l-2.11-1.355-2.107,1.35c-.055.036-.13.021-.166-.035-.02-.03-.025-.068-.014-.102l.766-2.4-2.137-1.675c-.04-.032-.056-.085-.04-.134s.063-.083.115-.082l2.56-.002.901-2.433c.023-.062.092-.094.154-.071.033.012.059.038.071.071l.925,2.433,2.558.003c.066,0,.12.053.121.119,0,.037-.017.073-.047.096,0,0,0,0,.001,0Z"/>
      </g>
      <g id="Layer_1-3" data-name="Layer_1">
        <g>
          <path class="cls-2" d="M4.891,9.779c.006-.82,0-1.639.003-2.459,0-.046.001-.093-.007-.138-.025-.091-.117-.14-.201-.166-.159-.01-.318-.001-.477-.005-.22.005-.441-.011-.66.013-.061.051-.149.09-.161.178-.01.096-.002.192-.015.288-.035.306.002.615-.05.919-.016.206.004.416-.032.62-.007.086-.01.173-.009.259.004.183-.033.363-.026.546.064.169.237.262.412.261.267-.002.533.002.8-.001.179-.022.395-.115.422-.316Z"/>
          <path class="cls-2" d="M6.159,10.809c.352.337.721.657,1.07.996.053.041.102.088.148.137.046.042.092.083.14.122.085.084.175.163.259.249.094.08.198.163.23.289.054.185.067.38.119.566.073.34.124.685.198,1.026.073.326.126.656.185.984.005.004.014.012.018.016.005.048.009.096.015.145.086.338.127.688.205,1.028.03.104.048.212.066.319.036.007.073.014.109.021.055.013.11.021.167.02,1.95-.001,3.901,0,5.851,0,.05,0,.101-.005.148-.023.034-.006.067-.012.101-.018.009-.059.018-.118.033-.176.009-.049.019-.097.033-.144.076-.341.124-.687.2-1.028.058-.254.1-.511.15-.767-.258-.032-.511-.079-.76-.139-.149,0-.298,0-.447-.009-.199.018-.4.004-.599.009-.295-.006-.59.012-.884-.01-.057.009-.116.011-.174.009-.084-.019-.17.006-.255-.007-.294.011-.59.013-.885-.001-.332.014-.667.013-.999,0-.038.003-.076.004-.114,0-.057.008-.115.008-.171-.001-.133.013-.267.013-.4,0-.294.014-.59.014-.885,0-.067.011-.134.011-.201-.003-.044.006-.088.011-.132.017-.052-.19-.074-.386-.092-.582-.013-.04-.024-.081-.034-.121,1.487-.003,2.974-.002,4.461,0-.214-.119-.42-.25-.619-.389-1.297,0-2.594,0-3.89,0-.01-.137-.043-.272-.046-.41.354-.063.709-.118,1.066-.159.721,0,1.443,0,2.164,0-.915-.831-1.617-1.892-2.003-3.098-.147.004-.294.003-.442.008-.44-.006-.879.032-1.318.036-.544.033-1.091.049-1.629.136,0-.827,0-1.654,0-2.482.002-.18-.015-.364.038-.539.064-.122.126-.247.226-.344.093-.095.216-.151.338-.199.09-.036.189-.044.286-.043h2.275c.4-2.269,1.87-4.162,3.872-5.149-.27-.001-.541-.006-.811-.006-.961.003-1.921-.008-2.881.014-.513.03-1.029.015-1.542.049-.221.004-.443.004-.661.047-.07.028-.145.042-.217.066-.535.186-.938.688-1.02,1.246-.032.239-.057.481-.104.717-.048.305-.084.612-.131.917-.005.084-.009.17-.039.25-.005.059-.01.118-.019.176-.082.465-.128.935-.2,1.401-.072.384-.039.777-.069,1.165-.006.333-.02.667-.022,1-.023.342-.027.686-.031,1.029-.013.322-.032.645-.03.967.004.062-.018.143.046.181.188.15.349.331.534.484ZM15.014,16.601c-2.009.003-4.018,0-6.027.001-.039-.234-.061-.47-.096-.705,2.072,0,4.144.003,6.216-.002-.029.235-.051.472-.093.705ZM15.263,14.82c-.017.23-.074.455-.086.685-.106.014-.214.008-.32.009-1.618,0-3.235,0-4.853,0-.393-.006-.787.013-1.179-.01,0-.23-.087-.453-.072-.684,2.17,0,4.341,0,6.511,0Z"/>
          <path class="cls-2" d="M5.307,11.1c.012-.21.023-.421.015-.631-.028-.013-.057-.026-.084-.039-.149-.067-.305-.117-.457-.177-.26.123-.553.03-.826.082.352.227.729.416,1.087.635.09.04.17.103.265.13Z"/>
          <path class="cls-2" d="M6.067,20.861c-.152-.003-.304.01-.455-.013-.296-.053-.57-.232-.708-.503-.013,0-.039-.003-.052-.004.004.595-.002,1.191.003,1.786.025.15.162.303.324.289.638-.001,1.276,0,1.915-.001.069.003.124-.043.181-.074.044-.065.083-.132.111-.205-.003-.424.002-.848-.003-1.271-.439-.01-.878-.002-1.316-.004Z"/>
          <path class="cls-2" d="M17.28,16.62c-.076.027-.156.024-.235.027,0,.005-.001.017-.001.023-.483.049-.963.122-1.441.201-.268.027-.534.089-.804.08-1.921,0-3.843.001-5.764-.001-.306-.033-.613-.069-.915-.127-.341-.049-.681-.101-1.024-.139-.059-.004-.118-.014-.175-.034-.065-.006-.132-.007-.195-.027-.465-.075-.937-.114-1.4-.203-.235-.024-.466-.074-.702-.094.003.301.018.601.033.901.03.178.006.361.045.537.012.123.015.247.018.37.005-.006.015-.018.019-.024.035.419.081.839.16,1.252.069.275.09.561.184.83.093.177.242.333.436.395.138.053.288.028.432.033h12.328c.209.005.41-.109.539-.27.198-.247.181-.582.263-.873.01-.048.019-.096.033-.142.059-.344.094-.691.14-1.037,0-.179.051-.354.048-.534.036-.169.017-.344.043-.514.013-.308.033-.616.032-.924-.235.018-.465.068-.699.093-.463.089-.933.126-1.398.201Z"/>
          <path class="cls-2" d="M6.822,16.404c.175.031.356.03.526.082.068.003.139-.001.203.027.058.007.115.013.173.02.344.06.693.09,1.038.144-.037-.148-.102-.286-.17-.422-.063-.144-.113-.294-.183-.435-.073-.146-.118-.302-.19-.448-.088-.168-.135-.354-.228-.521-.06-.129-.1-.266-.164-.393-.029-.054-.051-.11-.043-.172-.005.013-.013.04-.018.053-.04-.116-.082-.231-.136-.34-.005-.014-.015-.042-.021-.056-.018-.032-.036-.064-.051-.098-.089-.256-.286-.455-.491-.624-.455-.392-.91-.783-1.363-1.176-.053-.056-.114-.102-.18-.142-.083.111-.136.241-.189.368-.111.181-.156.392-.237.586-.086.222-.128.458-.199.685-.103.382-.141.778-.211,1.165-.037.313-.043.629-.075.942.011.144-.006.289.004.433.516.094,1.041.135,1.556.229.214.037.431.057.646.09ZM5.357,15.734c-.132-.022-.237-.147-.233-.281.001-.324-.002-.648.002-.972-.003-.187.186-.344.37-.311.614.081,1.153.421,1.641.782.129.086.227.222.261.375.043.169.09.338.149.503.014.037-.025.053-.043.077.022.014.047.022.074.023.007.055.069.144-.003.175-.172-.014-.343-.047-.511-.084-.416-.083-.839-.122-1.252-.214-.151-.028-.302-.051-.454-.073Z"/>
          <path class="cls-2" d="M19.312,14.71c-.037-.203-.066-.409-.099-.613-.142.059-.288.11-.435.159.054.064.104.138.101.226.002.324,0,.649,0,.974.002.132-.103.254-.232.277-.132.021-.265.04-.396.066-.387.084-.782.124-1.17.201-.048.007-.095.013-.142.02-.143.038-.29.055-.435.081-.039.011-.078,0-.115-.009.011-.082.033-.161.062-.237.055-.169.108-.339.15-.512.034-.159.135-.305.271-.394h0c.188-.138.386-.268.59-.387-.315.043-.635.072-.962.072-.133,0-.262-.013-.393-.02-.063.15-.123.301-.193.447-.078.222-.194.427-.272.649-.018.037-.034.074-.051.112-.077.15-.123.312-.198.463-.062.126-.117.256-.155.391.404-.053.808-.102,1.21-.163.079-.029.164-.021.247-.022l-.003-.024c.378-.047.756-.096,1.133-.151.463-.085.932-.129,1.398-.2.052-.017.106-.023.159-.039.007-.369-.013-.74-.049-1.107-.007-.086-.01-.173-.021-.259Z"/>
          <path class="cls-2" d="M18.164,20.859c-.515.002-1.031-.008-1.546.006-.001.423.005.846-.003,1.269.045.132.134.278.291.281.639.002,1.278,0,1.917.001.183.013.325-.171.326-.342,0-.578-.003-1.156.002-1.733-.014,0-.041.002-.055.003-.169.34-.558.539-.933.515Z"/>
        </g>
        <rect class="cls-1" x="0" y="0" width="24" height="24"/>
      </g>
      <rect class="cls-1" x="0" y="0" width="24" height="24"/>
    </g>
  </g>
</svg>