<?xml version="1.0" encoding="UTF-8"?>
<svg xmlns="http://www.w3.org/2000/svg" version="1.1" viewBox="0 0 841 841">
  <defs>
    <style>
      .cls-1 {
        fill: none;
      }

      .cls-2 {
        fill: #fff;
      }
    </style>
  </defs>
  <!-- Generator: Adobe Illustrator 28.6.0, SVG Export Plug-In . SVG Version: 1.2.0 Build 709)  -->
  <g>
    <g id="Layer_1">
      <path class="cls-2" d="M677.834,497.869c0,7.277-2.565,13.209-7.682,17.789-3.234,3.777-4.852,7.821-4.852,12.129,0,3.506.941,6.608,2.83,9.299l-.404-.404c6.734,11.055,10.107,23.316,10.107,36.791v3.639-.404l.404,12.129c0,33.696-2.697,65.092-8.086,94.201v-.808c-.543,6.469-.809,11.459-.809,14.959s.133,6.065.404,7.682v21.427c.265,19.406.265,33.822,0,43.26v.404c-.272,4.043-1.889,7.542-4.851,10.512-2.969,2.963-6.469,4.447-10.512,4.447h-10.512c-9.438.266-16.443.266-21.023,0h-1.213c-5.932,0-10.916-2.021-14.959-6.064-4.043-4.043-6.064-8.894-6.064-14.555l.404-2.022v-13.342c0-5.932-.139-10.246-.404-12.937,0-1.08-.139-1.756-.404-2.022l-14.555,3.234c-16.443,3.5-28.844,6.065-37.195,7.682l-2.83.404h-61.453c-76.816,0-135.711-.139-176.677-.404l-1.213-.404c-18.869-1.617-35.717-4.447-50.537-8.49l-10.512-2.426v35.982c0,4.308-1.485,7.947-4.447,10.916-2.969,2.963-6.469,4.447-10.512,4.447-12.937.537-25.742.537-38.408,0-4.043,0-7.549-1.484-10.512-4.447-2.969-2.969-4.447-6.608-4.447-10.916-.272-6.74-.272-16.848,0-30.322.265-15.628.133-27.353-.404-35.174-.543-6.734-1.554-16.841-3.032-30.322-1.485-13.475-2.363-23.449-2.628-29.918-1.352-26.412-2.022-50.265-2.022-71.561v-2.022c0-12.394,3.095-23.582,9.299-33.556l-.404.404c1.617-2.425,2.426-5.117,2.426-8.086,0-5.389-2.16-9.564-6.469-12.533-7.277-5.925-10.916-13.607-10.916-23.045v-.404c0-4.308,1.478-7.947,4.447-10.916,2.963-2.963,6.601-4.447,10.916-4.447h51.75c5.389,0,9.564-2.425,12.533-7.277l35.982-57.006v-.404c3.5-4.851,7.814-8.219,12.937-10.107l-2.83.808c43.121-14.82,88.402-22.236,135.843-22.236s91.908,7.145,133.417,21.428c5.389,1.889,9.836,5.66,13.342,11.32l40.025,63.474h51.75c4.308,0,7.884,1.485,10.714,4.447,2.83,2.969,4.245,6.608,4.245,10.916v4.852ZM278.794,594.899l-.404-.808c-2.697-2.963-11.055-5.66-25.066-8.086-13.481-2.691-26.279-4.176-38.408-4.447-13.209-.265-19.811.948-19.811,3.639l.809,11.725c.809,8.894,2.154,16.039,4.043,21.427,2.963,7.821,6.873,11.725,11.725,11.725l-2.83-.808c25.066,5.66,51.074,8.894,78.029,9.703,21.56,0,18.863-14.687-8.086-44.068ZM586.868,516.87c4.308,0,8.016-1.548,11.118-4.649s4.649-6.803,4.649-11.118c0-3.234-.809-6.065-2.426-8.49l-43.26-68.326-.404-.404c-.809-1.882-2.293-3.234-4.447-4.043l2.83.808c-42.318-14.283-85.78-21.427-130.385-21.427s-87.265,6.873-127.959,20.619c-1.352.808-2.698,2.021-4.043,3.639l-43.26,69.134v-.404c-1.889,3.234-2.83,6.203-2.83,8.894,0,4.314,1.548,8.023,4.649,11.118,3.095,3.102,6.803,4.649,11.118,4.649,101.883-2.962,210.095-2.962,324.649,0ZM515.712,706.485c1.882-1.346,2.558-4.043,2.022-8.086v.404l-.404-6.065.404-4.043c0-5.117-.202-8.553-.607-10.309-.404-1.75-1.819-2.893-4.245-3.437-1.352-.266-4.991-.404-10.916-.404h-144.738c-10.512,0-17.252.272-20.215.809-4.043,1.08-6.469,3.234-7.277,6.469-.809,2.697-1.213,8.629-1.213,17.789,0,4.586,1.478,7.347,4.447,8.288,2.963.947,8.895.878,17.789-.202.537-.265,1.213-.404,2.022-.404h.404c20.215.809,50.669,1.213,91.371,1.213,27.22-.266,47.568-.266,61.049,0,4.851,0,8.219-.67,10.107-2.022ZM398.466,622.391c0,6.469,2.356,12.066,7.075,16.779,4.713,4.719,10.31,7.214,16.778,7.479,6.734,0,12.464-2.426,17.182-7.277,4.713-4.851,7.075-10.512,7.075-16.98s-2.363-12.059-7.075-16.778c-4.719-4.713-10.379-7.075-16.98-7.075s-12.199,2.293-16.778,6.873c-4.586,4.586-7.012,10.108-7.277,16.576v.404ZM647.108,618.348c1.882-5.388,3.234-12.533,4.043-21.427l.809-11.725c0-2.691-6.608-3.904-19.811-3.639-12.129.272-24.801,1.756-38.004,4.447-14.289,2.426-22.779,5.123-25.471,8.086-9.438,9.975-16.039,18.597-19.811,25.875-6.469,12.672-2.698,19.002,11.32,19.002h.809c26.14-.808,50.941-3.771,74.39-8.894,4.851,0,8.755-3.904,11.725-11.725Z"/>
      <rect class="cls-1" width="841" height="841"/>
    </g>
  </g>
</svg>