<?xml version="1.0" encoding="UTF-8"?>
<svg xmlns="http://www.w3.org/2000/svg" version="1.1" viewBox="0 0 24 24">
  <defs>
    <style>
      .cls-1 {
        fill: #fff;
      }
    </style>
  </defs>
  <!-- Generator: Adobe Illustrator 28.6.0, SVG Export Plug-In . SVG Version: 1.2.0 Build 709)  -->
  <g>
    <g id="Layer_1">
      <path class="cls-1" d="M20,16h-6l-1,8h-2l-1-8h-6V0h16v16Z"/>
      <path d="M17,8c0-2.69-2.31-5-5-5s-5,2.31-5,5,2.31,5,5,5,5-2.31,5-5ZM8.25,9.97c-.34-.568-.492-1.25-.492-1.97,0-1.099.379-2.083,1.174-2.917.796-.833,1.78-1.287,2.879-1.325l-.53,3.826-3.031,2.386ZM16.243,8c0,.72-.152,1.363-.455,1.932l-2.992-2.349-.569-3.826c1.099.038,2.046.493,2.841,1.326.796.834,1.175,1.819,1.175,2.917ZM15.561,10.349c-.758,1.174-2.083,1.894-3.561,1.894s-2.765-.72-3.522-1.894l3.522-1.44,3.56,1.44h.001Z"/>
    </g>
  </g>
</svg>