<?xml version="1.0" encoding="UTF-8"?>
<svg xmlns="http://www.w3.org/2000/svg" version="1.1" viewBox="0 0 16 16">
  <defs>
    <style>
      .cls-1 {
        fill: #fff;
      }
    </style>
  </defs>
  <!-- Generator: Adobe Illustrator 28.6.0, SVG Export Plug-In . SVG Version: 1.2.0 Build 709)  -->
  <g>
    <g id="Layer_1">
      <path class="cls-1" d="M8.349,1.3l1.49,4.584h4.819c.193,0,.35.157.35.35,0,.112-.054.217-.144.283l-3.9,2.833,1.489,4.584c.059.184-.042.381-.226.44-.106.034-.222.016-.312-.049l-3.9-2.833-3.9,2.833c-.157.113-.376.078-.489-.079-.065-.09-.083-.206-.049-.312l1.491-4.583-3.9-2.833c-.156-.114-.191-.333-.077-.489.066-.09.17-.144.282-.144h4.82l1.491-4.585c.06-.184.258-.284.442-.223.106.035.188.118.223.223Z"/>
    </g>
  </g>
</svg>