<?xml version="1.0" encoding="UTF-8"?>
<svg xmlns="http://www.w3.org/2000/svg" version="1.1" viewBox="0 0 16 16">
  <defs>
    <style>
      .cls-1 {
        fill: #fff;
      }
    </style>
  </defs>
  <!-- Generator: Adobe Illustrator 28.6.0, SVG Export Plug-In . SVG Version: 1.2.0 Build 709)  -->
  <g>
    <g id="Layer_1">
      <path class="cls-1" d="M13.091,8c-.005-.284-.033-.568-.086-.847l1.695-1.553-1.273-2.2-2.2.693c-.435-.363-.927-.65-1.457-.85l-.499-2.243h-2.542l-.5,2.243c-.53.199-1.022.486-1.456.849l-2.199-.692-1.274,2.2,1.7,1.553c-.054.279-.085.563-.091.847.006.284.037.568.091.847l-1.7,1.553,1.272,2.2,2.2-.693c.434.363.926.65,1.456.849l.501,2.244h2.542l.5-2.243c.53-.199,1.022-.486,1.457-.849l2.2.693,1.272-2.201-1.695-1.553c.053-.279.081-.563.086-.847ZM8,11.469c-1.916,0-3.469-1.553-3.469-3.469s1.553-3.469,3.469-3.469,3.469,1.553,3.469,3.469h0c0,1.916-1.553,3.469-3.469,3.469Z"/>
    </g>
  </g>
</svg>