<?xml version="1.0" encoding="UTF-8"?>
<svg xmlns="http://www.w3.org/2000/svg" version="1.1" viewBox="0 0 51.351 51.351">
  <defs>
    <style>
      .cls-1 {
        fill: none;
      }

      .cls-2 {
        fill: #fff;
      }
    </style>
  </defs>
  <!-- Generator: Adobe Illustrator 28.6.0, SVG Export Plug-In . SVG Version: 1.2.0 Build 709)  -->
  <g>
    <g id="Layer_1">
      <path class="cls-2" d="M36.388,34.608c1.961,0,6.028,6.101,6.028,9.296,0,.581-.145,1.016-.436,1.235l-6.536,3.849c-.218.218-.509.291-1.016.291-2.469,0-5.738-2.469-9.877-7.48-4.067-5.011-7.699-10.677-10.894-17.141-3.123-6.464-4.721-11.548-4.721-15.325,0-1.816.436-2.978,1.307-3.486l6.536-3.776c.363.145.944.436,1.743.944,1.162.654,2.179,1.743,3.05,3.123,1.09,1.961,1.67,3.632,1.67,4.939,0,.581-.145,1.016-.436,1.235l-4.285,2.542c.218,1.235.509,2.542.872,3.922.872,3.123,2.034,6.028,3.559,8.57,1.54,2.674,3.447,5.118,5.665,7.263.872.872,1.888,1.743,2.978,2.615l4.358-2.542c.072-.073.217-.073.435-.073h0Z"/>
      <rect class="cls-1" y="0" width="51.351" height="51.351"/>
    </g>
  </g>
</svg>