<?xml version="1.0" encoding="UTF-8"?>
<svg xmlns="http://www.w3.org/2000/svg" version="1.1" viewBox="0 0 24 24">
  <defs>
    <style>
      .cls-1 {
        fill: #fff;
      }
    </style>
  </defs>
  <!-- Generator: Adobe Illustrator 28.6.0, SVG Export Plug-In . SVG Version: 1.2.0 Build 709)  -->
  <g>
    <g id="Layer_1">
      <path class="cls-1" d="M6.167,8.406l2.921,2.922,2.122-2.121-2.803-2.803,1.767-1.768-2.828-2.828-3.497,3.497-1.624,3.038,1.414,1.414,2.528-1.351ZM14.675,12.672l-2.121,2.121,6.413,6.414c.195.195.512.195.707,0l1.415-1.414c.195-.195.195-.512,0-.707l-6.414-6.414Z"/>
      <path class="cls-1" d="M20.6,8.411c1.018-1.019,1.335-2.545.809-3.886l-2.349,2.348-2.051-2.051,2.347-2.347c-1.86-.732-3.962.183-4.694,2.043-.335.852-.335,1.799,0,2.651L2.4,19.426c-.195.195-.195.512,0,.707l1.344,1.345c.195.195.512.195.707,0l12.261-12.258c1.342.528,2.868.21,3.888-.809Z"/>
    </g>
  </g>
</svg>