<svg xmlns="http://www.w3.org/2000/svg" viewBox="0 0 24 24"><path d="M19.154 11.166c-5.013.109-8.447.218-11.88.49-1.09.082-3.541.218-3.923.3.246-.082 1.526-.436 3.787-.572 1.472-1.117 2.834-1.962 3.243-2.071.408-.11 1.471-.218 2.724-.218l-.19 1.962c.272 0 .517-.027.79-.027l.19-1.908c.872-.054 3.624.11 3.624.11l.654 1.689h.545l-.654-1.635c.708.055 1.69.164 2.48.436 1.143.409 1.934 1.28 1.934 1.28s-1.063.11-3.324.164zM1.47 12.855l-.899.354s.19-.626.6-.871c.245-.137 1.035-.327 1.035-.327l-.736.844zm22.151-.382-.19-1.634s-.9-.954-1.772-1.608l.191-.082-.055-.136c-5.503-.436-9.917-.627-11.634-.19-.272.081-1.008.49-3.323 2.016 0 0-4.005.245-5.45.817l-.599.245-.627.9.055.626-.218.218s.109 1.171.109 1.144l1.69.3h.054a2.308 2.308 0 0 1-.11-.6c0-1.09.873-1.961 1.963-1.961s1.962.872 1.962 1.962a1.6 1.6 0 0 1-.11.626h11.308a2.32 2.32 0 0 1-.11-.626 1.953 1.953 0 0 1 1.946-1.962h.016a1.954 1.954 0 0 1 1.962 1.945v.017c0 .136 0 .245-.027.381h.082l2.67-.327.436-.735.109-1.009c.026-.027-.11-.163-.328-.327z"></path><path d="M18.745 15.525a1.006 1.006 0 0 1-1.008-1.004v-.004a1.006 1.006 0 0 1 1.003-1.008h.005c.572 0 1.008.463 1.008 1.008 0 .545-.463 1.008-1.008 1.008m0-2.616a1.61 1.61 0 0 0-1.607 1.608 1.61 1.61 0 0 0 1.607 1.607 1.61 1.61 0 0 0 1.608-1.607c-.028-.9-.736-1.608-1.608-1.608"></path><path d="M18.745 13.781a.736.736 0 1 1 0 1.472.736.736 0 0 1 0-1.472M3.733 15.525a1.006 1.006 0 0 1-1.008-1.004v-.004a1.006 1.006 0 0 1 1.003-1.008h.005c.572 0 1.008.463 1.008 1.008 0 .545-.463 1.008-1.008 1.008m0-2.616a1.61 1.61 0 0 0-1.608 1.608 1.61 1.61 0 0 0 1.608 1.607 1.61 1.61 0 0 0 1.607-1.607c-.027-.9-.735-1.608-1.607-1.608"></path><path d="M3.733 13.781a.736.736 0 1 1 0 1.472.736.736 0 0 1 0-1.472m9.632-5.497h.309v-.771A.512.512 0 0 0 13.16 7h-.332a.513.513 0 0 0-.513.513v.786a32.855 32.855 0 0 1 1.049-.015"></path></svg>