<?xml version="1.0" encoding="UTF-8"?>
<svg id="Layer_1" data-name="Layer 1" xmlns="http://www.w3.org/2000/svg" version="1.1" viewBox="0 0 16 16">
  <defs>
    <style>
      .cls-1 {
        fill: none;
      }

      .cls-1, .cls-2 {
        stroke-width: 0px;
      }

      .cls-2 {
        fill: #fff;
      }
    </style>
  </defs>
  <path class="cls-2" d="M13.491,12.607c.92-.665,1.478-1.722,1.509-2.857-.118-1.743-1.332-3.219-3.02-3.671-.205,2.604-2.805,4.671-5.98,4.671-.282-.001-.564-.019-.844-.054.79,1.954,2.741,3.184,4.844,3.054.653.001,1.303-.103,1.923-.309.94.528,1.999.806,3.077.809-.62-.427-1.136-.989-1.509-1.643Z"/>
  <path class="cls-2" d="M11,5.75c0-2.209-2.239-4-5-4S1,3.541,1,5.75c.031,1.135.589,2.192,1.509,2.857-.373.654-.889,1.216-1.509,1.643,1.078-.003,2.137-.281,3.077-.809.62.206,1.27.31,1.923.309,2.761,0,5-1.791,5-4ZM3,4.75h4v.75H3v-.75ZM3,7.16v-.75h6v.75H3Z"/>
  <rect class="cls-1" y=".02" width="15.94" height="15.94"/>
</svg>