<?xml version="1.0" encoding="UTF-8"?>
<svg xmlns="http://www.w3.org/2000/svg" version="1.1" viewBox="0 0 841 841">
  <defs>
    <style>
      .cls-1 {
        fill: none;
      }

      .cls-2 {
        fill: #fff;
      }
    </style>
  </defs>
  <!-- Generator: Adobe Illustrator 28.6.0, SVG Export Plug-In . SVG Version: 1.2.0 Build 709)  -->
  <g>
    <g id="Layer_1">
      <path class="cls-2" d="M241.025,204.945c9.825-7.608,22.598-9.741,34.726-9.488,96.429-.056,192.829,0,289.23-.028,11.061-.112,22.626.477,32.48,6.092,13.278,6.878,20.016,21.419,23.525,35.259,14.598,56.987,26.528,114.76,33.715,173.179,6.316.112,12.633.197,18.977.225.197-11.032-.421-22.093.281-33.097-.168-4.07,4.183-5.979,6.316-8.843,8.422.112,16.872-.477,25.265.309,9.713,1.039,17.265,10.218,17.124,19.875.253,18.696.084,37.42.084,56.145.449,9.46-5.614,18.865-15.103,20.998-8.927,1.067-18.022.926-26.978.225-7.13-2.162-7.355-10.639-7.327-16.759-4.66,0-9.292.028-13.924.084,12.296,106.563,6.765,213.996,8.141,321.008,1.404,9.152-5.586,19.398-15.384,18.752-14.064.197-28.157.309-42.249.112-7.664.112-15.552-6.316-15.328-14.317-.618-13.138-.028-26.304-.225-39.47-114.985,0-229.969-.028-344.954,0-.225,13.194.393,26.416-.225,39.61.112,7.888-7.664,14.261-15.243,14.148-14.148.225-28.269.14-42.417-.084-9.713.618-16.675-9.601-15.299-18.668,1.376-107.04-4.183-214.501,8.141-321.092-4.66-.056-9.292-.084-13.924-.084.365,6.569-.87,16.675-9.32,16.984-11.79-.281-26.163,3.2-35.231-6.513-8.029-10.808-3.902-25.125-4.857-37.561.954-14.12-2.33-28.971,2.19-42.586,6.288-13.503,22.991-11.397,35.259-11.117,4.604-.618,8.562,2.442,10.892,6.12,1.656,11.847.309,23.89.73,35.82,6.316-.028,12.661-.112,18.977-.225,7.046-57.464,18.752-114.339,32.985-170.427,3.116-12.829,8.169-26.248,18.949-34.585h.001ZM241.138,293.794c-11.538,51.232-19.819,103.138-25.686,155.296,137.386-8.815,275.418-8.955,412.805.056-5.671-52.187-14.12-104.12-25.602-155.353-120.346-6.878-241.142-6.85-361.516,0h0ZM211.802,526.205c-6.906,5.137-6.681,14.682-7.102,22.43-.112,12.043-1.376,24.114-.449,36.129.87,10.05,11.117,16.085,20.381,16.647,19.791,1.909,39.694,2.583,59.513,4.267-8.506-20.689-19.033-43.344-10.387-65.886-14.064-4.604-27.96-9.741-42.052-14.317-6.401-2.021-14.008-3.313-19.903.73h0ZM570.034,539.82c8.646,22.514-1.881,45.168-10.387,65.83,20.549-1.797,41.21-2.19,61.703-4.576,9.657-.954,19.005-8.899,18.472-19.173-.14-14.935-.112-29.953-1.712-44.775-.702-9.545-10.668-15.692-19.651-13.194-16.507,4.014-32.199,10.836-48.425,15.889h0ZM312.722,540.438c-9.124,4.07-13.222,14.963-10.471,24.367,3.481,11.51,8.338,22.57,12.689,33.771,2.667,7.243,8.562,13.391,16.422,14.654,59.71,11.004,121.441,10.976,181.151-.028,12.099-1.769,16.647-14.261,20.184-24.283,3.453-10.696,10.106-20.914,9.488-32.508-.421-9.853-9.741-17.966-19.454-17.77-65.437-.197-130.845.056-196.282-.14-4.632.084-9.46-.084-13.727,1.937h0ZM358.508,664.855c-4.772,5.727-2.218,14.177-2.527,21.054-.618,5.39,4.688,8.731,9.545,7.888,38.403-.14,76.834.14,115.237-.14,9.573-.393,6.878-12.548,7.271-18.977,1.011-6.007-2.835-13.419-9.797-11.875-39.301.309-78.687-.646-117.96.477l-1.769,1.572h0Z"/>
      <rect class="cls-1" x="1.288" y="0" width="841" height="841"/>
    </g>
  </g>
</svg>