<?xml version="1.0" encoding="UTF-8"?>
<svg xmlns="http://www.w3.org/2000/svg" version="1.1" viewBox="0 0 841 841">
  <defs>
    <style>
      .cls-1 {
        fill: none;
      }

      .cls-2 {
        fill: #fff;
      }
    </style>
  </defs>
  <!-- Generator: Adobe Illustrator 28.6.0, SVG Export Plug-In . SVG Version: 1.2.0 Build 709)  -->
  <g>
    <g id="Layer_1">
      <g>
        <path class="cls-2" d="M284.538,40.7c17.98-1.2,36.04-.67,54.03-1.71,33.65-.76,67.31-.4,100.97-.49,21.01-.01,42.03,0,63.04.47,16.94,1.05,33.95.48,50.89,1.59,6.06.37,12.14.17,18.2.53,11.89,1.42,23.76,5.47,32.81,13.56,5.85,5.25,10.92,11.5,14.04,18.77,2.82,5.63,4.33,11.84,4.95,18.08.65,7.08,2.06,14.04,2.9,21.09,2.05,11.06,3.33,22.25,4.86,33.4.33,2.82.44,5.7,1.48,8.39.14,2.4-.17,4.93.94,7.17.33,2.3.49,4.63,1.05,6.9,2.14,15.01,3.79,30.09,6.29,45.05,2,14.91.52,30.03,1.9,44.98.32,9.36.55,18.72.64,28.08.88,11.99.9,24.01,1.08,36.03.56,12.34,1.09,24.68.99,37.05-.26.91-.8,1.66-1.61,2.23-6.92,5.72-13.16,12.19-19.96,18.04-1.5,1.64-4.2,3.46-3.05,6.01.7,2.8-2.38-.01-3.27-.68-2.77,4.04-7.13,6.55-10.25,10.27-13.52,12.05-26.66,24.53-40,36.78-3.42,3.12-6.66,6.59-7.63,11.29.86.09,2.59.29,3.45.38-1.21.02-2.42.01-3.61-.02-.89,7.34-2.72,14.51-4.11,21.76-2.6,10.45-3.59,21.24-6.24,31.68-.24,1.37-.45,2.75-.69,4.14-2.84,11.87-4.31,24.04-7.05,35.95-2.66,11.93-4.36,24.07-7.01,36.01-.51,1.65-.86,3.33-1.17,5.04-.51,2.02-.84,4.08-1.14,6.16-1.18.21-2.35.42-3.53.62-1.66.63-3.45.79-5.2.8-68.34,0-136.68-.03-205.02.02-1.97.01-3.93-.25-5.84-.71-1.28-.26-2.56-.5-3.83-.74-.61-3.75-1.24-7.52-2.3-11.17-2.75-11.94-4.18-24.19-7.19-36.04-.22-1.7-.38-3.38-.54-5.07-.15-.14-.47-.42-.63-.56-2.06-11.51-3.93-23.07-6.49-34.49-2.58-11.93-4.37-24.02-6.94-35.95-1.84-6.51-2.3-13.33-4.18-19.83-1.13-4.4-4.79-7.3-8.07-10.11-2.92-3.01-6.08-5.78-9.07-8.72-1.7-1.35-3.31-2.8-4.92-4.26-1.63-1.71-3.33-3.35-5.2-4.79-12.25-11.89-25.17-23.08-37.5-34.9-6.48-5.37-12.13-11.68-18.71-16.95-2.26-1.36-1.48-4.17-1.62-6.36-.07-11.31.61-22.6,1.05-33.9.12-12.03.25-24.07,1.07-36.07.08-11.68.55-23.36.77-35.04,1.06-13.59-.12-27.35,2.41-40.81,2.51-16.34,4.12-32.83,6.99-49.11.31-2.05.51-4.11.67-6.17,1.06-2.81,1.17-5.81,1.36-8.77,1.65-10.69,2.9-21.46,4.59-32.15,1.65-8.3,2.52-16.75,3.63-25.14,2.85-19.57,16.98-37.15,35.73-43.66,2.52-.84,5.14-1.33,7.61-2.32,7.64-1.49,15.43-1.5,23.18-1.63h0ZM242.558,220.66c-4.28,1.68-8.59,3.63-11.85,6.96-3.5,3.38-5.7,7.78-7.93,12.04-1.86,6.13-1.27,12.57-1.34,18.88,0,28.99.02,57.97-.01,86.96,18.86-3.06,38.02-3.62,57.09-4.78,15.41-.17,30.78-1.5,46.2-1.28,35.6-1.3,71.21-1.1,106.83-1.02,26.68-.28,53.35.07,80.02.82,7.32.56,14.66-.13,21.99.39,13.95.81,27.93.84,41.87,1.88,9.48.06,18.87,1.38,28.33,1.75,5.28.91,10.64,1.05,15.87,2.34.03-32.37,0-64.74.02-97.12.25-6.44-2.67-12.52-6.41-17.59-4.7-6.29-12.15-10.03-19.72-11.52-23.97-.51-47.97-.08-71.94-.22H252.568c-3.38-.05-6.84.26-10.01,1.51h0ZM297.168,453.26c.1,4.84,1.27,9.55,1.61,14.36,81.18-.04,162.36.01,243.54-.02.37-4.8,1.22-9.54,1.7-14.32-12.43-2.31-24.95-4.15-37.51-5.58-57.32-.03-114.65-.03-171.97,0-12.51,1.44-24.98,3.34-37.37,5.56ZM300.498,481.29c.34,1.43.74,2.84,1.19,4.25.61,6.84,1.4,13.73,3.22,20.38,1.54-.18,3.08-.38,4.61-.58,2.32.49,4.69.47,7.03.09,10.31.47,20.69.49,31-.01,4.64.48,9.35.46,14,.01,1.98.32,4,.32,6,.05,1.33.1,2.66.09,4-.03,11.64.43,23.36.48,35-.02,10.31.5,20.68.43,31,.04,2.97.44,5.97-.44,8.93.23,2.03.07,4.08-.01,6.09-.32,10.3.77,20.66.13,30.98.34,6.99-.16,14.02.34,20.99-.3,10.55.7,21.15.05,31.72.35,1.75-6.77,2.56-13.79,3.02-20.76l.71.07.4-3.84c-79.96-.01-159.92-.12-239.89.05h0ZM306.678,519.3c-.51,8.09,2.53,15.9,2.53,23.97,13.74.8,27.55.14,41.32.36,56.69,0,113.37-.01,170.06,0,3.74-.03,7.5.18,11.23-.32.41-8.06,2.43-15.94,3.01-24-76.05-.01-152.1.01-228.15-.01h0ZM311.568,557.09c1.21,8.22,1.98,16.49,3.35,24.69,70.4-.03,140.81.05,211.21-.04,1.47-8.18,2.25-16.46,3.25-24.71-72.6.17-145.21.06-217.81.06Z"/>
        <path class="cls-2" d="M124.388,246.14c7.67-.84,15.41-.26,23.12-.45,5.57.13,11.15-.18,16.71.17,2.94.89,6.15,2.61,7.03,5.81.28,1.6.22,3.23.24,4.85-.11,28.72.11,57.45-.11,86.17-.96,7.04-8.54,10.29-14.8,11.06-9.34.12-18.68-.01-28.02.05-6.13.05-12.19-3.23-14.43-9.14-.25-6.41,1.05-12.73.92-19.14-.03-3.03.07-6.07.32-9.09,1.25-7.17.57-14.51,1.12-21.74,1.81-10.66.52-21.51,1.74-32.22.44-3.35.17-6.74.51-10.09.44-3.07,3.52-4.45,5.65-6.24h0Z"/>
        <path class="cls-2" d="M675.218,246.07c12.09-.73,24.24-.11,36.35-.34,5-.52,11.41,3.03,10.95,8.7.04,2.39.03,4.79.3,7.17,1.12,10.62.24,21.34,1.53,31.96,1.12,7.59.01,15.35,1.37,22.91.33,5,.46,10,.44,15.01-.2,4.67,1.19,9.27.6,13.95-1.66,2.45-3.28,5.22-6.13,6.43-6.27,3.13-13.41,1.66-20.12,1.98-7.5-.3-15.31,1.03-22.48-1.73-2.84-1.01-5.28-2.97-6.84-5.54-1.24-.25-2.49-.46-3.7-.74,1.23-.04,2.47-.03,3.71.02-2.11-2.35-1.49-5.54-1.58-8.41.05-28-.03-56.01.04-84.01-.28-3.62,3-5.59,5.56-7.36h0Z"/>
        <path class="cls-2" d="M138.578,362.16c9.56-1.82,19.84,1.45,28.95-2.87,5.32,2.09,10.77,3.86,16,6.2.97.46,1.96.92,2.95,1.37.29,7.36-.11,14.75-.52,22.1-3.33-.92-6.13-3.15-9.29-4.54-12.53-7.69-25.74-14.3-38.09-22.26Z"/>
        <path class="cls-2" d="M657.558,365.52c5.21-2.42,10.68-4.17,16.06-6.16,8.95,3.93,18.89,1.47,28.31,2.43.05.69.17,2.09.23,2.79-.11-.46-.32-1.37-.42-1.83-2.56,1.89-5.5,3.14-8.17,4.85-12.24,7.2-24.74,13.99-36.91,21.27-.41-.04-1.23-.12-1.64-.15-.15-7.34-.94-14.67-.33-22.01.95-.39,1.91-.79,2.87-1.19Z"/>
        <path class="cls-2" d="M193.668,417.14c2.29,1.39,4.43,3.03,6.29,4.98,15.86,13.78,31.82,27.47,47.75,41.2,7.18,5.91,14.08,12.88,17.21,21.85.52,1.17,1.14,2.29,1.77,3.42.19.48.55,1.46.73,1.95,1.88,3.85,3.37,7.87,4.76,11.93.16-.47.46-1.4.62-1.87-.28,2.17.51,4.16,1.52,6.04,2.23,4.46,3.66,9.25,5.75,13.78,3.25,5.83,4.92,12.35,8,18.25,2.52,5.11,4.09,10.61,6.64,15.71,2.45,4.95,4.18,10.2,6.4,15.25,2.38,4.75,4.65,9.61,5.94,14.79-12.1-1.88-24.32-2.94-36.38-5.05-2.02-.26-4.04-.44-6.06-.7-2.23-1.01-4.72-.84-7.11-.96-5.97-1.82-12.32-1.78-18.44-2.88-7.53-1.15-15.11-1.86-22.62-3.15-18.07-3.31-36.45-4.74-54.54-8.03-.37-5.07.24-10.14-.15-15.19,1.11-10.98,1.33-22.04,2.63-33.01,2.44-13.59,3.76-27.47,7.38-40.84,2.49-7.96,3.93-16.23,6.96-24.02,2.87-6.81,4.43-14.19,8.32-20.55,1.88-4.46,3.71-9,6.63-12.9h0ZM179.598,507.44c-.13,11.35-.02,22.7-.06,34.05-.12,4.7,3.54,9.07,8.18,9.84,5.32.77,10.62,1.6,15.91,2.57,14.48,3.24,29.31,4.6,43.87,7.51,5.9,1.29,11.89,2.44,17.92,2.93,2.5-1.1.34-4.22.09-6.14-.95-.02-1.81-.29-2.58-.79.62-.84,1.99-1.39,1.49-2.69-2.08-5.78-3.7-11.7-5.22-17.64-1.18-5.34-4.61-10.11-9.14-13.13-17.11-12.65-36-24.55-57.51-27.4-6.43-1.18-13.05,4.34-12.95,10.89h0Z"/>
        <path class="cls-2" d="M647.168,417.09c3.66,3.84,4.84,9.21,7.36,13.75,3.15,5.51,4.68,11.73,7.09,17.57,3.4,8.47,5.04,17.48,7.71,26.19,3.6,13.39,4.9,27.27,7.4,40.85.39,3.01.51,6.04.74,9.07,1.26,12.86,1.97,25.86,1.72,38.8-1.83.56-3.74.8-5.56,1.38-16.31,2.48-32.77,4.01-48.98,7-13.21,1.93-26.45,3.66-39.7,5.31l.12.83c-2.9.05-5.88-.24-8.65.77-14.11,2.15-28.27,3.87-42.41,5.72,1.34-4.73,3.24-9.31,5.43-13.71,2.61-5.27,4.23-10.97,6.92-16.22.58-1.32,1.16-2.62,1.78-3.91,2.71-7.78,6.77-14.97,9.52-22.74,3.5-7.35,6.4-14.95,9.67-22.41,3.13-6.17,4.97-12.91,8.32-18.99,2.38-7.14,6.98-13.28,12.41-18.39,19.72-16.94,39.27-34.09,59.11-50.87h0ZM591.218,523.81c-4.77,3.12-8.29,8.22-9.5,13.79-1.47,6.06-3.31,12.01-5.25,17.94-1.01,2.69-1.8,5.46-2.18,8.32,1.31.33,2.66.71,4.03.32,5.08-.89,10.24-1.5,15.24-2.83,1.64-.26,3.3-.47,4.97-.71,13.6-2.69,27.44-4.11,41.01-7.04,4.6-.9,9.25-1.56,13.88-2.3,4.53-.82,8.2-5.1,8.13-9.72-.01-11.38.04-22.76-.02-34.13.11-3.28-1.85-6.06-3.89-8.42-2.47-1.4-5.11-3.12-8.09-2.57-21.83,2.53-41.01,14.58-58.33,27.35h0Z"/>
        <path class="cls-2" d="M162.048,572.04c8.26.7,16.37,2.45,24.6,3.28,16.22,3.1,32.75,4.47,49.06,7.11,2.21.7,4.54.73,6.82.94,1.97.7,4.04,1.05,6.12,1.19,12,1.33,23.93,3.18,35.87,4.88,10.59,2.04,21.34,3.3,32.06,4.46,67.33.08,134.65.01,201.98.04,9.48.32,18.79-1.84,28.18-2.79,16.76-2.78,33.59-5.33,50.5-7.04.01-.2.04-.6.05-.79,2.75-.1,5.58.02,8.23-.93,16.28-2.63,32.78-3.94,48.99-7.04,8.19-.89,16.27-2.63,24.49-3.26.02,10.79-.66,21.59-1.13,32.37-.92,5.97-.25,12.1-1.52,18.01.12,6.32-1.65,12.43-1.68,18.71-1.62,12.11-2.86,24.28-4.91,36.34-.49,1.63-.8,3.3-1.15,4.98-2.89,10.21-2.29,21.94-9.22,30.6-4.52,5.62-11.53,9.63-18.87,9.45H208.538c-5.05-.17-10.3.68-15.14-1.16-6.8-2.18-12-7.65-15.27-13.85-3.3-9.41-4.04-19.45-6.45-29.08-2.79-14.48-4.37-29.19-5.61-43.87-.17.21-.51.64-.68.85-.11-4.33-.22-8.67-.63-12.98-1.36-6.18-.51-12.6-1.57-18.83-.5-10.52-1.03-21.05-1.14-31.59h0Z"/>
        <path class="cls-2" d="M170.028,712.8c.46.04,1.38.1,1.84.13,4.83,9.49,14.44,15.76,24.8,17.62,5.27.79,10.62.35,15.93.45,15.37.06,30.75-.2,46.12.14.18,14.84.02,29.7.11,44.55-.98,2.55-2.33,4.93-3.88,7.19-2,1.09-3.93,2.71-6.34,2.59-22.37.07-44.73-.01-67.1.04-5.69.48-10.51-4.86-11.37-10.13-.17-20.86.03-41.72-.11-62.58h0Z"/>
        <path class="cls-2" d="M669.188,712.89c.48-.03,1.43-.08,1.91-.11-.17,20.24-.04,40.49-.07,60.73-.02,6.01-4.99,12.46-11.41,12-22.39-.05-44.79.03-67.18-.04-5.49-.11-8.61-5.22-10.2-9.85.27-14.83.05-29.66.09-44.48,18.05-.48,36.11-.12,54.17-.2,13.13.84,26.75-6.12,32.69-18.05h0Z"/>
      </g>
      <rect class="cls-1" y="0" width="841" height="841"/>
    </g>
  </g>
</svg>