<?xml version="1.0" encoding="UTF-8"?>
<svg xmlns="http://www.w3.org/2000/svg" version="1.1" viewBox="0 0 24 24">
  <!-- Generator: Adobe Illustrator 28.6.0, SVG Export Plug-In . SVG Version: 1.2.0 Build 709)  -->
  <g>
    <g id="Layer_1">
      <g>
        <path d="M16.27,9.986c-4.136-.131-5.389,1.375-6.57,3.092,0-2.886,1.693-5.932,6.57-5.932v-2.832s5.353,4.251,5.353,4.251l-5.353,4.251v-2.832Z"/>
        <path d="M5.828,7.127h5.418c-.852.503-1.373,1.164-1.745,1.843h-2.869v7.064s9.655,0,9.655,0v-1.671s1.843-1.463,1.843-1.463v3.938c0,.574-.465,1.039-1.039,1.039H5.828c-.574,0-1.039-.465-1.039-1.039v-8.673c0-.574.465-1.039,1.039-1.039Z"/>
      </g>
    </g>
  </g>
</svg>