<svg xmlns="http://www.w3.org/2000/svg" viewBox="0 0 16 16"><path d="M13.091 8a5.035 5.035 0 0 0-.086-.847L14.7 5.6l-1.273-2.2-2.2.693a5.058 5.058 0 0 0-1.457-.85L9.271 1H6.729l-.5 2.243a5.039 5.039 0 0 0-1.456.849L2.574 3.4 1.3 5.6 3 7.153A5.035 5.035 0 0 0 2.909 8 5.035 5.035 0 0 0 3 8.847L1.3 10.4l1.272 2.2 2.2-.693a5.039 5.039 0 0 0 1.456.849L6.729 15h2.542l.5-2.243a5.058 5.058 0 0 0 1.457-.849l2.2.693L14.7 10.4l-1.695-1.553A5.035 5.035 0 0 0 13.091 8zM8 11.469A3.469 3.469 0 1 1 11.469 8 3.469 3.469 0 0 1 8 11.469z"/></svg>
