<svg xmlns="http://www.w3.org/2000/svg" viewBox="0 0 24 24"><path d="m6.167 8.406 2.921 2.922 2.122-2.121-2.803-2.803 1.767-1.768-2.828-2.828-3.497 3.497-1.624 3.038 1.414 1.414 2.528-1.351zm8.508 4.266-2.121 2.121 6.413 6.414a.5.5 0 0 0 .707 0l1.415-1.414a.5.5 0 0 0 0-.707z"/><path d="M20.6 8.411a3.625 3.625 0 0 0 .809-3.886L19.06 6.873l-2.051-2.051 2.347-2.347a3.62 3.62 0 0 0-4.694 4.694L2.4 19.426a.5.5 0 0 0 0 .707l1.344 1.345a.5.5 0 0 0 .707 0L16.712 9.22a3.623 3.623 0 0 0 3.888-.809z"/></svg>
