<?xml version="1.0" encoding="utf-8"?>
<!-- Generator: Adobe Illustrator 28.2.0, SVG Export Plug-In . SVG Version: 6.00 Build 0)  -->
<svg version="1.1" id="Layer_1" xmlns="http://www.w3.org/2000/svg" xmlns:xlink="http://www.w3.org/1999/xlink" x="0px" y="0px"
	 viewBox="0 0 64 64" style="enable-background:new 0 0 64 64;" xml:space="preserve">
<style type="text/css">
	.st0{fill:url(#SVGID_1_);}
	.st1{fill:url(#SVGID_00000103981300591018141350000005224529579172523174_);}
	.st2{opacity:0.4;fill:url(#SVGID_00000002368779377769478590000009575978679108802231_);enable-background:new    ;}
	.st3{fill:#FFFFFF;}
	.st4{opacity:0.4;fill:url(#SVGID_00000094578595937092308550000000922131019327736490_);enable-background:new    ;}
	.st5{fill:#565F64;}
	.st6{fill:url(#SVGID_00000147205872269209759420000009815507087233115582_);}
	.st7{fill:#A4AAAE;fill-opacity:0.6;}
	.st8{fill:#333E46;}
	.st9{fill:url(#SVGID_00000030455423630802372680000011688461301682005647_);}
	.st10{fill:url(#SVGID_00000041989799031060363210000009996809140039661966_);fill-opacity:0.8;}
	.st11{opacity:0.8;fill:url(#SVGID_00000165937344874810606670000015263848638256002748_);enable-background:new    ;}
	.st12{fill:url(#SVGID_00000134939131559407140930000003587378438992222338_);}
	.st13{fill:url(#SVGID_00000122714469837268974650000017022686426334086792_);}
	.st14{fill:url(#SVGID_00000158721169090693137300000012898574531171973287_);}
	.st15{fill:url(#SVGID_00000081617981327161218270000006591642363790425499_);}
	.st16{fill:url(#SVGID_00000114757744796407539850000013975769751435583668_);}
	.st17{fill:url(#SVGID_00000165236977878601254000000008720962315157296034_);}
	.st18{fill:url(#SVGID_00000171683952463569241540000015694729619684298891_);}
	.st19{fill:#FBFBFB;}
	.st20{fill:#333F47;}
</style>
<g>
	
		<linearGradient id="SVGID_1_" gradientUnits="userSpaceOnUse" x1="-1380.899" y1="1442.98" x2="-1380.1322" y2="1442.3378" gradientTransform="matrix(62.6 0 0 -62.6 86452.2812 90342.4375)">
		<stop  offset="0" style="stop-color:#FFFFFF"/>
		<stop  offset="0.1" style="stop-color:#E7E8E6"/>
		<stop  offset="0.1" style="stop-color:#CDD0D0"/>
		<stop  offset="0.2" style="stop-color:#B5BBBD"/>
		<stop  offset="0.2" style="stop-color:#A5ACAF"/>
		<stop  offset="0.3" style="stop-color:#9BA3A7"/>
		<stop  offset="0.3" style="stop-color:#98A0A4"/>
		<stop  offset="0.4" style="stop-color:#828A8F"/>
		<stop  offset="0.5" style="stop-color:#667075"/>
		<stop  offset="0.6" style="stop-color:#535C63"/>
		<stop  offset="0.7" style="stop-color:#475158"/>
		<stop  offset="0.8" style="stop-color:#434D54"/>
		<stop  offset="1" style="stop-color:#475157"/>
	</linearGradient>
	<path class="st0" d="M63.3,32c0,17.3-14,31.3-31.3,31.3S0.7,49.3,0.7,32S14.7,0.7,32,0.7S63.3,14.7,63.3,32z M32,2.6
		C15.7,2.6,2.6,15.7,2.6,32S15.8,61.4,32,61.4c16.3,0,29.4-13.2,29.4-29.4C61.4,15.7,48.3,2.6,32,2.6z"/>
	
		<linearGradient id="SVGID_00000076571238176034682760000005754735212199389833_" gradientUnits="userSpaceOnUse" x1="-1380.6248" y1="1442.5795" x2="-1379.8595" y2="1441.9365" gradientTransform="matrix(58.8 0 0 -58.8 81190.2109 84836.7344)">
		<stop  offset="0" style="stop-color:#0B1F2A"/>
		<stop  offset="0.2" style="stop-color:#333F47"/>
		<stop  offset="0.5" style="stop-color:#777F84"/>
		<stop  offset="0.5" style="stop-color:#81898D"/>
		<stop  offset="0.7" style="stop-color:#B3B8B8"/>
		<stop  offset="0.8" style="stop-color:#D2D5D3"/>
		<stop  offset="0.8" style="stop-color:#DEE0DD"/>
		<stop  offset="1" style="stop-color:#FBFBFB"/>
	</linearGradient>
	<path style="fill:url(#SVGID_00000076571238176034682760000005754735212199389833_);" d="M32,2.6C15.7,2.6,2.6,15.7,2.6,32
		S15.8,61.4,32,61.4c16.3,0,29.4-13.2,29.4-29.4C61.4,15.7,48.3,2.6,32,2.6z M32,59.5C16.8,59.5,4.5,47.2,4.5,32S16.8,4.5,32,4.5
		S59.5,16.8,59.5,32S47.2,59.5,32,59.5z"/>
	
		<linearGradient id="SVGID_00000011031786290402879840000004490314579930625155_" gradientUnits="userSpaceOnUse" x1="-1380.4375" y1="1442.325" x2="-1380.7798" y2="1443.2656" gradientTransform="matrix(64 0 0 -64 88390.9375 92370.8594)">
		<stop  offset="0" style="stop-color:#E1E3E1"/>
		<stop  offset="0.1" style="stop-color:#C1C5C4"/>
		<stop  offset="0.3" style="stop-color:#9BA1A2"/>
		<stop  offset="0.5" style="stop-color:#7D8487"/>
		<stop  offset="0.7" style="stop-color:#687074;stop-opacity:0"/>
		<stop  offset="0.8" style="stop-color:#5B6469;stop-opacity:0"/>
		<stop  offset="1" style="stop-color:#576065;stop-opacity:0"/>
	</linearGradient>
	<path style="opacity:0.4;fill:url(#SVGID_00000011031786290402879840000004490314579930625155_);enable-background:new    ;" d="
		M32,63.3c17.3,0,31.3-14,31.3-31.3S49.3,0.7,32,0.7S0.7,14.7,0.7,32S14.7,63.3,32,63.3L32,63.3z M32,0c17.6,0,32,14.4,32,32
		S49.6,64,32,64S0,49.6,0,32S14.4,0,32,0L32,0z"/>
	<path class="st3" d="M2.2,32.1C2.2,15.7,15.5,2.2,32,2.2l0,0c16.5,0,29.8,13.4,29.8,29.9l0,0c0,16.4-13.3,29.7-29.8,29.7l0,0
		C15.5,61.8,2.2,48.5,2.2,32.1L2.2,32.1z M11.5,11.5c-5.3,5.3-8.6,12.6-8.6,20.6l0,0c0,8,3.3,15.3,8.5,20.5l0,0
		c5.3,5.2,12.6,8.5,20.6,8.5l0,0c8,0,15.3-3.2,20.5-8.5l0,0c5.3-5.2,8.5-12.5,8.5-20.5l0,0c0-8-3.3-15.3-8.5-20.6l0,0
		C47.3,6.2,40,2.9,32,2.9l0,0C24,2.9,16.7,6.2,11.5,11.5L11.5,11.5z"/>
	
		<linearGradient id="SVGID_00000094593782897150429340000001568255578071563676_" gradientUnits="userSpaceOnUse" x1="-1380.1973" y1="1442.2588" x2="-1379.6973" y2="1441.3929" gradientTransform="matrix(55.2 0 0 -55.2 76205.0859 79620.7812)">
		<stop  offset="0" style="stop-color:#E1E3E1"/>
		<stop  offset="0.1" style="stop-color:#C1C5C4"/>
		<stop  offset="0.3" style="stop-color:#9BA1A2"/>
		<stop  offset="0.5" style="stop-color:#7D8487"/>
		<stop  offset="0.7" style="stop-color:#687074;stop-opacity:0"/>
		<stop  offset="0.8" style="stop-color:#5B6469;stop-opacity:0"/>
		<stop  offset="1" style="stop-color:#576065;stop-opacity:0"/>
	</linearGradient>
	<path style="opacity:0.4;fill:url(#SVGID_00000094593782897150429340000001568255578071563676_);enable-background:new    ;" d="
		M32,59.6c-7.4,0-14.3-2.9-19.5-8.1S4.4,39.4,4.4,32s2.9-14.3,8.1-19.5S24.6,4.4,32,4.4s14.3,2.9,19.5,8.1s8.1,12.1,8.1,19.5
		s-2.9,14.3-8.1,19.5S39.4,59.6,32,59.6L32,59.6z M32,58.8c7.1,0,13.9-2.8,18.9-7.8c5.1-5.1,7.8-11.8,7.8-18.9s-2.8-13.9-7.8-18.9
		C45.8,8.1,39.1,5.4,32,5.4s-13.9,2.8-18.9,7.8C8,18.1,5.2,24.9,5.2,32S8,45.9,13,50.9C18.1,56,24.9,58.8,32,58.8L32,58.8z"/>
	<path class="st3" d="M56.3,45c-0.5-0.4-19.8-15.7-19.8-15.7L32,3.6c-0.3,0.1-0.7,0.4-0.9,0.8l-3.2,25L8,44.7c0,0-0.4,0.5-0.6,0.8
		c-0.1,0.2-0.1,0.5-0.1,0.8l0,0l24.6-10.1l24.6,10.1l0,0C56.7,45.8,56.5,45.3,56.3,45z"/>
	<path class="st5" d="M32.2,32.8L32,37.4l22.6,9.1c0.8,0.4,1.4,0.2,2-0.2L32.5,32.7C32.4,32.6,32.2,32.7,32.2,32.8z"/>
	
		<linearGradient id="SVGID_00000099652816759433545920000013736273096731033784_" gradientUnits="userSpaceOnUse" x1="-1373.8777" y1="1421.2188" x2="-1373.9473" y2="1421.1526" gradientTransform="matrix(24.4 0 0 -14.0595 33567.0039 20021.0957)">
		<stop  offset="0" style="stop-color:#27343C"/>
		<stop  offset="1" style="stop-color:#00111E;stop-opacity:0"/>
	</linearGradient>
	<path style="fill:url(#SVGID_00000099652816759433545920000013736273096731033784_);" d="M32.2,32.8c0,0,1.3,2.3,2.8,3.9
		c2.1,2.3,4.9,3.9,4.9,3.9l14.7,5.9c0.8,0.4,1.4,0.2,2-0.2L32.5,32.7C32.4,32.6,32.2,32.7,32.2,32.8z"/>
	<path class="st7" d="M56.5,45.4c0-0.1-0.1-0.2-0.2-0.4L35.7,29.9l-2.8,1.8c0,0,0.2,0.1,0.3,0c0.3-0.1,0.9-0.2,1.5,0
		c0.5,0.2,21.8,13.8,21.8,13.8S56.5,45.5,56.5,45.4z"/>
	<path class="st8" d="M55.8,44.5L36.6,29.3l0,0l-0.9,0.6l20.6,15.2C56.2,44.9,56,44.7,55.8,44.5z"/>
	<path class="st5" d="M32.5,31.3c-0.1,0.1-0.1,0.1-0.1,0.1s0,0.2,0.2,0.1c0.1-0.1,3-1.6,4-2.2l-3.5-24C33,4.4,32.6,4,31.9,3.7
		l0.4,27.8L32.5,31.3z"/>
	<path class="st7" d="M30.8,5.3v1.3l-2.2,22.1c0,0.3,0.1,0.6,0.4,0.8l1.3,1l0.9-24.4l0.1-1.9C31,4.4,30.9,4.8,30.8,5.3z M29.6,30.9
		l-1.2-1L8.1,44.6c0,0-0.6,0.4-0.7,0.8l0,0l0,0l0,0L8.1,45l0,0l21.3-13.4C29.8,31.4,29.9,31.2,29.6,30.9z"/>
	<path class="st5" d="M31.7,32.8c0-0.1-0.1-0.2-0.2-0.1L7.3,46.4c0.6,0.4,1.2,0.5,2,0.2l22.6-9.1L31.7,32.8z"/>
	
		<linearGradient id="SVGID_00000049902956889136429530000011851420977620584846_" gradientUnits="userSpaceOnUse" x1="-1321.5616" y1="1434.105" x2="-1321.5776" y2="1434.2711" gradientTransform="matrix(4.2 0 0 -27.1 5585.0371 38893.4336)">
		<stop  offset="0.1" style="stop-color:#02131F"/>
		<stop  offset="0.9" style="stop-color:#02131F;stop-opacity:0"/>
	</linearGradient>
	<path style="fill:url(#SVGID_00000049902956889136429530000011851420977620584846_);" d="M32.4,31.4l0.1-0.1
		C32.4,31.4,32.4,31.4,32.4,31.4L32.4,31.4c0,0,0,0.1,0.1,0.1h0.1c0.1-0.1,3-1.6,4-2.2l-0.4-2.9l0,0L33.1,5.3c0-0.4-0.1-0.7-0.3-0.9
		c0,0,1.5,20.2,1.5,22.4C34.3,29.7,32.4,31.4,32.4,31.4z"/>
	
		<linearGradient id="SVGID_00000183961286771791127520000015128438780626805932_" gradientUnits="userSpaceOnUse" x1="-1373.4622" y1="1421.3975" x2="-1373.6329" y2="1421.3695" gradientTransform="matrix(24.6 0 0 -14.1159 33819.1562 20102.8359)">
		<stop  offset="0.2" style="stop-color:#02131F"/>
		<stop  offset="0.9" style="stop-color:#02131F;stop-opacity:0"/>
	</linearGradient>
	<path style="fill:url(#SVGID_00000183961286771791127520000015128438780626805932_);fill-opacity:0.8;" d="M31.7,32.8
		c0-0.1-0.1-0.2-0.2-0.1L7.3,46.4c0.6,0.4,1.2,0.5,2,0.2l22.6-9.1L31.7,32.8z"/>
	
		<linearGradient id="SVGID_00000042005113414622375220000007756301209684619440_" gradientUnits="userSpaceOnUse" x1="-1373.5236" y1="1420.4509" x2="-1373.5488" y2="1420.4875" gradientTransform="matrix(23.7 0 0 -13.709 32573.3301 19513.5137)">
		<stop  offset="0" style="stop-color:#02131F"/>
		<stop  offset="0.1" style="stop-color:#02131F"/>
		<stop  offset="1" style="stop-color:#02131F;stop-opacity:0"/>
	</linearGradient>
	<path style="opacity:0.8;fill:url(#SVGID_00000042005113414622375220000007756301209684619440_);enable-background:new    ;" d="
		M9.3,46.5l22.6-9.1L31.7,33c-0.4,1.2-1.1,2.5-3,3.5l0,0c-1.4,0.8-14.8,7.4-19.6,9.7c-0.3,0.2-0.7,0.3-0.9,0.4
		C8.6,46.8,8.9,46.7,9.3,46.5z"/>
	
		<linearGradient id="SVGID_00000092419906675583747990000013320713220909028247_" gradientUnits="userSpaceOnUse" x1="-1328.287" y1="1434.9308" x2="-1328.3076" y2="1434.9164" gradientTransform="matrix(4.7 0 0 -27.828 6277.168 39947.875)">
		<stop  offset="0.3" style="stop-color:#02131F"/>
		<stop  offset="0.3" style="stop-color:#02131F"/>
		<stop  offset="0.8" style="stop-color:#02131F;stop-opacity:0"/>
	</linearGradient>
	<path style="fill:url(#SVGID_00000092419906675583747990000013320713220909028247_);" d="M32.5,31.3c-0.1,0.1-0.1,0.1-0.1,0.1
		s0,0.2,0.2,0.1c0.1-0.1,3-1.6,4-2.2l-3.5-24C33,4.4,32.6,4,31.9,3.7l0.4,27.8L32.5,31.3z"/>
	
		<linearGradient id="SVGID_00000048479082909039720390000005385735269493463182_" gradientUnits="userSpaceOnUse" x1="-1328.2856" y1="1434.9314" x2="-1328.2996" y2="1434.9205" gradientTransform="matrix(4.7 0 0 -27.828 6277.168 39947.875)">
		<stop  offset="0.4" style="stop-color:#27343C"/>
		<stop  offset="1" style="stop-color:#3B474E;stop-opacity:0"/>
	</linearGradient>
	<path style="fill:url(#SVGID_00000048479082909039720390000005385735269493463182_);" d="M32.5,31.3c-0.1,0.1-0.1,0.1-0.1,0.1
		s0,0.2,0.2,0.1c0.1-0.1,3-1.6,4-2.2l-3.5-24C33,4.4,32.6,4,31.9,3.7l0.4,27.8L32.5,31.3z"/>
	
		<linearGradient id="SVGID_00000118388096961466725390000012594208859042838692_" gradientUnits="userSpaceOnUse" x1="-1373.1085" y1="1439.3169" x2="-1372.7255" y2="1438.9174" gradientTransform="matrix(22.3 0 0 -40.3 30626.4707 58040.7422)">
		<stop  offset="0" style="stop-color:#24303A;stop-opacity:0"/>
		<stop  offset="0" style="stop-color:#25323B;stop-opacity:0"/>
		<stop  offset="0.1" style="stop-color:#27343C"/>
	</linearGradient>
	<path style="fill:url(#SVGID_00000118388096961466725390000012594208859042838692_);" d="M5.1,44.4C4.4,42.8,0.4,35,4.8,20H3.1
		c-0.9,3-1.6,4.8-2,7.5c0,0-0.2,1-0.3,2.1S0.7,31.3,0.7,32c0,6,1.5,9.5,1.5,9.5c1.6,5,4.4,9.5,8.2,12.9c3.3,2.9,8.4,5.1,12.6,5.9
		C22.3,60.2,10.3,55.1,5.1,44.4z"/>
	
		<linearGradient id="SVGID_00000114045612065607367880000014639903289859188667_" gradientUnits="userSpaceOnUse" x1="-1089.8308" y1="1366.3185" x2="-1089.8308" y2="1367.3308" gradientTransform="matrix(0.9 0 0 -4.7414 1012.7994 6515.6909)">
		<stop  offset="0.3" style="stop-color:#A5ABAF"/>
		<stop  offset="1" style="stop-color:#A5ABAF;stop-opacity:0"/>
	</linearGradient>
	<path style="fill:url(#SVGID_00000114045612065607367880000014639903289859188667_);" d="M32.4,32.6h-0.9l0,0c0.1,0,0.2,0,0.2,0.1
		l0.2,4.6l0,0H32l0.2-4.6C32.2,32.6,32.3,32.5,32.4,32.6L32.4,32.6L32.4,32.6z"/>
	
		<linearGradient id="SVGID_00000036949015554361884760000001917517174222762682_" gradientUnits="userSpaceOnUse" x1="-1376.2755" y1="1442.9958" x2="-1376.2755" y2="1441.9958" gradientTransform="matrix(31.3 0 0 -61 43125.0742 88025.0469)">
		<stop  offset="0" style="stop-color:#DEE0DD"/>
		<stop  offset="0" style="stop-color:#C5C9C7"/>
		<stop  offset="0" style="stop-color:#9EA4A5"/>
		<stop  offset="0" style="stop-color:#82898C"/>
		<stop  offset="0" style="stop-color:#71797D"/>
		<stop  offset="0" style="stop-color:#6B7378"/>
		<stop  offset="0.2" style="stop-color:#333F47"/>
		<stop  offset="0.5" style="stop-color:#27343C"/>
		<stop  offset="0.8" style="stop-color:#333F47"/>
		<stop  offset="1" style="stop-color:#434D54"/>
	</linearGradient>
	<path style="fill:url(#SVGID_00000036949015554361884760000001917517174222762682_);" d="M42,2.3c10.5,4,20.4,15,20.4,28.9
		C62.4,48,49,61.7,32,61.7v1.6c17,0,31.3-14,31.3-31.3C63.3,18.2,54.5,6.6,42,2.3z"/>
	
		<linearGradient id="SVGID_00000101810648367240683510000008680032055752539022_" gradientUnits="userSpaceOnUse" x1="-500.4771" y1="1060.4213" x2="-499.4771" y2="1060.4213" gradientTransform="matrix(0.3 0 0 -1 182.1427 1061.1213)">
		<stop  offset="0" style="stop-color:#DEE0DD"/>
		<stop  offset="0" style="stop-color:#C5C9C7"/>
		<stop  offset="0" style="stop-color:#9EA4A5"/>
		<stop  offset="0" style="stop-color:#82898C"/>
		<stop  offset="0" style="stop-color:#71797D"/>
		<stop  offset="0" style="stop-color:#6B7378"/>
		<stop  offset="0.2" style="stop-color:#333F47"/>
		<stop  offset="0.5" style="stop-color:#27343C"/>
		<stop  offset="0.8" style="stop-color:#333F47"/>
		<stop  offset="1" style="stop-color:#434D54"/>
	</linearGradient>
	<path style="fill:url(#SVGID_00000101810648367240683510000008680032055752539022_);" d="M32.3,0.7c-0.1,0-0.2,0-0.3,0
		C32.1,0.7,32.2,0.7,32.3,0.7L32.3,0.7z"/>
	
		<linearGradient id="SVGID_00000024717403852033804790000013985499092097341353_" gradientUnits="userSpaceOnUse" x1="-1374.5721" y1="1439.7478" x2="-1374.785" y2="1439.2638" gradientTransform="matrix(26.3907 0 0 -40.9 36327.4414 58893.4688)">
		<stop  offset="0.7" style="stop-color:#27343C"/>
		<stop  offset="0.7" style="stop-color:#2B373F"/>
		<stop  offset="0.7" style="stop-color:#36424A"/>
		<stop  offset="0.7" style="stop-color:#49545B"/>
		<stop  offset="0.8" style="stop-color:#646D73;stop-opacity:0"/>
		<stop  offset="0.8" style="stop-color:#868D92;stop-opacity:0"/>
		<stop  offset="0.8" style="stop-color:#B0B5B8;stop-opacity:0"/>
		<stop  offset="0.8" style="stop-color:#E1E3E4;stop-opacity:0"/>
		<stop  offset="0.8" style="stop-color:#FFFFFF;stop-opacity:0"/>
	</linearGradient>
	<path style="fill:url(#SVGID_00000024717403852033804790000013985499092097341353_);" d="M58.8,20.2C51.8,4.1,36,3.2,35.1,3.1
		c0,0,0,0-0.1,0l0,0c12.1,2.2,19.8,10.1,22.5,18.4v0.1c1.2,3.2,1.8,6.6,1.9,10.3c0.1,3.5-0.7,7.4-2.2,11C57.1,43.4,57,44,56.9,44
		h1.6C63.3,35,61.2,25.9,58.8,20.2z"/>
	<path class="st19" d="M2.2,32.1C2.2,15.7,15.5,2.2,32,2.2l0,0c16.5,0,29.8,13.4,29.8,29.9l0,0c0,16.4-13.3,29.7-29.8,29.7l0,0
		C15.5,61.8,2.2,48.5,2.2,32.1L2.2,32.1z M11.5,11.5c-5.3,5.3-8.6,12.6-8.6,20.6l0,0c0,8,3.3,15.3,8.5,20.5l0,0
		c5.3,5.2,12.6,8.5,20.6,8.5l0,0c8,0,15.3-3.2,20.5-8.5l0,0c5.3-5.2,8.5-12.5,8.5-20.5l0,0c0-8-3.3-15.3-8.5-20.6l0,0
		C47.3,6.2,40,2.9,32,2.9l0,0C24,2.9,16.7,6.2,11.5,11.5L11.5,11.5z"/>
	<path class="st20" d="M7.9,44.8L7.9,44.8l20.4-14.7c1.1,0.6,2.9,1.4,3.1,1.4c0.2,0.1,0.2-0.1,0.2-0.1l-2.5-2.1
		c-0.3-0.2-0.4-0.5-0.4-0.8l2.4-24.1C31,4.5,31,4.7,30.9,4.8c-0.1,0.2-0.1,0.3-0.1,0.5l-3.5,24.1L8.1,44.5C8,44.6,7.9,44.7,7.9,44.8
		z"/>
</g>
</svg>
